<svg width="180" height="180" viewBox="0 0 120 120" fill="none" xmlns="http://www.w3.org/2000/svg">
<rect width="180" height="180" rx="6" fill="white"/>
<path d="M14 42H107V78.3612H14V42Z" fill="#FCAF26"/>
<path d="M101.603 72.0147C101.603 72.8433 101.095 73.5228 100.479 73.5228H20.3242C19.7051 73.5228 19.2003 72.8433 19.2003 72.0147V48.6988C19.2003 47.8702 19.7051 47.1908 20.3242 47.1908H100.476C101.095 47.1908 101.6 47.867 101.6 48.6988L101.603 72.0147Z" fill="#231F20"/>
<path d="M92.9292 63.7444C92.9324 63.7888 92.9356 63.8365 92.9356 63.8809V63.8714C92.9356 63.8301 92.9324 63.7857 92.9292 63.7444Z" fill="#204595"/>
<path d="M39.9669 69.0336C38.6207 70.4019 36.6269 70.713 33.6871 70.713H29.5122C23.6642 70.713 21.8069 69.259 21.8069 64.2459V61.5124H27.4104C27.4104 61.7696 27.3819 62.0267 27.3819 62.2521C27.3819 64.7571 27.9756 65.5571 30.3186 65.5571H33.014C35.1697 65.5571 35.5475 64.7031 35.5475 62.6236V49.7783H41.5289V64.646C41.532 66.4397 40.9098 68.0652 39.9669 69.0336ZM64.1304 57.0391C64.1304 55.3882 63.1335 54.7024 60.9778 54.7024H56.1807C52.301 54.7024 51.3581 55.2421 51.3581 58.7757V61.6553C51.3581 64.9031 52.6788 65.5571 56.1807 65.5571H59.6571C62.9716 65.5571 64.2923 65.1857 64.2923 62.7093V62.4807H70.3562C70.3816 63.0236 70.4102 63.5062 70.4102 63.9919C70.4102 66.554 69.8451 68.2653 68.4418 69.3479C66.9592 70.5162 64.6162 70.7448 61.1937 70.7448H54.5107C51.4121 70.7448 49.2278 70.6019 47.5324 69.205C45.8879 67.8367 45.2688 65.9572 45.2688 63.1379V57.4963C45.2688 51.2863 47.8277 49.5211 54.5107 49.5211H61.1937C64.6162 49.5211 66.9338 49.6926 68.3624 50.8609C69.6292 51.8864 70.1689 53.5944 70.1689 56.0739C70.1689 56.4454 70.1689 56.8423 70.1403 57.2423H64.1304V57.0391ZM74.2581 70.4845V49.7783H91.9069C96.2977 49.7783 98.428 51.6578 98.428 55.5596C98.428 57.782 97.5136 59.1472 95.5453 59.9472C98.0248 60.3727 99.1011 61.9124 99.1011 64.8745C99.1011 68.8621 97.1612 70.4845 92.8213 70.4845H74.2581ZM92.2847 56.1279C92.2847 55.1025 91.6656 54.4199 90.7481 54.4199H80.2394V57.836H90.7481C91.745 57.8391 92.2847 57.2391 92.2847 56.1279ZM92.9324 63.8777C92.9324 62.7665 92.2847 62.0553 91.2878 62.0553H80.2394V65.7857H91.2878C92.3387 65.7857 92.9324 65.1 92.9324 63.8777Z" fill="white"/>
<path d="M21.8069 49.6387H29.9535V57.8932H21.8069V49.6387Z" fill="#FCAF26"/>
<path d="M27.7597 53.823C27.7597 53.823 27.893 53.8167 27.9311 53.8167C27.9692 53.8135 28.0422 53.8103 28.0835 53.8992C28.0962 53.9214 28.1629 54.1405 28.1724 54.1659C28.1819 54.1913 28.201 54.312 28.1121 54.331C28.0962 54.3342 27.9375 54.3659 27.9375 54.3659L27.7597 53.823ZM27.4549 52.8166C27.4549 52.8166 27.6295 52.8293 27.6708 52.8325C27.712 52.8357 27.7438 52.8579 27.7597 52.896C27.7692 52.9214 27.8359 53.1214 27.8422 53.1436C27.8486 53.1658 27.8835 53.2865 27.7851 53.2897C27.7692 53.2897 27.5977 53.2897 27.5977 53.2897L27.4549 52.8166ZM26.8453 52.2388C26.8453 52.2388 27.5755 52.3499 27.6422 52.3594C27.947 52.4102 28.0771 52.6706 28.1152 52.7912C28.1279 52.8293 28.2137 53.1119 28.2232 53.1436C28.3057 53.3817 28.0962 53.5024 28.0962 53.5024C28.0962 53.5024 28.3375 53.55 28.4168 53.7532C28.4168 53.7532 28.5692 54.2231 28.5851 54.2707C28.601 54.3183 28.7089 54.6929 28.3375 54.8326C28.2867 54.8517 27.693 55.0199 27.693 55.0199L26.8453 52.2388ZM23.8927 51.7721L25.0865 51.9626L25.2801 52.6515L25.0007 52.6261C25.0007 52.6261 25.6865 54.9533 25.7119 55.0231C25.7976 55.2866 25.8516 55.5565 25.4738 55.6866C25.4262 55.7025 25.0738 55.8105 25.0325 55.82C24.8166 55.874 24.5404 55.874 24.4325 55.5184L23.9943 54.0802L24.5309 54.0389C24.5309 54.0389 24.7531 54.7755 24.769 54.8326C24.8166 54.9882 24.8484 55.0453 25.0007 55.0104C25.1119 54.9818 25.1087 54.9342 25.0801 54.8326C25.0674 54.7882 24.4229 52.5753 24.4229 52.5753L24.1181 52.5499L23.8927 51.7721Z" fill="#231F20"/>
<path d="M23.8927 51.7721L25.0865 51.9626L25.2801 52.6515L25.0007 52.6261C25.0007 52.6261 25.6865 54.9533 25.7119 55.0231C25.7976 55.2866 25.8516 55.5565 25.4738 55.6866C25.4262 55.7025 25.0738 55.8105 25.0325 55.82C24.8166 55.874 24.5404 55.874 24.4325 55.5184L23.9943 54.0802L24.5309 54.0389C24.5309 54.0389 24.7531 54.7755 24.769 54.8326C24.8166 54.9882 24.8484 55.0453 25.0007 55.0104C25.1119 54.9818 25.1087 54.9342 25.0801 54.8326C25.0674 54.7882 24.4229 52.5753 24.4229 52.5753L24.1181 52.5499L23.8927 51.7721Z" stroke="#231F20" stroke-width="0.00802806" stroke-miterlimit="10"/>
<path d="M25.677 52.0451C25.7278 52.0546 26.1119 52.1181 26.1786 52.1308C26.2421 52.1435 26.6008 52.2038 26.6961 52.553C26.7183 52.6387 26.9088 53.2515 26.9088 53.2515L26.4548 53.2483C26.4548 53.2483 26.3691 52.9531 26.3532 52.9023C26.3088 52.7784 26.3056 52.7435 26.1691 52.7245C26.0326 52.7086 26.0389 52.7689 26.0707 52.8705C26.0865 52.9245 26.4993 54.369 26.5183 54.4293C26.5659 54.5944 26.5786 54.6579 26.7247 54.6294C26.8517 54.5976 26.8263 54.5278 26.7945 54.4071C26.7469 54.2484 26.7024 54.0928 26.6548 53.9341L27.1056 53.8992C27.1056 53.8992 27.3342 54.6675 27.3469 54.7024C27.3596 54.7373 27.4549 55.0484 27.1818 55.1818C27.1469 55.1977 27.1469 55.2008 27.112 55.2135C27.0771 55.2262 26.712 55.3342 26.677 55.3437C26.6421 55.3532 26.2961 55.4675 26.1818 55.1024C26.1691 55.0675 25.4357 52.5213 25.3976 52.3975C25.3246 52.1816 25.3944 52.0038 25.677 52.0451Z" fill="#231F20"/>
<path d="M25.677 52.0451C25.7278 52.0546 26.1119 52.1181 26.1786 52.1308C26.2421 52.1435 26.6008 52.2038 26.6961 52.553C26.7183 52.6387 26.9088 53.2515 26.9088 53.2515L26.4548 53.2483C26.4548 53.2483 26.3691 52.9531 26.3532 52.9023C26.3088 52.7784 26.3056 52.7435 26.1691 52.7245C26.0326 52.7086 26.0389 52.7689 26.0707 52.8705C26.0865 52.9245 26.4993 54.369 26.5183 54.4293C26.5659 54.5944 26.5786 54.6579 26.7247 54.6294C26.8517 54.5976 26.8263 54.5278 26.7945 54.4071C26.7469 54.2484 26.7024 54.0928 26.6548 53.9341L27.1056 53.8992C27.1056 53.8992 27.3342 54.6675 27.3469 54.7024C27.3596 54.7373 27.4549 55.0484 27.1818 55.1818C27.1469 55.1977 27.1469 55.2008 27.112 55.2135C27.0771 55.2262 26.712 55.3342 26.677 55.3437C26.6421 55.3532 26.2961 55.4675 26.1818 55.1024C26.1691 55.0675 25.4357 52.5213 25.3976 52.3975C25.3246 52.1816 25.3944 52.0038 25.677 52.0451Z" stroke="#231F20" stroke-width="0.00802806" stroke-miterlimit="10"/>
<path d="M23.4102 51.3689C23.6356 51.407 27.5311 52.0769 27.7025 52.1087C27.8771 52.1404 28.1661 52.1817 28.2899 52.5658C28.3121 52.642 28.8423 54.312 28.8645 54.385C28.8867 54.458 29.0391 54.839 28.6042 54.9819C28.5407 55.0041 24.8769 56.2105 24.788 56.2391C24.6992 56.2677 24.3531 56.4201 24.2102 55.8931C24.2102 55.8931 23.0927 52.1468 23.0419 51.9785C23.0006 51.842 22.9689 51.7309 22.9625 51.6451C22.9403 51.3372 23.1213 51.3277 23.2673 51.3499C23.3245 51.3562 23.3753 51.3626 23.4102 51.3689ZM23.3086 51.1594C23.407 51.1753 27.6613 51.9182 27.7692 51.9341C27.8803 51.9531 28.2962 52.0007 28.4645 52.5055C28.4962 52.6039 29.0264 54.2866 29.0518 54.3691C29.1439 54.6803 29.1058 55.0041 28.7185 55.1438C28.5915 55.1882 24.9404 56.4137 24.896 56.4296C24.7944 56.4645 24.261 56.7153 24.0642 56.0581C24.0642 56.0581 22.8832 52.1309 22.8482 52.0103C22.7943 51.8261 22.7593 51.6705 22.7593 51.5563C22.7593 51.0483 23.2133 51.1499 23.3086 51.1594Z" fill="#231F20"/>
</svg>
