<svg width="180" height="180" viewBox="0 0 120 120" fill="none" xmlns="http://www.w3.org/2000/svg">
<rect width="180" height="180" rx="6" fill="white"/>
<g clip-path="url(#clip0_198_1320)">
<path fill-rule="evenodd" clip-rule="evenodd" d="M18.08 93.9487H14L18.16 73.9556H26.9675C28.4825 73.9556 29.6625 74.1142 30.5075 74.4264C31.3475 74.7437 32.0275 75.3153 32.55 76.1538C33.0675 76.9923 33.3275 78.002 33.3275 79.1931C33.3275 80.8953 32.825 82.2978 31.8125 83.4007C30.805 84.5086 29.275 85.1935 27.2275 85.4529C27.75 85.9288 28.24 86.5508 28.7025 87.3238C29.6125 88.8875 30.63 91.0983 31.7475 93.9512H27.3675C27.0175 92.8257 26.3225 91.0706 25.2925 88.6835C24.7325 87.3943 24.1375 86.5231 23.505 86.0824C23.1175 85.818 22.4375 85.6871 21.4725 85.6871H19.805L18.085 93.9538L18.08 93.9487ZM20.4175 82.6957H22.585C24.78 82.6957 26.235 82.5647 26.9525 82.3003C27.6725 82.0359 28.2325 81.6205 28.64 81.0539C29.0475 80.4899 29.25 79.8956 29.25 79.2762C29.25 78.5459 28.96 78.002 28.3725 77.6344C28.0125 77.4153 27.23 77.3096 26.03 77.3096H21.5375L20.42 82.6982L20.4175 82.6957ZM34.4925 87.9357C34.4925 85.2414 35.24 83.096 36.7425 81.4946C38.245 79.8931 40.2175 79.0924 42.6625 79.0924C44.78 79.0924 46.4325 79.6841 47.625 80.865C48.8125 82.0485 49.4075 83.6349 49.4075 85.6367C49.4075 87.986 48.6625 90.0256 47.175 91.7379C45.6875 93.4552 43.695 94.3113 41.2 94.3113C39.845 94.3113 38.645 94.0369 37.6 93.493C36.555 92.944 35.775 92.166 35.2625 91.1663C34.75 90.1616 34.49 89.0864 34.49 87.9357H34.4925ZM45.555 85.1205C45.555 84.1838 45.2875 83.436 44.75 82.8719C44.215 82.3079 43.525 82.0259 42.68 82.0259C41.835 82.0259 41.1 82.2902 40.4525 82.8165C39.805 83.3428 39.3025 84.1108 38.9425 85.1104C38.5825 86.1151 38.4025 87.0418 38.4025 87.8853C38.4025 88.9328 38.68 89.7612 39.24 90.3756C39.8 90.99 40.5025 91.2972 41.3475 91.2972C42.41 91.2972 43.2975 90.8314 44.0175 89.9048C45.0425 88.5979 45.5575 87.0015 45.5575 85.1205H45.555ZM64.1225 93.9487H60.44L60.7625 92.4001C60.06 93.085 59.3675 93.5735 58.6825 93.8707C58.0025 94.1628 57.235 94.3138 56.3775 94.3138C54.89 94.3138 53.6825 93.8027 52.76 92.7728C51.835 91.748 51.3725 90.2321 51.3725 88.2202C51.3725 85.8936 52.0325 83.7935 53.35 81.9125C54.6675 80.0316 56.41 79.0924 58.575 79.0924C60.535 79.0924 62.0025 79.8704 62.9825 81.4291L64.595 73.9556H68.4725L64.12 93.9487H64.1225ZM55.145 88.0666C55.145 89.104 55.4075 89.9199 55.93 90.5066C56.4575 91.0882 57.1025 91.3829 57.87 91.3829C58.5825 91.3829 59.2475 91.1411 59.8625 90.6526C60.4825 90.1641 60.9725 89.4138 61.34 88.4091C61.71 87.4094 61.895 86.445 61.895 85.5184C61.895 84.4709 61.6125 83.6198 61.05 82.9726C60.4825 82.3255 59.83 82.0007 59.09 82.0007C57.94 82.0007 56.9925 82.6377 56.2525 83.9194C55.5125 85.1986 55.1425 86.581 55.1425 88.0716L55.145 88.0666Z" fill="#B02923"/>
<path fill-rule="evenodd" clip-rule="evenodd" d="M71.0275 86.1026C71.0275 84.9191 71.2025 83.6727 71.555 82.3608C72.0175 80.6007 72.72 79.0798 73.6625 77.7855C74.605 76.4913 75.7975 75.4715 77.23 74.7186C78.6675 73.9682 80.2975 73.593 82.1325 73.593C84.59 73.593 86.5725 74.361 88.085 75.9021C89.595 77.4431 90.355 79.4802 90.355 82.0234C90.355 84.136 89.865 86.1807 88.88 88.1523C87.895 90.1314 86.555 91.6523 84.87 92.7175C83.1825 93.7826 81.275 94.3139 79.14 94.3139C77.2925 94.3139 75.74 93.8909 74.4825 93.0423C73.23 92.1962 72.3375 91.1487 71.815 89.8973C71.2925 88.6458 71.03 87.3792 71.03 86.1051L71.0275 86.1026ZM75.075 86.0245C75.075 87.4019 75.49 88.5577 76.3175 89.4818C77.15 90.4135 78.24 90.8768 79.5925 90.8768C80.6925 90.8768 81.75 90.5092 82.7625 89.7789C83.78 89.0437 84.615 87.9307 85.28 86.4425C85.94 84.9493 86.2725 83.5015 86.2725 82.0863C86.2725 80.5075 85.8525 79.2712 85.015 78.3722C84.175 77.4733 83.1075 77.0276 81.8075 77.0276C79.815 77.0276 78.195 77.9668 76.9425 79.8428C75.695 81.7237 75.07 83.781 75.07 86.0245H75.075ZM95.4475 73.9556H99.325L98.59 77.501H94.7075L95.4475 73.9556ZM94.3025 79.4575H98.185L95.1725 93.9513H91.29L94.3025 79.4575ZM98.965 93.9488L103.122 73.9556H107L102.845 93.9488H98.9625H98.965Z" fill="#F1A400"/>
<path fill-rule="evenodd" clip-rule="evenodd" d="M77.8275 37.3082C77.8275 37.3082 71.73 42.873 63.58 43.2457C55.43 43.6184 50.4825 36.3412 54.1075 32.9872C57.7325 29.6332 61.2875 31.8491 63.8675 34.8783C66.4475 37.9075 71.205 38.6906 77.8275 37.3082ZM39.34 43.1198C39.34 43.1198 36.9475 59.0917 52.18 65.8828C67.4125 72.6739 84.645 58.588 81.3975 43.3716C81.3975 43.3716 72.1925 54.1966 58.1725 57.0797C44.1525 59.9629 38.57 50.2886 39.34 43.1198Z" fill="#B02923"/>
<path fill-rule="evenodd" clip-rule="evenodd" d="M62.045 25.141C62.045 25.141 47.1875 31.4235 51.93 40.7301C56.675 50.0367 76.5275 42.742 80.15 38.0887L81.15 40.9819C81.15 40.9819 69.4125 56.0725 53.18 55.8207C39.475 55.6092 38.4975 41.5888 44.2375 33.2163C47.2925 28.7594 54.3075 24.1312 62.045 25.141ZM59.11 28.2155C59.11 28.2155 62.73 25.141 67.475 25.141C72.22 25.141 74.9975 29.5072 72.845 31.3605C70.6925 33.2138 68.655 31.8314 67.195 30.0008C65.7375 28.1702 62.98 27.5885 59.11 28.2155Z" fill="#F1A400"/>
<path fill-rule="evenodd" clip-rule="evenodd" d="M80.275 46.1363C79.51 45.3305 84.02 64.246 59.1725 66.0061C59.1725 66.0061 77.5275 63.7424 80.275 46.1363ZM68.0525 41.6995C68.0525 41.6995 62.0875 43.7014 57.5175 41.1531C52.9475 38.6049 55.185 35.5303 57.54 37.4768C59.8925 39.4232 58.7375 42.5078 68.0525 41.697V41.6995ZM43.565 49.1554C43.565 49.1554 36.6975 34.8177 54.0525 27.6489C54.0525 27.6489 40.6925 33.6846 43.565 49.1554ZM64.8525 25.9215C64.8525 25.9215 68.3475 24.9143 70.97 26.5183C73.5925 28.1223 72.25 29.8522 70.9075 28.6561C69.565 27.4626 70.28 25.6974 64.8525 25.9215Z" fill="white"/>
</g>
<defs>
<clipPath id="clip0_198_1320">
<rect width="93" height="69.3113" fill="white" transform="translate(14 25)"/>
</clipPath>
</defs>
</svg>
