<svg width="180" height="180" viewBox="0 0 120 120" fill="none" xmlns="http://www.w3.org/2000/svg">
<rect width="180" height="180" rx="6" fill="white"/>
<g clip-path="url(#clip0_198_1324)">
<path d="M75.4079 56.4969L76.1836 54.3376L76.9112 56.4969H75.4079ZM75.1616 52.7153L72.6461 59.3162H74.4716L74.9541 57.9183H77.3289L77.4901 58.3899C77.7169 59.069 78.0669 59.3139 78.852 59.3139H79.8085L77.2421 52.7153H75.1616Z" fill="#0F218B"/>
<path d="M62.3336 57.7887C61.3221 57.7887 60.972 57.0817 60.972 55.9877C60.972 54.8658 61.4736 54.2338 62.3336 54.2338C63.3461 54.2338 63.7185 54.9408 63.7185 55.9892C63.7185 57.1303 63.227 57.7902 62.3374 57.7902L62.3336 57.7887ZM62.3374 52.5939C60.7069 52.5924 59.0901 53.7085 59.0901 55.9892C59.0901 58.2052 60.4422 59.4404 62.3336 59.4404C64.0553 59.4404 65.606 58.3081 65.606 55.9892C65.606 53.8107 64.2444 52.5939 62.3336 52.5939" fill="#0F218B"/>
<path d="M69.2413 55.7516H68.427V54.2066H69.2964C70.1006 54.2066 70.3751 54.4332 70.3751 54.9799C70.3751 55.5265 70.0536 55.7531 69.2399 55.7531L69.2413 55.7516ZM72.2664 54.9894C72.2664 53.4996 71.3838 52.7168 69.5047 52.7168H66.6119V59.3176H68.427V57.2135H69.5614L70.0815 58.3546C70.3758 59.005 70.706 59.3162 71.5381 59.3162H72.5124L71.1783 56.8265C71.8885 56.4969 72.2664 55.7965 72.2664 54.9872" fill="#0F218B"/>
<path d="M103.099 52.7153H102.142L100.516 55.7141L98.8052 52.7153H96.9724V59.3162H98.7039V55.3433L99.8572 57.418H101.115L102.259 55.3433V59.3162H103.999V53.6114C103.999 53.017 103.754 52.7153 103.101 52.7153" fill="#0F218B"/>
<path d="M94.739 52.7153H93.7456V59.3162H95.6182V53.6114C95.6182 53.017 95.3534 52.7153 94.739 52.7153Z" fill="#0F218B"/>
<path d="M92.0626 52.7153H87.0876V54.3464H89.121V59.3162H90.9936V54.3464H92.9511V53.6107C92.9511 53.0162 92.6864 52.7146 92.0626 52.7146" fill="#0F218B"/>
<path d="M85.4042 52.7153H84.5529V56.4873L82.0186 52.7153H80.3456V59.3162H82.0854V55.6575L84.6389 59.3162H86.2938V53.6114C86.2938 53.017 86.0287 52.7153 85.4049 52.7153" fill="#0F218B"/>
<path d="M57.7665 52.7153H52.7915V54.3464H54.8249V59.3162H56.6975V54.3464H58.655V53.6107C58.655 53.0162 58.3903 52.7146 57.7665 52.7146" fill="#0F218B"/>
<path d="M49.0778 57.7887C48.0659 57.7887 47.7158 57.0817 47.7158 55.9877C47.7158 54.8658 48.2174 54.2338 49.0778 54.2338C50.0893 54.2338 50.4585 54.9408 50.4585 55.9877C50.4585 57.1288 49.9663 57.7887 49.0778 57.7887ZM49.0778 52.5924C47.448 52.5924 45.8309 53.7085 45.8309 55.9892C45.8309 58.2051 47.1833 59.4404 49.0746 59.4404C50.7963 59.4404 52.347 58.3081 52.347 55.9892C52.347 53.8107 50.9851 52.5939 49.0746 52.5939" fill="#0F218B"/>
<path d="M40.7052 53.6298C40.4778 52.9515 40.0048 52.7153 39.219 52.7153H38.2464L40.5065 58.2332C40.8185 58.9969 41.2423 59.4022 42.0192 59.4022C42.2235 59.4062 42.4267 59.3703 42.6173 59.2963L40.7552 53.7785L40.7052 53.6298Z" fill="#0F218B"/>
<path d="M42.4025 56.4402C42.3198 56.6623 42.3161 56.906 42.3922 57.1304L43.0308 59.0212C43.2305 58.814 43.3853 58.5677 43.4854 58.2979L45.7551 52.7153H43.7878L42.4025 56.4402Z" fill="#0F218B"/>
<path d="M39.7943 67.4097C39.4313 67.2091 39.1367 66.9044 38.9483 66.5349C38.7418 66.1464 38.6383 65.6717 38.6378 65.1106C38.6284 64.6321 38.7438 64.1595 38.9726 63.7392C39.177 63.3609 39.4809 63.0456 39.8515 62.8275C40.2221 62.6094 40.6452 62.4967 41.0752 62.5017C41.5785 62.5017 41.9709 62.6133 42.2524 62.8365C42.3694 62.9269 42.4574 63.0497 42.5055 63.1896C42.5593 63.3694 42.5842 63.5567 42.5791 63.7444V64.241C42.4034 64.1581 42.2213 64.0894 42.0346 64.0357C41.8627 63.9919 41.6859 63.9709 41.5086 63.9732C40.7508 63.9732 40.3716 64.3493 40.3712 65.1017C40.3712 65.4642 40.4572 65.7428 40.6294 65.9375C40.8016 66.1325 41.0561 66.2318 41.3945 66.2318C41.6067 66.2372 41.8186 66.215 42.0251 66.1656C42.2223 66.1056 42.4141 66.0288 42.5982 65.9361V67.3023C42.356 67.4406 42.0961 67.5453 41.8257 67.6135C41.5575 67.674 41.2832 67.7029 41.0083 67.6995C40.5856 67.707 40.168 67.6073 39.7943 67.4097Z" fill="#0F218B"/>
<path d="M43.6796 61.9588C43.5951 61.8827 43.5285 61.7888 43.4846 61.6838C43.4407 61.5789 43.4206 61.4655 43.4258 61.3519C43.4211 61.2374 43.4423 61.1233 43.4879 61.0182C43.5336 60.913 43.6023 60.8196 43.6892 60.7449C43.8816 60.5984 44.117 60.5195 44.3589 60.5204C44.6007 60.5213 44.8354 60.602 45.0267 60.75C45.1102 60.8272 45.1767 60.9208 45.222 61.025C45.2674 61.1292 45.2906 61.2418 45.2902 61.3554C45.2898 61.469 45.2658 61.5814 45.2196 61.6852C45.1735 61.7891 45.1063 61.8823 45.0223 61.9588C44.8306 62.1128 44.5897 62.1924 44.344 62.1832C44.1022 62.1944 43.8651 62.1143 43.6796 61.9588ZM43.4935 62.6261H44.3823C44.6682 62.6261 44.8801 62.7215 45.0179 62.9123C45.1557 63.1031 45.2242 63.3581 45.2232 63.6774V67.5767H43.4935V62.6261Z" fill="#0F218B"/>
<path d="M53.6097 63.0226C53.904 63.3699 54.051 63.8525 54.051 64.4705V67.5767H52.3244V64.6905C52.3244 64.4418 52.2812 64.265 52.1955 64.1601C52.1461 64.105 52.0844 64.0621 52.0154 64.0346C51.9465 64.0072 51.8723 63.996 51.7981 64.0019C51.532 64.0109 51.2767 64.1085 51.0722 64.2793C51.0795 64.3427 51.083 64.4066 51.0816 64.4705V67.5767H49.3519V64.6905C49.3519 64.4418 49.309 64.265 49.2233 64.1601C49.1735 64.105 49.1119 64.0621 49.0429 64.0346C48.9743 64.0072 48.8998 63.996 48.8259 64.0019C48.5905 64.0019 48.3515 64.1135 48.1094 64.3366V67.5738H46.3797V62.6261H47.2686C47.657 62.6261 47.9151 62.8076 48.0426 63.1705C48.4755 62.7247 48.96 62.5018 49.4954 62.5018C49.7542 62.4967 50.0102 62.5559 50.2408 62.6739C50.4574 62.7888 50.6392 62.9605 50.766 63.1705C51.2039 62.7384 51.7953 62.4978 52.4104 62.5018C52.9137 62.5018 53.3133 62.6754 53.6097 63.0226Z" fill="#0F218B"/>
<path d="M59.5498 65.4837H56.4913C56.5557 65.7642 56.6863 65.9683 56.8835 66.0958C57.0806 66.2231 57.3523 66.2863 57.693 66.2863C57.9761 66.289 58.259 66.2684 58.539 66.2245C58.8347 66.1668 59.1221 66.0722 59.3945 65.9428V67.2229C59.0988 67.388 58.7797 67.5073 58.4485 67.5768C58.1064 67.6523 57.7571 67.6908 57.4067 67.6916C56.9608 67.6978 56.5205 67.5926 56.1259 67.3855C55.7445 67.1833 55.4307 66.8745 55.2224 66.4968C55.0026 66.1083 54.8925 65.6463 54.8925 65.1107C54.8925 64.5751 55.0057 64.1116 55.2318 63.7202C55.4422 63.3447 55.7511 63.034 56.1259 62.8219C56.4902 62.6162 56.9019 62.5092 57.3206 62.5114C57.995 62.5114 58.5345 62.7201 58.9392 63.1375C59.3436 63.5549 59.5456 64.2222 59.5453 65.1393L59.5498 65.4837ZM58.0047 64.5567C57.9981 64.3146 57.9312 64.1263 57.8135 63.9931C57.7518 63.9262 57.6762 63.8735 57.5923 63.8388C57.508 63.8042 57.4174 63.7882 57.3265 63.7923C56.8605 63.7923 56.5798 64.0471 56.4847 64.5567H58.0047Z" fill="#0F218B"/>
<path d="M64.8954 63.0175C65.2016 63.3608 65.3545 63.842 65.3545 64.461V67.5767H63.6213V64.7001C63.6213 64.2351 63.4207 64.0024 63.0194 64.0019C62.7456 64.0019 62.4844 64.1167 62.2357 64.3462V67.5767H60.5056V62.6261H61.3949C61.5722 62.6178 61.7474 62.6696 61.8916 62.7733C62.0229 62.8775 62.1197 63.0191 62.1688 63.1794C62.3656 62.9795 62.5931 62.8123 62.8428 62.6842C63.0967 62.5595 63.3768 62.4972 63.6596 62.5025C64.1758 62.502 64.5879 62.6737 64.8954 63.0175Z" fill="#0F218B"/>
<path d="M69.4994 66.1958C69.6144 66.1737 69.7704 66.134 69.9683 66.0766V67.4142C69.5019 67.6065 69.001 67.7009 68.4966 67.6915C67.847 67.6915 67.3719 67.4953 67.0724 67.1029C66.7728 66.7106 66.6231 66.1769 66.6231 65.502V64.0593H65.7436V62.6261H66.622V61.1746H67.5116C67.7979 61.1746 68.01 61.2702 68.1473 61.4615C68.2845 61.6528 68.3531 61.9076 68.3531 62.2259V62.6261H69.9401V64.0593H68.3531V65.3689C68.3531 65.9427 68.5987 66.2294 69.0891 66.2289C69.2267 66.2307 69.3639 66.2196 69.4994 66.1958Z" fill="#0F218B"/>
<path d="M71.8265 67.4097C71.4312 67.2127 71.0996 66.9078 70.87 66.5305C70.6248 66.1381 70.5022 65.6619 70.5022 65.1017C70.5022 64.5416 70.6266 64.0651 70.8753 63.6722C71.1069 63.2942 71.4392 62.9884 71.8356 62.7894C72.2215 62.5978 72.6468 62.498 73.078 62.498C73.5092 62.498 73.9345 62.5978 74.3208 62.7894C74.7165 62.9874 75.0481 63.2935 75.2769 63.6722C75.5225 64.0646 75.6451 64.5411 75.6451 65.1017C75.6451 65.6623 75.5207 66.1386 75.2727 66.5305C75.0404 66.907 74.7081 67.2114 74.3124 67.4097C73.9265 67.6013 73.5012 67.701 73.07 67.701C72.6388 67.701 72.2135 67.6013 71.8272 67.4097H71.8265ZM73.6952 65.9331C73.8426 65.729 73.9161 65.4519 73.9161 65.1017C73.9161 64.7515 73.8443 64.4742 73.7005 64.2696C73.6266 64.1746 73.5322 64.0977 73.4239 64.0448C73.3159 63.9919 73.1971 63.9644 73.077 63.9644C72.9565 63.9644 72.838 63.9919 72.7297 64.0448C72.6217 64.0977 72.5273 64.1746 72.4535 64.2696C72.3062 64.4732 72.2327 64.7506 72.2327 65.1017C72.2327 65.4529 72.3044 65.73 72.4483 65.9331C72.5221 66.0288 72.6168 66.1063 72.7252 66.1597C72.8335 66.213 72.953 66.2407 73.0735 66.2407C73.1944 66.2407 73.3138 66.213 73.4222 66.1597C73.5305 66.1063 73.6252 66.0288 73.6991 65.9331H73.6952Z" fill="#0F218B"/>
<path d="M76.3139 67.2994V65.9751C76.5695 66.091 76.8353 66.1824 77.1084 66.2481C77.3919 66.3224 77.6838 66.3609 77.9771 66.3628C78.2125 66.37 78.448 66.3525 78.6796 66.3106C78.827 66.2753 78.9005 66.2039 78.9005 66.0958C78.9022 66.0493 78.8893 66.0035 78.8635 65.9647C78.8381 65.926 78.8005 65.8964 78.7569 65.8802C78.596 65.8215 78.4295 65.7784 78.2603 65.7515C78.0558 65.7132 77.8684 65.672 77.696 65.6271C77.4553 65.5638 77.2226 65.4724 77.0032 65.3549C76.8088 65.2437 76.6486 65.0817 76.5396 64.8863C76.4191 64.6793 76.3585 64.4036 76.3585 64.0593C76.3529 63.8389 76.401 63.6204 76.4992 63.423C76.5977 63.2256 76.7426 63.0553 76.922 62.9271C77.2979 62.6436 77.8074 62.5018 78.4511 62.5018C79.0185 62.5018 79.4612 62.5879 79.7796 62.76C79.929 62.8342 80.0548 62.9483 80.1432 63.0896C80.2133 63.2138 80.2484 63.4065 80.2484 63.6679V64.1829C80.0339 64.0739 79.8071 63.9907 79.5731 63.935C79.3299 63.8688 79.0795 63.8335 78.8277 63.8298C78.5953 63.821 78.3627 63.8403 78.1345 63.8871C77.9976 63.9254 77.9294 63.9953 77.9294 64.0968C77.93 64.1417 77.9454 64.1852 77.9732 64.2206C78.0008 64.256 78.0391 64.2815 78.0823 64.2933C78.2536 64.3534 78.4292 64.3997 78.6075 64.4316C78.8688 64.4806 79.0983 64.5348 79.2961 64.5942C79.6915 64.709 79.991 64.8794 80.1948 65.1055C80.3982 65.3316 80.5003 65.671 80.5006 66.1237C80.5006 66.652 80.3 67.0468 79.898 67.3082C79.4964 67.5697 78.9388 67.7004 78.2251 67.7004C77.455 67.7008 76.8179 67.5672 76.3139 67.2994Z" fill="#0F218B"/>
<path d="M18.5086 70.964C19.0509 70.6645 20.4355 69.675 21.9121 66.2694C20.6444 63.8982 19.3032 60.4771 18.2431 55.5868C18.09 54.8857 17.3764 55.2374 17.3764 55.2374L11.498 57.5343C11.498 57.5343 10.8094 57.766 11.0014 58.5643C12.1234 63.2272 13.3314 66.51 14.5468 68.6119C15.8579 70.8742 16.8812 71.2921 17.4455 71.2921H17.5302C17.7023 71.2833 18.0091 71.2399 18.5086 70.964Z" fill="#0F218B"/>
<path d="M26.0049 71.2921C31.1615 71.2921 33.6327 54.0138 34.3405 49.743C34.4369 49.1839 34.0278 48.8204 33.3333 49.0919C31.4889 49.8144 27.1864 51.4756 26.0578 51.8965C25.2706 52.1907 25.2323 52.6807 25.1897 52.9838C23.1245 67.6981 19.4761 70.4298 18.5094 70.964C18.0099 71.2399 17.7001 71.2833 17.5309 71.2884H17.4463L26.0049 71.2921Z" fill="#8CC919"/>
</g>
<defs>
<clipPath id="clip0_198_1324">
<rect width="93" height="22.2921" fill="white" transform="translate(11 49)"/>
</clipPath>
</defs>
</svg>
