<svg width="471" height="548" viewBox="0 0 471 548" fill="none" xmlns="http://www.w3.org/2000/svg">
<g clip-path="url(#clip0_197_876)">
<path d="M423.656 341.594C414.72 341.594 406.595 339.442 399.527 335.199C392.439 330.956 386.772 324.967 382.67 317.395C378.587 309.863 376.516 301.153 376.516 291.51C376.516 281.867 378.587 273.157 382.67 265.626C386.772 258.073 392.439 252.084 399.527 247.821C406.616 243.578 414.72 241.446 423.656 241.446C432.593 241.446 440.737 243.598 447.887 247.821C455.016 252.064 460.723 258.053 464.846 265.626C468.928 273.157 471 281.867 471 291.51C471 301.153 468.928 309.863 464.846 317.395C460.723 324.967 455.036 330.956 447.887 335.199C440.737 339.442 432.573 341.574 423.636 341.574L423.656 341.594ZM423.656 244.41C415.268 244.41 407.652 246.42 401.03 250.379C394.409 254.358 389.088 259.961 385.249 267.047C381.39 274.132 379.44 282.374 379.44 291.53C379.44 300.686 381.39 308.909 385.249 316.014C389.088 323.099 394.389 328.723 401.03 332.682C407.652 336.64 415.248 338.65 423.656 338.65C432.065 338.65 439.702 336.64 446.404 332.682C453.086 328.723 458.428 323.12 462.287 316.014C466.125 308.909 468.075 300.666 468.075 291.53C468.075 282.395 466.125 274.152 462.287 267.047C458.428 259.941 453.086 254.338 446.404 250.379C439.702 246.42 432.044 244.41 423.656 244.41Z" fill="#8C8C8C" fill-opacity="0.6"/>
<path d="M169.227 279.187H103.177L103.462 277.36C104.782 268.854 108.458 262.032 114.368 257.099C120.279 252.166 127.672 249.669 136.324 249.669C144.976 249.669 152.125 252.206 158.036 257.221C163.946 262.235 167.622 268.996 168.922 277.36L169.207 279.187H169.227ZM106.894 276.02H165.469C164.068 269.28 160.879 263.778 155.984 259.637C150.663 255.13 144.042 252.836 136.304 252.836C128.565 252.836 121.7 255.089 116.359 259.535C111.464 263.616 108.275 269.158 106.874 276.04L106.894 276.02Z" fill="#8C8C8C" fill-opacity="0.6"/>
<path d="M46.3279 548C39.9098 548 33.1871 546.478 26.6065 542.864C16.2684 537.179 8.75355 527.922 5.44294 516.817C2.53854 507.032 3.12754 496.292 7.04746 488.111C16.7153 467.87 33.8167 459.567 60.8296 461.942C81.8307 463.789 100.334 452.847 104.416 441.458L104.497 441.255C108.559 429.906 112.764 418.172 101.471 397.769C100.516 396.063 99.6836 394.378 98.9524 392.734C86.7661 370.788 78.9263 346.974 75.6969 322.064L74.6204 313.68L78.8856 321.516C84.6538 331.078 93.0014 338.671 103.644 344.071C114.348 349.512 126.859 352.252 140.812 352.252C162.524 352.252 179.382 345.898 190.918 333.372L173.431 314.431C169.227 318.227 164.677 321.09 159.843 322.957C154.603 324.967 148.51 326.003 141.747 326.003C131.876 326.003 123.487 323.607 116.846 318.897C110.103 314.146 105.777 307.569 103.969 299.367L103.543 297.459H199.794C200.099 293.256 200.383 289.582 200.383 289.155C200.383 276.325 197.56 264.936 192.015 255.252C186.47 245.608 178.732 238.097 169.003 232.92C159.234 227.743 148.165 225.104 136.1 225.104C124.036 225.104 112.378 227.845 102.385 233.265C94.4638 237.549 87.7207 243.416 82.3587 250.704L77.7279 256.977L79.5559 249.384C80.6526 244.817 81.9728 240.168 83.5774 235.173V235.011C85.2022 228.657 86.9083 223.541 88.7159 218.14C92.1078 208.071 95.6012 197.656 98.1806 179.06C103.522 140.69 75.9406 117.607 60.6265 110.765C57.0722 109.182 52.7054 107.923 48.0949 106.583C30.2217 101.427 8.00206 95.0317 1.17774 63.1583C-2.74219 44.8869 3.26972 26.4328 17.2636 13.8052C29.7952 2.47694 51.7915 -4.97373 72.63 3.93865C105.736 18.0888 106.142 44.8869 106.589 73.2482C106.975 97.7116 114.348 112.207 131.246 121.728C142.457 128.042 150.541 129.382 168.963 124.185C173.675 122.845 180.824 119.394 183.078 118.236C210.985 104.025 242.141 96.5341 273.683 96.5341C363.943 96.5341 443.256 157.337 466.572 244.39L468.055 249.892L463.972 245.933C460.479 242.563 456.884 239.822 452.944 237.569C443.987 232.412 433.811 229.794 422.681 229.794C411.551 229.794 402.289 232.372 393.718 237.447C385.147 242.543 378.425 249.73 373.713 258.804L370.727 264.57V226.972H358.906V412.041H371.194V317.618L374.159 323.181C378.851 331.971 385.554 338.935 394.023 343.848C402.513 348.781 412.14 351.278 422.641 351.278C433.771 351.278 443.946 348.7 452.903 343.604C458.224 340.579 462.876 336.722 467.161 331.809L470.979 327.424L469.903 333.128C452.233 427.368 369.691 495.785 273.643 495.785C248.519 495.785 224.004 491.156 200.769 482.04H200.667L199.185 481.391C197.154 480.558 195.123 479.746 193.132 478.873C183.87 475.118 167.033 468.662 158.706 467.829C145.443 466.51 125.823 466.571 108.458 482.406C96.7386 493.105 92.5952 504.372 88.9393 514.32C86.9895 519.598 85.1616 524.592 82.3993 528.937C76.164 538.783 62.1092 547.96 46.3279 547.96V548ZM51.9946 464.662C31.1357 464.662 17.9542 472.499 9.87062 489.45C0.690285 508.696 11.8814 531.17 28.1094 540.083C49.1714 551.654 71.6145 540.083 79.7184 527.272C82.2978 523.192 84.0851 518.36 85.9537 513.244C89.7314 502.971 94.0169 491.318 106.325 480.091C124.625 463.383 145.159 463.302 159.01 464.703C167.744 465.576 184.906 472.133 194.351 475.97C196.361 476.863 198.352 477.655 200.363 478.467L201.825 479.076C224.715 488.07 248.884 492.638 273.643 492.638C366.34 492.638 446.262 427.896 465.719 337.899C462.246 341.229 458.488 344.051 454.467 346.345C445.023 351.704 434.319 354.425 422.641 354.425C411.592 354.425 401.416 351.786 392.439 346.568C385.086 342.325 379.034 336.62 374.342 329.616V415.187H355.738V223.805H373.875V252.206C378.567 244.979 384.68 239.112 392.094 234.706C401.152 229.327 411.429 226.606 422.661 226.606C433.893 226.606 445.063 229.367 454.508 234.808C457.148 236.331 459.646 238.056 462.083 240.025C437.427 157.114 360.734 99.6605 273.683 99.6605C243.116 99.6605 212.894 106.807 185.759 120.388C183.078 121.728 173.898 125.992 169.775 127.189C150.054 132.914 141.259 130.925 129.702 124.428C111.931 114.44 103.847 98.6454 103.441 73.2482C103.014 44.7448 102.629 20.119 71.4114 6.78087C51.8321 -1.52247 31.1763 5.50187 19.3759 16.1602C6.23505 28.0163 0.588732 45.3335 4.26493 62.4883C10.7034 92.5144 31.9075 98.6251 48.948 103.538C53.6803 104.898 58.1486 106.177 61.8858 107.862C77.9514 115.049 106.873 139.249 101.288 179.486C98.668 198.367 95.1137 208.923 91.6812 219.135C89.9345 224.353 88.2691 229.306 86.7458 235.255L86.6645 235.681C85.8318 238.32 85.06 240.817 84.3898 243.233C89.1424 238.097 94.6466 233.813 100.862 230.463C111.321 224.799 123.183 221.916 136.08 221.916C148.977 221.916 160.229 224.657 170.466 230.098C180.722 235.559 188.887 243.477 194.737 253.628C200.566 263.778 203.531 275.716 203.531 289.094C203.531 289.582 203.369 291.916 202.82 299.103L202.719 300.565H107.523C109.372 307.082 113.109 312.36 118.654 316.278C124.767 320.602 132.526 322.795 141.747 322.795C148.104 322.795 153.811 321.841 158.706 319.973C163.58 318.085 168.191 315.08 172.415 311.02L173.573 309.903L195.163 333.291L194.229 334.367C182.043 348.294 164.068 355.379 140.812 355.379C126.351 355.379 113.373 352.516 102.222 346.852C93.1233 342.244 85.6287 336.092 79.8605 328.52C83.5164 350.527 90.8688 371.62 101.776 391.292C102.527 392.957 103.319 394.561 104.233 396.185C116.196 417.827 111.565 430.799 107.462 442.249L107.381 442.452C102.933 454.897 83.7602 467.058 60.5453 465.028C57.5799 464.764 54.7365 464.642 52.0149 464.642L51.9946 464.662ZM331.061 353.491H214.966V329.231L277.624 255.191H216.631V223.825H328.948V248.085L266.29 322.125H331.061V353.491ZM218.134 350.344H327.912V325.272H259.507L325.8 246.928V226.972H219.779V252.024H284.428L218.134 330.388V350.344Z" fill="#8C8C8C" fill-opacity="0.6"/>
<path d="M383.706 546.335C369.915 546.335 358.704 535.129 358.704 521.344C358.704 507.559 369.915 496.353 383.706 496.353C397.497 496.353 408.708 507.559 408.708 521.344C408.708 535.129 397.497 546.335 383.706 546.335ZM383.706 499.5C371.662 499.5 361.852 509.305 361.852 521.344C361.852 533.383 371.662 543.189 383.706 543.189C395.75 543.189 405.56 533.383 405.56 521.344C405.56 509.305 395.75 499.5 383.706 499.5Z" fill="#8C8C8C" fill-opacity="0.6"/>
<path d="M152.105 93.103C142.234 93.103 134.191 85.0635 134.191 75.197C134.191 65.3304 142.234 57.291 152.105 57.291C161.976 57.291 170.019 65.3304 170.019 75.197C170.019 85.0635 161.976 93.103 152.105 93.103ZM152.105 60.4377C143.961 60.4377 137.34 67.0561 137.34 75.197C137.34 83.3379 143.961 89.9562 152.105 89.9562C160.25 89.9562 166.871 83.3379 166.871 75.197C166.871 67.0561 160.25 60.4377 152.105 60.4377Z" fill="#8C8C8C" fill-opacity="0.6"/>
</g>
<defs>
<clipPath id="clip0_197_876">
<rect width="471" height="548" fill="white"/>
</clipPath>
</defs>
</svg>
