<svg width="39" height="39" viewBox="0 0 39 39" fill="none" xmlns="http://www.w3.org/2000/svg"> <path d="M19.5 4.95728C17.7124 4.95722 15.9648 5.48727 14.4784 6.4804C12.992 7.47353 11.8334 8.88514 11.1493 10.5367C10.4651 12.1883 10.2861 14.0056 10.6348 15.759C10.9835 17.5123 11.8444 19.1229 13.1084 20.3869C14.3725 21.651 15.983 22.5119 17.7363 22.8607C19.4896 23.2095 21.307 23.0305 22.9586 22.3464C24.6102 21.6623 26.0218 20.5038 27.015 19.0174C28.0082 17.531 28.5383 15.7835 28.5383 13.9958C28.5355 11.5996 27.5823 9.30227 25.888 7.60783C24.1936 5.91339 21.8963 4.96018 19.5 4.95728ZM19.5 21.968C17.9233 21.968 16.3819 21.5005 15.0709 20.6246C13.7598 19.7486 12.738 18.5036 12.1345 17.0469C11.5311 15.5901 11.3732 13.9872 11.6807 12.4407C11.9883 10.8943 12.7476 9.47373 13.8625 8.35878C14.9774 7.24382 16.3979 6.48452 17.9443 6.17689C19.4908 5.86925 21.0937 6.02711 22.5505 6.6305C24.0072 7.23388 25.2523 8.25569 26.1283 9.56671C27.0043 10.8777 27.4719 12.4191 27.4719 13.9958C27.4696 16.1094 26.6289 18.1357 25.1344 19.6303C23.6399 21.1249 21.6136 21.9656 19.5 21.968Z" fill="#652D90"></path> <path d="M24.7738 12.1341L21.46 11.6527L19.978 8.64997C19.934 8.56071 19.8659 8.48553 19.7815 8.43297C19.697 8.3804 19.5994 8.35254 19.4999 8.35254C19.4004 8.35254 19.3029 8.3804 19.2184 8.43297C19.1339 8.48553 19.0659 8.56071 19.0219 8.64997L17.5399 11.6527L14.2261 12.1341C14.1276 12.1484 14.0351 12.1899 13.9591 12.2541C13.883 12.3182 13.8264 12.4023 13.7956 12.497C13.7649 12.5916 13.7612 12.6929 13.7851 12.7895C13.8089 12.8861 13.8593 12.9741 13.9306 13.0436L16.3284 15.3808L15.7623 18.6812C15.7455 18.7793 15.7565 18.8801 15.7939 18.9722C15.8314 19.0644 15.8939 19.1442 15.9744 19.2027C16.0549 19.2612 16.1501 19.296 16.2494 19.3032C16.3486 19.3104 16.4479 19.2896 16.5359 19.2433L19.4999 17.6849L22.4636 19.2433C22.5517 19.2896 22.651 19.3103 22.7502 19.3031C22.8494 19.2959 22.9447 19.2611 23.0252 19.2026C23.1057 19.1442 23.1682 19.0644 23.2057 18.9722C23.2433 18.8801 23.2543 18.7793 23.2375 18.6812L22.6711 15.3808L25.069 13.0436C25.1403 12.9741 25.1907 12.8862 25.2145 12.7896C25.2384 12.693 25.2347 12.5917 25.204 12.4971C25.1733 12.4025 25.1167 12.3183 25.0407 12.2542C24.9647 12.19 24.8722 12.1484 24.7738 12.1341ZM21.7269 14.8129C21.6651 14.8733 21.6189 14.9478 21.5924 15.03C21.5658 15.1123 21.5597 15.1997 21.5746 15.2848L22.0054 17.7967L19.7507 16.6108C19.6742 16.5704 19.589 16.5493 19.5025 16.5493C19.416 16.5493 19.3308 16.5704 19.2544 16.6108L16.9997 17.7967L17.4281 15.2848C17.4428 15.1997 17.4367 15.1123 17.4101 15.0301C17.3836 14.9478 17.3375 14.8733 17.2757 14.8129L15.4476 13.0341L17.9692 12.6685C18.0548 12.6561 18.136 12.6231 18.206 12.5723C18.2759 12.5215 18.3325 12.4544 18.3708 12.3769L19.4981 10.0918L20.6255 12.3769C20.6638 12.4544 20.7203 12.5214 20.7903 12.5722C20.8602 12.623 20.9415 12.656 21.027 12.6685L23.5489 13.0341L21.7269 14.8129Z" fill="#652D90"></path> <path d="M32.107 13.9959C32.1081 13.3858 31.9242 12.7896 31.5796 12.286C31.4483 12.0929 31.3572 11.8753 31.3117 11.6463C31.2661 11.4172 31.2671 11.1814 31.3146 10.9527C31.4389 10.3554 31.3803 9.73456 31.1466 9.17103C30.9129 8.60749 30.5149 8.12743 30.0044 7.7934C29.8093 7.66518 29.642 7.49903 29.5124 7.30484C29.3828 7.11065 29.2935 6.89238 29.25 6.66301C29.1365 6.06367 28.845 5.51242 28.4137 5.08112C27.9823 4.64981 27.431 4.35845 26.8317 4.24501C26.6024 4.20119 26.3842 4.11178 26.1901 3.98209C25.996 3.8524 25.8299 3.68506 25.7016 3.49C25.3676 2.9794 24.8875 2.5813 24.3239 2.3476C23.7603 2.11389 23.1393 2.05543 22.542 2.17984C22.3134 2.22729 22.0776 2.2283 21.8486 2.18282C21.6196 2.13733 21.4021 2.04628 21.209 1.91507C20.7026 1.57756 20.1076 1.39746 19.4991 1.39746C18.8905 1.39746 18.2956 1.57756 17.7892 1.91507C17.596 2.04624 17.3785 2.13729 17.1496 2.18282C16.9206 2.22836 16.6848 2.22745 16.4562 2.18014C15.8588 2.05582 15.2379 2.11432 14.6743 2.34802C14.1107 2.58172 13.6306 2.97977 13.2966 3.4903C13.1683 3.6854 13.0022 3.85277 12.8081 3.98246C12.614 4.11216 12.3958 4.20154 12.1665 4.24532C11.5673 4.35885 11.0163 4.65028 10.5853 5.0816C10.1542 5.51292 9.86315 6.06412 9.74999 6.66332C9.70621 6.89268 9.6168 7.1109 9.48704 7.30503C9.35729 7.49916 9.18985 7.66524 8.99467 7.7934C8.48429 8.12748 8.08643 8.60762 7.85299 9.17118C7.61955 9.73475 7.56137 10.3556 7.68604 10.9527C7.73348 11.1814 7.73443 11.4173 7.68884 11.6463C7.64325 11.8754 7.55204 12.0929 7.42065 12.286C7.07723 12.7901 6.89355 13.3859 6.89355 13.9958C6.89355 14.6057 7.07723 15.2015 7.42065 15.7055C7.55204 15.8986 7.64325 16.1162 7.68884 16.3452C7.73443 16.5743 7.73348 16.8102 7.68604 17.0388C7.56137 17.636 7.61955 18.2568 7.85299 18.8204C8.08643 19.3839 8.48429 19.8641 8.99467 20.1981C9.18985 20.3263 9.35729 20.4924 9.48704 20.6865C9.6168 20.8806 9.70621 21.0989 9.74999 21.3282C9.8635 21.9276 10.1549 22.4788 10.5863 22.9101C11.0177 23.3414 11.5689 23.6328 12.1683 23.7462C12.4447 23.7992 12.7041 23.9185 12.9242 24.0939V37.0781C12.9244 37.1833 12.9557 37.2861 13.0141 37.3736C13.0726 37.461 13.1556 37.5292 13.2528 37.5696C13.35 37.6099 13.4569 37.6206 13.5601 37.6002C13.6633 37.5799 13.7582 37.5295 13.8328 37.4553L19.5 31.7882L25.1672 37.4553C25.2417 37.53 25.3367 37.5809 25.4401 37.6015C25.5436 37.6222 25.6508 37.6116 25.7483 37.5713C25.8457 37.5309 25.929 37.4625 25.9876 37.3748C26.0462 37.2871 26.0774 37.1839 26.0773 37.0784V24.0942C26.2974 23.9188 26.5568 23.7995 26.8332 23.7465C27.4323 23.6327 27.9832 23.3411 28.4142 22.9098C28.8453 22.4785 29.1365 21.9274 29.25 21.3282C29.2936 21.0989 29.3829 20.8807 29.5126 20.6866C29.6422 20.4924 29.8096 20.3263 30.0047 20.1981C30.5154 19.8642 30.9136 19.3841 31.1473 18.8205C31.381 18.2569 31.4394 17.6359 31.3149 17.0385C31.2674 16.8099 31.2665 16.5741 31.312 16.3451C31.3575 16.1161 31.4487 15.8986 31.5799 15.7055C31.9243 15.202 32.1081 14.606 32.107 13.9959ZM13.99 25.2407C14.3345 25.5107 14.7341 25.7017 15.1606 25.8001C15.5871 25.8985 16.03 25.9019 16.458 25.8102C16.6866 25.7629 16.9224 25.762 17.1514 25.8075C17.3804 25.8531 17.5979 25.9443 17.791 26.0756C18.145 26.3159 18.5461 26.4781 18.9677 26.5512V30.8144L13.99 35.7911V25.2407ZM20.0332 30.8144V26.5512C20.4547 26.4779 20.8559 26.3158 21.2099 26.0756C21.4029 25.9441 21.6204 25.8529 21.8494 25.8073C22.0784 25.7617 22.3143 25.7627 22.5429 25.8102C22.9709 25.9019 23.4138 25.8985 23.8403 25.8001C24.2667 25.7017 24.6664 25.5107 25.0109 25.2407V35.7911L20.0332 30.8144ZM30.6991 15.1041C30.487 15.416 30.3399 15.7673 30.2663 16.1372C30.1928 16.5071 30.1944 16.888 30.271 17.2573C30.3517 17.6445 30.3138 18.047 30.1624 18.4124C30.011 18.7778 29.753 19.0891 29.4221 19.3057C29.1071 19.5128 28.8369 19.781 28.6275 20.0945C28.4181 20.4081 28.2739 20.7605 28.2034 21.1308C28.1297 21.5195 27.9407 21.8771 27.6609 22.1569C27.3812 22.4367 27.0236 22.6257 26.6349 22.6993C26.2645 22.7697 25.912 22.9139 25.5985 23.1233C25.2849 23.3326 25.0167 23.6029 24.8098 23.9181C24.593 24.2491 24.2815 24.5071 23.9158 24.6585C23.5502 24.8098 23.1475 24.8475 22.7601 24.7666C22.391 24.6902 22.0102 24.6887 21.6404 24.7622C21.2706 24.8358 20.9194 24.9828 20.6075 25.1947C20.2792 25.4134 19.8935 25.5302 19.4989 25.5302C19.1044 25.5302 18.7187 25.4134 18.3903 25.1947C17.9231 24.8769 17.371 24.7071 16.8059 24.7072C16.6145 24.7071 16.4236 24.7268 16.2362 24.766C15.8494 24.8463 15.4475 24.8083 15.0826 24.6571C14.7177 24.5059 14.4068 24.2484 14.1902 23.9181C13.9831 23.603 13.7148 23.3327 13.4013 23.1234C13.0877 22.914 12.7352 22.7698 12.3648 22.6993C11.9763 22.6255 11.6191 22.4365 11.3395 22.1569C11.0599 21.8772 10.8709 21.5199 10.7972 21.1314C10.7267 20.761 10.5825 20.4085 10.3732 20.095C10.1638 19.7814 9.89355 19.5131 9.57845 19.306C9.24776 19.0893 8.98996 18.7781 8.83861 18.4129C8.68727 18.0476 8.64938 17.6453 8.7299 17.2582C8.80659 16.8889 8.80821 16.508 8.73467 16.1381C8.66113 15.7682 8.51392 15.4168 8.30181 15.105C8.07925 14.7781 7.96023 14.3918 7.96023 13.9964C7.96023 13.6009 8.07925 13.2146 8.30181 12.8878C8.51382 12.5759 8.66096 12.2246 8.7345 11.8548C8.80804 11.4849 8.80648 11.1041 8.7299 10.7349C8.64947 10.3477 8.68738 9.94529 8.83872 9.57997C8.99005 9.21465 9.2478 8.90331 9.57845 8.68644C9.89355 8.47944 10.1638 8.21121 10.3732 7.89768C10.5825 7.58415 10.7267 7.23173 10.7972 6.86136C10.8708 6.4728 11.0597 6.11539 11.3393 5.83573C11.6189 5.55606 11.9763 5.36709 12.3648 5.29344C12.7352 5.22299 13.0877 5.0788 13.4013 4.86943C13.7148 4.66006 13.9831 4.3898 14.1902 4.07469C14.4068 3.74344 14.7183 3.48518 15.0839 3.33359C15.4495 3.182 15.8524 3.14413 16.2398 3.22492C16.6091 3.30153 16.9901 3.30309 17.36 3.22949C17.7299 3.1559 18.0812 3.00866 18.3931 2.79653C18.7214 2.57784 19.1071 2.46115 19.5017 2.46115C19.8962 2.46115 20.2819 2.57784 20.6103 2.79653C20.9221 3.00834 21.2734 3.15526 21.6432 3.22854C22.013 3.30182 22.3938 3.29997 22.7629 3.22309C23.1501 3.14242 23.5526 3.18023 23.918 3.33158C24.2835 3.48293 24.5948 3.74082 24.8116 4.07164C25.0186 4.38676 25.2868 4.65705 25.6003 4.86642C25.9139 5.07579 26.2663 5.21997 26.6367 5.2904C27.0251 5.36418 27.3824 5.55315 27.662 5.83274C27.9415 6.11232 28.1305 6.46957 28.2043 6.85801C28.2748 7.22841 28.419 7.58087 28.6283 7.89445C28.8377 8.20803 29.108 8.47632 29.4231 8.68339C29.7538 8.90021 30.0116 9.21154 30.1629 9.57688C30.3142 9.94221 30.3521 10.3446 30.2716 10.7318C30.195 11.101 30.1934 11.4819 30.2669 11.8518C30.3405 12.2216 30.4876 12.5729 30.6997 12.8847C30.9222 13.2116 31.0412 13.5978 31.0412 13.9932C31.0412 14.3886 30.9222 14.7748 30.6997 15.1016L30.6991 15.1041Z" fill="#652D90"></path> </svg>