<svg width="30" height="30" viewBox="0 0 30 30" fill="none" xmlns="http://www.w3.org/2000/svg"> <path d="M27.3516 1.06787H2.64968C2.23033 1.06837 1.82831 1.23519 1.53181 1.53173C1.23531 1.82827 1.06855 2.23032 1.06812 2.64967V27.35C1.06855 27.7693 1.23531 28.1714 1.53181 28.4679C1.82831 28.7645 2.23033 28.9313 2.64968 28.9318H27.3516C27.771 28.9313 28.173 28.7645 28.4695 28.4679C28.766 28.1714 28.9328 27.7693 28.9332 27.35V2.64967C28.9328 2.23032 28.766 1.82827 28.4695 1.53173C28.173 1.23519 27.771 1.06837 27.3516 1.06787ZM2.65085 1.88818H27.3516C27.5535 1.88843 27.747 1.96875 27.8897 2.11151C28.0324 2.25426 28.1127 2.44781 28.1129 2.64967V6.37857H1.88843V2.64967C1.88861 2.44781 1.96887 2.25426 2.11158 2.11151C2.2543 1.96875 2.44782 1.88843 2.64968 1.88818H2.65085ZM27.3516 28.1115H2.64968C2.44782 28.1112 2.2543 28.0309 2.11158 27.8881C1.96887 27.7454 1.88861 27.5518 1.88843 27.35V7.19889H28.1117V27.35C28.1115 27.5516 28.0314 27.745 27.889 27.8877C27.7465 28.0305 27.5533 28.1109 27.3516 28.1115Z" fill="#652D90"></path> <path d="M4.13342 4.62863C4.23142 4.62868 4.32724 4.59966 4.40875 4.54525C4.49026 4.49083 4.5538 4.41347 4.59134 4.32293C4.62888 4.2324 4.63872 4.13277 4.61963 4.03665C4.60054 3.94052 4.55337 3.85221 4.48408 3.7829C4.4148 3.71358 4.32652 3.66637 4.2304 3.64723C4.13428 3.6281 4.03465 3.63789 3.9441 3.67539C3.85355 3.71288 3.77615 3.77639 3.7217 3.85787C3.66725 3.93936 3.63818 4.03516 3.63818 4.13316C3.63825 4.26451 3.69043 4.39046 3.78329 4.48336C3.87614 4.57626 4.00207 4.62851 4.13342 4.62863Z" fill="#652D90"></path> <path d="M6.09656 4.62863C6.19458 4.62873 6.29042 4.59975 6.37196 4.54536C6.4535 4.49097 6.51708 4.41362 6.55465 4.3231C6.59222 4.23257 6.6021 4.13293 6.58304 4.03679C6.56397 3.94065 6.51682 3.85232 6.44755 3.78298C6.37827 3.71364 6.28999 3.66641 6.19386 3.64725C6.09774 3.62809 5.99809 3.63788 5.90753 3.67537C5.81697 3.71285 5.73956 3.77636 5.6851 3.85785C5.63063 3.93934 5.60156 4.03515 5.60156 4.13316C5.60162 4.26447 5.65378 4.39039 5.74658 4.48328C5.83939 4.57617 5.96526 4.62845 6.09656 4.62863Z" fill="#652D90"></path> <path d="M8.05969 4.62863C8.15769 4.62868 8.25351 4.59966 8.33502 4.54525C8.41653 4.49083 8.48007 4.41347 8.51761 4.32293C8.55514 4.2324 8.56499 4.13277 8.5459 4.03665C8.52681 3.94052 8.47964 3.85221 8.41035 3.7829C8.34107 3.71358 8.25279 3.66637 8.15667 3.64723C8.06055 3.6281 7.96092 3.63789 7.87037 3.67539C7.77982 3.71288 7.70242 3.77639 7.64797 3.85787C7.59352 3.93936 7.56445 4.03516 7.56445 4.13316C7.56452 4.26451 7.6167 4.39046 7.70956 4.48336C7.80241 4.57626 7.92834 4.62851 8.05969 4.62863Z" fill="#652D90"></path> <path d="M14.2901 9.52881H4.62867C4.51993 9.52887 4.41567 9.57211 4.3388 9.64902C4.26193 9.72594 4.21875 9.83023 4.21875 9.93896V25.3707C4.21875 25.4795 4.26196 25.5838 4.33888 25.6607C4.4158 25.7376 4.52013 25.7808 4.62891 25.7808H14.2901C14.3989 25.7808 14.5032 25.7376 14.5801 25.6607C14.657 25.5838 14.7002 25.4795 14.7002 25.3707V9.93896C14.7002 9.83018 14.657 9.72586 14.5801 9.64894C14.5032 9.57202 14.3989 9.52881 14.2901 9.52881ZM13.8799 24.9605H5.03906V10.3491H13.8799V24.9605Z" fill="#652D90"></path> <path d="M25.3712 9.52881H16.8831C16.8292 9.52878 16.7758 9.53937 16.7261 9.55997C16.6763 9.58057 16.6311 9.61078 16.593 9.64887C16.5549 9.68696 16.5247 9.73219 16.5041 9.78197C16.4835 9.83174 16.4729 9.88509 16.4729 9.93896V14.9996C16.4729 15.0535 16.4835 15.1068 16.5041 15.1566C16.5247 15.2064 16.5549 15.2516 16.593 15.2897C16.6311 15.3278 16.6763 15.358 16.7261 15.3786C16.7758 15.3992 16.8292 15.4098 16.8831 15.4097H25.3712C25.4251 15.4098 25.4784 15.3992 25.5282 15.3786C25.578 15.358 25.6232 15.3278 25.6613 15.2897C25.6994 15.2516 25.7296 15.2064 25.7502 15.1566C25.7708 15.1068 25.7814 15.0535 25.7813 14.9996V9.93896C25.7814 9.88509 25.7708 9.83174 25.7502 9.78197C25.7296 9.73219 25.6994 9.68696 25.6613 9.64887C25.6232 9.61078 25.578 9.58057 25.5282 9.55997C25.4784 9.53937 25.4251 9.52878 25.3712 9.52881ZM24.961 14.5894H17.2932V10.3491H24.961V14.5894Z" fill="#652D90"></path> <path d="M21.1271 24.9609H16.8831C16.7743 24.9609 16.67 25.0042 16.593 25.0811C16.5161 25.158 16.4729 25.2623 16.4729 25.3711C16.4729 25.4799 16.5161 25.5842 16.593 25.6611C16.67 25.738 16.7743 25.7812 16.8831 25.7812H21.1271C21.2359 25.7812 21.3402 25.738 21.4171 25.6611C21.4941 25.5842 21.5373 25.4799 21.5373 25.3711C21.5373 25.2623 21.4941 25.158 21.4171 25.0811C21.3402 25.0042 21.2359 24.9609 21.1271 24.9609Z" fill="#652D90"></path> <path d="M25.3712 17.1826H16.8831C16.7743 17.1826 16.67 17.2258 16.593 17.3027C16.5161 17.3797 16.4729 17.484 16.4729 17.5928C16.4729 17.7016 16.5161 17.8059 16.593 17.8828C16.67 17.9597 16.7743 18.0029 16.8831 18.0029H25.3712C25.48 18.0029 25.5843 17.9597 25.6612 17.8828C25.7381 17.8059 25.7813 17.7016 25.7813 17.5928C25.7813 17.484 25.7381 17.3797 25.6612 17.3027C25.5843 17.2258 25.48 17.1826 25.3712 17.1826Z" fill="#652D90"></path> <path d="M16.8831 20.5957H21.1271C21.2359 20.5957 21.3402 20.5525 21.4171 20.4756C21.4941 20.3987 21.5373 20.2943 21.5373 20.1855C21.5373 20.0768 21.4941 19.9724 21.4171 19.8955C21.3402 19.8186 21.2359 19.7754 21.1271 19.7754H16.8831C16.7743 19.7754 16.67 19.8186 16.593 19.8955C16.5161 19.9724 16.4729 20.0768 16.4729 20.1855C16.4729 20.2943 16.5161 20.3987 16.593 20.4756C16.67 20.5525 16.7743 20.5957 16.8831 20.5957Z" fill="#652D90"></path> <path d="M25.3712 22.3682H16.8831C16.7743 22.3682 16.67 22.4114 16.593 22.4883C16.5161 22.5652 16.4729 22.6695 16.4729 22.7783C16.4729 22.8871 16.5161 22.9914 16.593 23.0683C16.67 23.1453 16.7743 23.1885 16.8831 23.1885H25.3712C25.48 23.1885 25.5843 23.1453 25.6612 23.0683C25.7381 22.9914 25.7813 22.8871 25.7813 22.7783C25.7813 22.6695 25.7381 22.5652 25.6612 22.4883C25.5843 22.4114 25.48 22.3682 25.3712 22.3682Z" fill="#652D90"></path> </svg>