<svg width="30" height="30" viewBox="0 0 30 30" fill="none" xmlns="http://www.w3.org/2000/svg"> <mask id="mask0_325_2262" style="mask-type:luminance" maskUnits="userSpaceOnUse" x="0" y="0" width="30" height="30"> <path d="M0 1.90735e-06H30V30H0V1.90735e-06Z" fill="white"></path> </mask> <g mask="url(#mask0_325_2262)"> <path d="M23.2897 3.20654C20.945 1.55537 18.0858 0.585762 15 0.585762C13.0867 0.585762 11.2604 0.958594 9.58984 1.63553" stroke="#652D90" stroke-miterlimit="10" stroke-linecap="round" stroke-linejoin="round"></path> <path d="M26.4026 23.8188C28.2905 21.3813 29.4141 18.322 29.4141 15.0003C29.4141 12.0226 28.5113 9.2559 26.9644 6.95891" stroke="#652D90" stroke-miterlimit="10" stroke-linecap="round" stroke-linejoin="round"></path> <path d="M3.59748 6.18141C1.70953 8.61891 0.585938 11.6783 0.585938 15C0.585938 22.9607 7.03934 29.4141 15 29.4141C16.9134 29.4141 18.7396 29.0413 20.4102 28.3644" stroke="#652D90" stroke-miterlimit="10" stroke-linecap="round" stroke-linejoin="round"></path> <path d="M15.0001 5.45906C12.3523 5.45906 10.1982 7.61314 10.1982 10.2609V11.8799H12.5991V10.2609C12.5991 8.93701 13.6762 7.86 15.0001 7.86C16.3239 7.86 17.401 8.93701 17.401 10.2609V11.8799H19.8019V10.2609C19.8019 7.61314 17.6478 5.45906 15.0001 5.45906Z" stroke="#652D90" stroke-miterlimit="10" stroke-linecap="round" stroke-linejoin="round"></path> <path d="M16.6578 15.9414C16.6578 15.0259 15.9156 14.2837 15.0001 14.2837C14.0845 14.2837 13.3423 15.0259 13.3423 15.9414C13.3423 16.3994 13.528 16.8139 13.8282 17.1139V19.0859C13.8282 19.7332 14.3529 20.2578 15.0001 20.2578C15.6472 20.2578 16.172 19.7332 16.172 19.0859V17.1139C16.4721 16.8139 16.6578 16.3994 16.6578 15.9414Z" stroke="#652D90" stroke-miterlimit="10" stroke-linecap="round" stroke-linejoin="round"></path> <path d="M19.5605 11.8799H10.4395C9.59273 11.8799 8.90625 12.5664 8.90625 13.4131V21.1279C8.90625 21.9746 9.59273 22.6611 10.4395 22.6611H19.5605C20.4073 22.6611 21.0937 21.9746 21.0937 21.1279V13.4131C21.0937 12.5664 20.4073 11.8799 19.5605 11.8799Z" stroke="#652D90" stroke-miterlimit="10" stroke-linecap="round" stroke-linejoin="round"></path> <path d="M6.34228 4.88428C6.34228 5.79037 5.60775 6.5249 4.70166 6.5249C3.79557 6.5249 3.06104 5.79037 3.06104 4.88428C3.06104 3.97818 3.79557 3.24365 4.70166 3.24365C5.60775 3.24365 6.34228 3.97818 6.34228 4.88428Z" stroke="#652D90" stroke-miterlimit="10" stroke-linecap="round" stroke-linejoin="round"></path> <path d="M23.6577 25.1157C23.6577 24.2096 24.3922 23.4751 25.2983 23.4751C26.2044 23.4751 26.939 24.2096 26.939 25.1157C26.939 26.0218 26.2044 26.7563 25.2983 26.7563C24.3922 26.7563 23.6577 26.0218 23.6577 25.1157Z" stroke="#652D90" stroke-miterlimit="10" stroke-linecap="round" stroke-linejoin="round"></path> </g> </svg>