<svg width="30" height="30" viewBox="0 0 30 30" fill="none" xmlns="http://www.w3.org/2000/svg"> <path d="M13.6008 15.5422L15.5419 13.6008C15.5801 13.5628 15.6103 13.5176 15.6309 13.4678C15.6515 13.4181 15.6622 13.3648 15.6622 13.3109C15.6622 13.2571 15.6515 13.2037 15.6309 13.154C15.6103 13.1042 15.5801 13.059 15.5419 13.021L14.5079 11.9869C14.7204 11.5974 14.8908 11.1863 15.0162 10.7607H16.4778C16.5866 10.7607 16.6909 10.7175 16.7678 10.6406C16.8447 10.5636 16.888 10.4593 16.888 10.3505V7.60553C16.888 7.49675 16.8447 7.39242 16.7678 7.3155C16.6909 7.23858 16.5866 7.19537 16.4778 7.19537H15.0195C14.894 6.76912 14.7231 6.35762 14.5095 5.96795L15.5419 4.93529C15.5801 4.89722 15.6103 4.85201 15.6309 4.80224C15.6516 4.75247 15.6622 4.69913 15.6622 4.64525C15.6622 4.59138 15.6516 4.53803 15.6309 4.48827C15.6103 4.4385 15.5801 4.39329 15.5419 4.35521L13.6008 2.41389C13.5628 2.37578 13.5176 2.34554 13.4679 2.32491C13.4181 2.30428 13.3648 2.29366 13.3109 2.29366C13.2571 2.29366 13.2037 2.30428 13.154 2.32491C13.1042 2.34554 13.0591 2.37578 13.021 2.41389L11.9883 3.44678C11.5987 3.23325 11.1872 3.06227 10.7609 2.93678V1.47803C10.761 1.42416 10.7504 1.37081 10.7298 1.32103C10.7092 1.27125 10.679 1.22603 10.6409 1.18793C10.6028 1.14984 10.5575 1.11963 10.5078 1.09903C10.458 1.07843 10.4046 1.06784 10.3508 1.06787H7.60554C7.55167 1.06784 7.49832 1.07843 7.44854 1.09903C7.39876 1.11963 7.35354 1.14984 7.31544 1.18793C7.27735 1.22603 7.24714 1.27125 7.22654 1.32103C7.20594 1.37081 7.19535 1.42416 7.19538 1.47803V2.93936C6.76982 3.06489 6.35883 3.23538 5.96937 3.44795L4.93554 2.41389C4.89747 2.37577 4.85225 2.34553 4.80249 2.3249C4.75272 2.30426 4.69937 2.29364 4.6455 2.29364C4.59162 2.29364 4.53828 2.30426 4.48851 2.3249C4.43874 2.34553 4.39353 2.37577 4.35546 2.41389L2.41413 4.35521C2.37601 4.39329 2.34577 4.4385 2.32514 4.48827C2.30451 4.53803 2.29389 4.59138 2.29389 4.64525C2.29389 4.69913 2.30451 4.75247 2.32514 4.80224C2.34577 4.85201 2.37601 4.89722 2.41413 4.93529L3.44772 5.96912C3.23517 6.35867 3.06468 6.76974 2.93913 7.19537H1.47827C1.4244 7.19534 1.37105 7.20593 1.32128 7.22653C1.2715 7.24713 1.22627 7.27734 1.18818 7.31543C1.15009 7.35353 1.11988 7.39875 1.09927 7.44853C1.07867 7.49831 1.06808 7.55166 1.06812 7.60553V10.3505C1.06808 10.4044 1.07867 10.4577 1.09927 10.5075C1.11988 10.5573 1.15009 10.6025 1.18818 10.6406C1.22627 10.6787 1.2715 10.7089 1.32128 10.7295C1.37105 10.7501 1.4244 10.7607 1.47827 10.7607H2.93679C3.06234 11.1869 3.2334 11.5985 3.44702 11.9881L2.41413 13.021C2.37602 13.059 2.34578 13.1042 2.32515 13.154C2.30453 13.2037 2.29391 13.2571 2.29391 13.3109C2.29391 13.3648 2.30453 13.4181 2.32515 13.4678C2.34578 13.5176 2.37602 13.5628 2.41413 13.6008L4.35499 15.5422C4.43197 15.619 4.53628 15.6621 4.64503 15.6621C4.75378 15.6621 4.85809 15.619 4.93507 15.5422L5.96772 14.5093C6.3575 14.7228 6.76908 14.8939 7.19538 15.0195V16.4783C7.19538 16.587 7.23859 16.6914 7.31551 16.7683C7.39243 16.8452 7.49676 16.8884 7.60554 16.8884H10.3508C10.4596 16.8884 10.5639 16.8452 10.6408 16.7683C10.7177 16.6914 10.7609 16.587 10.7609 16.4783V15.0167C11.1865 14.8912 11.5975 14.7207 11.9869 14.5081L13.021 15.5422C13.0979 15.619 13.2022 15.6622 13.3109 15.6622C13.4197 15.6622 13.5239 15.619 13.6008 15.5422ZM12.3444 13.7054C12.2792 13.6401 12.194 13.5987 12.1024 13.5879C12.0108 13.5771 11.9183 13.5975 11.8398 13.6458C11.3497 13.9471 10.8149 14.1686 10.2554 14.3021C10.1658 14.3236 10.0861 14.3746 10.029 14.4468C9.97194 14.5191 9.9408 14.6084 9.94061 14.7005V16.0669H8.01569V14.7043C8.01556 14.6121 7.98439 14.5227 7.9272 14.4504C7.87 14.3781 7.79013 14.3272 7.70046 14.3058C7.14098 14.172 6.60649 13.9496 6.11726 13.647C6.03864 13.5985 5.94596 13.578 5.85422 13.5887C5.76248 13.5994 5.67703 13.6408 5.61171 13.7061L4.64538 14.6717L3.2846 13.3104L4.25022 12.3446C4.31547 12.2793 4.35679 12.1939 4.3675 12.1022C4.37822 12.0105 4.35771 11.9179 4.30929 11.8393C4.00671 11.3497 3.78444 10.8149 3.65093 10.2551C3.6296 10.1655 3.57868 10.0856 3.50639 10.0284C3.43411 9.97121 3.34466 9.94003 3.25249 9.9399H1.88843V8.01545H3.2546C3.3467 8.0153 3.43607 7.98418 3.50834 7.92708C3.58061 7.86999 3.63158 7.79025 3.65304 7.70068C3.78634 7.14123 4.00786 6.60657 4.30929 6.11678C4.35751 6.03813 4.37786 5.94554 4.36706 5.85392C4.35626 5.7623 4.31494 5.67698 4.24976 5.6117L3.2846 4.64514L4.64538 3.28436L5.61194 4.25092C5.67716 4.31612 5.76245 4.35746 5.85404 4.36826C5.94563 4.37906 6.03819 4.3587 6.11679 4.31045C6.60674 4.00917 7.14145 3.78765 7.70093 3.6542C7.79047 3.6327 7.87019 3.58173 7.92728 3.50947C7.98437 3.4372 8.0155 3.34785 8.01569 3.25576V1.88818H9.94061V3.25201C9.94075 3.34419 9.97192 3.43363 10.0291 3.50592C10.0863 3.5782 10.1662 3.62912 10.2558 3.65045C10.8156 3.78392 11.3504 4.0061 11.84 4.30857C11.9185 4.3572 12.0112 4.37783 12.1029 4.36711C12.1947 4.35639 12.2801 4.31494 12.3453 4.24951L13.3109 3.28389L14.6719 4.64514L13.7063 5.611C13.6411 5.67637 13.5998 5.7618 13.5891 5.85352C13.5784 5.94524 13.5989 6.0379 13.6473 6.11654C13.9498 6.60597 14.172 7.14072 14.3054 7.70045C14.3267 7.79012 14.3776 7.86999 14.4499 7.92719C14.5222 7.98438 14.6116 8.01555 14.7038 8.01568H16.0676V9.94037H14.7012C14.6091 9.94057 14.5197 9.97175 14.4475 10.0289C14.3752 10.086 14.3243 10.1658 14.3028 10.2554C14.1694 10.8149 13.9479 11.3496 13.6466 11.8395C13.5982 11.918 13.5778 12.0106 13.5886 12.1022C13.5994 12.1937 13.6408 12.279 13.7061 12.3441L14.6719 13.3109L13.3109 14.6717L12.3444 13.7054Z" fill="#652D90"></path> <path d="M8.97828 5.42725C8.27605 5.42725 7.58959 5.63548 7.0057 6.02562C6.42182 6.41576 5.96674 6.97028 5.69801 7.61906C5.42927 8.26783 5.35896 8.98173 5.49596 9.67047C5.63296 10.3592 5.97111 10.9919 6.46767 11.4884C6.96422 11.985 7.59687 12.3231 8.28561 12.4601C8.97434 12.5971 9.68824 12.5268 10.337 12.2581C10.9858 11.9893 11.5403 11.5343 11.9305 10.9504C12.3206 10.3665 12.5288 9.68002 12.5288 8.97779C12.5278 8.03645 12.1534 7.13397 11.4877 6.46834C10.8221 5.80271 9.91962 5.4283 8.97828 5.42725ZM8.97828 11.7085C8.43831 11.7085 7.91047 11.5484 7.46149 11.2484C7.01252 10.9484 6.66258 10.522 6.45592 10.0232C6.24926 9.52433 6.19517 8.97539 6.30047 8.44579C6.40578 7.91619 6.66577 7.42971 7.04755 7.04786C7.42933 6.66601 7.91577 6.40594 8.44535 6.30055C8.97494 6.19515 9.52388 6.24915 10.0228 6.45572C10.5217 6.66229 10.9481 7.01216 11.2482 7.46108C11.5482 7.91001 11.7084 8.43782 11.7085 8.97779C11.7076 9.70163 11.4197 10.3956 10.9079 10.9074C10.3961 11.4192 9.70212 11.7072 8.97828 11.708V11.7085Z" fill="#652D90"></path> <path d="M28.522 19.2391H27.0632C26.9378 18.8128 26.7668 18.4013 26.5532 18.0116L27.5859 16.9787C27.624 16.9407 27.6542 16.8955 27.6749 16.8458C27.6955 16.796 27.7061 16.7427 27.7061 16.6888C27.7061 16.635 27.6955 16.5816 27.6749 16.5319C27.6542 16.4821 27.624 16.437 27.5859 16.3989L25.6448 14.458C25.6067 14.4199 25.5615 14.3897 25.5117 14.3691C25.462 14.3484 25.4086 14.3378 25.3547 14.3378C25.3009 14.3378 25.2475 14.3484 25.1978 14.3691C25.148 14.3897 25.1028 14.4199 25.0647 14.458L24.0321 15.4905C23.6424 15.277 23.231 15.1059 22.8049 14.9802V13.5215C22.8049 13.4127 22.7617 13.3084 22.6847 13.2315C22.6078 13.1545 22.5035 13.1113 22.3947 13.1113H19.6495C19.5407 13.1113 19.4364 13.1545 19.3594 13.2315C19.2825 13.3084 19.2393 13.4127 19.2393 13.5215V14.983C18.8137 15.1085 18.4026 15.279 18.0131 15.4916L16.9792 14.458C16.9412 14.4199 16.896 14.3897 16.8462 14.3691C16.7965 14.3484 16.7432 14.3378 16.6893 14.3378C16.6355 14.3378 16.5821 14.3484 16.5324 14.3691C16.4826 14.3897 16.4374 14.4199 16.3994 14.458L14.4581 16.3989C14.3812 16.4758 14.338 16.5801 14.338 16.6888C14.338 16.7976 14.3812 16.9018 14.4581 16.9787L15.4924 18.0128C15.2797 18.4023 15.1093 18.8134 14.984 19.2391H13.522C13.4132 19.2391 13.3089 19.2823 13.2319 19.3592C13.155 19.4361 13.1118 19.5404 13.1118 19.6492V22.3942C13.1118 22.503 13.155 22.6073 13.2319 22.6842C13.3089 22.7612 13.4132 22.8044 13.522 22.8044H14.9807C15.1062 23.2306 15.2772 23.6421 15.4907 24.0318L14.4581 25.0645C14.3812 25.1414 14.338 25.2457 14.338 25.3545C14.338 25.4633 14.3812 25.5676 14.4581 25.6445L16.3994 27.5859C16.4374 27.624 16.4826 27.6542 16.5324 27.6748C16.5821 27.6955 16.6355 27.7061 16.6893 27.7061C16.7432 27.7061 16.7965 27.6955 16.8462 27.6748C16.896 27.6542 16.9412 27.624 16.9792 27.5859L18.0119 26.5546C18.4015 26.7682 18.8131 26.9392 19.2393 27.0646V28.5234C19.2393 28.5772 19.2499 28.6306 19.2705 28.6804C19.2911 28.7301 19.3213 28.7754 19.3594 28.8135C19.3975 28.8515 19.4427 28.8818 19.4925 28.9024C19.5423 28.923 19.5956 28.9335 19.6495 28.9335H22.3945C22.4483 28.9335 22.5017 28.923 22.5515 28.9024C22.6012 28.8818 22.6465 28.8515 22.6846 28.8135C22.7227 28.7754 22.7529 28.7301 22.7735 28.6804C22.7941 28.6306 22.8047 28.5772 22.8046 28.5234V27.062C23.2303 26.9365 23.6414 26.7659 24.0309 26.5532L25.0647 27.587C25.1028 27.6252 25.148 27.6554 25.1978 27.676C25.2475 27.6967 25.3009 27.7073 25.3547 27.7073C25.4086 27.7073 25.462 27.6967 25.5117 27.676C25.5615 27.6554 25.6067 27.6252 25.6448 27.587L27.5859 25.6462C27.624 25.6081 27.6542 25.5629 27.6749 25.5131C27.6955 25.4634 27.7061 25.41 27.7061 25.3561C27.7061 25.3023 27.6955 25.2489 27.6749 25.1991C27.6542 25.1494 27.624 25.1042 27.5859 25.0661L26.5521 24.032C26.7646 23.6426 26.9351 23.2316 27.0606 22.806H28.522C28.5758 22.806 28.6292 22.7955 28.679 22.7749C28.7287 22.7543 28.774 22.724 28.8121 22.686C28.8502 22.6479 28.8804 22.6026 28.901 22.5529C28.9216 22.5031 28.9322 22.4497 28.9321 22.3959V19.6492C28.9322 19.5953 28.9216 19.542 28.901 19.4922C28.8804 19.4424 28.8502 19.3972 28.8121 19.3591C28.774 19.321 28.7287 19.2908 28.679 19.2702C28.6292 19.2496 28.5758 19.239 28.522 19.2391ZM28.1118 21.9843H26.7456C26.6535 21.9844 26.5642 22.0156 26.4919 22.0727C26.4196 22.1298 26.3687 22.2095 26.3472 22.2991C26.2138 22.8585 25.9922 23.3933 25.691 23.8832C25.6428 23.9618 25.6224 24.0544 25.6332 24.1459C25.644 24.2375 25.6853 24.3228 25.7505 24.388L26.7173 25.3548L25.3563 26.7156L24.3897 25.7491C24.3244 25.684 24.2391 25.6427 24.1476 25.6319C24.056 25.6211 23.9635 25.6414 23.8849 25.6895C23.3948 25.9908 22.86 26.2123 22.3005 26.3458C22.2109 26.3672 22.1312 26.4182 22.0741 26.4905C22.017 26.5627 21.9859 26.6521 21.9857 26.7442V28.1104H20.0596V26.7466C20.0595 26.6544 20.0283 26.5649 19.9711 26.4927C19.9139 26.4204 19.8341 26.3695 19.7444 26.3481C19.1846 26.2147 18.6498 25.9925 18.1603 25.69C18.0817 25.6414 17.989 25.6208 17.8973 25.6315C17.8056 25.6423 17.7202 25.6837 17.6549 25.7491L16.6893 26.7147L15.3283 25.3546L16.2939 24.3887C16.3593 24.3234 16.4006 24.238 16.4114 24.1462C16.4221 24.0545 16.4015 23.9618 16.353 23.8832C16.0506 23.3937 15.8285 22.859 15.6951 22.2993C15.6738 22.2096 15.6229 22.1298 15.5506 22.0726C15.4783 22.0154 15.3888 21.9842 15.2967 21.9841H13.9321V20.0594H15.2983C15.3904 20.0592 15.4798 20.028 15.5521 19.9709C15.6243 19.9137 15.6753 19.834 15.6967 19.7444C15.8302 19.1849 16.0517 18.6502 16.353 18.1602C16.4013 18.0817 16.4217 17.9892 16.4109 17.8976C16.4001 17.806 16.3587 17.7208 16.2935 17.6556L15.3283 16.6888L16.6893 15.328L17.6559 16.2946C17.721 16.3599 17.8062 16.4014 17.8978 16.4122C17.9894 16.423 18.082 16.4025 18.1605 16.3541C18.6505 16.0528 19.1853 15.8313 19.7449 15.6979C19.8344 15.6764 19.9141 15.6254 19.9712 15.5532C20.0283 15.4809 20.0594 15.3915 20.0596 15.2995V13.933H21.9846V15.2969C21.9847 15.389 22.0159 15.4785 22.073 15.5508C22.1302 15.6231 22.2101 15.674 22.2998 15.6953C22.8595 15.8289 23.3942 16.0512 23.8837 16.3537C23.9623 16.4023 24.055 16.4229 24.1467 16.4122C24.2385 16.4015 24.324 16.36 24.3892 16.2946L25.3549 15.328L26.7159 16.6891L25.75 17.6549C25.6847 17.7202 25.6434 17.8056 25.6327 17.8973C25.622 17.989 25.6425 18.0817 25.691 18.1602C25.9934 18.6497 26.2155 19.1844 26.3488 19.7441C26.3701 19.8339 26.421 19.9138 26.4933 19.971C26.5656 20.0283 26.6551 20.0595 26.7473 20.0596H28.1111L28.1118 21.9843Z" fill="#652D90"></path> <path d="M21.022 17.4712C20.3198 17.4712 19.6333 17.6794 19.0494 18.0696C18.4655 18.4597 18.0104 19.0142 17.7417 19.663C17.473 20.3118 17.4027 21.0257 17.5397 21.7144C17.6767 22.4032 18.0148 23.0358 18.5114 23.5324C19.0079 24.0289 19.6406 24.3671 20.3293 24.5041C21.018 24.6411 21.7319 24.5707 22.3807 24.302C23.0295 24.0333 23.584 23.5782 23.9742 22.9943C24.3643 22.4104 24.5725 21.724 24.5725 21.0217C24.5715 20.0804 24.1971 19.1779 23.5314 18.5123C22.8658 17.8467 21.9633 17.4722 21.022 17.4712ZM21.022 23.7524C20.482 23.7524 19.9541 23.5923 19.5051 23.2923C19.0562 22.9923 18.7062 22.5659 18.4996 22.067C18.2929 21.5681 18.2389 21.0192 18.3442 20.4896C18.4496 19.96 18.7096 19.4735 19.0914 19.0916C19.4732 18.7098 19.9597 18.4498 20.4893 18.3444C21.019 18.2391 21.5679 18.2932 22.0668 18.4998C22.5657 18.7064 22.9921 19.0564 23.2921 19.5054C23.5921 19.9544 23.7522 20.4822 23.7522 21.0222C23.7513 21.746 23.4633 22.4398 22.9515 22.9516C22.4397 23.4633 21.7458 23.7512 21.022 23.752V23.7524Z" fill="#652D90"></path> <path d="M17.9791 4.88827C20.3622 5.58982 22.4202 7.11179 23.789 9.18483C23.4607 9.482 23.2532 9.88948 23.2058 10.3297C23.1584 10.77 23.2746 11.2123 23.5321 11.5725C23.7897 11.9327 24.1707 12.1856 24.6026 12.2831C25.0346 12.3807 25.4873 12.316 25.8746 12.1014C26.2619 11.8869 26.5569 11.5374 26.7033 11.1195C26.8497 10.7016 26.8374 10.2445 26.6687 9.83509C26.4999 9.4257 26.1866 9.09263 25.7882 8.89926C25.3899 8.70589 24.9344 8.66572 24.5083 8.7864C23.0337 6.52498 20.8007 4.86378 18.2109 4.10147C18.1589 4.08509 18.1042 4.07924 18.0499 4.08426C17.9956 4.08929 17.9428 4.10508 17.8947 4.13072C17.8466 4.15636 17.8041 4.19134 17.7697 4.2336C17.7352 4.27587 17.7096 4.32457 17.6942 4.37687C17.6788 4.42917 17.674 4.48402 17.68 4.5382C17.6861 4.59238 17.7029 4.64481 17.7294 4.69242C17.756 4.74004 17.7917 4.78188 17.8347 4.81551C17.8776 4.84914 17.9265 4.87387 17.9791 4.88827ZM25.9687 10.5173C25.9687 10.7106 25.9114 10.8997 25.8039 11.0605C25.6965 11.2213 25.5438 11.3466 25.3651 11.4206C25.1864 11.4946 24.9898 11.514 24.8001 11.4763C24.6105 11.4386 24.4362 11.3454 24.2995 11.2087C24.1627 11.0719 24.0696 10.8977 24.0319 10.708C23.9941 10.5183 24.0135 10.3217 24.0875 10.1431C24.1615 9.96439 24.2868 9.81168 24.4476 9.70423C24.6084 9.59679 24.7975 9.53944 24.9909 9.53944C25.2501 9.53969 25.4987 9.64279 25.682 9.82611C25.8654 10.0094 25.9685 10.258 25.9687 10.5173Z" fill="#652D90"></path> <path d="M12.0208 25.1116C9.63822 24.4098 7.58062 22.8878 6.2121 20.815C6.54038 20.5178 6.74795 20.1104 6.79531 19.6701C6.84267 19.2298 6.72652 18.7875 6.46896 18.4273C6.2114 18.0671 5.83041 17.8142 5.39849 17.7167C4.96656 17.6192 4.51385 17.6838 4.12651 17.8984C3.73916 18.1129 3.44422 18.4624 3.2978 18.8803C3.15139 19.2982 3.16372 19.7553 3.33245 20.1647C3.50118 20.5741 3.81453 20.9072 4.21288 21.1006C4.61123 21.2939 5.06676 21.3341 5.4928 21.2134C6.96707 23.4747 9.1996 25.1359 11.7891 25.8984C11.8267 25.9095 11.8658 25.9151 11.9051 25.915C12.0036 25.9148 12.0987 25.8791 12.1731 25.8145C12.2475 25.7499 12.2961 25.6607 12.3102 25.5632C12.3242 25.4657 12.3026 25.3664 12.2495 25.2835C12.1963 25.2006 12.1151 25.1395 12.0206 25.1116H12.0208ZM4.03124 19.4826C4.03133 19.2892 4.08876 19.1002 4.19626 18.9395C4.30376 18.7787 4.4565 18.6535 4.63518 18.5795C4.81386 18.5056 5.01045 18.4863 5.2001 18.5241C5.38975 18.5619 5.56393 18.655 5.70063 18.7918C5.83734 18.9286 5.93042 19.1028 5.96811 19.2925C6.0058 19.4821 5.98641 19.6787 5.91239 19.8573C5.83837 20.036 5.71304 20.1887 5.55225 20.2961C5.39146 20.4035 5.20242 20.4609 5.00905 20.4609C4.74971 20.4606 4.50108 20.3574 4.31774 20.174C4.13441 19.9906 4.03136 19.7419 4.03124 19.4826Z" fill="#652D90"></path> </svg>