<svg width="30" height="30" viewBox="0 0 30 30" fill="none" xmlns="http://www.w3.org/2000/svg"> <g clip-path="url(#clip0_325_2504)"> <path d="M18.9409 2.959C18.8124 2.5725 18.4879 2.2895 18.0944 2.2215L16.6479 1.971L15.9689 0.607C15.7814 0.233 15.4104 0 14.9999 0C14.5894 0 14.2184 0.233 14.0309 0.6075L13.3519 1.9715L11.9059 2.222C11.5119 2.29 11.1869 2.5725 11.0589 2.9595C10.9264 3.3565 11.0214 3.7895 11.3059 4.091L12.3459 5.192L12.1249 6.725C12.0639 7.146 12.2389 7.5585 12.5809 7.801C12.7659 7.9325 12.9824 7.999 13.1994 7.999C13.3679 7.999 13.5374 7.959 13.6929 7.8775L14.9994 7.197L16.3059 7.8775C16.6629 8.0645 17.0894 8.034 17.4184 7.801C17.7609 7.5585 17.9354 7.1455 17.8744 6.725L17.6534 5.192L18.6934 4.091C18.9779 3.7895 19.0729 3.3565 18.9404 2.9595L18.9409 2.959ZM17.9674 3.404L16.7614 4.681C16.6564 4.792 16.6079 4.9445 16.6299 5.0955L16.8859 6.8675C16.8959 6.9385 16.8574 6.9735 16.8409 6.9855C16.8059 7.009 16.7819 6.9975 16.7684 6.991L15.2309 6.1895C15.0864 6.1145 14.9134 6.1145 14.7689 6.1895L13.2314 6.991C13.2179 6.998 13.1934 7.009 13.1589 6.9855C13.1424 6.9735 13.1044 6.938 13.1139 6.8675L13.3699 5.0955C13.3919 4.9445 13.3434 4.792 13.2384 4.681L12.0324 3.404C11.9869 3.3555 11.9999 3.2975 12.0074 3.275C12.0204 3.2355 12.0434 3.213 12.0764 3.207L13.7724 2.913C13.9289 2.8855 14.0634 2.7855 14.1349 2.643L14.9269 1.053C14.9334 1.04 14.9534 1 14.9999 1C15.0464 1 15.0669 1.0395 15.0729 1.0525L15.8649 2.643C15.9364 2.7855 16.0704 2.8855 16.2274 2.913L17.9239 3.207C17.9559 3.213 17.9789 3.2355 17.9924 3.275C18.0004 3.2975 18.0129 3.3555 17.9674 3.404Z" fill="#652D90"></path> <path d="M9.94084 6.959C9.81234 6.5725 9.48784 6.2895 9.09434 6.2215L7.64784 5.971L6.96884 4.607C6.78234 4.233 6.41134 4 6.00034 4C5.58934 4 5.21884 4.233 5.03134 4.6075L4.35234 5.9715L2.90634 6.222C2.51234 6.29 2.18734 6.5725 2.05934 6.9595C1.92684 7.3565 2.02184 7.7895 2.30634 8.091L3.34634 9.192L3.12534 10.725C3.06434 11.146 3.23934 11.5585 3.58134 11.801C3.76634 11.9325 3.98284 11.999 4.19984 11.999C4.36834 11.999 4.53784 11.959 4.69334 11.8775L5.99984 11.197L7.30634 11.8775C7.66384 12.0645 8.09034 12.034 8.41884 11.801C8.76134 11.5585 8.93584 11.1455 8.87484 10.725L8.65384 9.192L9.69384 8.091C9.97834 7.7895 10.0733 7.356 9.94084 6.959ZM8.96734 7.404L7.76134 8.681C7.65634 8.792 7.60784 8.9445 7.62984 9.0955L7.88584 10.8675C7.89584 10.9385 7.85734 10.9735 7.84084 10.9855C7.80584 11.009 7.78184 10.998 7.76834 10.991L6.23084 10.1895C6.08634 10.1145 5.91334 10.1145 5.76884 10.1895L4.23134 10.991C4.21784 10.9985 4.19384 11.009 4.15884 10.9855C4.14234 10.9735 4.10434 10.938 4.11384 10.8675L4.36984 9.0955C4.39184 8.9445 4.34334 8.792 4.23834 8.681L3.03234 7.404C2.98684 7.3555 2.99984 7.2975 3.00734 7.275C3.02034 7.2355 3.04334 7.213 3.07634 7.207L4.77234 6.913C4.92884 6.8855 5.06334 6.7855 5.13484 6.643L5.92684 5.053C5.93334 5.04 5.95334 5 5.99984 5C6.04634 5 6.06684 5.0395 6.07284 5.0525L6.86484 6.643C6.93634 6.7855 7.07034 6.8855 7.22734 6.913L8.92384 7.207C8.95584 7.213 8.97884 7.2355 8.99234 7.275C9.00034 7.2975 9.01284 7.3555 8.96734 7.404Z" fill="#652D90"></path> <path d="M27.9408 6.959C27.8123 6.5725 27.4878 6.2895 27.0943 6.2215L25.6478 5.971L24.9688 4.607C24.7823 4.233 24.4113 4 24.0003 4C23.5893 4 23.2188 4.233 23.0313 4.6075L22.3523 5.9715L20.9063 6.222C20.5123 6.29 20.1873 6.5725 20.0593 6.9595C19.9268 7.3565 20.0218 7.7895 20.3063 8.091L21.3463 9.192L21.1253 10.725C21.0643 11.146 21.2393 11.5585 21.5813 11.801C21.7663 11.9325 21.9828 11.999 22.1998 11.999C22.3683 11.999 22.5378 11.959 22.6933 11.8775L23.9998 11.197L25.3063 11.8775C25.6633 12.0645 26.0903 12.034 26.4188 11.801C26.7613 11.5585 26.9358 11.1455 26.8748 10.725L26.6538 9.192L27.6938 8.091C27.9783 7.7895 28.0733 7.356 27.9408 6.959ZM26.9673 7.404L25.7613 8.681C25.6563 8.792 25.6078 8.9445 25.6298 9.0955L25.8858 10.8675C25.8958 10.9385 25.8573 10.9735 25.8408 10.9855C25.8058 11.009 25.7818 10.998 25.7683 10.991L24.2308 10.1895C24.0863 10.1145 23.9133 10.1145 23.7688 10.1895L22.2313 10.991C22.2183 10.9985 22.1933 11.009 22.1588 10.9855C22.1423 10.9735 22.1043 10.938 22.1138 10.8675L22.3698 9.0955C22.3918 8.9445 22.3433 8.792 22.2383 8.681L21.0323 7.404C20.9868 7.3555 20.9998 7.2975 21.0073 7.275C21.0203 7.2355 21.0433 7.213 21.0763 7.207L22.7723 6.913C22.9288 6.8855 23.0633 6.7855 23.1348 6.643L23.9268 5.053C23.9333 5.04 23.9533 5 23.9998 5C24.0463 5 24.0668 5.0395 24.0728 5.0525L24.8648 6.643C24.9363 6.7855 25.0703 6.8855 25.2273 6.913L26.9238 7.207C26.9558 7.213 26.9788 7.2355 26.9923 7.275C27.0003 7.2975 27.0128 7.3555 26.9673 7.404Z" fill="#652D90"></path> <path d="M15 12C6.729 12 0 18.729 0 27C0 27.5515 0.4485 28 1 28H7C7.5515 28 8 27.5515 8 27C8 23.14 11.14 20 15 20C17.3675 20 19.556 21.198 20.8455 23.16C18.6155 23.9485 16.8865 24.585 15.6135 25.085C15.416 25.0345 15.213 25 15 25C13.6215 25 12.5 26.1215 12.5 27.5C12.5 28.8785 13.6215 30 15 30C15.9845 30 16.83 29.423 17.2375 28.5935C18.544 27.882 20.221 26.916 21.908 25.926C21.963 26.28 22 26.638 22 27C22 27.5515 22.4485 28 23 28H29C29.5515 28 30 27.5515 30 27C30 18.729 23.271 12 15 12ZM20.2885 21.0045C18.9715 19.8415 17.2935 19.129 15.5 19.017V13.0125C18.983 13.1355 22.1455 14.5355 24.533 16.76L20.2885 21.0045ZM7 27H1C1 23.3195 2.4295 19.9685 4.76 17.467L9.009 21.716C7.763 23.127 7 24.974 7 27ZM9.716 21.009L5.467 16.76C7.8545 14.536 11.0165 13.136 14.5 13.0125V19.025C12.671 19.139 11.0095 19.8665 9.716 21.009ZM25.6275 22.5555C23.228 23.9915 19.904 25.9675 17.481 27.317C17.435 26.6935 17.1695 26.131 16.7485 25.718C18.761 24.9505 21.681 23.91 25.6275 22.5555ZM14.9995 29C14.1725 29 13.4995 28.327 13.4995 27.5C13.4995 26.673 14.1725 26 14.9995 26C15.8265 26 16.4995 26.673 16.4995 27.5C16.4995 28.327 15.8265 29 14.9995 29ZM22.9995 27C22.9995 26.453 22.9415 25.911 22.832 25.382C24.0075 24.688 25.1535 24.0045 26.143 23.413C26.5925 23.1405 26.758 22.6 26.5375 22.1275C26.318 21.658 25.803 21.437 25.307 21.608C24.0365 22.044 22.8755 22.447 21.8125 22.82C21.5695 22.4245 21.295 22.0555 20.9935 21.7135L25.239 17.468C27.5695 19.9695 28.999 23.3205 28.999 27.001H22.999L22.9995 27Z" fill="#652D90"></path> </g> <defs> <clipPath id="clip0_325_2504"> <rect width="30" height="30" fill="white"></rect> </clipPath> </defs> </svg>