<svg width="39" height="39" viewBox="0 0 39 39" fill="none" xmlns="http://www.w3.org/2000/svg"> <path d="M35.6484 3.12305H3.35156C2.88709 3.12361 2.4418 3.30837 2.11337 3.63681C1.78494 3.96524 1.60017 4.41053 1.59961 4.875V34.125C1.60017 34.5895 1.78494 35.0348 2.11337 35.3632C2.4418 35.6916 2.88709 35.8764 3.35156 35.877H35.6484C36.1129 35.8764 36.5582 35.6916 36.8866 35.3632C37.2151 35.0348 37.3998 34.5895 37.4004 34.125V4.875C37.3998 4.41053 37.2151 3.96524 36.8866 3.63681C36.5582 3.30837 36.1129 3.12361 35.6484 3.12305ZM3.35156 4.18945H35.6484C35.8302 4.1897 36.0044 4.262 36.1329 4.39051C36.2614 4.51902 36.3337 4.69326 36.334 4.875V9.82617H2.66602V4.875C2.66626 4.69326 2.73856 4.51902 2.86707 4.39051C2.99559 4.262 3.16982 4.1897 3.35156 4.18945ZM35.6484 34.8105H3.35156C3.16982 34.8103 2.99559 34.738 2.86707 34.6095C2.73856 34.481 2.66626 34.3067 2.66602 34.125V10.8926H36.334V34.125C36.3337 34.3067 36.2614 34.481 36.1329 34.6095C36.0044 34.738 35.8302 34.8103 35.6484 34.8105Z" fill="#652D90"></path> <path d="M5.48438 7.76953C5.90506 7.76953 6.24609 7.4285 6.24609 7.00781C6.24609 6.58713 5.90506 6.24609 5.48438 6.24609C5.06369 6.24609 4.72266 6.58713 4.72266 7.00781C4.72266 7.4285 5.06369 7.76953 5.48438 7.76953Z" fill="#652D90"></path> <path d="M8.53125 7.76953C8.95194 7.76953 9.29297 7.4285 9.29297 7.00781C9.29297 6.58713 8.95194 6.24609 8.53125 6.24609C8.11056 6.24609 7.76953 6.58713 7.76953 7.00781C7.76953 7.4285 8.11056 7.76953 8.53125 7.76953Z" fill="#652D90"></path> <path d="M11.5781 7.76953C11.9988 7.76953 12.3398 7.4285 12.3398 7.00781C12.3398 6.58713 11.9988 6.24609 11.5781 6.24609C11.1574 6.24609 10.8164 6.58713 10.8164 7.00781C10.8164 7.4285 11.1574 7.76953 11.5781 7.76953Z" fill="#652D90"></path> <path d="M6.39844 16.6816C6.53985 16.6816 6.67547 16.6255 6.77547 16.5255C6.87546 16.4255 6.93164 16.2899 6.93164 16.1484V15.1582H7.92188C8.06329 15.1582 8.19891 15.102 8.29891 15.002C8.3989 14.902 8.45508 14.7664 8.45508 14.625C8.45508 14.4836 8.3989 14.348 8.29891 14.248C8.19891 14.148 8.06329 14.0918 7.92188 14.0918H6.39844C6.25702 14.0918 6.1214 14.148 6.02141 14.248C5.92141 14.348 5.86523 14.4836 5.86523 14.625V16.1484C5.86523 16.2899 5.92141 16.4255 6.02141 16.5255C6.1214 16.6255 6.25702 16.6816 6.39844 16.6816Z" fill="#652D90"></path> <path d="M32.6016 29.0215C32.4601 29.0215 32.3245 29.0777 32.2245 29.1777C32.1245 29.2777 32.0684 29.4133 32.0684 29.5547V30.5449H31.0781C30.9367 30.5449 30.8011 30.6011 30.7011 30.7011C30.6011 30.8011 30.5449 30.9367 30.5449 31.0781C30.5449 31.2195 30.6011 31.3552 30.7011 31.4552C30.8011 31.5552 30.9367 31.6113 31.0781 31.6113H32.6016C32.743 31.6113 32.8786 31.5552 32.9786 31.4552C33.0786 31.3552 33.1348 31.2195 33.1348 31.0781V29.5547C33.1348 29.4133 33.0786 29.2777 32.9786 29.1777C32.8786 29.0777 32.743 29.0215 32.6016 29.0215Z" fill="#652D90"></path> <path d="M32.6016 14.0918H31.0781C30.9367 14.0918 30.8011 14.148 30.7011 14.248C30.6011 14.348 30.5449 14.4836 30.5449 14.625C30.5449 14.7664 30.6011 14.902 30.7011 15.002C30.8011 15.102 30.9367 15.1582 31.0781 15.1582H32.0684V16.1484C32.0684 16.2899 32.1245 16.4255 32.2245 16.5255C32.3245 16.6255 32.4601 16.6816 32.6016 16.6816C32.743 16.6816 32.8786 16.6255 32.9786 16.5255C33.0786 16.4255 33.1348 16.2899 33.1348 16.1484V14.625C33.1348 14.4836 33.0786 14.348 32.9786 14.248C32.8786 14.148 32.743 14.0918 32.6016 14.0918Z" fill="#652D90"></path> <path d="M7.92188 30.5449H6.93164V29.5547C6.93164 29.4133 6.87546 29.2777 6.77547 29.1777C6.67547 29.0777 6.53985 29.0215 6.39844 29.0215C6.25702 29.0215 6.1214 29.0777 6.02141 29.1777C5.92141 29.2777 5.86523 29.4133 5.86523 29.5547V31.0781C5.86523 31.2195 5.92141 31.3552 6.02141 31.4552C6.1214 31.5552 6.25702 31.6113 6.39844 31.6113H7.92188C8.06329 31.6113 8.19891 31.5552 8.29891 31.4552C8.3989 31.3552 8.45508 31.2195 8.45508 31.0781C8.45508 30.9367 8.3989 30.8011 8.29891 30.7011C8.19891 30.6011 8.06329 30.5449 7.92188 30.5449Z" fill="#652D90"></path> <path d="M18.2812 15.9199H8.22656C8.08515 15.9199 7.94953 15.9761 7.84953 16.0761C7.74954 16.1761 7.69336 16.3117 7.69336 16.4531V29.25C7.69336 29.3914 7.74954 29.527 7.84953 29.627C7.94953 29.727 8.08515 29.7832 8.22656 29.7832H18.2812C18.4227 29.7832 18.5583 29.727 18.6583 29.627C18.7583 29.527 18.8145 29.3914 18.8145 29.25V16.4531C18.8145 16.3117 18.7583 16.1761 18.6583 16.0761C18.5583 15.9761 18.4227 15.9199 18.2812 15.9199ZM17.748 28.7168H8.75977V16.9863H17.748V28.7168Z" fill="#652D90"></path> <path d="M20.7188 22.4707H30.7734C30.9149 22.4707 31.0505 22.4145 31.1505 22.3145C31.2505 22.2145 31.3066 22.0789 31.3066 21.9375V16.4531C31.3066 16.3117 31.2505 16.1761 31.1505 16.0761C31.0505 15.9761 30.9149 15.9199 30.7734 15.9199H20.7188C20.5773 15.9199 20.4417 15.9761 20.3417 16.0761C20.2417 16.1761 20.1855 16.3117 20.1855 16.4531V21.9375C20.1855 22.0789 20.2417 22.2145 20.3417 22.3145C20.4417 22.4145 20.5773 22.4707 20.7188 22.4707ZM21.252 16.9863H30.2402V21.4043H21.252V16.9863Z" fill="#652D90"></path> <path d="M30.7734 23.8418H24.375C24.2336 23.8418 24.098 23.898 23.998 23.998C23.898 24.098 23.8418 24.2336 23.8418 24.375C23.8418 24.5164 23.898 24.652 23.998 24.752C24.098 24.852 24.2336 24.9082 24.375 24.9082H30.7734C30.9149 24.9082 31.0505 24.852 31.1505 24.752C31.2505 24.652 31.3066 24.5164 31.3066 24.375C31.3066 24.2336 31.2505 24.098 31.1505 23.998C31.0505 23.898 30.9149 23.8418 30.7734 23.8418Z" fill="#652D90"></path> <path d="M20.7188 24.9082H21.9375C22.0789 24.9082 22.2145 24.852 22.3145 24.752C22.4145 24.652 22.4707 24.5164 22.4707 24.375C22.4707 24.2336 22.4145 24.098 22.3145 23.998C22.2145 23.898 22.0789 23.8418 21.9375 23.8418H20.7188C20.5773 23.8418 20.4417 23.898 20.3417 23.998C20.2417 24.098 20.1855 24.2336 20.1855 24.375C20.1855 24.5164 20.2417 24.652 20.3417 24.752C20.4417 24.852 20.5773 24.9082 20.7188 24.9082Z" fill="#652D90"></path> <path d="M31.3066 29.25C31.3066 29.1086 31.2505 28.973 31.1505 28.873C31.0505 28.773 30.9149 28.7168 30.7734 28.7168H29.5547C29.4133 28.7168 29.2777 28.773 29.1777 28.873C29.0777 28.973 29.0215 29.1086 29.0215 29.25C29.0215 29.3914 29.0777 29.527 29.1777 29.627C29.2777 29.727 29.4133 29.7832 29.5547 29.7832H30.7734C30.9149 29.7832 31.0505 29.727 31.1505 29.627C31.2505 29.527 31.3066 29.3914 31.3066 29.25Z" fill="#652D90"></path> <path d="M20.7188 27.3457H30.7734C30.9149 27.3457 31.0505 27.2895 31.1505 27.1895C31.2505 27.0895 31.3066 26.9539 31.3066 26.8125C31.3066 26.6711 31.2505 26.5355 31.1505 26.4355C31.0505 26.3355 30.9149 26.2793 30.7734 26.2793H20.7188C20.5773 26.2793 20.4417 26.3355 20.3417 26.4355C20.2417 26.5355 20.1855 26.6711 20.1855 26.8125C20.1855 26.9539 20.2417 27.0895 20.3417 27.1895C20.4417 27.2895 20.5773 27.3457 20.7188 27.3457Z" fill="#652D90"></path> <path d="M27.1172 28.7168H20.7188C20.5773 28.7168 20.4417 28.773 20.3417 28.873C20.2417 28.973 20.1855 29.1086 20.1855 29.25C20.1855 29.3914 20.2417 29.527 20.3417 29.627C20.4417 29.727 20.5773 29.7832 20.7188 29.7832H27.1172C27.2586 29.7832 27.3942 29.727 27.4942 29.627C27.5942 29.527 27.6504 29.3914 27.6504 29.25C27.6504 29.1086 27.5942 28.973 27.4942 28.873C27.3942 28.773 27.2586 28.7168 27.1172 28.7168Z" fill="#652D90"></path> </svg>