<svg width="30" height="30" viewBox="0 0 30 30" fill="none" xmlns="http://www.w3.org/2000/svg"> <path d="M25.7922 4.54926C25.778 4.46516 25.7381 4.38755 25.6778 4.32723C25.6175 4.26691 25.5399 4.22688 25.4558 4.2127C21.7225 3.58153 17.9324 4.69833 14.789 7.35544C14.4168 7.66387 13.8486 8.20833 13.5578 8.49942C12.8756 9.18376 12.2552 9.92704 11.7039 10.7206L9.05146 10.9222C8.56893 10.9586 8.10525 11.125 7.70956 11.4035C7.31386 11.6821 7.00089 12.0625 6.8038 12.5044L5.76388 14.8334C5.73836 14.8906 5.72627 14.9528 5.72854 15.0154C5.73081 15.078 5.74738 15.1392 5.77697 15.1944C5.80656 15.2496 5.8484 15.2973 5.89927 15.3338C5.95014 15.3703 6.00869 15.3947 6.07044 15.405L9.14614 15.9254L8.66029 16.5448C8.43184 16.837 8.31811 17.2025 8.34052 17.5727C8.36292 17.9429 8.51992 18.2921 8.78193 18.5546L11.4339 21.2065C11.6964 21.4685 12.0456 21.6254 12.4158 21.6477C12.7859 21.6701 13.1515 21.5564 13.4436 21.3279L14.0626 20.8425L14.5827 23.9185C14.5931 23.9802 14.6175 24.0387 14.654 24.0895C14.6905 24.1403 14.7382 24.1821 14.7934 24.2116C14.8485 24.2412 14.9097 24.2577 14.9722 24.26C15.0348 24.2622 15.097 24.2501 15.1541 24.2246L17.4845 23.1875C17.9274 22.9907 18.3086 22.6776 18.5877 22.2814C18.8668 21.8852 19.0332 21.4207 19.0693 20.9375L19.2683 18.3054C20.0695 17.7558 20.8185 17.1337 21.5057 16.4468C21.7949 16.1579 22.3375 15.5923 22.6483 15.2175C25.3016 12.0774 26.4184 8.28848 25.7922 4.54926ZM7.5531 12.8389C7.68989 12.532 7.90717 12.2679 8.18189 12.0745C8.45662 11.8811 8.77855 11.7656 9.11357 11.7404L11.1451 11.5859C10.8175 12.1336 10.5248 12.7013 10.2686 13.2858C9.99777 13.896 9.77293 14.5256 9.59591 15.1693L6.7288 14.6843L7.5531 12.8389ZM12.9376 20.6825C12.8033 20.7873 12.6352 20.8395 12.4651 20.8292C12.295 20.8188 12.1344 20.7468 12.0137 20.6264L9.36177 17.9745C9.24137 17.8539 9.16924 17.6934 9.15897 17.5232C9.14869 17.3531 9.20098 17.1851 9.30599 17.0508L9.93107 16.254L13.7345 20.0574L12.9376 20.6825ZM18.2507 20.8758C18.2254 21.2115 18.1096 21.534 17.9157 21.8091C17.7217 22.0842 17.4568 22.3016 17.1491 22.4382L15.3048 23.2601L14.822 20.4097C15.468 20.2329 16.0995 20.0071 16.7111 19.7342C17.293 19.4806 17.8581 19.1898 18.4028 18.8637L18.2507 20.8758ZM22.0199 14.6883L22.0173 14.6916C21.7555 15.0073 21.2697 15.5215 20.9251 15.8658C20.228 16.5644 19.4636 17.1924 18.643 17.7408C17.929 18.2245 17.1715 18.6408 16.3804 18.9842C15.7696 19.2578 15.1377 19.4813 14.4908 19.6526L12.5104 17.6717L10.3497 15.511C10.5221 14.8629 10.7459 14.2296 11.0188 13.617C11.3651 12.8237 11.7823 12.0632 12.2654 11.345C12.8168 10.5323 13.4437 9.77366 14.1379 9.07903C14.484 8.73286 14.9985 8.24676 15.3154 7.98403C18.1918 5.55239 21.6306 4.49184 25.0281 4.97559C25.5093 8.37965 24.4473 11.8182 22.0201 14.6893L22.0199 14.6883Z" fill="#652D90"></path> <path d="M17.3268 8.74489C16.7231 9.33451 16.2907 10.077 16.076 10.8932C15.836 11.8759 16.0385 12.7799 16.6317 13.3731C16.8556 13.5891 17.1204 13.7582 17.4105 13.8706C17.7007 13.9829 18.0103 14.0363 18.3213 14.0275C18.5872 14.0262 18.8519 13.9931 19.11 13.929C19.9266 13.7143 20.6695 13.2819 21.2597 12.6779C22.7273 11.2105 23.039 9.13442 21.9548 8.04996C20.8706 6.96551 18.7945 7.277 17.3268 8.74489ZM20.6784 12.0976C20.1956 12.5955 19.5867 12.9529 18.9166 13.1317C18.2184 13.3018 17.5973 13.1786 17.2115 12.793C16.8257 12.4075 16.7025 11.7852 16.8733 11.0865C17.0521 10.4166 17.4093 9.80778 17.9069 9.32496C18.6204 8.61153 19.5178 8.222 20.2713 8.222C20.4731 8.21328 20.6747 8.24485 20.8642 8.31487C21.0537 8.38489 21.2273 8.49195 21.375 8.62981C22.1264 9.38121 21.8079 10.9696 20.6796 12.0976H20.6784Z" fill="#652D90"></path> <path d="M7.29973 22.1308L4.16848 25.2618C4.13039 25.2999 4.10018 25.3451 4.07956 25.3949C4.05895 25.4447 4.04834 25.498 4.04834 25.5519C4.04834 25.6057 4.05895 25.6591 4.07956 25.7088C4.10018 25.7586 4.13039 25.8038 4.16848 25.8419C4.20657 25.88 4.25178 25.9102 4.30155 25.9308C4.35131 25.9514 4.40465 25.9621 4.45852 25.9621C4.51238 25.9621 4.56572 25.9514 4.61548 25.9308C4.66525 25.9102 4.71047 25.88 4.74856 25.8419L7.87981 22.7107C7.9545 22.6333 7.99582 22.5297 7.99487 22.4221C7.99391 22.3146 7.95076 22.2117 7.87469 22.1357C7.79863 22.0597 7.69575 22.0166 7.58821 22.0156C7.48067 22.0147 7.37707 22.0561 7.29973 22.1308Z" fill="#652D90"></path> <path d="M4.57572 21.6284C4.6296 21.6285 4.68296 21.6179 4.73275 21.5973C4.78254 21.5767 4.82778 21.5465 4.86588 21.5084L6.42822 19.9452C6.50295 19.8678 6.54431 19.7642 6.5434 19.6567C6.54249 19.5491 6.49937 19.4463 6.42334 19.3702C6.34731 19.2941 6.24445 19.251 6.13691 19.25C6.02937 19.2491 5.92575 19.2904 5.84838 19.3651L4.2858 20.9295C4.22848 20.9869 4.18945 21.06 4.17364 21.1395C4.15783 21.219 4.16595 21.3015 4.19698 21.3764C4.22801 21.4513 4.28055 21.5153 4.34796 21.5604C4.41537 21.6055 4.49463 21.6296 4.57572 21.6296V21.6284Z" fill="#652D90"></path> <path d="M10.0868 23.5596L8.49308 25.1534C8.45391 25.1912 8.42267 25.2365 8.40119 25.2866C8.3797 25.3366 8.3684 25.3904 8.36793 25.4449C8.36747 25.4993 8.37786 25.5533 8.39849 25.6038C8.41913 25.6542 8.44959 25.6999 8.48811 25.7384C8.52663 25.7769 8.57243 25.8074 8.62284 25.828C8.67325 25.8486 8.72726 25.859 8.78172 25.8585C8.83618 25.858 8.89 25.8467 8.94004 25.8252C8.99007 25.8037 9.03533 25.7724 9.07315 25.7332L10.6669 24.1395C10.7416 24.0622 10.783 23.9586 10.7821 23.851C10.7812 23.7435 10.7381 23.6406 10.662 23.5645C10.586 23.4885 10.4831 23.4453 10.3756 23.4444C10.268 23.4434 10.1644 23.4847 10.0871 23.5594L10.0868 23.5596Z" fill="#652D90"></path> </svg>