<svg width="39" height="39" viewBox="0 0 39 39" fill="none" xmlns="http://www.w3.org/2000/svg"> <path d="M24.8321 5.25586H13.7046C12.917 5.25675 12.1619 5.57002 11.605 6.12694C11.048 6.68386 10.7348 7.43896 10.7339 8.22656V30.7734C10.7348 31.561 11.048 32.3161 11.605 32.8731C12.1619 33.43 12.917 33.7433 13.7046 33.7441H24.8321C25.6197 33.7433 26.3748 33.43 26.9317 32.8731C27.4886 32.3161 27.8019 31.561 27.8028 30.7734V8.22656C27.8019 7.43896 27.4886 6.68386 26.9317 6.12694C26.3748 5.57002 25.6197 5.25675 24.8321 5.25586ZM22.6127 6.32227V7.01147C22.6125 7.15068 22.5571 7.28412 22.4586 7.38252C22.3601 7.48093 22.2267 7.53628 22.0875 7.53645H16.4507C16.3116 7.53628 16.1781 7.48092 16.0797 7.38251C15.9813 7.28409 15.9259 7.15065 15.9258 7.01147V6.32227H22.6127ZM26.7361 30.7734C26.7355 31.2783 26.5347 31.7624 26.1777 32.1194C25.8207 32.4764 25.3367 32.6772 24.8318 32.6777H13.7046C13.1997 32.6772 12.7157 32.4764 12.3587 32.1194C12.0017 31.7624 11.8009 31.2783 11.8003 30.7734V8.22656C11.8009 7.72168 12.0017 7.23765 12.3587 6.88064C12.7157 6.52364 13.1997 6.32283 13.7046 6.32227H14.8581V7.01147C14.8586 7.43338 15.0264 7.83787 15.3248 8.13621C15.6231 8.43455 16.0276 8.60237 16.4495 8.60285H22.0862C22.5082 8.60237 22.9127 8.43456 23.2111 8.13623C23.5095 7.8379 23.6774 7.43341 23.6779 7.01147V6.32227H24.8321C25.3369 6.32291 25.8209 6.52376 26.1778 6.88075C26.5347 7.23775 26.7355 7.72174 26.7361 8.22656V30.7734Z" fill="#652D90"></path> <path d="M22.5469 30.1387H15.9897C15.8483 30.1387 15.7127 30.1948 15.6127 30.2948C15.5127 30.3948 15.4565 30.5305 15.4565 30.6719C15.4565 30.8133 15.5127 30.9489 15.6127 31.0489C15.7127 31.1489 15.8483 31.2051 15.9897 31.2051H22.5469C22.6883 31.2051 22.824 31.1489 22.924 31.0489C23.024 30.9489 23.0801 30.8133 23.0801 30.6719C23.0801 30.5305 23.024 30.3948 22.924 30.2948C22.824 30.1948 22.6883 30.1387 22.5469 30.1387Z" fill="#652D90"></path> </svg>