<svg width="30" height="30" viewBox="0 0 30 30" fill="none" xmlns="http://www.w3.org/2000/svg"> <g clip-path="url(#clip0_325_2422)"> <path d="M20.6789 -0.171387H8.82715C7.98828 -0.170442 7.18403 0.163217 6.59086 0.756389C5.99769 1.34956 5.66403 2.1538 5.66309 2.99268V27.0071C5.66403 27.846 5.99769 28.6502 6.59086 29.2434C7.18403 29.8366 7.98828 30.1702 8.82715 30.1712H20.6789C21.5178 30.1702 22.322 29.8366 22.9152 29.2434C23.5084 28.6502 23.842 27.846 23.843 27.0071V2.99268C23.842 2.1538 23.5084 1.34956 22.9152 0.756389C22.322 0.163217 21.5178 -0.170442 20.6789 -0.171387ZM18.3151 0.964431V1.69849C18.3149 1.84676 18.2558 1.98889 18.1509 2.0937C18.0461 2.19851 17.9039 2.25747 17.7556 2.25764H11.752C11.6038 2.25747 11.4617 2.1985 11.3569 2.09368C11.252 1.98886 11.1931 1.84674 11.1929 1.69849V0.964431H18.3151ZM22.7068 27.0071C22.7062 27.5448 22.4924 28.0604 22.1121 28.4406C21.7319 28.8209 21.2163 29.0347 20.6786 29.0353H8.82715C8.28941 29.0347 7.77387 28.8209 7.39363 28.4406C7.01339 28.0604 6.7995 27.5448 6.7989 27.0071V2.99268C6.7995 2.45494 7.01339 1.93939 7.39363 1.55915C7.77387 1.17891 8.28941 0.965032 8.82715 0.964431H10.0558V1.69849C10.0563 2.14787 10.235 2.57869 10.5528 2.89644C10.8705 3.2142 11.3014 3.39294 11.7507 3.39346H17.7543C18.2038 3.39294 18.6346 3.21421 18.9524 2.89646C19.2702 2.57872 19.449 2.1479 19.4496 1.69849V0.964431H20.6789C21.2166 0.965118 21.7321 1.17904 22.1122 1.55927C22.4924 1.9395 22.7062 2.45499 22.7068 2.99268V27.0071Z" fill="#652D90"></path> <path d="M18.2452 26.3311H11.2613C11.1106 26.3311 10.9662 26.3909 10.8597 26.4974C10.7532 26.6039 10.6934 26.7483 10.6934 26.899C10.6934 27.0496 10.7532 27.194 10.8597 27.3005C10.9662 27.407 11.1106 27.4669 11.2613 27.4669H18.2452C18.3959 27.4669 18.5403 27.407 18.6468 27.3005C18.7533 27.194 18.8132 27.0496 18.8132 26.899C18.8132 26.7483 18.7533 26.6039 18.6468 26.4974C18.5403 26.3909 18.3959 26.3311 18.2452 26.3311Z" fill="#652D90"></path> </g> <defs> <clipPath id="clip0_325_2422"> <rect width="30" height="30" fill="white"></rect> </clipPath> </defs> </svg>