<svg width="30" height="30" viewBox="0 0 30 30" fill="none" xmlns="http://www.w3.org/2000/svg"> <g clip-path="url(#clip0_325_2290)"> <path d="M27.6685 11.819C28.2117 11.2895 28.4035 10.5123 28.1691 9.79086C27.9347 9.0694 27.3227 8.55348 26.572 8.44443L20.0077 7.49059C19.8789 7.47189 19.7675 7.39098 19.7099 7.27414L16.7742 1.326C16.4386 0.645723 15.7588 0.223145 15.0001 0.223145C14.2415 0.223145 13.5617 0.645723 13.226 1.326L10.2904 7.2742C10.2327 7.39098 10.1214 7.47189 9.99249 7.49064L3.42835 8.44443C2.67765 8.55348 2.06575 9.0694 1.83126 9.79086C1.59677 10.5123 1.7886 11.2895 2.33188 11.819L7.08179 16.449C7.17501 16.5399 7.21761 16.6709 7.19558 16.7993L6.07427 23.3369C5.94606 24.0846 6.24759 24.826 6.8613 25.2719C7.47501 25.7179 8.27353 25.7755 8.94489 25.4226L14.816 22.336C14.9314 22.2753 15.069 22.2753 15.1844 22.336L21.0556 25.4226C21.3476 25.5761 21.6636 25.652 21.9781 25.652C22.3865 25.652 22.7923 25.524 23.139 25.2719C23.7527 24.8259 24.0543 24.0845 23.926 23.3369L22.8047 16.7992C22.7827 16.6708 22.8253 16.5399 22.9185 16.4489L27.6685 11.819ZM21.2449 17.0669L22.3662 23.6046C22.4037 23.8234 22.2686 23.9482 22.2088 23.9916C22.1489 24.0349 21.9885 24.125 21.7921 24.0216L15.9209 20.935C15.6327 20.7835 15.3165 20.7077 15.0003 20.7077C14.684 20.7077 14.3678 20.7835 14.0796 20.9349L8.20849 24.0215C8.01196 24.1248 7.85159 24.0349 7.79177 23.9915C7.73194 23.948 7.59683 23.8233 7.63438 23.6045L8.75569 17.0669C8.86579 16.425 8.65315 15.7704 8.18669 15.3157L3.43679 10.6857C3.27782 10.5307 3.3138 10.3504 3.33671 10.2801C3.3595 10.2097 3.43644 10.0426 3.6561 10.0108L10.2202 9.05691C10.8647 8.96328 11.4216 8.55875 11.7099 7.97463L14.6455 2.02643C14.7437 1.82738 14.9263 1.80588 15.0003 1.80588C15.0742 1.80588 15.2568 1.82732 15.3551 2.02643V2.02648L18.2907 7.97469C18.5789 8.55881 19.1358 8.96334 19.7803 9.05697L26.3445 10.0108C26.5641 10.0427 26.641 10.2097 26.6639 10.2801C26.6867 10.3505 26.7228 10.5308 26.5637 10.6858L21.8138 15.3158C21.3474 15.7704 21.1348 16.425 21.2449 17.0669Z" fill="#652D90"></path> <path d="M24.2451 1.32549C23.8914 1.06861 23.3966 1.14701 23.1397 1.50057L22.2996 2.65674C22.0428 3.01029 22.1211 3.50524 22.4747 3.76211C22.6153 3.86412 22.778 3.91328 22.9392 3.91328C23.184 3.91328 23.4253 3.80014 23.5801 3.58709L24.4201 2.43092C24.677 2.07731 24.5987 1.58236 24.2451 1.32549Z" fill="#652D90"></path> <path d="M7.69697 2.65226L6.85692 1.49609C6.6001 1.14265 6.10522 1.06425 5.75154 1.32101C5.39799 1.57789 5.31959 2.07283 5.57647 2.42638L6.41653 3.58255C6.57139 3.79578 6.81268 3.90886 7.05748 3.90886C7.21879 3.90886 7.38156 3.8597 7.52195 3.75763C7.87551 3.50082 7.95391 3.00587 7.69697 2.65226Z" fill="#652D90"></path> <path d="M2.90343 17.9782C2.76837 17.5626 2.32194 17.335 1.90622 17.4701L0.547019 17.9118C0.131297 18.0468 -0.0961056 18.4934 0.038953 18.909C0.147586 19.2435 0.45784 19.4561 0.791414 19.4561C0.872449 19.4561 0.95489 19.4435 1.03616 19.417L2.39536 18.9754C2.81102 18.8403 3.03848 18.3939 2.90343 17.9782Z" fill="#652D90"></path> <path d="M15.0004 26.7646C14.5633 26.7646 14.209 27.119 14.209 27.556V28.9852C14.209 29.4223 14.5633 29.7766 15.0004 29.7766C15.4374 29.7766 15.7917 29.4223 15.7917 28.9852V27.556C15.7917 27.1189 15.4375 26.7646 15.0004 26.7646Z" fill="#652D90"></path> <path d="M29.453 17.9132L28.0938 17.4715C27.6782 17.3366 27.2316 17.5639 27.0966 17.9796C26.9615 18.3954 27.1889 18.8418 27.6046 18.9769L28.9638 19.4185C29.0451 19.4449 29.1275 19.4574 29.2085 19.4574C29.5422 19.4574 29.8524 19.2448 29.961 18.9103C30.0961 18.4947 29.8686 18.0483 29.453 17.9132Z" fill="#652D90"></path> </g> <defs> <clipPath id="clip0_325_2290"> <rect width="30" height="30" fill="white"></rect> </clipPath> </defs> </svg>