<svg width="30" height="30" viewBox="0 0 30 30" fill="none" xmlns="http://www.w3.org/2000/svg"> <g clip-path="url(#clip0_325_2479)"> <path d="M18.574 6.66064C16.6001 6.66064 15 8.26078 15 10.2346H18.574V6.66064Z" stroke="#652D90" stroke-miterlimit="10" stroke-linecap="round" stroke-linejoin="round"></path> <path d="M11.4263 6.66064V10.2346H15.0003C15.0003 8.26078 13.4001 6.66064 11.4263 6.66064Z" stroke="#652D90" stroke-miterlimit="10" stroke-linecap="round" stroke-linejoin="round"></path> <path d="M15 20.9568V10.2349" stroke="#652D90" stroke-miterlimit="10" stroke-linecap="round" stroke-linejoin="round"></path> <path d="M20.9567 15.5957H9.04346" stroke="#652D90" stroke-miterlimit="10" stroke-linecap="round" stroke-linejoin="round"></path> <path d="M20.9567 10.2349H9.04346V20.9568H20.9567V10.2349Z" stroke="#652D90" stroke-miterlimit="10" stroke-linecap="round" stroke-linejoin="round"></path> <path d="M26.9727 15H29.3553" stroke="#652D90" stroke-miterlimit="10" stroke-linecap="round" stroke-linejoin="round"></path> <path d="M3.02719 15H0.644531" stroke="#652D90" stroke-miterlimit="10" stroke-linecap="round" stroke-linejoin="round"></path> <path d="M15 3.02719V0.644531" stroke="#652D90" stroke-miterlimit="10" stroke-linecap="round" stroke-linejoin="round"></path> <path d="M15 26.9727V29.3553" stroke="#652D90" stroke-miterlimit="10" stroke-linecap="round" stroke-linejoin="round"></path> <path d="M23.4658 6.53393L25.1506 4.84912" stroke="#652D90" stroke-miterlimit="10" stroke-linecap="round" stroke-linejoin="round"></path> <path d="M6.53393 23.4658L4.84912 25.1506" stroke="#652D90" stroke-miterlimit="10" stroke-linecap="round" stroke-linejoin="round"></path> <path d="M6.53393 6.53393L4.84912 4.84912" stroke="#652D90" stroke-miterlimit="10" stroke-linecap="round" stroke-linejoin="round"></path> <path d="M23.4658 23.4658L25.1506 25.1506" stroke="#652D90" stroke-miterlimit="10" stroke-linecap="round" stroke-linejoin="round"></path> </g> <defs> <clipPath id="clip0_325_2479"> <rect width="30" height="30" fill="white"></rect> </clipPath> </defs> </svg>