<svg width="39" height="39" viewBox="0 0 39 39" fill="none" xmlns="http://www.w3.org/2000/svg"> <path d="M17.681 20.205L20.2044 17.6813C20.2539 17.6318 20.2933 17.5731 20.3201 17.5084C20.3469 17.4437 20.3607 17.3744 20.3607 17.3044C20.3607 17.2344 20.3469 17.1651 20.3201 17.1004C20.2933 17.0357 20.2539 16.977 20.2044 16.9275L18.8601 15.5832C19.1364 15.0768 19.358 14.5424 19.521 13.9891H21.421C21.5624 13.9891 21.6981 13.9329 21.7981 13.8329C21.898 13.7329 21.9542 13.5973 21.9542 13.4559V9.88738C21.9542 9.74597 21.898 9.61034 21.7981 9.51035C21.6981 9.41035 21.5624 9.35418 21.421 9.35418H19.5253C19.3621 8.80006 19.1398 8.2651 18.8623 7.75853L20.2044 6.41608C20.254 6.36658 20.2933 6.30781 20.3201 6.24311C20.3469 6.17841 20.3607 6.10906 20.3607 6.03903C20.3607 5.96899 20.3469 5.89964 20.3201 5.83494C20.2933 5.77024 20.254 5.71147 20.2044 5.66197L17.681 3.13825C17.6315 3.0887 17.5728 3.0494 17.5081 3.02258C17.4434 2.99576 17.3741 2.98196 17.3041 2.98196C17.2341 2.98196 17.1647 2.99576 17.1001 3.02258C17.0354 3.0494 16.9767 3.0887 16.9272 3.13825L15.5847 4.48101C15.0782 4.20342 14.5432 3.98114 13.9891 3.81801V1.92163C13.9891 1.8516 13.9754 1.78224 13.9486 1.71754C13.9218 1.65283 13.8825 1.59403 13.833 1.54451C13.7835 1.49499 13.7247 1.45572 13.66 1.42893C13.5953 1.40215 13.5259 1.38839 13.4559 1.38843H9.88708C9.81704 1.38839 9.74769 1.40215 9.68298 1.42893C9.61827 1.45572 9.55948 1.49499 9.50996 1.54451C9.46043 1.59403 9.42116 1.65283 9.39438 1.71754C9.3676 1.78224 9.35383 1.8516 9.35387 1.92163V3.82136C8.80064 3.98455 8.26635 4.20619 7.76005 4.48253L6.41608 3.13825C6.36658 3.08869 6.30781 3.04938 6.24311 3.02256C6.17841 2.99574 6.10906 2.98193 6.03903 2.98193C5.96899 2.98193 5.89964 2.99574 5.83494 3.02256C5.77024 3.04938 5.71147 3.08869 5.66197 3.13825L3.13825 5.66197C3.08869 5.71147 3.04938 5.77024 3.02256 5.83494C2.99574 5.89964 2.98193 5.96899 2.98193 6.03903C2.98193 6.10906 2.99574 6.17841 3.02256 6.24311C3.04938 6.30781 3.08869 6.36658 3.13825 6.41608L4.48192 7.76005C4.20561 8.26647 3.98397 8.80085 3.82075 9.35418H1.92163C1.8516 9.35414 1.78224 9.3679 1.71754 9.39468C1.65283 9.42147 1.59403 9.46074 1.54451 9.51026C1.49499 9.55978 1.45572 9.61858 1.42893 9.68329C1.40215 9.748 1.38839 9.81735 1.38843 9.88738V13.4559C1.38839 13.5259 1.40215 13.5953 1.42893 13.66C1.45572 13.7247 1.49499 13.7835 1.54451 13.833C1.59403 13.8825 1.65283 13.9218 1.71754 13.9486C1.78224 13.9754 1.8516 13.9891 1.92163 13.9891H3.8177C3.98092 14.5432 4.2033 15.0782 4.48101 15.5847L3.13825 16.9275C3.0887 16.977 3.0494 17.0357 3.02258 17.1004C2.99576 17.1651 2.98196 17.2344 2.98196 17.3044C2.98196 17.3744 2.99576 17.4437 3.02258 17.5084C3.0494 17.5731 3.0887 17.6318 3.13825 17.6813L5.66137 20.205C5.76144 20.3049 5.89704 20.361 6.03842 20.361C6.17979 20.361 6.31539 20.3049 6.41547 20.205L7.75792 18.8623C8.26463 19.1399 8.79968 19.3622 9.35387 19.5256V21.4219C9.35387 21.5633 9.41005 21.699 9.51005 21.799C9.61004 21.899 9.74566 21.9551 9.88708 21.9551H13.4559C13.5973 21.9551 13.7329 21.899 13.8329 21.799C13.9329 21.699 13.9891 21.5633 13.9891 21.4219V19.5219C14.5423 19.3587 15.0766 19.1371 15.5829 18.8607L16.9272 20.205C17.0272 20.3049 17.1627 20.3611 17.3041 20.3611C17.4454 20.3611 17.581 20.3049 17.681 20.205ZM16.0476 17.8172C15.9629 17.7323 15.852 17.6785 15.733 17.6645C15.614 17.6505 15.4937 17.677 15.3916 17.7398C14.7545 18.1315 14.0593 18.4194 13.3319 18.5929C13.2155 18.6209 13.1118 18.6871 13.0376 18.7811C12.9634 18.875 12.9229 18.9912 12.9227 19.1109V20.8872H10.4203V19.1158C10.4201 18.9959 10.3796 18.8797 10.3052 18.7857C10.2309 18.6917 10.127 18.6255 10.0105 18.5978C9.28315 18.4238 8.58832 18.1347 7.95231 17.7413C7.85011 17.6783 7.72963 17.6516 7.61036 17.6655C7.4911 17.6794 7.38002 17.7332 7.2951 17.8181L6.03887 19.0734L4.26986 17.3038L5.52517 16.0482C5.60999 15.9633 5.6637 15.8522 5.67763 15.733C5.69157 15.6138 5.6649 15.4934 5.60195 15.3913C5.20859 14.7549 4.91965 14.0596 4.74608 13.3319C4.71835 13.2153 4.65216 13.1115 4.55819 13.0371C4.46422 12.9628 4.34794 12.9222 4.22812 12.9221H2.45483V10.4203H4.23086C4.35059 10.4201 4.46677 10.3796 4.56072 10.3054C4.65467 10.2312 4.72093 10.1275 4.74883 10.0111C4.92212 9.2838 5.2101 8.58874 5.60195 7.95201C5.66464 7.84976 5.6911 7.7294 5.67706 7.61029C5.66302 7.49119 5.6093 7.38027 5.52456 7.2954L4.26986 6.03887L6.03887 4.26986L7.2954 5.52639C7.38019 5.61116 7.49106 5.66489 7.61013 5.67893C7.7292 5.69297 7.84952 5.6665 7.9517 5.60378C8.58864 5.21211 9.28377 4.92414 10.0111 4.75065C10.1275 4.72271 10.2311 4.65644 10.3053 4.5625C10.3796 4.46856 10.42 4.3524 10.4203 4.23269V2.45483H12.9227V4.22781C12.9228 4.34764 12.9634 4.46391 13.0377 4.55789C13.1121 4.65186 13.2159 4.71805 13.3325 4.74578C14.0602 4.91929 14.7554 5.20812 15.3919 5.60134C15.494 5.66456 15.6144 5.69138 15.7337 5.67744C15.853 5.6635 15.964 5.60962 16.0488 5.52456L17.3041 4.26925L19.0734 6.03887L17.8181 7.29449C17.7333 7.37947 17.6796 7.49054 17.6657 7.60977C17.6517 7.72901 17.6784 7.84946 17.7413 7.9517C18.1347 8.58795 18.4235 9.28313 18.5969 10.0108C18.6246 10.1274 18.6908 10.2312 18.7848 10.3055C18.8787 10.3799 18.995 10.4204 19.1148 10.4206H20.8878V12.9227H19.1115C18.9917 12.9229 18.8755 12.9635 18.7816 13.0377C18.6877 13.112 18.6214 13.2157 18.5935 13.3322C18.4201 14.0595 18.1321 14.7546 17.7404 15.3916C17.6776 15.4937 17.6511 15.614 17.6651 15.733C17.6792 15.852 17.7329 15.9629 17.8178 16.0476L19.0734 17.3044L17.3041 19.0734L16.0476 17.8172Z" fill="#652D90"></path> <path d="M11.6716 7.05591C10.7587 7.05591 9.86632 7.32661 9.10727 7.8338C8.34822 8.34098 7.75661 9.06185 7.40726 9.90526C7.05791 10.7487 6.9665 11.6767 7.1446 12.5721C7.3227 13.4675 7.7623 14.2899 8.40782 14.9354C9.05334 15.5809 9.87578 16.0205 10.7711 16.1986C11.6665 16.3767 12.5946 16.2853 13.438 15.936C14.2814 15.5866 15.0023 14.995 15.5094 14.236C16.0166 13.4769 16.2873 12.5845 16.2873 11.6716C16.286 10.4479 15.7992 9.27465 14.9339 8.40933C14.0686 7.54402 12.8954 7.05728 11.6716 7.05591ZM11.6716 15.2215C10.9697 15.2215 10.2835 15.0134 9.6998 14.6234C9.11613 14.2334 8.66121 13.6791 8.39255 13.0306C8.12389 12.3821 8.05357 11.6685 8.19047 10.98C8.32737 10.2915 8.66535 9.65911 9.16167 9.16271C9.65799 8.6663 10.2904 8.32822 10.9788 8.1912C11.6673 8.05418 12.3809 8.12438 13.0295 8.39292C13.678 8.66147 14.2324 9.1163 14.6225 9.6999C15.0125 10.2835 15.2208 10.9697 15.2209 11.6716C15.2198 12.6126 14.8455 13.5147 14.1801 14.1801C13.5147 14.8455 12.6126 15.2198 11.6716 15.2209V15.2215Z" fill="#652D90"></path> <path d="M37.0784 25.0107H35.182C35.0189 24.4566 34.7966 23.9216 34.519 23.4151L35.8614 22.0723C35.911 22.0229 35.9503 21.9641 35.9771 21.8994C36.0039 21.8348 36.0177 21.7654 36.0177 21.6954C36.0177 21.6254 36.0039 21.5561 35.9771 21.4914C35.9503 21.4267 35.911 21.368 35.8614 21.3185L33.338 18.7954C33.2885 18.7459 33.2298 18.7065 33.1651 18.6797C33.1004 18.6529 33.031 18.6391 32.961 18.6391C32.8909 18.6391 32.8216 18.6529 32.7569 18.6797C32.6922 18.7065 32.6334 18.7459 32.5839 18.7954L31.2415 20.1376C30.735 19.86 30.2001 19.6376 29.6461 19.4743V17.5779C29.6461 17.4365 29.59 17.3008 29.49 17.2008C29.39 17.1009 29.2543 17.0447 29.1129 17.0447H25.5441C25.4027 17.0447 25.2671 17.1009 25.1671 17.2008C25.0671 17.3008 25.0109 17.4365 25.0109 17.5779V19.4779C24.4576 19.6411 23.9232 19.8627 23.4168 20.1391L22.0728 18.7954C22.0233 18.7459 21.9646 18.7066 21.8999 18.6797C21.8353 18.6529 21.7659 18.6391 21.6959 18.6391C21.6259 18.6391 21.5566 18.6529 21.4919 18.6797C21.4272 18.7066 21.3685 18.7459 21.319 18.7954L18.7953 21.3185C18.6954 21.4185 18.6393 21.5541 18.6393 21.6954C18.6393 21.8368 18.6954 21.9723 18.7953 22.0723L20.1399 23.4166C19.8634 23.9229 19.6419 24.4573 19.479 25.0107H17.5784C17.437 25.0107 17.3013 25.0669 17.2013 25.1669C17.1013 25.2669 17.0452 25.4025 17.0452 25.5439V29.1124C17.0452 29.2539 17.1013 29.3895 17.2013 29.4895C17.3013 29.5895 17.437 29.6456 17.5784 29.6456H19.4747C19.6379 30.1998 19.8602 30.7347 20.1377 31.2413L18.7953 32.5837C18.6954 32.6838 18.6392 32.8194 18.6392 32.9608C18.6392 33.1022 18.6954 33.2378 18.7953 33.3378L21.319 35.8616C21.3685 35.9111 21.4272 35.9504 21.4919 35.9772C21.5566 36.0041 21.6259 36.0179 21.6959 36.0179C21.7659 36.0179 21.8353 36.0041 21.8999 35.9772C21.9646 35.9504 22.0233 35.9111 22.0728 35.8616L23.4153 34.5209C23.9218 34.7986 24.4568 35.0209 25.0109 35.1839V37.0803C25.0109 37.1503 25.0246 37.2197 25.0514 37.2844C25.0782 37.3491 25.1175 37.4079 25.167 37.4574C25.2165 37.507 25.2753 37.5462 25.34 37.573C25.4047 37.5998 25.4741 37.6136 25.5441 37.6135H29.1126C29.1827 37.6136 29.252 37.5998 29.3167 37.573C29.3814 37.5462 29.4402 37.507 29.4897 37.4574C29.5393 37.4079 29.5785 37.3491 29.6053 37.2844C29.6321 37.2197 29.6459 37.1503 29.6458 37.0803V35.1806C30.1992 35.0174 30.7336 34.7956 31.2399 34.5191L32.5839 35.8631C32.6334 35.9126 32.6922 35.952 32.7569 35.9788C32.8216 36.0056 32.8909 36.0194 32.961 36.0194C33.031 36.0194 33.1004 36.0056 33.1651 35.9788C33.2298 35.952 33.2885 35.9126 33.338 35.8631L35.8614 33.34C35.911 33.2905 35.9503 33.2317 35.9771 33.167C36.004 33.1023 36.0178 33.033 36.0178 32.9629C36.0178 32.8929 36.004 32.8235 35.9771 32.7588C35.9503 32.6941 35.911 32.6354 35.8614 32.5859L34.5175 31.2416C34.7938 30.7353 35.0154 30.201 35.1786 29.6478H37.0784C37.1484 29.6478 37.2178 29.634 37.2825 29.6073C37.3472 29.5805 37.406 29.5412 37.4555 29.4917C37.505 29.4422 37.5443 29.3834 37.5711 29.3187C37.5978 29.254 37.6116 29.1846 37.6116 29.1146V25.5439C37.6116 25.4739 37.5978 25.4045 37.5711 25.3398C37.5443 25.2751 37.505 25.2163 37.4555 25.1668C37.406 25.1173 37.3472 25.078 37.2825 25.0512C37.2178 25.0245 37.1484 25.0107 37.0784 25.0107ZM36.5452 28.5795H34.7691C34.6494 28.5797 34.5332 28.6202 34.4393 28.6944C34.3453 28.7686 34.2791 28.8723 34.2512 28.9887C34.0777 29.7161 33.7897 30.4112 33.398 31.0481C33.3354 31.1503 33.3089 31.2706 33.323 31.3897C33.337 31.5087 33.3907 31.6196 33.4754 31.7044L34.7323 32.9612L32.963 34.7303L31.7064 33.4737C31.6216 33.3891 31.5107 33.3355 31.3917 33.3214C31.2726 33.3074 31.1524 33.3338 31.0501 33.3963C30.4131 33.788 29.7178 34.0759 28.9904 34.2495C28.874 34.2774 28.7703 34.3436 28.6961 34.4376C28.6219 34.5315 28.5814 34.6477 28.5812 34.7674V36.5435H26.0773V34.7705C26.0772 34.6507 26.0366 34.5344 25.9623 34.4404C25.8879 34.3464 25.7841 34.2802 25.6675 34.2525C24.9398 34.079 24.2446 33.7902 23.6081 33.397C23.506 33.3338 23.3856 33.307 23.2663 33.3209C23.1471 33.3349 23.036 33.3887 22.9512 33.4737L21.6959 34.729L19.9266 32.9609L21.1819 31.7053C21.2668 31.6204 21.3206 31.5093 21.3346 31.3901C21.3485 31.2708 21.3218 31.1503 21.2587 31.0481C20.8656 30.4118 20.5768 29.7166 20.4034 28.989C20.3757 28.8725 20.3095 28.7686 20.2155 28.6943C20.1216 28.6199 20.0053 28.5794 19.8855 28.5792H18.1116V26.0771H19.8876C20.0074 26.0769 20.1235 26.0364 20.2175 25.9621C20.3114 25.8878 20.3777 25.7841 20.4056 25.6676C20.579 24.9403 20.867 24.2452 21.2587 23.6083C21.3215 23.5062 21.348 23.3859 21.334 23.2668C21.3199 23.1478 21.2661 23.0369 21.1813 22.9523L19.9266 21.6954L21.6959 19.9264L22.9524 21.1829C23.0371 21.2679 23.1479 21.3217 23.267 21.3358C23.386 21.3498 23.5064 21.3232 23.6084 21.2603C24.2455 20.8687 24.9407 20.5807 25.6681 20.4072C25.7845 20.3793 25.8882 20.313 25.9624 20.2191C26.0366 20.1251 26.0771 20.009 26.0773 19.8892V18.1129H28.5797V19.8859C28.5799 20.0057 28.6204 20.122 28.6948 20.216C28.7691 20.3099 28.873 20.3761 28.9895 20.4039C29.7171 20.5775 30.4123 20.8665 31.0486 21.2597C31.1508 21.3229 31.2713 21.3497 31.3906 21.3358C31.5099 21.3218 31.621 21.268 31.7058 21.1829L32.9611 19.9264L34.7304 21.6957L33.4748 22.9514C33.39 23.0362 33.3362 23.1472 33.3223 23.2665C33.3083 23.3857 33.335 23.5061 33.398 23.6083C33.7912 24.2446 34.08 24.9397 34.2533 25.6673C34.281 25.784 34.3471 25.8879 34.4411 25.9623C34.5351 26.0367 34.6514 26.0773 34.7713 26.0774H36.5443L36.5452 28.5795Z" fill="#652D90"></path> <path d="M27.3284 22.7126C26.4155 22.7126 25.5231 22.9834 24.764 23.4905C24.005 23.9977 23.4134 24.7186 23.064 25.562C22.7146 26.4054 22.6232 27.3335 22.8013 28.2288C22.9794 29.1242 23.419 29.9466 24.0646 30.5922C24.7101 31.2377 25.5325 31.6773 26.4279 31.8554C27.3232 32.0335 28.2513 31.9421 29.0947 31.5927C29.9381 31.2434 30.659 30.6518 31.1662 29.8927C31.6734 29.1337 31.9441 28.2413 31.9441 27.3284C31.9427 26.1046 31.456 24.9314 30.5906 24.0661C29.7253 23.2008 28.5521 22.714 27.3284 22.7126ZM27.3284 30.8783C26.6264 30.8783 25.9402 30.6701 25.3565 30.2801C24.7728 29.8901 24.3179 29.3358 24.0492 28.6872C23.7806 28.0387 23.7103 27.325 23.8473 26.6365C23.9842 25.948 24.3222 25.3156 24.8186 24.8192C25.315 24.3229 25.9474 23.9848 26.6359 23.8479C27.3244 23.7109 28.0381 23.7812 28.6866 24.0498C29.3352 24.3185 29.8895 24.7734 30.2795 25.3571C30.6695 25.9408 30.8777 26.627 30.8777 27.329C30.8765 28.2699 30.5021 29.1719 29.8367 29.8372C29.1713 30.5024 28.2693 30.8766 27.3284 30.8777V30.8783Z" fill="#652D90"></path> <path d="M23.3728 6.35485C26.4708 7.26686 29.1462 9.24542 30.9257 11.9404C30.4989 12.3267 30.2291 12.8564 30.1675 13.4288C30.1059 14.0011 30.2569 14.5761 30.5918 15.0443C30.9266 15.5126 31.4219 15.8414 31.9834 15.9682C32.5449 16.095 33.1334 16.0109 33.637 15.732C34.1405 15.453 34.5239 14.9987 34.7143 14.4555C34.9046 13.9122 34.8886 13.3179 34.6692 12.7857C34.4499 12.2535 34.0425 11.8205 33.5247 11.5691C33.0068 11.3178 32.4146 11.2655 31.8608 11.4224C29.9438 8.48257 27.0409 6.32302 23.6741 5.33201C23.6065 5.31072 23.5354 5.30311 23.4648 5.30964C23.3942 5.31617 23.3257 5.3367 23.2631 5.37003C23.2006 5.40337 23.1453 5.44884 23.1005 5.50378C23.0558 5.55873 23.0224 5.62204 23.0024 5.69003C22.9824 5.75802 22.9761 5.82932 22.984 5.89975C22.9919 5.97019 23.0137 6.03835 23.0482 6.10025C23.0827 6.16215 23.1292 6.21654 23.185 6.26026C23.2408 6.30398 23.3044 6.33613 23.3728 6.35485ZM33.7593 13.6725C33.7593 13.9239 33.6847 14.1697 33.5451 14.3787C33.4054 14.5878 33.2069 14.7507 32.9746 14.8469C32.7423 14.9431 32.4867 14.9683 32.2401 14.9193C31.9936 14.8702 31.7671 14.7491 31.5893 14.5714C31.4115 14.3936 31.2905 14.1671 31.2414 13.9205C31.1924 13.6739 31.2175 13.4184 31.3137 13.1861C31.4099 12.9538 31.5729 12.7553 31.7819 12.6156C31.991 12.4759 32.2367 12.4014 32.4881 12.4014C32.8252 12.4017 33.1483 12.5357 33.3866 12.774C33.6249 13.0124 33.759 13.3355 33.7593 13.6725Z" fill="#652D90"></path> <path d="M15.6272 32.6451C12.5298 31.7327 9.8549 29.7542 8.07582 27.0595C8.50259 26.6732 8.77243 26.1435 8.834 25.5712C8.89557 24.9988 8.74458 24.4238 8.40975 23.9556C8.07492 23.4873 7.57963 23.1585 7.01813 23.0317C6.45663 22.905 5.86811 22.989 5.36456 23.2679C4.86101 23.5469 4.47758 24.0012 4.28724 24.5445C4.0969 25.0877 4.11293 25.682 4.33228 26.2142C4.55163 26.7464 4.95899 27.1794 5.47684 27.4308C5.99469 27.6822 6.58689 27.7344 7.14074 27.5775C9.05729 30.5171 11.9596 32.6767 15.3259 33.6679C15.3748 33.6824 15.4256 33.6897 15.4767 33.6895C15.6047 33.6893 15.7284 33.6429 15.8251 33.5589C15.9218 33.475 15.9851 33.359 16.0033 33.2322C16.0215 33.1055 15.9935 32.9764 15.9244 32.8686C15.8553 32.7608 15.7497 32.6814 15.6269 32.6451H15.6272ZM5.24071 25.3274C5.24083 25.076 5.31548 24.8303 5.45523 24.6213C5.59498 24.4124 5.79355 24.2496 6.02584 24.1534C6.25812 24.0573 6.51369 24.0322 6.76023 24.0813C7.00677 24.1305 7.23321 24.2516 7.41092 24.4294C7.58864 24.6072 7.70964 24.8337 7.75864 25.0802C7.80764 25.3268 7.78243 25.5824 7.6862 25.8146C7.58997 26.0468 7.42704 26.2453 7.21802 26.385C7.00899 26.5246 6.76325 26.5992 6.51186 26.5992C6.17473 26.5988 5.8515 26.4647 5.61316 26.2263C5.37483 25.9878 5.24087 25.6645 5.24071 25.3274Z" fill="#652D90"></path> </svg>