<svg width="30" height="30" viewBox="0 0 30 30" fill="none" xmlns="http://www.w3.org/2000/svg"> <path d="M27.3399 11.666C26.8535 11.0039 26.1035 10.623 25.2832 10.623H24.6621V8.95313C24.6621 7.54688 23.5195 6.4043 22.1074 6.4043H14.6543C14.2266 6.4043 13.8164 6.23438 13.5117 5.93555L12.3399 4.76953C11.8594 4.28906 11.2207 4.02539 10.541 4.02539H4.71681C3.31056 4.02539 2.16799 5.16797 2.16799 6.58008V21.4453C2.15041 22.0137 2.32033 22.5762 2.66603 23.0449C3.15822 23.7129 3.91408 24.0996 4.74611 24.0996H22.6699C23.7891 24.0996 24.7676 23.3789 25.1074 22.3066L27.7266 13.9336C27.9668 13.1543 27.8262 12.3281 27.3399 11.666ZM3.09963 6.58008C3.09963 5.68945 3.82619 4.96289 4.71095 4.96289H10.541C10.9688 4.96289 11.3731 5.13281 11.6836 5.43164L12.8555 6.59766C13.336 7.07812 13.9746 7.3418 14.6543 7.3418H22.1133C23.0039 7.3418 23.7305 8.06836 23.7305 8.95313V10.623H7.32424C6.20509 10.623 5.22658 11.3438 4.88674 12.4102L3.09377 18.1289V6.58008H3.09963ZM26.8242 13.6582L24.2051 22.0312C23.9942 22.7109 23.3731 23.1621 22.6641 23.1621H4.74025C4.21291 23.1621 3.73244 22.916 3.41603 22.4941C3.10549 22.0664 3.01174 21.5332 3.16994 21.0293L5.77736 12.6914C5.9883 12.0117 6.60939 11.5605 7.31838 11.5605H25.2774C25.7988 11.5605 26.2735 11.8008 26.5781 12.2168C26.8945 12.6387 26.9824 13.1602 26.8242 13.6582Z" fill="#652D90"></path> </svg>