<svg width="62" height="62" viewBox="0 0 62 62" fill="none" xmlns="http://www.w3.org/2000/svg"> <rect width="62" height="62" rx="20" fill="#652D90"></rect> <path d="M32.2276 17.2541C32.2276 16.922 32.3595 16.6035 32.5943 16.3687C32.8291 16.1339 33.1476 16.002 33.4796 16.002C36.7991 16.0056 39.9816 17.3259 42.3288 19.6732C44.6761 22.0205 45.9964 25.203 46 28.5226C46 28.8546 45.8681 29.1731 45.6333 29.4079C45.3985 29.6427 45.08 29.7746 44.748 29.7746C44.4159 29.7746 44.0974 29.6427 43.8626 29.4079C43.6278 29.1731 43.4959 28.8546 43.4959 28.5226C43.4929 25.867 42.4367 23.321 40.5589 21.4432C38.6811 19.5654 36.1352 18.5091 33.4796 18.5061C33.1476 18.5061 32.8291 18.3742 32.5943 18.1394C32.3595 17.9046 32.2276 17.5861 32.2276 17.2541ZM33.4796 23.5143C34.8079 23.5143 36.0817 24.042 37.0209 24.9812C37.9601 25.9204 38.4878 27.1943 38.4878 28.5226C38.4878 28.8546 38.6197 29.1731 38.8545 29.4079C39.0893 29.6427 39.4077 29.7746 39.7398 29.7746C40.0719 29.7746 40.3903 29.6427 40.6251 29.4079C40.8599 29.1731 40.9918 28.8546 40.9918 28.5226C40.9899 26.5308 40.1978 24.6211 38.7894 23.2127C37.381 21.8043 35.4714 21.0122 33.4796 21.0102C33.1476 21.0102 32.8291 21.1421 32.5943 21.3769C32.3595 21.6118 32.2276 21.9302 32.2276 22.2623C32.2276 22.5943 32.3595 22.9128 32.5943 23.1476C32.8291 23.3824 33.1476 23.5143 33.4796 23.5143ZM44.8644 36.9602C45.59 37.6878 45.9974 38.6734 45.9974 39.7009C45.9974 40.7285 45.59 41.7141 44.8644 42.4417L43.725 43.7551C33.4708 53.5725 8.51772 28.6252 18.1835 18.3383L19.6233 17.0863C20.3517 16.381 21.3285 15.9908 22.3424 16.0002C23.3562 16.0095 24.3256 16.4177 25.0409 17.1364C25.0797 17.1752 27.3997 20.1889 27.3997 20.1889C28.0881 20.9121 28.4713 21.8728 28.4697 22.8713C28.4681 23.8698 28.0817 24.8292 27.391 25.5502L25.9411 27.3732C26.7435 29.3228 27.9231 31.0946 29.4124 32.5869C30.9016 34.0791 32.671 35.2624 34.619 36.0687L36.4532 34.6101C37.1743 33.9198 38.1335 33.5339 39.1317 33.5325C40.1299 33.5311 41.0902 33.9143 41.8132 34.6026C41.8132 34.6026 44.8256 36.9214 44.8644 36.9602ZM43.1416 38.7807C43.1416 38.7807 40.1455 36.4756 40.1067 36.4368C39.8487 36.1811 39.5002 36.0376 39.1369 36.0376C38.7737 36.0376 38.4252 36.1811 38.1672 36.4368C38.1334 36.4719 35.6081 38.4839 35.6081 38.4839C35.4379 38.6194 35.2354 38.7082 35.0204 38.7416C34.8055 38.7749 34.5856 38.7517 34.3823 38.6742C31.8588 37.7347 29.5667 36.2637 27.6612 34.361C25.7557 32.4583 24.2814 30.1683 23.3381 27.6461C23.2545 27.4401 23.2272 27.2155 23.2591 26.9955C23.291 26.7754 23.3809 26.5679 23.5196 26.3941C23.5196 26.3941 25.5317 23.8674 25.5655 23.8349C25.8212 23.5769 25.9647 23.2284 25.9647 22.8651C25.9647 22.5019 25.8212 22.1534 25.5655 21.8954C25.5267 21.8579 23.2217 18.8592 23.2217 18.8592C22.9599 18.6244 22.6182 18.4987 22.2667 18.5078C21.9152 18.5169 21.5804 18.6601 21.3311 18.908L19.8912 20.1601C12.8272 28.654 34.4512 49.0788 41.8946 42.0448L43.0352 40.7301C43.3025 40.4825 43.463 40.1407 43.4829 39.7769C43.5027 39.4131 43.3803 39.0559 43.1416 38.7807Z" fill="white"></path> </svg>