<svg width="62" height="60" viewBox="0 0 62 60" fill="none" xmlns="http://www.w3.org/2000/svg"> <rect width="62" height="60" rx="20" fill="#652D90"></rect> <path d="M39.75 16H22.25C20.593 16.002 19.0044 16.6731 17.8328 17.8661C16.6611 19.0591 16.002 20.6765 16 22.3636V37.6364C16.002 39.3235 16.6611 40.9409 17.8328 42.1339C19.0044 43.3269 20.593 43.998 22.25 44H39.75C41.407 43.998 42.9956 43.3269 44.1672 42.1339C45.3389 40.9409 45.998 39.3235 46 37.6364V22.3636C45.998 20.6765 45.3389 19.0591 44.1672 17.8661C42.9956 16.6731 41.407 16.002 39.75 16ZM22.25 18.5455H39.75C40.4985 18.547 41.2294 18.7765 41.8487 19.2045C42.468 19.6325 42.9473 20.2394 43.225 20.9471L33.6525 30.6949C32.948 31.4093 31.9943 31.8104 31 31.8104C30.0057 31.8104 29.052 31.4093 28.3475 30.6949L18.775 20.9471C19.0527 20.2394 19.532 19.6325 20.1513 19.2045C20.7706 18.7765 21.5015 18.547 22.25 18.5455ZM39.75 41.4545H22.25C21.2554 41.4545 20.3016 41.0523 19.5983 40.3362C18.8951 39.6202 18.5 38.649 18.5 37.6364V24.2727L26.58 32.4945C27.7533 33.6861 29.3428 34.3553 31 34.3553C32.6572 34.3553 34.2467 33.6861 35.42 32.4945L43.5 24.2727V37.6364C43.5 38.649 43.1049 39.6202 42.4017 40.3362C41.6984 41.0523 40.7446 41.4545 39.75 41.4545Z" fill="white"></path> </svg>