<svg width="62" height="67" viewBox="0 0 62 67" fill="none" xmlns="http://www.w3.org/2000/svg"> <rect width="61.0978" height="66.7294" rx="20" fill="#652D90"></rect> <path d="M30.5489 50.7293C29.3305 50.7355 28.1284 50.4498 27.0431 49.8959C25.9578 49.3421 25.021 48.5363 24.3112 47.546C18.7969 39.9395 16 34.2212 16 30.5489C16 26.6903 17.5328 22.9897 20.2613 20.2613C22.9897 17.5328 26.6903 16 30.5489 16C34.4075 16 38.1081 17.5328 40.8365 20.2613C43.565 22.9897 45.0978 26.6903 45.0978 30.5489C45.0978 34.2212 42.3009 39.9395 36.7866 47.546C36.0768 48.5363 35.14 49.3421 34.0547 49.8959C32.9695 50.4498 31.7673 50.7355 30.5489 50.7293ZM30.5489 19.1587C27.5283 19.1621 24.6324 20.3636 22.4965 22.4994C20.3607 24.6353 19.1592 27.5312 19.1558 30.5518C19.1558 33.4601 21.8948 38.8384 26.8665 45.6954C27.2885 46.2768 27.8422 46.7499 28.4823 47.0762C29.1223 47.4024 29.8305 47.5725 30.5489 47.5725C31.2673 47.5725 31.9755 47.4024 32.6155 47.0762C33.2556 46.7499 33.8093 46.2768 34.2314 45.6954C39.203 38.8384 41.9421 33.4601 41.9421 30.5518C41.9386 27.5312 40.7372 24.6353 38.6013 22.4994C36.4654 20.3636 33.5695 19.1621 30.5489 19.1587Z" fill="white"></path> <path d="M30.5485 24.6846C29.4038 24.6846 28.2848 25.024 27.333 25.66C26.3812 26.2959 25.6394 27.1999 25.2013 28.2574C24.7632 29.315 24.6486 30.4787 24.872 31.6014C25.0953 32.7241 25.6465 33.7554 26.4559 34.5648C27.2654 35.3743 28.2966 35.9255 29.4193 36.1488C30.5421 36.3721 31.7058 36.2575 32.7633 35.8195C33.8209 35.3814 34.7248 34.6396 35.3608 33.6878C35.9968 32.736 36.3362 31.617 36.3362 30.4723C36.3362 28.9373 35.7264 27.4652 34.641 26.3798C33.5556 25.2943 32.0835 24.6846 30.5485 24.6846ZM30.5485 33.3662C29.9761 33.3662 29.4166 33.1964 28.9407 32.8785C28.4648 32.5605 28.0939 32.1085 27.8749 31.5797C27.6559 31.051 27.5986 30.4691 27.7102 29.9077C27.8219 29.3464 28.0975 28.8307 28.5022 28.426C28.9069 28.0213 29.4226 27.7457 29.9839 27.634C30.5453 27.5224 31.1271 27.5797 31.6559 27.7987C32.1847 28.0177 32.6367 28.3887 32.9546 28.8646C33.2726 29.3405 33.4423 29.9 33.4423 30.4723C33.4423 31.2398 33.1375 31.9759 32.5948 32.5186C32.052 33.0613 31.316 33.3662 30.5485 33.3662Z" fill="white"></path> </svg>