<svg width="120" height="120" viewBox="0 0 120 120" fill="none" xmlns="http://www.w3.org/2000/svg">
<rect width="120" height="120" rx="6" fill="white"/>
<path fill-rule="evenodd" clip-rule="evenodd" d="M106 86.9277C106 97.4175 97.4175 106 86.9277 106H32.0723C21.5827 106 13 97.4175 13 86.9277V32.0723C13 21.5825 21.5825 13 32.0725 13H86.9279C97.4173 13 106 21.5825 106 32.0723V86.9277Z" fill="url(#paint0_linear_198_1321)"/>
<path d="M55.3563 44.0606C57.1016 46.4106 58.1694 49.2913 58.2939 52.4162V52.9542C58.2939 55.999 57.3908 58.8367 55.8257 61.197L43.3497 80.2326L43.0136 80.7455C42.9467 80.8476 42.8554 80.9314 42.7481 80.9894C42.6407 81.0473 42.5206 81.0777 42.3986 81.0777H32.2343C31.7449 81.0777 31.4513 80.5343 31.7195 80.125L39.9942 67.4997C33.3705 65.9719 28.4305 60.0418 28.4305 52.9542L28.4443 52.4162C28.5546 49.2994 29.6178 46.4256 31.3552 44.0791C34.0753 40.405 38.4399 38.0225 43.3622 38.0225C48.2764 38.0225 52.6351 40.3969 55.3563 44.0606ZM47.7295 55.6973L48.1463 55.0613C48.5936 54.2516 48.8269 53.3412 48.8244 52.4162C48.8192 49.4039 46.376 46.9634 43.3622 46.9634C40.3485 46.9634 37.9054 49.4039 37.8996 52.4258C37.8996 55.4429 40.3453 57.8886 43.3622 57.8886C45.1505 57.8886 46.7329 57.0253 47.7295 55.6973ZM87.5766 44.0606C89.3219 46.4106 90.39 49.2913 90.5145 52.4162V52.9542C90.5145 55.999 89.6114 58.8367 88.046 61.197L75.57 80.2326L75.2339 80.7455C75.167 80.8475 75.0758 80.9313 74.9685 80.9893C74.8612 81.0473 74.7411 81.0777 74.6192 81.0777H64.4544C63.9653 81.0777 63.6717 80.5343 63.9398 80.125L72.2145 67.4997C65.5909 65.9719 60.6508 60.0418 60.6508 52.9542L60.6644 52.4162C60.7749 49.2994 61.8381 46.4256 63.5753 44.0791C66.2957 40.405 70.6606 38.0225 75.583 38.0225C80.4971 38.0225 84.8558 40.3969 87.5768 44.0606H87.5766ZM79.95 55.6973L80.3668 55.0613C80.814 54.2515 81.0474 53.3412 81.0449 52.4162C81.0397 49.4039 78.5965 46.9634 75.5827 46.9634C72.569 46.9634 70.1258 49.4039 70.1199 52.4258C70.1199 55.4429 72.5659 57.8886 75.5827 57.8886C77.371 57.8886 78.9535 57.0253 79.95 55.6973Z" fill="black"/>
<defs>
<linearGradient id="paint0_linear_198_1321" x1="44.0053" y1="44.0053" x2="106" y2="106" gradientUnits="userSpaceOnUse">
<stop stop-color="#FFDD00"/>
<stop offset="1" stop-color="#FF8200"/>
</linearGradient>
</defs>
</svg>
