<svg width="120" height="120" viewBox="0 0 120 120" fill="none" xmlns="http://www.w3.org/2000/svg">
<rect width="120" height="120" rx="6" fill="white"/>
<g clip-path="url(#clip0_198_1331)">
<path fill-rule="evenodd" clip-rule="evenodd" d="M103.165 76.0257V77.0703H103.507C103.614 77.0703 103.705 77.066 103.781 77.0595C103.857 77.053 103.924 77.0399 103.982 77.0226C104.104 76.9856 104.197 76.927 104.262 76.8466C104.327 76.7663 104.36 76.6599 104.36 76.5295C104.36 76.4079 104.327 76.308 104.267 76.2342C104.206 76.1603 104.121 76.106 104.013 76.0734C103.963 76.0582 103.9 76.0474 103.831 76.0409C103.759 76.0344 103.67 76.03 103.559 76.03H103.165V76.0257ZM103.165 77.3831V78.5624H102.815V75.7108H103.555C103.681 75.7108 103.787 75.7151 103.874 75.7238C103.961 75.7325 104.041 75.7477 104.113 75.7672C104.312 75.8215 104.464 75.9127 104.568 76.043C104.675 76.1734 104.727 76.3362 104.727 76.5295C104.727 76.6446 104.709 76.7489 104.672 76.8379C104.635 76.9292 104.583 77.0073 104.516 77.0747C104.449 77.142 104.369 77.1963 104.275 77.2376C104.182 77.281 104.08 77.3114 103.965 77.331V77.3396L104.809 78.558H104.46L103.583 77.3787H103.165V77.3831ZM103.648 75.1135C104.761 75.1135 105.664 76.017 105.664 77.1311C105.664 78.2453 104.761 79.1488 103.648 79.1488C102.535 79.1488 101.633 78.2453 101.633 77.1311C101.633 76.017 102.535 75.1135 103.648 75.1135ZM103.648 74.7769C104.948 74.7769 106 75.8302 106 77.1311C106 78.4321 104.948 79.4854 103.648 79.4854C102.349 79.4854 101.297 78.4321 101.297 77.1311C101.297 75.8302 102.349 74.7769 103.648 74.7769Z" fill="#384088"/>
<path fill-rule="evenodd" clip-rule="evenodd" d="M48.6153 45.6155C49.9083 45.6155 50.5179 46.6645 50.5287 47.7265C50.5396 48.8863 49.8996 49.9092 48.6782 49.9418C47.3918 49.9765 46.7388 49.0253 46.7128 47.8264C46.6889 46.7492 47.2334 45.6155 48.6175 45.6155M48.6153 44.814C46.7757 44.814 45.4892 45.8087 45.4892 47.7308C45.4892 49.6529 46.6477 50.741 48.624 50.741C50.6003 50.741 51.7414 49.692 51.7414 47.7743C51.7414 45.8565 50.5352 44.8162 48.6153 44.8162V44.814ZM41.7795 47.4832V45.7349C42.5714 45.7349 43.5997 45.5698 43.5997 46.5754C43.5997 47.581 42.5844 47.4832 41.7795 47.4832ZM40.5777 50.6194H41.7795V48.2825C42.7514 48.2825 43.962 48.3107 44.5737 47.4376C45.1747 46.5798 44.91 45.0747 43.2092 44.9487L40.5755 44.9313V50.6172L40.5777 50.6194ZM34.6856 44.9335H35.7551C35.7551 45.4851 35.7117 48.365 35.7985 48.8146C36.0393 50.0547 38.2369 50.0069 38.3736 48.7169C38.4539 47.9654 38.404 45.7805 38.404 44.9335H39.4735C39.4735 45.6393 39.5407 48.6691 39.3932 49.3033C39.0266 50.893 36.7856 50.9756 35.7334 50.4804C34.7767 50.0308 34.6856 49.2294 34.6856 48.2847V44.9335ZM30.7785 47.4224V45.7349C31.5964 45.7349 32.6811 45.5655 32.6811 46.4972C32.6811 47.5441 31.4771 47.4224 30.7785 47.4224ZM29.5615 50.6194H30.7785V48.1978H31.4836L32.8069 50.6194H34.2496L32.7028 48.0284C33.4187 47.7504 33.9806 47.3008 33.9806 46.4516C33.9806 45.3418 33.0542 44.9769 32.1192 44.9422L29.5637 44.9335V50.6194H29.5615ZM26.4788 47.4984V48.276H27.4008V49.49C26.4332 49.8202 24.8994 49.8918 24.4525 48.656C24.0143 47.4442 24.4591 45.5894 26.238 45.5894C26.93 45.5894 27.3791 45.8001 27.685 46.3908L28.3358 45.5872C27.8129 45.016 27.2489 44.8119 26.2835 44.8119C22.5456 44.8119 22.5673 48.7646 24.0404 49.9179C25.2227 50.8431 27.1079 50.5803 28.4898 50.2306V47.4963H26.4788V47.4984ZM47.5697 77.0182C37.2607 76.0431 27.3292 76.5361 21.1594 81.5704C19.2243 81.2533 17.2914 80.9362 15.3563 80.6213C12.9699 72.8331 12.4623 64.6669 13.5361 56.1858C15.2348 47.9198 19.5736 40.618 29.9693 39.986C40.7426 39.3323 55.4251 41.9602 69.9926 43.4914C80.4035 44.586 89.5519 43.6456 95.598 39C97.8151 39.6602 100.032 40.3205 102.252 40.9807C105.057 49.0035 105.25 56.8874 103.959 64.6517C102.13 75.6652 95.0145 79.594 85.3997 79.6918C72.0991 79.8264 58.2648 78.0325 47.5718 77.0204L47.5697 77.0182ZM54.7786 76.08C37.649 73.8647 24.2226 74.1014 16.4843 79.5007C14.3106 70.7524 13.3973 62.7644 14.9462 56.0382C17.6558 44.2819 25.0274 41.5671 31.9478 41.1784C40.6081 40.694 54.1798 43.5761 65.2525 45.1094C79.5271 47.0858 92.3092 47.4702 100.991 42.5097C103.718 49.7311 104.211 57.0264 102.97 64.3802C101.748 72.82 96.7109 77.1529 88.5865 78.1498C78.0346 79.4442 66.2439 77.5612 54.7808 76.08H54.7786Z" fill="#37418F"/>
<path fill-rule="evenodd" clip-rule="evenodd" d="M73.2399 66.7671H69.617V56.0881H72.6433C74.227 56.0881 74.8778 56.5311 74.9255 57.4042C74.9971 58.7247 74.2574 59.4154 73.0403 59.4154H71.897L70.4609 62.545H73.2898C74.6478 62.545 75.9235 63.5223 75.7716 64.7299C75.6176 65.9374 74.6066 66.7671 73.2421 66.7671M73.8842 70.2942H65.25V52.511H73.4872C76.353 52.511 78.7979 53.3429 79.2426 56.0881C79.568 58.1057 78.9346 59.5522 77.4073 60.5577C79.6787 61.572 80.6462 64.3346 79.8392 66.8409C79.0062 69.4232 75.9733 70.2942 73.8842 70.2942ZM89.6384 56.4443C92.2547 56.4443 94.3764 58.5987 94.3764 61.2549C94.3764 63.9111 92.2547 66.0656 89.6384 66.0656C87.0221 66.0656 84.9004 63.9111 84.9004 61.2549C84.9004 58.5987 87.0221 56.4443 89.6384 56.4443ZM89.6384 52.2135C94.5564 52.2135 98.5438 56.2618 98.5438 61.2549C98.5438 66.248 94.5564 70.2963 89.6384 70.2963C84.7204 70.2963 80.733 66.248 80.733 61.2549C80.733 56.2618 84.7204 52.2135 89.6384 52.2135ZM63.4646 52.511V70.2942H59.0976V59.0244L56.2427 70.2942H51.9993L49.2724 59.1699V70.2942H45.0377V52.511H51.8648L54.1839 62.4972L56.4683 52.511H63.4624H63.4646ZM38.9048 52.511H43.2219V70.2942H38.9048V52.511ZM30.9648 66.7671H27.3419V56.0881H30.3682C31.9519 56.0881 32.6027 56.5311 32.6504 57.4042C32.722 58.7247 31.9823 59.4154 30.7652 59.4154H29.622L28.1858 62.545H31.0147C32.3728 62.545 33.6484 63.5223 33.4965 64.7299C33.3425 65.9374 32.3315 66.7671 30.967 66.7671H30.9648ZM31.6113 70.2942H22.9771V52.511H31.2143C34.0801 52.511 36.525 53.3429 36.9697 56.0881C37.2951 58.1057 36.6617 59.5522 35.1344 60.5577C37.4058 61.572 38.3733 64.3346 37.5663 66.8409C36.7332 69.4232 33.7004 70.2942 31.6113 70.2942Z" fill="#FE1F3A"/>
</g>
<defs>
<clipPath id="clip0_198_1331">
<rect width="93" height="42.5704" fill="white" transform="translate(13 39)"/>
</clipPath>
</defs>
</svg>
