<svg width="120" height="120" viewBox="0 0 120 120" fill="none" xmlns="http://www.w3.org/2000/svg">
<rect width="120" height="120" rx="6" fill="white"/>
<g clip-path="url(#clip0_198_1323)">
<path fill-rule="evenodd" clip-rule="evenodd" d="M25.1436 48.4775H25.1938V53.0095C22.8329 53.2267 21.1321 54.0889 19.7377 55.251C19.3189 57.2838 19.7503 59.5415 20.4743 60.9609C19.6304 61.4775 18.6962 61.993 17.8466 62.4498C17.9105 59.5128 18.6674 57.2534 19.7212 55.2838C17.7646 56.9776 16.23 59.3944 16.4575 63.1695C16.1741 62.323 16.0211 61.3492 15.9554 60.2899V59.4064C16.1257 56.3554 17.2648 54.0747 18.8174 52.2731C20.3677 50.4741 22.5019 49.126 25.1436 48.4775Z" fill="#CE3848"/>
<path fill-rule="evenodd" clip-rule="evenodd" d="M49.0262 56.8705H47.2354V50.179H49.0262V56.8705Z" fill="#232020"/>
<path fill-rule="evenodd" clip-rule="evenodd" d="M58.2646 50.1953C58.2137 50.185 58.1204 50.2161 58.0973 50.1789C58.148 50.1892 58.2412 50.158 58.2646 50.1953ZM67.6699 50.1789C67.6699 52.0048 67.6702 54.1149 67.6699 56.0197C67.6699 56.1122 67.6278 56.8047 67.6699 56.854C67.7096 56.9003 67.9945 56.8704 68.0885 56.8704H69.4104C68.8582 56.9087 68.2335 56.8758 67.6531 56.8869C67.6647 54.6564 67.6311 52.3821 67.6699 50.1789ZM71.0174 50.1953C70.9665 50.185 70.8732 50.2161 70.8499 50.1789C70.9008 50.1892 70.9941 50.158 71.0174 50.1953ZM79.0171 51.766V50.2772C79.0452 50.7079 79.0445 51.3649 79.0171 51.766ZM46.1139 50.3591C46.1527 50.5827 46.1194 50.8771 46.1304 51.1279C46.1199 51.3522 46.1522 51.7052 46.1139 51.8479V50.3591ZM43.8548 51.2752C43.9722 51.248 44.2059 51.248 44.3233 51.2752H43.8548ZM82.8832 51.3078C82.9013 51.2806 83.0327 51.2806 83.0505 51.3078H82.8832ZM69.4106 51.4223C69.6506 51.3951 70.0077 51.3951 70.2475 51.4223H69.4106ZM58.4988 52.0114C58.5264 52.045 58.5264 52.1904 58.4988 52.224V52.0114ZM73.1761 53.3694V53.8437C73.1486 53.7236 73.1486 53.4895 73.1761 53.3694ZM86.6991 53.3858C86.7267 53.4248 86.7267 53.576 86.6991 53.615V53.3858ZM79.218 53.4184V53.6474C79.1904 53.6086 79.1904 53.4574 79.218 53.4184ZM57.4109 53.9092C57.4616 53.9195 57.5549 53.8883 57.5782 53.9256C57.5273 53.9153 57.434 53.9467 57.4109 53.9092ZM70.0301 54.0565C70.0481 54.0296 70.1795 54.0296 70.1973 54.0565H70.0301ZM69.4106 54.0729C69.5112 54.035 69.684 54.0673 69.8126 54.0565C69.7118 54.0945 69.5393 54.0622 69.4106 54.0729ZM46.5826 55.6108C46.5936 55.1526 46.5603 54.651 46.5991 54.2203C46.5881 54.6782 46.6217 55.1798 46.5826 55.6108ZM64.7079 54.4819C64.729 54.4858 64.7247 54.5142 64.7079 54.5145C64.1798 54.5039 63.4879 54.5356 63.0177 54.4981C63.5754 54.4873 64.178 54.5199 64.7079 54.4819ZM58.6159 54.6618C58.6435 54.7062 58.6435 54.8628 58.6159 54.9072V54.6618ZM44.9257 55.0546C44.9146 55.2345 44.948 55.4581 44.9091 55.6108C44.9201 55.4306 44.8868 55.2073 44.9257 55.0546ZM47.2354 56.8704H49.0262C48.4682 56.8979 47.7934 56.8979 47.2354 56.8704ZM55.1012 56.8704H58.2643C57.2491 56.8979 56.1166 56.8979 55.1012 56.8704ZM60.3732 56.8704H62.1472C61.6233 56.8979 60.8664 56.8972 60.3732 56.8704ZM71.9212 56.8704H73.8793C73.2657 56.8979 72.5349 56.8979 71.9212 56.8704ZM77.3437 57.0504C77.367 57.0131 77.4603 57.0442 77.5112 57.0342C77.4879 57.0715 77.3946 57.0403 77.3437 57.0504ZM106.013 58.0813V58.0977H40.3566C40.2052 58.0977 39.7854 58.0661 39.5699 58.0977C39.3826 58.1251 39.425 58.1171 39.4192 58.2122C39.4142 58.2975 39.3926 58.3747 39.5366 58.3431H106.012V58.3593H39.5531C39.4513 58.3718 39.3673 58.3666 39.4024 58.2448C39.3239 58.0053 39.6334 58.0813 39.7874 58.0813H106.013ZM88.8413 59.701C88.97 59.6738 89.2147 59.6738 89.3434 59.701H88.8413ZM96.6906 59.701C96.8192 59.6738 97.0643 59.6738 97.1927 59.701H96.6906ZM68.4401 59.8645C68.479 60.2735 68.4456 60.7535 68.4567 61.1898H65.7958C66.3583 61.1604 67.12 61.1734 67.7705 61.1734C67.8638 61.1734 68.3917 61.2207 68.4401 61.1734C68.4484 61.1653 68.4401 60.9305 68.4401 60.8626V59.8645ZM79.6534 59.8645V66.5397C80.0358 66.5693 80.5063 66.5558 80.9422 66.5558C80.9968 66.5558 81.3539 66.5789 81.3773 66.5558C81.4289 66.5053 81.3773 65.966 81.3773 65.8525C81.377 65.1207 81.3635 64.3864 81.3938 63.7419V66.5723H79.6363C79.6476 64.3418 79.614 62.0678 79.6534 59.8645ZM88.9251 60.9935C88.9978 60.9663 89.1869 60.9663 89.2596 60.9935H88.9251ZM96.7743 60.9935C96.8473 60.9663 97.0362 60.9663 97.1089 60.9935H96.7743ZM71.6534 61.0915C71.7427 61.1021 71.8761 61.07 71.9378 61.108C71.8485 61.0974 71.7151 61.1293 71.6534 61.0915ZM81.3938 61.0915V63.5784C81.366 62.7875 81.366 61.8824 81.3938 61.0915ZM82.0632 61.0915C82.1527 61.1021 82.2861 61.07 82.3478 61.108C82.2583 61.0974 82.1248 61.1293 82.0632 61.0915ZM58.9337 61.1734C59.1905 61.1462 59.5641 61.1462 59.8207 61.1734H58.9337ZM102.281 61.1898C102.319 62.9459 102.286 64.7728 102.297 66.5561H104.071C103.508 66.5943 102.872 66.5617 102.28 66.5725C102.281 64.778 102.281 62.9839 102.281 61.1898ZM74.5151 61.5333C74.5429 61.6208 74.5429 61.8221 74.5151 61.9096V61.5333Z" fill="#6A9449"/>
<path fill-rule="evenodd" clip-rule="evenodd" d="M33.3109 63.7909C31.3279 64.8954 29.0084 65.6711 26.0306 65.8032C27.5559 65.2751 28.704 64.4497 29.7294 63.4472C30.0765 63.1079 30.4035 62.6814 30.7002 62.3347C31.5852 62.8057 32.4291 63.3168 33.3109 63.7909Z" fill="#015E84"/>
<path fill-rule="evenodd" clip-rule="evenodd" d="M65.7958 62.4495C66.5489 62.4603 67.3467 62.4277 68.0719 62.4659C67.3186 62.4551 66.5209 62.4878 65.7958 62.4495ZM71.7035 62.6623C71.7321 62.6248 71.8312 62.6564 71.8874 62.6459C71.859 62.6834 71.76 62.6518 71.7035 62.6623ZM82.1304 62.6623C82.1537 62.625 82.2467 62.6562 82.2976 62.6459C82.2743 62.6831 82.181 62.652 82.1304 62.6623ZM100.674 62.9567C100.702 63.0604 100.702 63.2784 100.674 63.3821V62.9567ZM61.7121 62.9732C61.7502 62.9957 61.7184 63.0869 61.7289 63.1367C61.6908 63.1141 61.7226 63.0229 61.7121 62.9732ZM92.8245 63.0386C92.8523 63.0938 92.8523 63.2617 92.8245 63.3169V63.0386ZM98.7826 63.0712C98.8105 63.1318 98.8105 63.3054 98.7826 63.3657V63.0712ZM85.3436 63.1041V63.3169C85.3158 63.283 85.3158 63.1374 85.3436 63.1041ZM71.4693 63.742C71.4926 63.7047 71.5859 63.7358 71.6366 63.7256C71.6135 63.7631 71.5202 63.7319 71.4693 63.742ZM81.8793 63.742C81.9079 63.7045 82.007 63.7361 82.0632 63.7256C82.0346 63.7631 81.9355 63.7317 81.8793 63.742ZM48.5071 63.7748V65.2311C48.4793 64.7839 48.4793 64.222 48.5071 63.7748ZM53.7292 63.7748V65.2311C53.7011 64.7839 53.7011 64.222 53.7292 63.7748ZM75.369 63.8403H78.2307C77.3156 63.8675 76.2836 63.8675 75.369 63.8403ZM58.9337 65.2637H59.6534C59.4525 65.2909 59.1348 65.2909 58.9337 65.2637ZM89.2263 65.3943C89.1809 65.4215 89.0206 65.4215 88.9752 65.3943H89.2263ZM97.0755 65.3943C97.0301 65.4215 96.8699 65.4215 96.8245 65.3943H97.0755ZM29.0767 66.3272H29.2941C29.2597 66.3541 29.111 66.3541 29.0767 66.3272ZM85.8457 66.5397C85.8668 66.5439 85.8625 66.5723 85.8457 66.5726C85.204 66.5618 84.5178 66.5944 83.9042 66.5561C84.5457 66.5451 85.232 66.5779 85.8457 66.5397ZM88.8413 66.7197H89.4103C89.2596 66.7469 88.9923 66.7469 88.8413 66.7197ZM96.6906 66.7197H97.2599C97.1089 66.7469 96.8416 66.7469 96.6906 66.7197ZM30.5661 67.9305C30.5638 67.8508 30.2501 67.8508 30.2478 67.9305C30.1896 67.8077 30.483 67.8876 30.5826 67.865V67.9305H30.5661ZM30.7835 67.8812H30.6664V68.2739H30.6498V67.865C30.6897 67.8748 30.7712 67.8444 30.7835 67.8812ZM31.018 68.0121C31.0812 67.9317 31.0398 68.1994 31.0516 68.2739H31.0348C31.0237 68.1918 31.0566 68.067 31.018 68.0121ZM25.495 68.2739V68.2578C25.59 68.2683 25.7289 68.2362 25.7964 68.2739H25.495ZM26.1811 68.2739C26.2428 68.2362 26.3762 68.2683 26.4655 68.2578V68.2739H26.1811ZM26.7837 48.4775H26.8173C30.0492 49.2949 32.4667 51.0429 34.0808 53.5003C34.8605 54.6874 35.5175 56.1502 35.838 57.8359C36.1665 59.5625 35.9975 61.6991 35.5032 63.2347C34.1365 62.5039 32.8206 61.7236 31.4699 60.9771C32.0838 59.7172 32.5595 57.9555 32.3403 56.0034C32.3143 55.7727 32.3015 55.4633 32.223 55.2836C32.157 55.1318 31.8611 54.9659 31.6873 54.8418C30.377 53.906 28.8289 53.1872 26.7669 53.0095V50.0644C26.9031 50.0527 27.0308 50.19 27.1687 50.2772C29.1872 51.5533 30.9252 53.1936 32.2062 55.2017C31.4799 51.9036 29.5403 49.7908 26.7837 48.4775ZM34.2646 65.0183C34.3747 64.8969 34.4921 64.7824 34.616 64.6748C34.5061 64.7959 34.3887 64.9104 34.2646 65.0183Z" fill="#6A9449"/>
<path fill-rule="evenodd" clip-rule="evenodd" d="M29.2941 66.3272C31.6309 66.2774 33.2702 65.5456 34.6832 64.5929C34.6719 64.6309 34.6275 64.6368 34.6159 64.6748C34.4921 64.7824 34.3747 64.8969 34.2646 65.0183C32.3316 66.7496 29.9807 68.0727 26.4657 68.2578C26.3765 68.2683 26.243 68.2362 26.1814 68.2739H25.7964C25.7289 68.2362 25.5903 68.2683 25.495 68.2578C21.992 68.0719 19.6424 66.7584 17.7127 65.0347C17.597 64.9079 17.4742 64.7878 17.3445 64.6748C17.3392 64.6351 17.2414 64.6025 17.2775 64.5767C18.6072 63.8207 19.9399 63.0673 21.2775 62.3188C22.9294 64.5439 25.354 66.2362 29.0766 66.3274C29.111 66.3541 29.2597 66.3541 29.2941 66.3272Z" fill="#015E84"/>
<path fill-rule="evenodd" clip-rule="evenodd" d="M17.3445 64.6745C17.4742 64.7875 17.5971 64.9077 17.7127 65.0344C17.583 64.9211 17.4601 64.8015 17.3445 64.6745ZM40.5239 55.9053C40.5869 55.9528 40.6428 56.0075 40.6914 56.0688C40.6285 56.0212 40.5731 55.9666 40.5239 55.9053ZM43.9885 53.2058C43.9917 53.1926 44.0053 53.1897 44.0053 53.1732C44.8645 53.184 45.768 53.1514 46.5994 53.1894C45.7347 53.2002 44.8253 53.1676 43.9885 53.2058Z" fill="#6A9449"/>
<path fill-rule="evenodd" clip-rule="evenodd" d="M42.064 52.0441C42.1028 51.984 42.1568 51.9387 42.2147 51.8967C42.1713 51.9529 42.1209 52.0019 42.064 52.0441Z" fill="#2A2829"/>
<path fill-rule="evenodd" clip-rule="evenodd" d="M40.5239 55.9053C40.0203 55.3162 39.5912 54.5501 39.6537 53.3859C39.757 51.4577 41.2013 50.3059 43.1012 50.0647C44.1098 49.9367 45.208 50.0681 46.1139 50.3594V51.8482C45.6113 51.5651 45.0796 51.3104 44.323 51.2755C44.2056 51.2483 43.9719 51.2483 43.8545 51.2755C43.1323 51.3113 42.6252 51.5572 42.2144 51.8973C42.1567 51.9389 42.1028 51.9845 42.0637 52.0446C41.7598 52.4111 41.5363 52.7921 41.4944 53.3535C41.3816 54.8683 42.4619 55.9634 44.0885 55.8565C44.4013 55.8362 44.639 55.7531 44.9088 55.6602V55.6111C44.9477 55.4584 44.9144 55.2348 44.9254 55.0549C44.9259 54.8318 44.9189 54.6011 44.9422 54.4006C44.4456 54.3623 43.8766 54.3952 43.352 54.3841C43.3279 54.2856 43.433 54.1988 43.4859 54.1061C43.6461 53.8254 43.8255 53.4957 43.988 53.2064C44.8248 53.1682 45.7342 53.201 46.5989 53.19V54.2209C46.56 54.6516 46.5933 55.1534 46.5823 55.6114V56.413C45.7359 56.7393 44.6455 57.1002 43.4528 57.0512C42.2739 57.0026 41.3216 56.6423 40.6912 56.0696C40.643 56.0079 40.5868 55.9527 40.5239 55.9053Z" fill="#232020"/>
<path fill-rule="evenodd" clip-rule="evenodd" d="M74.0301 55.8889C74.1136 55.9326 74.1542 56.0181 74.2309 56.0689C74.1404 56.0316 74.0923 55.9534 74.0301 55.8889Z" fill="#2A2829"/>
<path fill-rule="evenodd" clip-rule="evenodd" d="M75.5528 52.044C75.624 51.9609 75.7023 51.8844 75.7873 51.8151C75.7161 51.8982 75.6381 51.9747 75.5528 52.044Z" fill="#6A9449"/>
<path fill-rule="evenodd" clip-rule="evenodd" d="M79.0171 51.766C78.3009 51.1404 76.4338 51.0987 75.787 51.8151C75.702 51.8845 75.624 51.9609 75.5525 52.0441C74.7643 52.8374 74.9446 54.4439 75.6699 55.1526C76.4451 55.9107 78.1298 56.0303 79.3183 55.4799C79.0572 55.9553 78.7749 56.41 78.4982 56.8705C78.1973 56.9526 77.8723 57.0114 77.5107 57.034C77.4597 57.0443 77.3665 57.0131 77.3431 57.0502C75.9403 57.0803 74.9273 56.7285 74.2304 56.0685C74.1537 56.0178 74.113 55.9322 74.0295 55.8886C73.5681 55.3797 73.2373 54.7435 73.1759 53.8435V53.3691C73.2614 52.0203 74.009 51.0146 75.0337 50.4895C76.0481 49.9695 77.7045 49.8528 79.0169 50.2767C79.0171 50.7734 79.0171 51.2698 79.0171 51.766ZM79.218 53.4184C79.3374 51.3655 80.7224 50.0154 82.9501 50.0154C85.1463 50.0154 86.5519 51.2681 86.6991 53.3858V53.615C86.6457 54.6797 86.2572 55.5199 85.6112 56.1019C84.9802 56.6704 84.1243 57.0732 82.967 57.0509C80.7129 57.0072 79.3552 55.7984 79.218 53.6479V53.4184ZM82.8832 51.3078C82.422 51.315 82.1246 51.4822 81.8622 51.6842C81.7883 51.7428 81.7213 51.8082 81.6614 51.8805C81.1315 52.4292 80.967 53.5054 81.2265 54.3674C81.4276 55.0359 81.9673 55.6658 82.8165 55.7253C84.8717 55.8692 85.314 53.1262 84.2725 51.8805C84.2183 51.814 84.1565 51.7536 84.0885 51.7006C83.8269 51.4873 83.5222 51.3162 83.0507 51.3078C83.0327 51.2809 82.9015 51.2809 82.8832 51.3078Z" fill="#232020"/>
<path fill-rule="evenodd" clip-rule="evenodd" d="M49.9466 50.179V56.8541C51.2968 56.8813 52.7639 56.8813 54.1138 56.8541C52.7889 56.9301 51.3191 56.8654 49.9298 56.8869C49.9411 54.6565 49.9074 52.3822 49.9466 50.179Z" fill="#6A9449"/>
<path fill-rule="evenodd" clip-rule="evenodd" d="M49.9466 50.179H51.7374V55.529C52.7418 55.5673 53.8184 55.5344 54.8504 55.5452C54.8579 55.6518 54.7606 55.756 54.6997 55.856C54.5111 56.1674 54.3002 56.5297 54.1139 56.8541C52.7639 56.8813 51.2968 56.8813 49.9466 56.8541V50.179Z" fill="#232020"/>
<path fill-rule="evenodd" clip-rule="evenodd" d="M59.754 56.3471C59.8084 56.2804 59.8696 56.2203 59.938 56.1671C59.8839 56.2338 59.8222 56.2939 59.754 56.3471Z" fill="#6A9449"/>
<path fill-rule="evenodd" clip-rule="evenodd" d="M59.8377 53.7457C59.9059 53.7989 59.9674 53.8587 60.0215 53.9257C59.9919 53.9343 59.9004 53.8046 59.8377 53.7457Z" fill="#2A2829"/>
<path fill-rule="evenodd" clip-rule="evenodd" d="M59.6537 53.0585C59.7023 52.9973 59.7582 52.9426 59.8209 52.895C59.772 52.9563 59.7164 53.0107 59.6537 53.0585Z" fill="#6A9449"/>
<path fill-rule="evenodd" clip-rule="evenodd" d="M58.0973 50.179C58.1204 50.2162 58.2137 50.1851 58.2646 50.1954C58.7827 50.2552 59.2318 50.3699 59.5867 50.6536C60.1357 51.0927 60.4145 52.2697 59.8209 52.895C59.7582 52.9426 59.7023 52.9973 59.6537 53.0586C59.4987 53.1799 59.3141 53.2721 59.1348 53.3694C59.3853 53.4793 59.6434 53.5812 59.838 53.7457C59.9007 53.8046 59.9922 53.9343 60.0218 53.9257C60.573 54.4292 60.4592 55.717 59.9383 56.1672C59.8701 56.22 59.8083 56.2804 59.7542 56.3471C59.3816 56.6428 58.9221 56.8533 58.2648 56.8708H55.1017V50.1792C56.1001 50.179 57.0984 50.179 58.0973 50.179ZM58.4988 52.0115C58.4291 51.3381 57.5852 51.4209 56.8251 51.4224C56.8361 52.1968 56.8027 53.0149 56.8416 53.7619C56.9319 53.6035 57.0335 53.4594 57.1428 53.3037C57.2193 53.1956 57.3645 52.9144 57.4776 52.8784C57.5498 52.8553 57.6451 52.885 57.7121 52.8784C58.088 52.8414 58.4441 52.6364 58.4988 52.2241C58.5264 52.1907 58.5264 52.0451 58.4988 52.0115ZM57.5782 53.9257C57.5548 53.8884 57.4616 53.9196 57.4109 53.9093H56.8251V55.6599C57.7081 55.6889 58.5605 55.6876 58.6159 54.9073C58.6435 54.8629 58.6435 54.7063 58.6159 54.6619C58.5615 54.1316 58.1382 53.962 57.5782 53.9257Z" fill="#232020"/>
<path fill-rule="evenodd" clip-rule="evenodd" d="M65.5277 56.854C66.1304 56.892 66.8052 56.8596 67.4357 56.8704C66.8441 56.8871 66.0915 56.9195 65.5277 56.854Z" fill="#6A9449"/>
<path fill-rule="evenodd" clip-rule="evenodd" d="M60.3731 56.8705C61.2679 54.6366 62.1667 52.4067 63.0678 50.179H64.8082C65.6679 52.4253 66.559 54.6408 67.436 56.8705C66.8052 56.8597 66.1306 56.8921 65.528 56.8541C65.4026 56.3986 65.2208 55.9982 65.0931 55.5452H62.6495C62.4599 55.9651 62.3104 56.4246 62.1474 56.8705H60.3731ZM64.7079 54.4819C64.4421 53.6617 64.1474 52.87 63.8876 52.0441C63.6205 52.8845 63.2865 53.6597 63.0174 54.4981C63.4876 54.5356 64.1795 54.504 64.7077 54.5146C64.7247 54.5146 64.729 54.4859 64.7079 54.4819ZM67.6699 50.179H70.8499C70.8732 50.2162 70.9665 50.1851 71.0174 50.1954C72.1763 50.2932 73.0314 50.9863 72.9587 52.1586C72.9111 52.9269 72.4611 53.4074 71.921 53.7291C72.563 54.7867 73.223 55.8266 73.8791 56.8703H71.921C71.3559 55.9227 70.7689 54.997 70.1971 54.0561C70.1793 54.0291 70.0479 54.0291 70.0298 54.0561H69.8124C69.6837 54.0669 69.5112 54.0345 69.4104 54.0725V56.8703H68.0885C67.9944 56.8703 67.7096 56.9004 67.6699 56.8538C67.6278 56.8043 67.6699 56.112 67.6699 56.0196C67.6702 54.1149 67.6699 52.0049 67.6699 50.179ZM69.4106 51.4224V53.8928C69.5012 53.7999 69.6298 53.6347 69.7622 53.4511C69.8407 53.342 69.9987 53.0166 70.1304 52.9764C70.2146 52.9509 70.3134 52.9823 70.3814 52.9764C70.7987 52.9409 71.1433 52.7006 71.2017 52.3383C71.3055 51.6911 70.8596 51.4123 70.2475 51.4221C70.0077 51.3952 69.6506 51.3952 69.4106 51.4224Z" fill="#232020"/>
<path fill-rule="evenodd" clip-rule="evenodd" d="M81.6614 51.8806C81.7213 51.8083 81.7883 51.7428 81.8623 51.6842C81.8026 51.7565 81.7354 51.822 81.6614 51.8806ZM84.0882 51.7006C84.1564 51.7538 84.2181 51.8136 84.2723 51.8806C84.2042 51.8275 84.1425 51.7672 84.0882 51.7006ZM91.6699 65.8525C91.7466 65.764 91.8304 65.6822 91.9209 65.6071C91.8442 65.6956 91.7604 65.7775 91.6699 65.8525Z" fill="#6A9449"/>
<path fill-rule="evenodd" clip-rule="evenodd" d="M94.0799 60.8297C94.1341 60.763 94.1955 60.703 94.2638 60.6498C94.2096 60.7167 94.1481 60.7765 94.0799 60.8297ZM94.0965 65.6235C94.1494 65.5684 94.0997 65.6865 94.1466 65.6397C94.1506 65.6929 94.2555 65.7527 94.2974 65.8196C94.2236 65.7613 94.1563 65.6955 94.0965 65.6235Z" fill="#2A2829"/>
<path fill-rule="evenodd" clip-rule="evenodd" d="M85.3436 63.1041C85.5051 60.9879 86.7117 59.8933 88.8413 59.7011H89.3434C91.45 59.8886 92.6407 60.9715 92.8245 63.0386V63.3169C92.7804 64.3318 92.4125 65.03 91.9207 65.6074C91.8301 65.6824 91.7464 65.7643 91.6696 65.8528C91.1026 66.324 90.3999 66.6623 89.4101 66.7199H88.8411C86.7061 66.5326 85.4876 65.4497 85.3434 63.3169C85.3436 63.2458 85.3436 63.1749 85.3436 63.1041ZM88.9251 60.9935C88.4912 61.0166 88.2136 61.1926 87.9543 61.3863C87.8961 61.411 87.8597 61.4887 87.8204 61.4843C87.8688 61.4936 87.7948 61.5098 87.8038 61.5334C87.0718 62.1764 87.0447 64.1492 87.7702 64.8219C87.8191 64.8832 87.8748 64.9378 87.9377 64.9854C88.1981 65.2053 88.5063 65.3786 88.9755 65.3943C89.0209 65.4215 89.1811 65.4215 89.2265 65.3943C89.6591 65.3757 89.952 65.22 90.197 65.0183C90.271 64.9597 90.338 64.8942 90.3979 64.8219C91.4091 63.6797 90.9815 61.0475 89.2599 60.9935C89.1869 60.9663 88.9978 60.9663 88.9251 60.9935ZM94.2637 60.6498C94.8493 60.1149 95.6185 59.7601 96.6906 59.7008H97.1926C99.2802 59.8795 100.455 60.9514 100.674 62.9565V63.3818C100.461 65.3992 99.3293 66.5174 97.2599 66.7194H96.6906C95.6458 66.661 94.8819 66.3279 94.2974 65.8197C94.2555 65.7527 94.1506 65.6927 94.1466 65.6397C94.0995 65.6863 94.1494 65.5684 94.0965 65.6235C93.5708 65.0925 93.2087 64.2551 93.1927 63.2347C93.1766 62.2041 93.5834 61.3733 94.0797 60.8298C94.1479 60.7769 94.2097 60.7165 94.2637 60.6498ZM96.7743 60.9935C94.4847 61.1585 94.5338 65.333 96.8245 65.3943C96.8699 65.4215 97.0301 65.4215 97.0755 65.3943C98.2071 65.2681 98.6805 64.4988 98.7826 63.3659C98.8104 63.3053 98.8104 63.1318 98.7826 63.0715C98.7004 61.9141 98.2301 61.1357 97.1089 60.9935C97.0362 60.9663 96.8473 60.9663 96.7743 60.9935Z" fill="#232020"/>
<path fill-rule="evenodd" clip-rule="evenodd" d="M42.0973 66.5559C42.622 66.5453 43.1905 66.5777 43.6873 66.5397C43.2294 66.6046 42.5828 66.5728 42.0973 66.5559Z" fill="#6A9449"/>
<path fill-rule="evenodd" clip-rule="evenodd" d="M42.0973 66.5559C41.1802 64.3333 40.2764 62.0973 39.3693 59.8646H41.3106C41.8628 61.3917 42.402 62.9318 42.9507 64.462C43.5288 62.9435 44.0808 61.4 44.641 59.8646H46.4321C45.5253 62.0978 44.5911 64.3039 43.6873 66.5398C43.1905 66.5777 42.622 66.5454 42.0973 66.5559Z" fill="#232020"/>
<path fill-rule="evenodd" clip-rule="evenodd" d="M46.7165 59.8646V66.1308C46.7165 66.2617 46.6984 66.5187 46.7165 66.5398C46.7679 66.6001 47.6326 66.5559 47.7542 66.5559H50.9008C49.7307 66.5858 48.4607 66.5724 47.202 66.5724C47.0174 66.5724 46.7331 66.5949 46.6999 66.5559C46.6458 66.4927 46.6999 65.9193 46.6999 65.7219V61.5498C46.6997 60.9771 46.6862 60.3569 46.7165 59.8646ZM51.1516 59.8646C51.1794 60.2684 51.1792 60.7862 51.1516 61.1899H48.5239C48.4848 61.5716 48.5184 62.0242 48.5071 62.4334C49.2326 62.4716 50.0301 62.4388 50.7832 62.4498C50.7722 62.8862 50.8055 63.366 50.7666 63.7751V62.4827C50.0414 62.4444 49.2436 62.4773 48.4905 62.4665V61.174H51.1348C51.1739 60.77 51.1403 60.2956 51.1516 59.8646Z" fill="#6A9449"/>
<path fill-rule="evenodd" clip-rule="evenodd" d="M46.7165 59.8646H51.1518C51.1406 60.2956 51.1742 60.77 51.135 61.1735H48.4908V62.466C49.2439 62.4768 50.0419 62.4442 50.7669 62.4822V63.7746H48.5073C48.4795 64.2218 48.4795 64.7837 48.5073 65.2309H51.6369C51.6584 65.2792 51.6143 65.3468 51.5867 65.3941C51.3801 65.7518 51.1014 66.1723 50.9008 66.5557H47.7542C47.6329 66.5557 46.7679 66.5998 46.7165 66.5395C46.6984 66.5184 46.7165 66.2615 46.7165 66.1306V59.8646Z" fill="#232020"/>
<path fill-rule="evenodd" clip-rule="evenodd" d="M51.9381 59.8646V66.1308C51.9381 66.2617 51.92 66.5187 51.9381 66.5398C51.9895 66.6001 52.8544 66.5559 52.9758 66.5559H56.1224C54.9522 66.5858 53.6825 66.5724 52.4236 66.5724C52.239 66.5724 51.9549 66.5949 51.9215 66.5559C51.8673 66.4927 51.9215 65.9193 51.9215 65.7219V61.5498C51.9215 60.9774 51.9077 60.3567 51.9381 59.8646ZM56.3734 59.8646C56.4013 60.2684 56.401 60.7862 56.3734 61.1899H53.7457C53.7068 61.5716 53.7402 62.0242 53.7292 62.4334C54.4544 62.4716 55.2519 62.4388 56.005 62.4498C55.994 62.8862 56.0273 63.366 55.9885 63.7751V63.137C55.9885 63.0539 56.0426 62.5461 55.9885 62.4827C55.9498 62.4371 55.5476 62.4665 55.4362 62.4665H53.7124V61.174H56.3566C56.3955 60.77 56.3621 60.2956 56.3734 59.8646Z" fill="#6A9449"/>
<path fill-rule="evenodd" clip-rule="evenodd" d="M51.938 59.8646H56.3734C56.3621 60.2956 56.3957 60.77 56.3566 61.1735H53.7123V62.466H55.4362C55.5476 62.466 55.9498 62.4368 55.9884 62.4822C56.0426 62.5457 55.9884 63.0536 55.9884 63.1365V63.7746H53.7291C53.7013 64.2218 53.7013 64.7837 53.7291 65.2309H56.8587C56.88 65.2792 56.8358 65.3468 56.8085 65.3941C56.6016 65.7518 56.3232 66.1723 56.1224 66.5557H52.9758C52.8547 66.5557 51.9895 66.5998 51.938 66.5395C51.92 66.5184 51.938 66.2615 51.938 66.1306V59.8646Z" fill="#232020"/>
<path fill-rule="evenodd" clip-rule="evenodd" d="M57.1599 59.8646V66.1308C57.1599 66.2605 57.1426 66.5196 57.1599 66.5398C57.2075 66.5959 57.7319 66.5559 57.8458 66.5559H59.9546C59.3086 66.5856 58.5585 66.5724 57.829 66.5724C57.7106 66.5724 57.192 66.6133 57.1428 66.5559C57.0894 66.4934 57.1428 65.9229 57.1428 65.7219C57.1431 64.9097 57.1428 63.9994 57.1428 63.2186C57.1433 61.9943 57.1295 60.7879 57.1599 59.8646ZM62.7997 60.8788C62.7316 60.8259 62.67 60.7655 62.6159 60.6989C62.6844 60.7521 62.7456 60.8122 62.7997 60.8788Z" fill="#6A9449"/>
<path fill-rule="evenodd" clip-rule="evenodd" d="M57.1598 59.8646C58.1738 59.8871 59.3379 59.8344 60.3227 59.8646C61.3176 59.8952 62.0905 60.234 62.6159 60.6991C62.6703 60.7658 62.7315 60.8258 62.7997 60.879C63.284 61.4439 63.6163 62.1404 63.62 63.1367C63.6275 65.2597 62.1717 66.5838 59.9548 66.5559H57.846C57.7321 66.5559 57.2077 66.5956 57.1601 66.5397C57.1428 66.5196 57.1601 66.2605 57.1601 66.1308C57.1598 64.0621 57.1598 61.8266 57.1598 59.8646ZM58.9336 61.1735V65.2636C59.1348 65.2909 59.4523 65.2909 59.6534 65.2636C61.0307 65.2249 61.6963 64.4907 61.7286 63.1367C61.7181 63.0869 61.7499 62.9957 61.7118 62.9731C61.5959 61.8702 60.9615 61.2745 59.8207 61.1735C59.5641 61.1462 59.1907 61.1462 58.9336 61.1735Z" fill="#232020"/>
<path fill-rule="evenodd" clip-rule="evenodd" d="M64.005 66.5559C65.3996 66.5451 66.8389 66.5779 68.2056 66.5397C66.8868 66.6046 65.3675 66.5728 64.005 66.5559Z" fill="#6A9449"/>
<path fill-rule="evenodd" clip-rule="evenodd" d="M68.4401 59.8646V60.8627C68.4401 60.9306 68.4484 61.1654 68.4401 61.1735C68.3917 61.2208 67.8638 61.1735 67.7705 61.1735C67.12 61.1735 66.3583 61.1605 65.7958 61.1899V62.4498C66.5211 62.488 67.3186 62.4552 68.0719 62.4662V63.7751H65.8124C65.7735 64.2223 65.8069 64.7403 65.7958 65.2149C66.8055 65.2529 67.8879 65.2203 68.9253 65.2313C68.9442 65.3424 68.8361 65.4353 68.7746 65.5422C68.5923 65.8592 68.3889 66.2215 68.2053 66.54C66.8386 66.5782 65.3993 66.5454 64.0047 66.5562V59.8649C65.4833 59.8646 66.9617 59.8646 68.4401 59.8646Z" fill="#232020"/>
<path fill-rule="evenodd" clip-rule="evenodd" d="M69.2266 66.5559H70.967C70.978 65.6236 70.9447 64.6474 70.9835 63.742V65.8854C70.9835 66.0224 71.0272 66.5235 70.967 66.5726C70.9432 66.5919 70.6004 66.5726 70.5319 66.5726C70.1359 66.5726 69.5115 66.5851 69.2266 66.5559ZM73.4776 66.5397C74.0915 66.5669 74.822 66.5669 75.436 66.5397C75.452 66.5402 75.449 66.5598 75.4525 66.5726C74.8052 66.5508 74.0692 66.6157 73.4776 66.5397ZM73.9295 60.3718C74.0032 60.4304 74.0704 60.4959 74.1304 60.5682C74.0566 60.5098 73.9893 60.444 73.9295 60.3718Z" fill="#6A9449"/>
<path fill-rule="evenodd" clip-rule="evenodd" d="M69.2266 66.5558V59.8645C70.8682 59.9614 73.0217 59.5576 73.9295 60.3718C73.9892 60.4441 74.0564 60.5095 74.1304 60.5681C74.3247 60.8253 74.482 61.1188 74.5151 61.5336V61.9099C74.4215 62.6527 74.0353 63.1094 73.4773 63.3987C74.1201 64.4553 74.7837 65.4924 75.4357 66.5399C74.822 66.5671 74.0915 66.5671 73.4773 66.5399C72.9066 65.5931 72.3373 64.6444 71.7369 63.7258H71.6366C71.5859 63.736 71.4926 63.7049 71.4693 63.7422H70.9838C70.9449 64.6475 70.9783 65.6238 70.9672 66.5561C70.3869 66.5558 69.8069 66.5558 69.2266 66.5558ZM71.9378 61.108C71.8761 61.07 71.7429 61.1023 71.6534 61.0915H70.9838C70.9535 61.7802 70.9672 62.6164 70.9672 63.3166C70.9672 63.4227 70.9377 63.5691 71.0006 63.5782C71.0006 63.5617 71.0144 63.5588 71.0174 63.5456C71.2276 63.293 71.4613 62.8498 71.7035 62.662C71.76 62.6517 71.8588 62.6831 71.8874 62.6456C73.0051 62.7427 73.062 61.0008 71.9378 61.108Z" fill="#232020"/>
<path fill-rule="evenodd" clip-rule="evenodd" d="M84.2891 63.1367C84.3435 63.07 84.405 63.01 84.4732 62.9568C84.419 63.0235 84.3573 63.0835 84.2891 63.1367Z" fill="#2A2829"/>
<path fill-rule="evenodd" clip-rule="evenodd" d="M79.6534 59.8645C81.0419 59.982 82.9396 59.6039 83.9713 60.1263C84.5374 60.4129 84.9419 60.9231 84.9419 61.7297C84.9421 62.2774 84.742 62.611 84.4734 62.9567C84.4052 63.0096 84.3435 63.07 84.2893 63.1366C84.173 63.2411 84.0268 63.3163 83.9044 63.4149C84.5379 64.47 85.2029 65.4938 85.8459 66.5396C85.2323 66.5779 84.5459 66.545 83.9044 66.5558C83.3321 65.6049 82.7478 64.6657 82.1639 63.7255H82.0636C82.0072 63.7358 81.9084 63.7044 81.8798 63.7419H81.3943C81.3639 64.3864 81.3775 65.1207 81.3777 65.8525C81.3777 65.966 81.4294 66.5053 81.3777 66.5558C81.3542 66.5789 80.997 66.5558 80.9426 66.5558C80.507 66.5558 80.0365 66.5693 79.6539 66.5396C79.6534 64.3146 79.6534 62.0896 79.6534 59.8645ZM82.3478 61.108C82.2861 61.07 82.1529 61.1023 82.0631 61.0915H81.3938C81.366 61.8824 81.366 62.7875 81.3938 63.5784C81.5021 63.4458 81.6215 63.2925 81.7451 63.1204C81.853 62.9704 81.9834 62.7074 82.1301 62.6623C82.1807 62.652 82.274 62.6831 82.2974 62.6458C83.3973 62.7652 83.4991 61.03 82.3478 61.108Z" fill="#232020"/>
<path fill-rule="evenodd" clip-rule="evenodd" d="M87.8038 61.5333C87.7951 61.5098 87.869 61.4934 87.8204 61.4843C87.8598 61.4887 87.8961 61.4107 87.9543 61.3862C87.9197 61.4453 87.855 61.4745 87.8204 61.5336C87.8151 61.5333 87.8094 61.5333 87.8038 61.5333Z" fill="#2A2829"/>
<path fill-rule="evenodd" clip-rule="evenodd" d="M87.7702 64.8219C87.8332 64.8694 87.8891 64.9241 87.9377 64.9854C87.8751 64.938 87.8188 64.883 87.7702 64.8219ZM90.1971 65.0182C90.257 64.9459 90.324 64.8804 90.3979 64.8219C90.3377 64.8942 90.2708 64.9594 90.1971 65.0182ZM70.9838 61.0916V63.2837C70.9838 63.3899 70.9545 63.5363 71.0174 63.5456C71.0141 63.5588 71.0006 63.5618 71.0006 63.5782C70.9377 63.5689 70.9672 63.4225 70.9672 63.3166C70.9672 62.6164 70.9535 61.7802 70.9838 61.0916ZM76.0549 62.8422C76.0581 62.829 76.0717 62.826 76.0717 62.8096C76.9808 62.7932 78.0669 62.7608 78.967 62.8258C78.9534 62.829 78.9504 62.8422 78.9334 62.8422C78.9126 62.7807 78.7523 62.8096 78.6322 62.8096C77.9001 62.8096 76.8286 62.7478 76.1218 62.8096C76.0855 62.8126 76.0807 62.8322 76.0549 62.8422Z" fill="#6A9449"/>
<path fill-rule="evenodd" clip-rule="evenodd" d="M76.0549 62.8422C76.081 62.8321 76.0855 62.8125 76.1221 62.8096C76.8285 62.7478 77.9004 62.8096 78.6324 62.8096C78.7526 62.8096 78.9128 62.7807 78.9336 62.8422C78.6984 63.1736 78.4729 63.5154 78.2307 63.8402H75.369C75.5954 63.5056 75.838 63.1861 76.0549 62.8422ZM106.013 61.1898H104.071V66.5561H102.297C102.286 64.773 102.32 62.9459 102.281 61.1898H100.322V59.8645H106.013V61.1898ZM30.7835 67.8811C30.8171 67.9738 30.8394 68.0775 30.9008 68.143C30.9676 68.0554 30.9222 67.8583 31.1017 67.8811C31.1403 67.9792 31.1072 68.1484 31.1183 68.2739H31.0513C31.0395 68.1991 31.0809 67.9316 31.0177 68.0121C30.9879 68.103 30.9485 68.1844 30.9174 68.2739H30.8504C30.8361 68.1567 30.778 68.0829 30.7501 67.9795C30.7112 68.0452 30.7444 68.181 30.7333 68.2739H30.6664V67.8811H30.7835ZM30.566 67.9304C30.3597 67.8814 30.4813 68.1528 30.4489 68.2739H30.3652C30.3326 68.1528 30.4544 67.8811 30.2478 67.9304C30.2501 67.8505 30.5638 67.8505 30.566 67.9304ZM106.013 58.0977V58.3431H39.5371C39.3931 58.3745 39.4149 58.2972 39.4197 58.2122C39.4252 58.117 39.3831 58.1254 39.5704 58.0977C39.7856 58.066 40.2057 58.0977 40.3571 58.0977C62.2094 58.0977 84.2252 58.0974 106.013 58.0977Z" fill="#232020"/>
</g>
<defs>
<clipPath id="clip0_198_1323">
<rect width="93" height="21.0144" fill="white" transform="translate(13 49)"/>
</clipPath>
</defs>
</svg>
