<svg width="120" height="120" viewBox="0 0 120 120" fill="none" xmlns="http://www.w3.org/2000/svg">
<rect width="120" height="120" rx="6" fill="white"/>
<g clip-path="url(#clip0_198_1316)">
<path d="M96.784 70.2307C96.3722 69.9421 95.8706 69.8161 95.416 69.8344C94.9553 69.8527 94.7514 70.1941 94.7514 70.1941C94.5434 69.8344 94.1336 69.6128 93.4996 69.6169C92.4762 69.6291 91.4589 70.1006 90.6556 70.1006C89.8523 70.1006 89.3202 69.6169 89.3386 68.7571C89.3712 67.2509 90.6475 65.8932 91.6016 65.2834C92.15 64.9318 92.6087 64.8281 92.9104 64.8606C93.1286 64.885 93.3936 65.1371 93.2264 65.509C92.9818 66.0538 92.6433 66.009 92.6556 65.7468C92.6637 65.5781 92.7759 65.4724 92.8615 65.4135C92.9165 65.3769 93.0103 65.3647 93.0613 65.3647C93.1082 65.3241 93.1469 65.0253 92.7534 65.1228C92.36 65.2204 91.889 65.6066 91.4364 66.1005C90.9838 66.5985 90.2825 67.5375 90.1113 68.5254C90.0297 68.9827 90.0848 69.8161 91.1714 69.8059C92.0929 69.7978 93.4527 69.1921 94.7004 69.2022C95.1856 69.2083 95.6076 69.3384 95.9359 69.5396C96.26 69.7409 96.6474 70.0295 96.786 70.2246L96.784 70.2307ZM97.0775 67.501H97.2671C97.2671 67.501 96.3212 68.8648 95.785 68.8038C95.4874 68.7693 95.575 68.4014 95.575 68.4014C95.575 68.4014 95.155 68.8912 94.7718 68.7937C94.4231 68.7042 94.6474 68.125 94.6474 68.125C94.6087 68.1412 93.8523 68.9929 93.3202 68.7876C92.7657 68.5742 93.0531 67.8628 93.1591 67.6493C93.2468 67.4684 93.3467 67.2936 93.3467 67.2936C93.3467 67.2936 93.2611 67.3201 93.2081 67.3302C93.1551 67.3424 93.0735 67.3566 93.0735 67.3566C93.0735 67.3566 92.8105 67.7835 92.6515 67.9949C92.4904 68.2063 91.8075 68.938 91.4058 68.7937C91.0022 68.6494 91.1021 68.0863 91.3284 67.6412C91.6953 66.9176 92.5638 66.0294 93.0878 66.1615C93.6158 66.2956 93.1795 67.1514 93.1795 67.1514C93.1795 67.1514 93.2855 67.1656 93.5363 66.9928C93.8992 66.7428 94.3783 66.0802 94.8982 66.1574C95.1408 66.194 95.3691 66.444 95.0592 66.9176C94.9593 67.07 94.7922 67.2042 94.6658 67.07C94.5862 66.9867 94.6535 66.8343 94.7391 66.7306C94.8574 66.5822 95.0205 66.6026 95.0205 66.6026C95.0205 66.6026 95.1061 66.4074 94.888 66.4095C94.7126 66.4135 94.2641 66.8221 94.0113 67.2388C93.7789 67.6188 93.4303 68.2693 93.7809 68.4095C94.1051 68.5396 94.7188 67.8099 95.0021 67.4318C95.2876 67.0518 95.9338 66.1879 96.4782 66.1534C96.6657 66.1412 96.7758 66.3099 96.7758 66.3099L96.839 66.2123H97.3813C97.3813 66.2123 96.3579 67.9156 96.2784 68.0457C96.2152 68.1473 96.1316 68.375 96.362 68.2469C96.5944 68.1189 97.0755 67.501 97.0755 67.501H97.0775ZM92.8656 67.3282C92.8656 67.3282 92.7188 67.2855 92.5863 67.2001C92.4537 67.1148 92.3905 66.9887 92.3865 66.9786C92.3824 66.9704 92.3763 66.9786 92.3702 66.9867C92.364 66.9928 92.3375 67.0294 92.1439 67.314C91.9502 67.5965 91.6627 68.1778 91.9318 68.2774C92.1051 68.3404 92.3926 68.0396 92.5475 67.8384C92.6943 67.6534 92.8656 67.3688 92.8737 67.3546C92.8819 67.3363 92.8737 67.3322 92.8656 67.3282ZM93.0796 66.4237C92.9369 66.316 92.574 66.568 92.572 66.8241C92.572 67.0863 92.8982 67.1615 92.943 67.1635C92.943 67.1635 92.9797 67.1717 92.994 67.1432C93.0042 67.1229 93.0491 67.0416 93.098 66.9115C93.149 66.7814 93.2101 66.5253 93.0796 66.4257V66.4237ZM95.8482 67.8424C96.0684 67.5416 96.6718 66.4928 96.6718 66.4928C96.6718 66.4928 96.6617 66.4176 96.5923 66.4156C96.5087 66.4115 96.3701 66.4399 96.0908 66.7855C95.8135 67.1331 95.5995 67.4095 95.4425 67.6941C95.2713 68.0071 95.1958 68.2286 95.2937 68.2876C95.3202 68.3059 95.363 68.3079 95.3956 68.2998C95.4608 68.2835 95.5465 68.2185 95.6606 68.0863C95.7157 68.0233 95.7769 67.942 95.8482 67.8424ZM98.2885 66.2143H97.7728L97.4812 66.6839H97.997L98.2885 66.2143ZM105.901 65.3688C105.52 65.6147 104.992 65.8363 104.484 65.7875C104.356 65.9196 104.217 66.072 104.081 66.2408C104.959 66.4115 105.73 65.8708 106.14 65.4054C106.397 65.1188 106.523 64.8586 106.523 64.8586C106.523 64.8586 106.278 65.1269 105.901 65.3688ZM104.392 69.3567C104.319 69.4746 104.238 69.6961 104.478 69.5579C104.772 69.3872 105.192 68.7551 105.192 68.7551H105.379C105.379 68.7551 105.13 69.1494 104.804 69.5071C104.507 69.8344 104.144 70.1332 103.889 70.1047C103.591 70.0701 103.683 69.6799 103.683 69.6799C103.683 69.6799 103.255 70.1332 102.959 70.1006C102.56 70.0559 102.68 69.564 102.68 69.564C102.68 69.564 102.229 70.1189 101.922 70.1006C101.438 70.0722 101.559 69.4868 101.693 69.0762C101.765 68.8547 101.832 68.6819 101.832 68.6819C101.832 68.6819 101.783 68.6941 101.681 68.7103C101.628 68.7185 101.53 68.7225 101.53 68.7225C101.53 68.7225 101.328 69.0782 101.167 69.2896C101.006 69.5031 100.325 70.2348 99.9216 70.0884C99.5505 69.9523 99.6749 69.3852 99.8889 68.936C100.205 68.2774 101.092 67.3323 101.603 67.4562C102.134 67.5843 101.616 68.5498 101.616 68.5498C101.616 68.5498 101.616 68.5538 101.622 68.5579C101.632 68.562 101.661 68.564 101.724 68.5498C101.826 68.5315 101.917 68.4929 101.917 68.4929C101.917 68.4929 102.452 67.379 103.041 66.6493C103.63 65.9196 104.804 64.6635 105.267 64.9684C105.381 65.0436 105.328 65.2997 105.177 65.6127C105.11 65.633 105.041 65.6533 104.967 65.6676C105.069 65.4846 105.137 65.3281 105.157 65.2204C105.226 64.8423 104.346 65.6371 103.714 66.4928C103.084 67.3465 102.706 68.1209 102.706 68.1209C102.706 68.1209 102.835 68.0498 103.033 67.8892C103.239 67.7225 103.524 67.4623 103.834 67.1432C104.042 66.9298 104.286 66.6595 104.515 66.3586C104.584 66.3566 104.649 66.3485 104.717 66.3363C104.462 66.6798 104.193 66.9928 103.964 67.2225C103.714 67.4745 103.44 67.7489 103.204 67.9461C102.827 68.2632 102.537 68.44 102.537 68.44C102.537 68.44 101.987 69.5478 102.286 69.6189C102.464 69.6596 102.81 69.125 102.81 69.125C102.81 69.125 103.263 68.4339 103.538 68.1229C103.911 67.7001 104.233 67.4542 104.554 67.4501C104.739 67.4461 104.851 67.6453 104.851 67.6453L104.937 67.5091H105.481C105.481 67.5091 104.47 69.2226 104.388 69.3506L104.392 69.3567ZM101.343 68.6839C101.343 68.6839 101.216 68.627 101.094 68.5254C100.974 68.4237 100.91 68.3079 100.906 68.2998C100.9 68.2916 100.896 68.2977 100.89 68.3059C100.884 68.314 100.863 68.3323 100.67 68.6168C100.476 68.8994 100.178 69.4848 100.45 69.5844C100.621 69.6474 100.908 69.3486 101.065 69.1494C101.21 68.9644 101.347 68.7266 101.355 68.7103C101.361 68.6941 101.355 68.69 101.347 68.686L101.343 68.6839ZM101.616 68.2042C101.667 68.0721 101.73 67.816 101.597 67.7164C101.455 67.6087 101.092 67.8587 101.09 68.1168C101.088 68.3811 101.347 68.499 101.408 68.5172C101.442 68.5254 101.455 68.5233 101.471 68.4969C101.483 68.4786 101.565 68.3363 101.614 68.2063L101.616 68.2042ZM104.731 67.8424C104.741 67.8221 104.747 67.8058 104.747 67.8058C104.747 67.8058 104.737 67.7327 104.668 67.7306C104.584 67.7266 104.468 67.7428 104.17 68.0721C103.873 68.4014 103.691 68.688 103.534 68.9746C103.363 69.2876 103.294 69.5213 103.391 69.5803C103.42 69.5966 103.463 69.6006 103.495 69.5905C103.563 69.5742 103.638 69.5132 103.754 69.3791C103.809 69.3181 103.869 69.2287 103.94 69.1311C104.138 68.8608 104.635 68.0132 104.735 67.8424H104.731ZM105.901 65.3688C105.52 65.6147 104.992 65.8363 104.484 65.7875C104.356 65.9196 104.217 66.072 104.081 66.2408C104.959 66.4115 105.73 65.8708 106.14 65.4054C106.397 65.1188 106.523 64.8586 106.523 64.8586C106.523 64.8586 106.278 65.1269 105.901 65.3688ZM103.428 66.007C103.01 65.7956 102.708 65.5334 102.39 65.3728C102.089 65.2184 101.893 65.1533 101.648 65.1858C101.608 65.1919 101.548 65.2102 101.548 65.2102C101.548 65.2102 101.675 65.6391 101.175 66.3586C100.67 67.0883 100.209 67.0843 100.079 66.883C99.9419 66.6696 100.117 66.2408 100.411 65.8566C100.723 65.4541 101.265 65.1228 101.265 65.1228C101.265 65.1228 101.092 65.0171 100.666 65.257C100.252 65.4907 99.5362 66.0477 98.8737 66.9867C98.2131 67.9278 98.0826 68.4441 97.9868 68.8526C97.891 69.2591 97.9787 69.6941 98.4313 69.6941C98.8839 69.6941 99.4098 69.0071 99.5587 68.7652C99.8339 68.3181 100.015 67.6351 99.6382 67.7286C99.4527 67.7754 99.3038 67.9806 99.21 68.1778C99.1122 68.3811 99.0735 68.5742 99.0735 68.5742C99.0735 68.5742 98.9165 68.6311 98.7085 68.7876C98.4965 68.9441 98.3599 69.0945 98.3599 69.0945C98.3599 69.0945 98.3599 68.7693 98.6209 68.2428C98.8818 67.7164 99.3589 67.4745 99.63 67.4522C99.8726 67.4339 100.191 67.6392 99.9236 68.4014C99.6545 69.1636 98.8635 70.0864 98.0296 70.0986C97.261 70.1088 96.7575 69.1311 97.8258 67.4237C99.0082 65.5375 100.399 64.9582 100.849 64.8911C101.3 64.8261 101.447 65.0253 101.447 65.0253C101.447 65.0253 101.826 64.8505 102.305 64.883C102.855 64.9216 103.283 65.3098 103.844 65.5802C103.697 65.7224 103.559 65.8688 103.432 66.005L103.428 66.007ZM101.375 65.2671C101.375 65.2671 101.053 65.3952 100.68 65.8058C100.303 66.2184 100.087 66.6798 100.248 66.8038C100.309 66.8505 100.452 66.8587 100.713 66.6249C100.914 66.442 101.122 66.2042 101.261 65.8647C101.428 65.4562 101.375 65.2692 101.375 65.2651V65.2671Z" fill="#FC808A"/>
<path d="M99.0735 71.1678C99.0735 71.0885 99.1143 71.0295 99.2101 71.0295H99.6627C100.032 71.0295 100.223 71.2877 100.223 71.5235C100.223 71.7592 100.103 71.9239 99.9338 71.9767V71.9828C100.185 72.0092 100.384 72.2227 100.384 72.495C100.384 72.8202 100.142 73.1007 99.7034 73.1007H99.2101C99.1143 73.1007 99.0735 73.0398 99.0735 72.9605V71.1698V71.1678ZM99.3304 71.9036H99.6219C99.84 71.9036 99.9664 71.7572 99.9664 71.5682C99.9664 71.3791 99.8584 71.2491 99.6321 71.2491H99.3324V71.9036H99.3304ZM99.3304 72.8772H99.6912C99.942 72.8772 100.125 72.7247 100.125 72.493C100.125 72.2816 99.9705 72.1129 99.7014 72.1129H99.3283V72.8772H99.3304Z" fill="#424A52"/>
<path d="M100.654 71.6718C100.654 71.5865 100.704 71.5356 100.782 71.5356C100.859 71.5356 100.91 71.5865 100.91 71.6718V71.8019H100.916C100.974 71.684 101.118 71.5356 101.267 71.5356C101.357 71.5356 101.41 71.5926 101.41 71.6657C101.41 71.7389 101.357 71.7856 101.249 71.806C101.098 71.8324 100.91 71.9462 100.91 72.245V72.9808C100.91 73.0662 100.861 73.117 100.782 73.117C100.702 73.117 100.654 73.0641 100.654 72.9808V71.6739V71.6718Z" fill="#424A52"/>
<path d="M102.87 72.991C102.87 73.0824 102.8 73.117 102.751 73.117C102.698 73.117 102.631 73.0824 102.631 72.991V72.8832H102.625C102.513 73.0398 102.368 73.117 102.203 73.117C101.765 73.117 101.52 72.7369 101.52 72.3263C101.52 71.9157 101.765 71.5356 102.203 71.5356C102.38 71.5356 102.507 71.6108 102.625 71.743H102.631V71.6617C102.631 71.5702 102.696 71.5377 102.751 71.5377C102.8 71.5377 102.87 71.5722 102.87 71.6617V72.993V72.991ZM102.203 72.8954C102.517 72.8954 102.629 72.5885 102.629 72.3263C102.629 72.0641 102.519 71.7572 102.203 71.7572C101.887 71.7572 101.777 72.0661 101.777 72.3263C101.777 72.5865 101.887 72.8954 102.203 72.8954Z" fill="#424A52"/>
<path d="M103.714 71.5356C103.926 71.5356 104.229 71.6494 104.229 71.8079C104.229 71.8628 104.193 71.9116 104.113 71.9116C104.001 71.9116 103.958 71.753 103.714 71.753C103.567 71.753 103.442 71.8181 103.442 71.9482C103.442 72.2185 104.272 72.1901 104.272 72.6372C104.272 72.9584 103.995 73.1128 103.705 73.1128C103.379 73.1128 103.122 72.9502 103.122 72.8202C103.122 72.749 103.171 72.7043 103.228 72.7043C103.341 72.7043 103.436 72.8913 103.716 72.8913C103.901 72.8913 104.015 72.7876 104.015 72.6819C104.015 72.3791 103.188 72.3974 103.188 71.9665C103.188 71.6819 103.457 71.5315 103.716 71.5315L103.714 71.5356Z" fill="#424A52"/>
<path d="M104.658 71.0092C104.745 71.0092 104.815 71.0803 104.815 71.1677C104.815 71.2551 104.745 71.3242 104.658 71.3242C104.57 71.3242 104.501 71.2551 104.501 71.1677C104.501 71.0803 104.572 71.0092 104.658 71.0092ZM104.788 72.9787C104.788 73.0641 104.737 73.1149 104.66 73.1149C104.582 73.1149 104.531 73.0621 104.531 72.9787V71.6718C104.531 71.5864 104.58 71.5356 104.66 71.5356C104.739 71.5356 104.788 71.5864 104.788 71.6718V72.9787Z" fill="#424A52"/>
<path d="M105.396 72.9787C105.396 73.0641 105.347 73.1149 105.267 73.1149C105.188 73.1149 105.139 73.0621 105.139 72.9787V70.9909C105.139 70.9055 105.19 70.8527 105.267 70.8527C105.345 70.8527 105.396 70.9055 105.396 70.9909V72.9787Z" fill="#424A52"/>
<path d="M106.007 61.2345C106.14 61.2386 106.231 61.206 106.231 61.0556C106.231 60.9052 106.064 60.9032 105.95 60.9032H105.663V61.2345H106.009H106.007ZM106.425 61.9073H106.154L105.893 61.4073H105.661V61.9073H105.43V60.7304H106.001C106.101 60.7304 106.231 60.7324 106.319 60.7894C106.427 60.8585 106.458 60.9743 106.458 61.0942C106.458 61.3056 106.348 61.3951 106.138 61.4093L106.423 61.9093L106.425 61.9073ZM106.788 61.3117C106.788 60.8137 106.384 60.4072 105.883 60.4072C105.381 60.4072 104.969 60.8117 104.969 61.3117C104.969 61.8117 105.375 62.2203 105.883 62.2203C106.39 62.2203 106.788 61.8178 106.788 61.3117ZM104.757 61.3117C104.757 60.6979 105.261 60.1979 105.883 60.1979C106.505 60.1979 107 60.6979 107 61.3117C107 61.9256 106.498 62.4337 105.883 62.4337C105.267 62.4337 104.757 61.9317 104.757 61.3117Z" fill="#424A52"/>
<path d="M90.6332 58.3908V55.7383C90.6311 52.0309 87.4874 49.0145 83.6098 49.0145C79.7322 49.0145 76.5864 52.0207 76.5864 55.7282C76.5864 59.4356 79.7322 62.4418 83.6098 62.4418C84.9819 62.4418 86.2622 62.0637 87.3447 61.4153C87.7035 61.9845 88.2988 62.3239 89.1673 62.4235C90.1194 62.5353 91.1959 62.1735 91.9114 61.4438C90.8391 60.9377 90.6352 59.5596 90.6352 58.3908H90.6332ZM83.5242 58.8238C81.779 58.8238 80.3621 57.4111 80.3621 55.6692C80.3621 53.9273 81.779 52.5146 83.5242 52.5146C85.2693 52.5146 86.6883 53.9273 86.6883 55.6692C86.6883 57.4111 85.2713 58.8238 83.5242 58.8238Z" fill="#424A52"/>
<path d="M98.4782 49.0126C94.6434 49.0126 91.5384 52.0188 91.5384 55.7262C91.5384 59.4336 94.6454 62.4398 98.4782 62.4398C102.311 62.4398 105.418 59.4357 105.418 55.7262C105.418 52.0167 102.311 49.0126 98.4782 49.0126ZM98.4761 58.8239C96.729 58.8239 95.3141 57.4112 95.3141 55.6693C95.3141 53.9274 96.729 52.5147 98.4761 52.5147C100.223 52.5147 101.64 53.9274 101.64 55.6693C101.64 57.4112 100.221 58.8239 98.4761 58.8239Z" fill="#424A52"/>
<path d="M84.8249 45.2583C81.5324 45.0734 80.0135 46.7137 80.0135 48.7645C81.7057 47.9779 82.9697 47.9332 84.8759 47.9881C87.1511 48.0552 88.0624 46.5815 88.0624 44.9921C87.6159 45.1486 86.9228 45.3783 84.8249 45.2583Z" fill="#424A52"/>
<path d="M69.9973 59.3462C68.666 59.3218 67.5651 58.7852 66.9943 57.9864L75.669 54.842C75.2205 51.5553 72.3581 49.0227 68.8883 49.0227C65.1105 49.0227 62.0463 52.0289 62.0463 55.7404C62.0463 59.4519 65.1126 62.4561 68.8883 62.4561C72.6639 62.4561 75.4081 59.7527 75.7057 56.3116C74.407 58.1917 72.3051 59.395 69.9953 59.3503L69.9973 59.3462ZM68.6028 52.0838C69.6446 52.0838 70.5376 52.6814 70.9575 53.5452L65.9688 55.3522C65.6773 53.4273 67.1248 52.0838 68.6028 52.0838Z" fill="#424A52"/>
<path d="M58.8802 57.7811L58.87 46.671L54.3257 48.1934V58.5921C54.3257 60.7324 56.0464 62.4703 58.1952 62.4703C61.2574 62.4703 62.2013 60.1328 62.3012 59.7466C62.3012 59.7466 61.5571 60.0658 60.923 60.0658C59.6672 60.0658 58.8782 59.0312 58.8782 57.7811H58.8802Z" fill="#424A52"/>
<path d="M56.711 67.8587L56.552 67.44H55.1902L55.0291 67.8688C54.9659 68.0355 54.9129 68.1493 54.8701 68.2063C54.8252 68.2652 54.7539 68.2937 54.654 68.2937C54.5684 68.2937 54.4929 68.2632 54.4277 68.2002C54.3625 68.1371 54.3298 68.068 54.3298 67.9888C54.3298 67.9441 54.338 67.8953 54.3523 67.8485C54.3665 67.7997 54.393 67.7327 54.4277 67.6453L55.284 65.4785C55.3084 65.4155 55.337 65.3423 55.3716 65.2549C55.4063 65.1675 55.443 65.0944 55.4817 65.0375C55.5204 64.9785 55.5714 64.9338 55.6346 64.8972C55.6978 64.8606 55.7753 64.8444 55.8691 64.8444C55.9628 64.8444 56.0424 64.8627 56.1056 64.8972C56.1688 64.9338 56.2197 64.9785 56.2585 65.0354C56.2972 65.0923 56.3298 65.1513 56.3563 65.2163C56.3828 65.2814 56.4175 65.3667 56.4582 65.4745L57.3329 67.629C57.4022 67.7936 57.4348 67.9115 57.4348 67.9867C57.4348 68.0619 57.4022 68.1351 57.3369 68.2002C57.2717 68.2652 57.1942 68.2977 57.1025 68.2977C57.0495 68.2977 57.0026 68.2876 56.9659 68.2693C56.9272 68.251 56.8966 68.2245 56.8701 68.192C56.8436 68.1595 56.8171 68.1087 56.7865 68.0416C56.7579 67.9745 56.7314 67.9156 56.709 67.8627L56.711 67.8587ZM55.3696 66.9318H56.3706L55.867 65.5537L55.3716 66.9318H55.3696Z" fill="#424A52"/>
<path d="M59.3002 65.2529V67.6818H60.6743C60.7844 67.6818 60.868 67.7083 60.9271 67.7611C60.9862 67.814 61.0148 67.881 61.0148 67.9623C61.0148 68.0437 60.9862 68.1107 60.9271 68.1615C60.87 68.2124 60.7844 68.2388 60.6743 68.2388H59.0372C58.8904 68.2388 58.7844 68.2063 58.7192 68.1412C58.654 68.0762 58.6213 67.9705 58.6213 67.8241V65.2549C58.6213 65.1188 58.6519 65.0151 58.7151 64.948C58.7763 64.8789 58.8578 64.8444 58.9577 64.8444C59.0576 64.8444 59.1412 64.8789 59.2044 64.946C59.2676 65.0131 59.2982 65.1167 59.2982 65.2549L59.3002 65.2529Z" fill="#424A52"/>
<path d="M62.187 67.8811V65.2509C62.187 65.1147 62.2176 65.0111 62.2808 64.944C62.344 64.8749 62.4235 64.8403 62.5234 64.8403C62.6233 64.8403 62.7089 64.8749 62.7701 64.942C62.8333 65.009 62.8659 65.1127 62.8659 65.2509V67.8811C62.8659 68.0193 62.8333 68.123 62.7701 68.19C62.7069 68.2591 62.6253 68.2917 62.5234 68.2917C62.4215 68.2917 62.346 68.2571 62.2828 68.188C62.2196 68.1189 62.187 68.0173 62.187 67.879V67.8811Z" fill="#424A52"/>
<path d="M65.4571 67.7347L64.9209 65.6086V67.9115C64.9209 68.0396 64.8924 68.1351 64.8353 68.1981C64.7782 68.2611 64.7028 68.2936 64.609 68.2936C64.5152 68.2936 64.4439 68.2631 64.3848 68.2001C64.3277 68.1371 64.2991 68.0416 64.2991 67.9115V65.2712C64.2991 65.1248 64.3379 65.0273 64.4133 64.9765C64.4887 64.9256 64.5927 64.9012 64.7211 64.9012H64.9311C65.0575 64.9012 65.1493 64.9134 65.2064 64.9358C65.2634 64.9582 65.3063 64.9988 65.3328 65.0578C65.3593 65.1167 65.3919 65.2122 65.4265 65.3464L65.9138 67.1737L66.399 65.3464C66.4337 65.2122 66.4663 65.1167 66.4928 65.0578C66.5193 64.9988 66.5621 64.9582 66.6192 64.9358C66.6763 64.9134 66.768 64.9012 66.8944 64.9012H67.1044C67.2328 64.9012 67.3368 64.9277 67.4122 64.9765C67.4877 65.0273 67.5264 65.1269 67.5264 65.2712V67.9115C67.5264 68.0396 67.4979 68.1351 67.4408 68.1981C67.3837 68.2611 67.3083 68.2936 67.2125 68.2936C67.1228 68.2936 67.0494 68.2611 66.9902 68.1981C66.9311 68.1351 66.9026 68.0396 66.9026 67.9115V65.6086L66.3664 67.7347C66.3317 67.8729 66.3032 67.9745 66.2808 68.0375C66.2583 68.1026 66.2176 68.1615 66.1584 68.2144C66.0993 68.2672 66.0178 68.2936 65.9118 68.2936C65.8322 68.2936 65.765 68.2774 65.7099 68.2428C65.6549 68.2083 65.6121 68.1656 65.5815 68.1127C65.5509 68.0599 65.5264 68.0009 65.5101 67.9359C65.4918 67.8709 65.4755 67.8038 65.4571 67.7347Z" fill="#424A52"/>
<path d="M71.1289 65.4217H69.6019V66.2408H71.0086C71.1126 66.2408 71.19 66.2632 71.241 66.3099C71.292 66.3567 71.3164 66.4176 71.3164 66.4928C71.3164 66.568 71.292 66.629 71.241 66.6778C71.19 66.7266 71.1126 66.7489 71.0086 66.7489H69.6019V67.6982H71.1819C71.2879 67.6982 71.3694 67.7226 71.4224 67.7713C71.4775 67.8201 71.504 67.8872 71.504 67.9685C71.504 68.0498 71.4775 68.1108 71.4224 68.1616C71.3674 68.2104 71.2879 68.2368 71.1819 68.2368H69.3389C69.1921 68.2368 69.084 68.2043 69.0208 68.1392C68.9556 68.0742 68.923 67.9685 68.923 67.8222V65.3139C68.923 65.2164 68.9372 65.1371 68.9658 65.0761C68.9943 65.0151 69.0392 64.9704 69.1024 64.942C69.1635 64.9135 69.2431 64.8993 69.3389 64.8993H71.1289C71.2369 64.8993 71.3164 64.9237 71.3694 64.9704C71.4224 65.0192 71.4489 65.0802 71.4489 65.1595C71.4489 65.2387 71.4224 65.3017 71.3694 65.3485C71.3164 65.3973 71.2369 65.4196 71.1289 65.4196V65.4217Z" fill="#424A52"/>
<path d="M73.6283 65.2468L74.9331 67.2143V65.2285C74.9331 65.0984 74.9616 65.0029 75.0167 64.9379C75.0717 64.8728 75.1471 64.8403 75.2409 64.8403C75.3347 64.8403 75.4162 64.8728 75.4713 64.9379C75.5284 65.0029 75.5549 65.0984 75.5549 65.2285V67.8526C75.5549 68.1453 75.4326 68.2916 75.19 68.2916C75.1288 68.2916 75.0737 68.2835 75.0248 68.2652C74.9759 68.2489 74.931 68.2205 74.8882 68.1819C74.8454 68.1432 74.8067 68.0985 74.77 68.0477C74.7333 67.9969 74.6966 67.944 74.6599 67.8912L73.3877 65.948V67.9034C73.3877 68.0314 73.3592 68.127 73.298 68.192C73.2389 68.2571 73.1614 68.2896 73.0697 68.2896C72.9779 68.2896 72.8964 68.2571 72.8393 68.19C72.7802 68.1249 72.7516 68.0274 72.7516 67.9034V65.3281C72.7516 65.2183 72.7639 65.133 72.7883 65.07C72.8169 65.0009 72.8658 64.946 72.9311 64.9033C72.9983 64.8606 73.0697 64.8383 73.1472 64.8383C73.2083 64.8383 73.2593 64.8484 73.3041 64.8687C73.347 64.8891 73.3857 64.9155 73.4183 64.948C73.4509 64.9805 73.4835 65.0253 73.5182 65.0781C73.5529 65.1309 73.5875 65.1858 73.6242 65.2448L73.6283 65.2468Z" fill="#424A52"/>
<path d="M79.1716 65.4582H78.4315V67.883C78.4315 68.0233 78.4009 68.127 78.3377 68.194C78.2745 68.2611 78.195 68.2957 78.0951 68.2957C77.9952 68.2957 77.9137 68.2611 77.8505 68.194C77.7873 68.1249 77.7547 68.0233 77.7547 67.8851V65.4602H77.0146C76.8984 65.4602 76.8128 65.4338 76.7577 65.383C76.7007 65.3322 76.6721 65.2651 76.6721 65.1817C76.6721 65.0984 76.7007 65.0273 76.7598 64.9765C76.8189 64.9277 76.9045 64.9012 77.0146 64.9012H79.1695C79.2878 64.9012 79.3734 64.9277 79.4305 64.9785C79.4876 65.0293 79.5161 65.0964 79.5161 65.1817C79.5161 65.2671 79.4876 65.3322 79.4285 65.383C79.3693 65.4338 79.2837 65.4602 79.1675 65.4602L79.1716 65.4582Z" fill="#424A52"/>
<path d="M82.0339 64.8423C82.3805 64.8423 82.6781 64.9114 82.9269 65.0537C83.1756 65.1939 83.3631 65.3931 83.4916 65.6533C83.62 65.9135 83.6832 66.2163 83.6832 66.5659C83.6832 66.8241 83.6486 67.0578 83.5772 67.2692C83.5079 67.4806 83.4019 67.6635 83.2632 67.818C83.1226 67.9725 82.9513 68.0904 82.7474 68.1737C82.5436 68.255 82.3091 68.2956 82.0461 68.2956C81.7831 68.2956 81.5507 68.253 81.3428 68.1696C81.1348 68.0863 80.9636 67.9664 80.8249 67.8139C80.6863 67.6615 80.5823 67.4765 80.511 67.2611C80.4396 67.0456 80.405 66.8119 80.405 66.5619C80.405 66.3118 80.4417 66.07 80.5151 65.8565C80.5885 65.6431 80.6965 65.4602 80.8351 65.3098C80.9758 65.1594 81.145 65.0435 81.3469 64.9642C81.5487 64.885 81.777 64.8443 82.0319 64.8443L82.0339 64.8423ZM82.9982 66.5598C82.9982 66.3159 82.9574 66.1045 82.88 65.9257C82.8005 65.7468 82.6883 65.6106 82.5415 65.5191C82.3948 65.4277 82.2255 65.3809 82.0359 65.3809C81.8993 65.3809 81.775 65.4073 81.6608 65.4561C81.5466 65.5069 81.4468 65.5801 81.3632 65.6777C81.2796 65.7752 81.2143 65.8992 81.1674 66.0496C81.1185 66.2001 81.0961 66.3708 81.0961 66.5578C81.0961 66.7448 81.1206 66.9196 81.1674 67.072C81.2143 67.2245 81.2837 67.3525 81.3713 67.4542C81.459 67.5558 81.5589 67.631 81.673 67.6818C81.7872 67.7326 81.9116 67.757 82.0461 67.757C82.2194 67.757 82.3784 67.7143 82.5252 67.6269C82.67 67.5395 82.7862 67.4054 82.8718 67.2265C82.9574 67.0456 83.0003 66.8241 83.0003 66.5598H82.9982Z" fill="#424A52"/>
<path d="M87.5099 67.2347C87.5099 67.4359 87.4569 67.6168 87.3529 67.7794C87.249 67.94 87.096 68.066 86.8942 68.1575C86.6924 68.2489 86.4559 68.2937 86.1786 68.2937C85.8484 68.2937 85.5752 68.2306 85.3611 68.1067C85.2082 68.0172 85.0859 67.8973 84.9901 67.7489C84.8942 67.5985 84.8474 67.4542 84.8474 67.314C84.8474 67.2326 84.8759 67.1615 84.933 67.1026C84.9901 67.0436 85.0635 67.0152 85.1511 67.0152C85.2225 67.0152 85.2836 67.0375 85.3326 67.0843C85.3815 67.129 85.4243 67.1981 85.459 67.2875C85.5018 67.3932 85.5466 67.4827 85.5976 67.5538C85.6465 67.6249 85.7158 67.6839 85.8076 67.7306C85.8973 67.7774 86.0155 67.7997 86.1603 67.7997C86.3621 67.7997 86.5252 67.753 86.6496 67.6595C86.776 67.566 86.8392 67.4501 86.8392 67.3099C86.8392 67.1981 86.8045 67.1087 86.7372 67.0396C86.67 66.9704 86.5823 66.9176 86.4742 66.881C86.3662 66.8444 86.2235 66.8058 86.0441 66.7652C85.8035 66.7082 85.6017 66.6432 85.4406 66.568C85.2775 66.4928 85.1491 66.3912 85.0553 66.2611C84.9595 66.131 84.9126 65.9704 84.9126 65.7773C84.9126 65.5842 84.9636 65.4297 85.0635 65.2875C85.1634 65.1452 85.3081 65.0354 85.4997 64.9582C85.6914 64.8809 85.9136 64.8444 86.1705 64.8444C86.3764 64.8444 86.5538 64.8708 86.7046 64.9196C86.8555 64.9704 86.9798 65.0375 87.0777 65.1228C87.1776 65.2062 87.249 65.2956 87.2938 65.3891C87.3387 65.4806 87.3631 65.572 87.3631 65.6594C87.3631 65.7387 87.3346 65.8119 87.2775 65.8769C87.2204 65.942 87.1491 65.9745 87.0634 65.9745C86.986 65.9745 86.9268 65.9542 86.8861 65.9155C86.8453 65.8769 86.8025 65.8139 86.7556 65.7265C86.6944 65.6005 86.621 65.5029 86.5374 65.4318C86.4518 65.3606 86.3152 65.3261 86.1256 65.3261C85.9503 65.3261 85.8096 65.3647 85.7016 65.4399C85.5935 65.5171 85.5405 65.6086 85.5405 65.7163C85.5405 65.7834 85.5589 65.8403 85.5956 65.8891C85.6323 65.9379 85.6832 65.9785 85.7464 66.0151C85.8096 66.0497 85.8749 66.0761 85.9401 66.0964C86.0053 66.1168 86.1134 66.1452 86.2643 66.1838C86.4518 66.2265 86.6231 66.2753 86.776 66.3302C86.9289 66.383 87.0594 66.4481 87.1654 66.5233C87.2734 66.5985 87.357 66.694 87.4161 66.8099C87.4773 66.9257 87.5058 67.068 87.5058 67.2367L87.5099 67.2347Z" fill="#424A52"/>
<path d="M56.7661 69.9725H55.0984V70.8669H56.6336C56.7457 70.8669 56.8313 70.8933 56.8864 70.9421C56.9414 70.9929 56.97 71.06 56.97 71.1413C56.97 71.2226 56.9435 71.2917 56.8884 71.3445C56.8334 71.3974 56.7498 71.4218 56.6336 71.4218H55.0984V72.4563H56.8232C56.9394 72.4563 57.027 72.4828 57.0862 72.5376C57.1453 72.5925 57.1738 72.6637 57.1738 72.7531C57.1738 72.8425 57.1453 72.9096 57.0862 72.9625C57.027 73.0173 56.9394 73.0438 56.8232 73.0438H54.813C54.6519 73.0438 54.5357 73.0072 54.4664 72.936C54.3951 72.8649 54.3604 72.749 54.3604 72.5905V69.8546C54.3604 69.7489 54.3767 69.6615 54.4073 69.5945C54.4379 69.5274 54.4888 69.4786 54.5561 69.4481C54.6234 69.4176 54.709 69.4014 54.813 69.4014H56.7661C56.8843 69.4014 56.972 69.4278 57.0291 69.4786C57.0862 69.5315 57.1147 69.5985 57.1147 69.6839C57.1147 69.7693 57.0862 69.8384 57.0291 69.8912C56.972 69.942 56.8843 69.9705 56.7661 69.9705V69.9725Z" fill="#424A52"/>
<path d="M62.1279 73.0459H61.0127C60.8517 73.0459 60.7355 73.0093 60.6682 72.9382C60.5989 72.867 60.5642 72.7512 60.5642 72.5946V69.8588C60.5642 69.6982 60.5989 69.5824 60.6702 69.5112C60.7416 69.4421 60.8557 69.4055 61.0127 69.4055H62.1952C62.3685 69.4055 62.5214 69.4157 62.6478 69.438C62.7762 69.4604 62.8904 69.501 62.9923 69.562C63.0779 69.6128 63.1554 69.6779 63.2227 69.7572C63.29 69.8364 63.3389 69.9238 63.3756 70.0173C63.4103 70.1129 63.4266 70.2125 63.4266 70.3202C63.4266 70.684 63.2451 70.9503 62.8782 71.119C63.3572 71.2714 63.5978 71.5682 63.5978 72.0072C63.5978 72.2105 63.5448 72.3955 63.4408 72.5581C63.3369 72.7207 63.1962 72.8406 63.0168 72.9199C62.9047 72.9666 62.7783 72.9991 62.6335 73.0174C62.4888 73.0357 62.3195 73.0459 62.1279 73.0459ZM61.3022 69.9584V70.8995H61.9791C62.1626 70.8995 62.3053 70.8832 62.4072 70.8466C62.5071 70.8121 62.5846 70.745 62.6376 70.6474C62.6784 70.5783 62.7008 70.5011 62.7008 70.4137C62.7008 70.2287 62.6355 70.1068 62.503 70.0478C62.3725 69.9889 62.1707 69.9584 61.9036 69.9584H61.3022ZM62.0729 71.4279H61.3022V72.491H62.0973C62.5968 72.491 62.8476 72.3121 62.8476 71.9523C62.8476 71.7694 62.7823 71.6353 62.6539 71.5519C62.5234 71.4686 62.3318 71.4279 62.0729 71.4279Z" fill="#424A52"/>
<path d="M67.4082 69.9725H65.7426V70.8669H67.2777C67.3898 70.8669 67.4734 70.8933 67.5305 70.9421C67.5856 70.9929 67.6141 71.06 67.6141 71.1413C67.6141 71.2226 67.5876 71.2917 67.5325 71.3445C67.4775 71.3974 67.3939 71.4218 67.2797 71.4218H65.7446V72.4563H67.4673C67.5835 72.4563 67.6712 72.4828 67.7303 72.5376C67.7894 72.5925 67.818 72.6637 67.818 72.7531C67.818 72.8425 67.7894 72.9096 67.7303 72.9625C67.6712 73.0173 67.5835 73.0438 67.4673 73.0438H65.4571C65.2961 73.0438 65.1799 73.0072 65.1085 72.936C65.0372 72.8649 65.0025 72.749 65.0025 72.5905V69.8546C65.0025 69.7489 65.0188 69.6615 65.0494 69.5945C65.08 69.5274 65.1309 69.4786 65.1982 69.4481C65.2655 69.4176 65.3511 69.4014 65.4571 69.4014H67.4102C67.5285 69.4014 67.6161 69.4278 67.6732 69.4786C67.7303 69.5315 67.7588 69.5985 67.7588 69.6839C67.7588 69.7693 67.7303 69.8384 67.6732 69.8912C67.6161 69.942 67.5285 69.9705 67.4102 69.9705L67.4082 69.9725Z" fill="#424A52"/>
<path d="M70.7292 73.0459H69.614C69.453 73.0459 69.3388 73.0093 69.2695 72.9382C69.2002 72.867 69.1655 72.7512 69.1655 72.5946V69.8588C69.1655 69.6982 69.2002 69.5824 69.2715 69.5112C69.3429 69.4421 69.4571 69.4055 69.614 69.4055H70.7965C70.9718 69.4055 71.1227 69.4157 71.2491 69.438C71.3775 69.4604 71.4917 69.501 71.5936 69.562C71.6793 69.6128 71.7567 69.6779 71.822 69.7572C71.8892 69.8364 71.9402 69.9238 71.9749 70.0173C72.0095 70.1129 72.0258 70.2125 72.0258 70.3202C72.0258 70.684 71.8444 70.9503 71.4774 71.119C71.9565 71.2714 72.1971 71.5682 72.1971 72.0072C72.1971 72.2105 72.1441 72.3955 72.0401 72.5581C71.9361 72.7207 71.7955 72.8406 71.6161 72.9199C71.506 72.9666 71.3775 72.9991 71.2328 73.0174C71.088 73.0357 70.9188 73.0459 70.7272 73.0459H70.7292ZM69.9035 69.9584V70.8995H70.5804C70.7639 70.8995 70.9066 70.8832 71.0085 70.8466C71.1084 70.8121 71.1859 70.745 71.2389 70.6474C71.2797 70.5783 71.3001 70.5011 71.3001 70.4137C71.3001 70.2287 71.2348 70.1068 71.1043 70.0478C70.9739 69.9889 70.7741 69.9584 70.5029 69.9584H69.9015H69.9035ZM70.6742 71.4279H69.9035V72.491H70.6986C71.1981 72.491 71.4489 72.3121 71.4489 71.9523C71.4489 71.7694 71.3836 71.6353 71.2552 71.5519C71.1247 71.4686 70.9331 71.4279 70.6742 71.4279Z" fill="#424A52"/>
<path d="M73.6344 72.6576V69.7896C73.6344 69.6412 73.6691 69.5294 73.7364 69.4542C73.8036 69.379 73.8933 69.3424 73.9994 69.3424C74.1054 69.3424 74.2012 69.379 74.2705 69.4522C74.3398 69.5253 74.3745 69.6371 74.3745 69.7896V72.6576C74.3745 72.808 74.3398 72.9218 74.2705 72.995C74.2012 73.0702 74.1115 73.1068 73.9994 73.1068C73.8872 73.1068 73.8057 73.0681 73.7364 72.9929C73.667 72.9177 73.6324 72.8059 73.6324 72.6555L73.6344 72.6576Z" fill="#424A52"/>
<path d="M76.4254 69.4034H77.3897C77.6405 69.4034 77.8545 69.4258 78.0339 69.4725C78.2133 69.5193 78.3764 69.6067 78.5212 69.7327C78.9004 70.0579 79.092 70.5498 79.092 71.2124C79.092 71.4299 79.0737 71.6312 79.035 71.81C78.9962 71.9909 78.9371 72.1535 78.8576 72.2978C78.7781 72.4422 78.6761 72.5722 78.5518 72.6861C78.4539 72.7735 78.3459 72.8446 78.2297 72.8975C78.1134 72.9503 77.9891 72.9869 77.8545 73.0093C77.722 73.0316 77.5712 73.0418 77.4019 73.0418H76.4376C76.3031 73.0418 76.2011 73.0214 76.1339 72.9808C76.0666 72.9401 76.0217 72.8832 76.0013 72.8101C75.981 72.7369 75.9708 72.6413 75.9708 72.5235V69.8547C75.9708 69.6961 76.0075 69.5803 76.0788 69.5091C76.1502 69.438 76.2643 69.4034 76.4254 69.4034ZM76.7108 69.9868V72.4584H77.2715C77.3938 72.4584 77.4916 72.4544 77.561 72.4483C77.6303 72.4401 77.7037 72.4259 77.7771 72.3974C77.8525 72.371 77.9157 72.3344 77.9707 72.2856C78.2174 72.0763 78.3418 71.7186 78.3418 71.2084C78.3418 70.8486 78.2867 70.5803 78.1787 70.4014C78.0706 70.2226 77.9361 70.1087 77.7771 70.06C77.618 70.0112 77.4244 69.9868 77.1981 69.9868H76.7108Z" fill="#424A52"/>
<path d="M82.6496 72.6332L82.4763 72.1759H80.9922L80.8168 72.6434C80.7495 72.8263 80.6904 72.9483 80.6435 73.0113C80.5946 73.0743 80.5171 73.1068 80.407 73.1068C80.3133 73.1068 80.2317 73.0723 80.1604 73.0052C80.089 72.9381 80.0523 72.8609 80.0523 72.7735C80.0523 72.7247 80.0605 72.6719 80.0768 72.619C80.0931 72.5662 80.1196 72.493 80.1583 72.3975L81.0921 70.0336C81.1186 69.9665 81.1512 69.8832 81.1879 69.7897C81.2246 69.6941 81.2653 69.6149 81.3082 69.5518C81.351 69.4888 81.406 69.438 81.4753 69.3994C81.5446 69.3608 81.6303 69.3405 81.7302 69.3405C81.8301 69.3405 81.9198 69.3587 81.9891 69.3994C82.0584 69.438 82.1134 69.4888 82.1563 69.5498C82.1991 69.6108 82.2337 69.6779 82.2643 69.747C82.2929 69.8181 82.3296 69.9116 82.3744 70.0295L83.3285 72.3792C83.404 72.558 83.4406 72.6881 83.4406 72.7694C83.4406 72.8507 83.406 72.93 83.3346 73.0011C83.2633 73.0702 83.1797 73.1068 83.0798 73.1068C83.0207 73.1068 82.9717 73.0967 82.931 73.0763C82.8902 73.056 82.8535 73.0276 82.827 72.991C82.7985 72.9564 82.7679 72.9015 82.7353 72.8263C82.7026 72.7532 82.6741 72.6881 82.6517 72.6312L82.6496 72.6332ZM81.1858 71.621H82.2765L81.7261 70.1189L81.1858 71.621Z" fill="#424A52"/>
<path d="M87.5221 71.9523C87.5221 72.1718 87.4651 72.371 87.3509 72.5458C87.2367 72.7206 87.0695 72.8589 86.8514 72.9585C86.6312 73.0581 86.3723 73.1089 86.0706 73.1089C85.7097 73.1089 85.4141 73.0418 85.1797 72.9056C85.0145 72.808 84.8779 72.678 84.776 72.5154C84.672 72.3528 84.619 72.1942 84.619 72.0397C84.619 71.9503 84.6496 71.8731 84.7128 71.81C84.776 71.747 84.8535 71.7145 84.9513 71.7145C85.0288 71.7145 85.094 71.7389 85.1491 71.7897C85.2021 71.8385 85.249 71.9137 85.2877 72.0113C85.3346 72.1271 85.3835 72.2247 85.4386 72.3019C85.4936 72.3792 85.5691 72.4442 85.6669 72.495C85.7648 72.5458 85.8932 72.5702 86.0543 72.5702C86.2724 72.5702 86.4518 72.5194 86.5884 72.4178C86.725 72.3162 86.7943 72.1881 86.7943 72.0377C86.7943 71.9178 86.7576 71.8182 86.6842 71.743C86.6108 71.6678 86.515 71.6088 86.3988 71.5702C86.2806 71.5296 86.1256 71.4889 85.9299 71.4422C85.6669 71.3812 85.4467 71.31 85.2714 71.2287C85.0961 71.1474 84.9554 71.0356 84.8514 70.8934C84.7475 70.7511 84.6965 70.5763 84.6965 70.3649C84.6965 70.1535 84.7515 69.9868 84.8616 69.8303C84.9717 69.6738 85.1287 69.5559 85.3366 69.4726C85.5446 69.3892 85.7892 69.3466 86.0685 69.3466C86.2928 69.3466 86.4865 69.375 86.6496 69.4299C86.8127 69.4848 86.9493 69.56 87.0573 69.6514C87.1654 69.7429 87.2449 69.8384 87.2938 69.9401C87.3427 70.0417 87.3672 70.1393 87.3672 70.2348C87.3672 70.3222 87.3366 70.4015 87.2734 70.4726C87.2123 70.5437 87.1327 70.5783 87.041 70.5783C86.9574 70.5783 86.8922 70.558 86.8473 70.5153C86.8045 70.4726 86.7556 70.4035 86.7046 70.308C86.6394 70.1698 86.5599 70.0641 86.4661 69.9868C86.3723 69.9096 86.2235 69.871 86.0176 69.871C85.8259 69.871 85.673 69.9136 85.5548 69.997C85.4365 70.0803 85.3795 70.1819 85.3795 70.2978C85.3795 70.371 85.3998 70.434 85.4386 70.4868C85.4794 70.5397 85.5324 70.5864 85.6037 70.623C85.673 70.6616 85.7444 70.6901 85.8157 70.7125C85.8871 70.7348 86.0053 70.7653 86.1684 70.806C86.3743 70.8547 86.5599 70.9076 86.727 70.9645C86.8942 71.0214 87.0369 71.0925 87.1531 71.1759C87.2693 71.2592 87.3611 71.3629 87.4263 71.4889C87.4916 71.6149 87.5242 71.7714 87.5242 71.9544L87.5221 71.9523Z" fill="#424A52"/>
<path d="M46.3727 63.2426C47.7122 63.3117 48.9068 62.5414 49.4063 61.3889C49.5388 61.084 49.6245 60.7507 49.6489 60.4011C49.6938 59.7811 49.547 59.1917 49.2595 58.6876C48.7723 57.8319 47.8753 57.2221 46.8131 57.1266C46.7947 57.1246 46.7744 57.1246 46.754 57.1225C46.7356 57.1205 46.7152 57.1205 46.6948 57.1205C46.6663 57.1185 46.6337 57.1164 46.6031 57.1164C46.597 57.1164 46.5929 57.1164 46.5888 57.1164C46.0302 57.0981 45.4838 57.149 44.9619 57.2668C44.5481 57.3583 44.1505 57.4925 43.7713 57.6632C43.229 57.9071 42.7275 58.2242 42.279 58.6063C41.5186 59.2527 40.9171 60.082 40.544 61.0292C40.3279 61.5841 40.1893 62.1796 40.1445 62.8016C40.12 63.1349 40.122 63.4622 40.1526 63.7833C40.2729 65.1086 40.8254 66.322 41.6776 67.2773C41.6776 67.2631 41.6776 67.2509 41.6776 67.2367C41.7387 66.3667 42.0608 65.574 42.5644 64.9277C42.9212 64.4703 43.3697 64.0841 43.8773 63.7996C44.6072 63.389 45.4655 63.1796 46.3687 63.2447L46.3727 63.2426Z" fill="#00C8E7"/>
<path d="M43.8712 43.9067C43.5165 43.0592 43.0129 42.2807 42.3769 41.5896C41.174 40.2867 39.6185 39.4351 37.8774 39.1241C37.4085 39.0407 36.9294 38.998 36.4524 38.998C34.483 38.998 32.589 39.7155 31.115 41.0184L31.0885 41.0388C31.0722 41.051 31.0477 41.0733 31.0253 41.0936L31.0029 41.114C30.9682 41.1465 30.9356 41.179 30.9009 41.2136L30.8765 41.238C30.8255 41.2867 30.7745 41.3355 30.7256 41.3843L30.6971 41.4128C29.5574 42.5327 28.5952 43.8031 27.8327 45.1913C27.3393 46.0897 26.9295 47.041 26.6135 48.0166C26.1609 49.4211 25.9 50.8785 25.8388 52.3521C25.7328 54.8278 26.2037 57.332 27.1966 59.5942C27.9203 61.2427 28.9132 62.759 30.1507 64.0984C30.7827 64.7855 31.4718 65.4156 32.1976 65.9745C34.7256 67.9238 37.7245 69.0742 40.911 69.3242C39.6001 67.7551 38.7153 65.8871 38.3361 63.8871C38.0568 62.4195 38.0548 60.9276 38.33 59.452C38.8091 56.8848 40.0833 54.592 42.016 52.8217C44.4115 50.537 45.1597 46.9516 43.8712 43.9027V43.9067Z" fill="#FF0008"/>
<path d="M15.4026 73.7532C15.4026 73.7532 15.4087 73.7674 15.4128 73.7776L15.421 73.7999C15.4271 73.8162 15.4332 73.8304 15.4393 73.8467L15.4454 73.8589C15.4638 73.8995 15.4801 73.9381 15.4984 73.9788C16.0305 75.1983 16.8154 76.2512 17.8348 77.1049C19.3781 78.3976 21.3353 79.109 23.3454 79.109C24.2792 79.109 25.2048 78.9566 26.0936 78.6537C26.2058 78.6151 26.3424 78.5663 26.4728 78.5155C27.2944 78.1944 28.0528 77.7533 28.7317 77.2065C29.6247 76.4829 30.3668 75.5784 30.907 74.5601C30.3321 74.7227 29.7409 74.804 29.1415 74.804C26.4422 74.804 24.061 73.1861 23.0743 70.6819C22.8786 70.2144 22.6054 69.7937 22.2629 69.436C21.4841 68.6148 20.3893 68.1453 19.2578 68.1453C18.8073 68.1453 18.3628 68.2184 17.9327 68.3648C16.6523 68.7998 15.633 69.8791 15.2742 71.1799C15.0438 72.0153 15.0846 72.8873 15.3863 73.7024L15.4047 73.7552L15.4026 73.7532Z" fill="#17B100"/>
<path d="M35.7592 70.4259L36.4075 70.6109C36.4299 70.617 36.4503 70.6251 36.4707 70.6312C37.4126 70.9137 38.4177 70.9117 39.3575 70.6271C39.8896 70.4665 40.4013 70.2125 40.8539 69.8893C37.5594 69.6291 34.4564 68.4421 31.8408 66.4237C31.0885 65.8444 30.3749 65.192 29.7205 64.4806C28.4402 63.0923 27.4106 61.5232 26.6604 59.8158C25.6309 57.4743 25.1456 54.8807 25.2537 52.3156C25.2741 51.8115 25.321 51.3094 25.3862 50.8094C25.1558 50.7037 24.9193 50.6082 24.6767 50.5249C23.8327 50.2342 22.9479 50.0858 22.0468 50.0858C20.4709 50.0858 18.9439 50.5411 17.6309 51.4009C15.4087 52.8623 14.051 55.3157 14 57.9661C13.998 58.0129 14 58.0475 14 58.082V58.1125C14 58.1613 14 58.208 14 58.2548L14.0102 58.5495C14.0612 59.9784 14.2997 61.3972 14.7197 62.757C15.0397 63.8017 15.4719 64.8241 16.004 65.7936C16.4179 66.5457 16.8909 67.2612 17.4148 67.938C17.5208 67.8933 17.6289 67.8506 17.741 67.812C18.2303 67.6453 18.738 67.562 19.2538 67.562C20.5443 67.562 21.794 68.0986 22.6808 69.0336C23.0723 69.4421 23.3862 69.9218 23.6105 70.4625C24.3974 72.4625 26.1568 73.8406 28.2302 74.1537C28.2323 74.1537 28.2363 74.1537 28.2384 74.1537C28.5319 74.1984 28.8337 74.2207 29.1395 74.2207C29.8816 74.2207 30.6114 74.0825 31.3087 73.8101C31.3209 73.8061 31.3331 73.8 31.3433 73.7959L32.0467 73.4565L31.7388 74.1719C31.7286 74.1963 31.7144 74.2207 31.7042 74.2451C32.1425 74.2106 32.5788 74.1598 33.009 74.0906C34.5156 73.8488 35.961 73.4036 37.3188 72.7735C36.8336 72.2532 36.4116 71.6678 36.0731 71.0194L35.7633 70.4218L35.7592 70.4259Z" fill="#FFED00"/>
<path d="M47.7305 65.0293C47.3574 64.9155 46.966 64.8667 46.5786 64.8829C45.1087 64.9459 43.8141 65.9399 43.3534 67.3566C43.0231 68.442 42.387 69.3973 41.5165 70.1148C41.2494 70.3364 40.9579 70.5356 40.65 70.7063C40.2933 70.9035 39.9161 71.0661 39.5288 71.1839C39.0007 71.3425 38.4564 71.4238 37.91 71.4238C37.5777 71.4238 37.2495 71.3933 36.9233 71.3344C37.1965 71.7612 37.5104 72.1555 37.8611 72.5112C38.4299 73.0885 39.0925 73.5682 39.8325 73.93C40.173 74.0987 40.54 74.241 40.9212 74.3568C41.6042 74.5641 42.3096 74.6678 43.015 74.6678H43.0659C44.2565 74.6576 45.4451 74.3507 46.5012 73.7775C47.1209 73.4401 47.6877 73.0194 48.1872 72.5255C48.5419 72.1738 48.8599 71.7876 49.1352 71.375C49.4879 70.8486 49.7753 70.2693 49.9914 69.6514C49.9955 69.6392 49.9996 69.6229 50.0057 69.6067L50.0118 69.5904C50.02 69.5701 50.0261 69.5477 50.0322 69.5274L50.0444 69.4888C50.0444 69.4888 50.0506 69.4725 50.0526 69.4664L50.0648 69.4278C50.0689 69.4156 50.073 69.4054 50.075 69.3932C50.3992 68.255 50.1464 67.0436 49.4043 66.1431C48.968 65.6126 48.391 65.2285 47.7325 65.0293H47.7305Z" fill="#FFBE00"/>
</g>
<defs>
<clipPath id="clip0_198_1316">
<rect width="93" height="40.109" fill="white" transform="translate(14 39)"/>
</clipPath>
</defs>
</svg>
