<svg width="120" height="120" viewBox="0 0 120 120" fill="none" xmlns="http://www.w3.org/2000/svg">
<rect width="120" height="120" rx="6" fill="white"/>
<g clip-path="url(#clip0_198_1332)">
<path d="M74.3422 37.1467H46.6737V82.3375H74.3422V37.1467Z" fill="#F26122"/>
<path d="M49.5236 59.7462C49.5236 50.9331 53.5629 42.599 60.5 37.1547C48.0149 27.3518 29.9497 29.5152 20.1468 41.9923C10.3359 54.4695 12.4992 72.5426 24.9844 82.3456C35.41 90.5359 50.0744 90.5359 60.5 82.3456C53.5629 76.9013 49.5156 68.5672 49.5236 59.7462Z" fill="#EA1D25"/>
<path d="M104.254 77.5558V76.6298H104.653V76.4382H103.703V76.6298H104.078V77.5558H104.254ZM106.098 77.5558V76.4382H105.811L105.475 77.2365L105.14 76.4382H104.853V77.5558H105.06V76.7096L105.372 77.4361H105.587L105.898 76.7096V77.5558H106.098Z" fill="#F69E1E"/>
<path d="M107 59.7462C107 75.616 94.1317 88.4844 78.2618 88.4844C71.8197 88.4844 65.5611 86.321 60.5 82.3376C72.9772 72.5267 75.1485 54.4615 65.3376 41.9844C63.9246 40.1882 62.2961 38.5597 60.5 37.1468C72.9772 27.3359 91.0423 29.4992 100.853 41.9764C104.837 47.0375 107 53.296 107 59.7382V59.7462Z" fill="#F69E1E"/>
</g>
<defs>
<clipPath id="clip0_198_1332">
<rect width="93" height="57.4924" fill="white" transform="translate(14 31)"/>
</clipPath>
</defs>
</svg>
