<svg width="120" height="120" viewBox="0 0 120 120" fill="none" xmlns="http://www.w3.org/2000/svg">
<rect width="120" height="120" rx="6" fill="white"/>
<g clip-path="url(#clip0_198_1318)">
<mask id="mask0_198_1318" style="mask-type:luminance" maskUnits="userSpaceOnUse" x="-65" y="-232" width="252" height="434">
<path d="M-64.8353 201.972H186.233V-231.851H-64.8353V201.972Z" fill="white"/>
</mask>
<g mask="url(#mask0_198_1318)">
<path d="M16.2955 68.889C16.2955 68.889 18.7666 68.8915 21.5642 68.8915C27.0303 68.8915 28.2083 69.607 28.2083 73.5951C28.2083 77.235 26.9139 78.0333 21.8945 78.0333H20.5823V82.1145H16.2955V68.889ZM21.9906 75.3474C23.8443 75.3474 23.9405 75.1702 23.9405 73.5951C23.9405 71.7458 23.8443 71.728 21.9906 71.728H20.5823V75.3283C20.948 75.3474 21.4478 75.3474 21.9906 75.3474Z" fill="black"/>
<path d="M29.4614 75.5223C29.4614 70.2117 30.4445 68.694 35.6006 68.694C40.7719 68.694 41.7197 70.2117 41.7197 75.5223C41.7197 80.7921 40.7719 82.3085 35.6006 82.3085C30.4445 82.3085 29.4614 80.7921 29.4614 75.5223ZM37.491 75.5223C37.491 71.9615 37.3936 71.7268 35.6006 71.7268C33.8052 71.7268 33.728 71.9615 33.728 75.5223C33.728 79.0601 33.8052 79.2948 35.6006 79.2948C37.3936 79.2948 37.491 79.0601 37.491 75.5223Z" fill="black"/>
<path d="M43.2351 79.1192C43.2351 79.1192 44.8952 79.2378 46.9045 79.2378C49.2985 79.2378 49.9539 79.063 49.9539 78.3437C49.9539 77.8361 49.7805 77.604 48.9695 77.4089L46.2668 76.7279C43.5654 75.969 42.9656 75.2484 42.9656 72.8354C42.9656 69.9965 44.6649 68.6931 49.0074 68.6931C51.0357 68.6931 53.0627 68.9048 53.0627 68.9048L53.0235 71.9032C53.0235 71.9032 51.2268 71.8062 49.4528 71.8062C47.4625 71.8062 46.9614 71.9389 46.9614 72.6824C46.9614 73.2461 47.2322 73.4591 48.1382 73.6555L50.9003 74.2753C53.6005 74.9564 53.932 76.0659 53.932 78.1869C53.932 81.3778 51.9607 82.3088 47.7738 82.3088C45.5911 82.3088 43.2174 82.0959 43.2174 82.0959L43.2351 79.1192Z" fill="black"/>
</g>
<path d="M55.4598 68.888H59.7467V82.1147H55.4598V68.888Z" fill="black"/>
<path d="M64.7861 71.8619H61.2508V68.8877H72.5639V71.8619H69.0501V82.1145H64.7861V71.8619Z" fill="black"/>
<path d="M74.0687 68.888H78.353V82.1147H74.0687V68.888Z" fill="black"/>
<path d="M88.8553 68.8877H93.1776L89.55 82.1145H83.4309L79.7818 68.8877H84.1053L86.4892 79.7793L88.8553 68.8877Z" fill="black"/>
<mask id="mask1_198_1318" style="mask-type:luminance" maskUnits="userSpaceOnUse" x="-65" y="-232" width="252" height="434">
<path d="M-64.8353 201.972H186.233V-231.851H-64.8353V201.972Z" fill="white"/>
</mask>
<g mask="url(#mask1_198_1318)">
<path d="M93.7003 75.5223C93.7003 70.2117 94.6835 68.694 99.8383 68.694C105.015 68.694 105.962 70.2117 105.962 75.5223C105.962 80.7921 105.015 82.3085 99.8383 82.3085C94.6835 82.3085 93.7003 80.7921 93.7003 75.5223ZM101.732 75.5223C101.732 71.9615 101.635 71.7268 99.8383 71.7268C98.0428 71.7268 97.9669 71.9615 97.9669 75.5223C97.9669 79.0601 98.0428 79.2948 99.8383 79.2948C101.635 79.2948 101.732 79.0601 101.732 75.5223Z" fill="black"/>
<path d="M61.0606 37.9999C56.0854 37.9999 51.8302 40.8363 49.5248 44.8996C47.9697 47.6378 47.4712 51.4856 48.4 54.7365C50.1828 54.5784 51.9694 54.3233 53.1436 53.8935C54.0698 53.5517 54.5266 52.8375 54.6189 52.6959C56.5093 49.8404 56.856 47.8304 57.4431 47.1481C59.7675 44.4469 59.9788 41.6322 59.999 40.8057C60.0205 39.9219 61.2694 39.4895 61.8375 40.4945C62.269 41.2559 62.6055 42.1997 62.517 43.4279C62.3841 45.2567 60.9657 46.6788 61.4275 47.6978C61.5781 48.0268 61.9337 48.273 62.2854 48.3202C63.2319 48.4477 64.0315 48.4668 67.8933 49.3366C68.3817 49.4476 68.779 49.7014 68.9409 50.2842C69.1472 51.0277 68.6436 51.2943 68.6411 51.9894C68.6398 52.6398 69.3623 52.8311 69.3243 53.6856C69.2788 54.6523 68.5322 54.6166 68.4095 55.3066C68.2842 55.8512 68.7473 56.1394 68.5006 56.8294C68.2336 57.5818 67.73 57.4977 67.4276 57.9517C67.0645 58.4937 67.4858 58.8138 67.148 59.4745C66.9544 59.8494 66.7254 60.0369 65.9067 60.2741C64.2125 60.7639 63.3622 60.9105 62.0551 61.0457C60.5709 61.2026 59.8877 61.075 58.2048 61.3084C57.4355 61.4245 55.9639 61.7268 54.3722 62.6297C56.3144 63.7686 58.6527 64.4764 61.0606 64.4764C68.3159 64.4764 74.1995 58.546 74.1995 51.2369C74.1995 43.924 68.3159 37.9999 61.0606 37.9999Z" fill="#00B5E2"/>
</g>
</g>
<defs>
<clipPath id="clip0_198_1318">
<rect width="93" height="44" fill="white" transform="translate(13 38)"/>
</clipPath>
</defs>
</svg>
