<svg width="120" height="120" viewBox="0 0 120 120" fill="none" xmlns="http://www.w3.org/2000/svg">
<rect width="120" height="120" rx="6" fill="white"/>
<path d="M25.8473 46.5196C26.9501 46.5059 28.0497 46.64 29.1167 46.9184C29.999 47.1448 30.8291 47.5391 31.5614 48.0798C32.213 48.5721 32.7384 49.2116 33.0942 49.9458C33.4473 50.7349 33.6298 51.5893 33.6298 52.4535C33.6298 53.3177 33.4473 54.1721 33.0942 54.9612C32.7377 55.6944 32.2124 56.3331 31.5614 56.8252C30.8288 57.3655 29.9988 57.7599 29.1167 57.9867C28.049 58.2693 26.948 58.4067 25.8435 58.3951H20.6048V63.4821H17.091V46.5196H25.8473ZM20.6087 48.3372V56.5736H25.8338C27.1118 56.5736 28.1032 56.2387 28.8082 55.569C29.5131 54.8993 29.8656 53.8611 29.8656 52.4545C29.8656 51.0492 29.5131 50.0117 28.8082 49.3419C28.1032 48.6721 27.1118 48.3347 25.8338 48.3295L20.6087 48.3372Z" fill="#005B9B"/>
<path d="M45.382 52.5763H42.4618C41.3624 52.5763 40.5216 52.8711 39.9395 53.4609C39.3575 54.0506 39.0658 54.9268 39.0645 56.0896V63.4781H35.671V56.0896C35.671 54.4403 36.193 53.1602 37.2368 52.2491C38.2807 51.3381 39.7824 50.8818 41.742 50.8806H45.3839L45.382 52.5763Z" fill="#005B9B"/>
<path d="M53.3975 50.3947C54.4143 50.3858 55.4262 50.5381 56.3951 50.8458C57.2586 51.116 58.0565 51.5615 58.739 52.1543C59.3975 52.7424 59.9158 53.4698 60.2563 54.2835C60.9868 56.1507 60.9868 58.2235 60.2563 60.0906C59.9138 60.9004 59.3957 61.6244 58.739 62.2102C58.0559 62.8022 57.2581 63.2475 56.3951 63.5187C54.4349 64.1161 52.3406 64.1161 50.3804 63.5187C49.523 63.2456 48.7305 62.8003 48.0521 62.2102C47.3956 61.6231 46.8781 60.8978 46.5368 60.0867C45.8062 58.2197 45.8062 56.1468 46.5368 54.2796C46.8772 53.466 47.3956 52.7385 48.054 52.1504C48.7319 51.5594 49.5244 51.114 50.3823 50.8418C51.3557 50.5329 52.3722 50.3812 53.3936 50.3928M53.3936 62.3941C53.8934 62.3976 54.3887 62.2987 54.8488 62.1037C55.3134 61.9004 55.7221 61.5883 56.0401 61.194C56.4134 60.715 56.6895 60.1679 56.8531 59.5835C57.2565 58.0099 57.2565 56.3604 56.8531 54.7868C56.6914 54.2 56.4166 53.6504 56.044 53.1686C55.7258 52.7749 55.3171 52.4634 54.8526 52.2607C54.3915 52.0694 53.8969 51.9709 53.3975 51.9709C52.898 51.9709 52.4034 52.0694 51.9423 52.2607C51.4775 52.4628 51.0688 52.7743 50.751 53.1686C50.3769 53.6478 50.1008 54.1957 49.938 54.781C49.5346 56.3546 49.5346 58.0041 49.938 59.5777C50.1007 60.1624 50.3769 60.7096 50.751 61.1881C51.0687 61.5829 51.4774 61.895 51.9423 62.098C52.4029 62.2933 52.8989 62.3921 53.3994 62.3883" fill="#005B9B"/>
<path d="M63.5951 63.4781V46.5195H66.9944V50.8806H70.0309C71.0633 50.8683 72.0915 51.0153 73.079 51.3162C73.9363 51.5755 74.7327 52.0041 75.4209 52.5763C76.0627 53.1174 76.5735 53.7963 76.9149 54.5623C77.6086 56.2357 77.6086 58.1153 76.9149 59.7887C76.5735 60.5547 76.0627 61.2336 75.4209 61.7748C74.7328 62.3483 73.9364 62.7788 73.079 63.0407C72.0915 63.3416 71.0633 63.4886 70.0309 63.4762L63.5951 63.4781ZM70.0309 61.7825C70.5478 61.7881 71.0616 61.7015 71.5482 61.527C72.0034 61.3597 72.4097 61.0816 72.7298 60.7179C73.086 60.3012 73.3504 59.8145 73.5059 59.2893C73.8784 57.9086 73.8784 56.4541 73.5059 55.0734C73.3504 54.5481 73.086 54.0615 72.7298 53.6448C72.4072 53.2793 71.9985 52.9999 71.5403 52.8318C71.0535 52.6589 70.5398 52.5731 70.0231 52.5783H66.9944V61.7825H70.0309Z" fill="#005B9B"/>
<path d="M87.5145 62.2666C88.2754 62.2727 89.0302 62.1327 89.7381 61.8543C90.4626 61.5587 91.1445 61.1681 91.7657 60.6929L92.7357 62.1466C92.4055 62.4374 92.0429 62.6894 91.655 62.8977C91.2294 63.1295 90.7824 63.3202 90.3202 63.4667C89.8315 63.623 89.3322 63.744 88.8262 63.8287C88.3135 63.9173 87.7942 63.9619 87.2739 63.9623C86.2088 63.9745 85.1481 63.8237 84.1288 63.5151C83.2423 63.2484 82.4202 62.803 81.7132 62.2066C81.0407 61.6273 80.5097 60.9023 80.161 60.087C79.7827 59.1664 79.5971 58.1783 79.6158 57.1835C79.5971 56.1908 79.7744 55.2042 80.1377 54.2799C80.4588 53.4709 80.9565 52.7435 81.5949 52.1507C82.2393 51.5664 82.9985 51.1221 83.8242 50.846C84.7389 50.538 85.6993 50.3862 86.6647 50.3969C87.5996 50.3901 88.5292 50.5373 89.416 50.8324C90.2384 51.1026 90.9979 51.5351 91.6492 52.1042C92.2841 52.6715 92.7947 53.3634 93.149 54.1367C93.5327 54.9806 93.7234 55.8989 93.7078 56.8254V58.521H83.3391C83.5332 59.8631 83.9982 60.8245 84.7342 61.4052C85.4702 61.9859 86.397 62.2731 87.5145 62.2666ZM86.6647 51.9707C86.2136 51.9669 85.7667 52.0579 85.3531 52.2378C84.9347 52.4261 84.5714 52.718 84.2976 53.0856C83.9651 53.538 83.7179 54.047 83.5681 54.5877C83.366 55.3132 83.2642 56.0628 83.2654 56.8157H90.0563C90.0705 56.0787 89.9723 55.3437 89.7652 54.6361C89.6053 54.0886 89.3462 53.5749 89.0008 53.1205C88.712 52.7468 88.3373 52.4481 87.9084 52.2494C87.5161 52.0682 87.0893 51.9731 86.6569 51.9707" fill="#005B9B"/>
<path d="M99.8989 46.5195H96.4994V63.4781H99.8989V46.5195Z" fill="#005B9B"/>
<path d="M104.067 49.042H103.791L103.285 48.4071H103.043V49.042H102.829V47.447H103.242C103.319 47.4463 103.396 47.4514 103.471 47.4624C103.535 47.4727 103.595 47.4965 103.648 47.5321C103.703 47.566 103.749 47.6133 103.781 47.6696C103.815 47.7348 103.832 47.8073 103.83 47.8806C103.834 47.9851 103.801 48.0878 103.741 48.1728C103.679 48.2537 103.595 48.3149 103.498 48.349L104.067 49.042ZM103.607 47.896C103.608 47.8536 103.6 47.8115 103.583 47.7722C103.566 47.7362 103.539 47.7054 103.506 47.6831C103.474 47.6627 103.438 47.6488 103.401 47.6425C103.352 47.6322 103.302 47.6277 103.252 47.6289H103.043V48.2309H103.236C103.291 48.2311 103.347 48.2259 103.401 48.2154C103.448 48.205 103.49 48.1823 103.525 48.1496C103.555 48.1191 103.579 48.082 103.593 48.0412C103.609 47.9945 103.616 47.9453 103.615 47.896" fill="#005B9B"/>
<path d="M103.3 46.5195C102.964 46.5195 102.636 46.619 102.356 46.8053C102.076 46.9916 101.859 47.2564 101.73 47.5663C101.602 47.8761 101.568 48.2171 101.633 48.546C101.699 48.875 101.861 49.1771 102.099 49.4142C102.336 49.6514 102.639 49.8129 102.969 49.8783C103.298 49.9437 103.64 49.9101 103.951 49.7818C104.261 49.6535 104.526 49.4361 104.713 49.1573C104.9 48.8784 105 48.5506 105 48.2152C104.999 47.7656 104.82 47.3346 104.502 47.0167C104.183 46.6989 103.751 46.52 103.3 46.5195ZM103.3 49.6418C103.017 49.6422 102.741 49.5588 102.506 49.4023C102.27 49.2458 102.087 49.0232 101.978 48.7625C101.869 48.5018 101.841 48.2149 101.895 47.9381C101.95 47.6612 102.087 47.4068 102.286 47.2071C102.486 47.0074 102.741 46.8713 103.018 46.8161C103.296 46.7609 103.583 46.7891 103.845 46.897C104.107 47.0049 104.33 47.1878 104.487 47.4224C104.645 47.6571 104.728 47.933 104.728 48.2152C104.728 48.5931 104.578 48.9554 104.31 49.2227C104.042 49.4901 103.679 49.6408 103.3 49.6418Z" fill="#005B9B"/>
<path d="M86.135 69.9438C79.4585 70.0871 70.5432 69.458 58.6979 67.3519C19.5767 60.4008 12 72.5938 12 72.5938C12 72.5938 16.4044 68.5191 30.8631 67.8242C37.5395 67.681 46.4549 68.3101 58.3002 70.4161C97.4155 77.3652 105 65.1704 105 65.1704C105 65.1704 100.596 69.2354 86.135 69.9399" fill="#C3A86F"/>
</svg>
