<svg width="120" height="120" viewBox="0 0 120 120" fill="none" xmlns="http://www.w3.org/2000/svg">
<rect width="120" height="120" rx="6" fill="white"/>
<g clip-path="url(#clip0_198_1330)">
<mask id="mask0_198_1330" style="mask-type:luminance" maskUnits="userSpaceOnUse" x="92" y="46" width="14" height="12">
<path d="M92.3805 46.41H106V57.8386H92.3802L92.3805 46.41Z" fill="white"/>
</mask>
<g mask="url(#mask0_198_1330)">
<path fill-rule="evenodd" clip-rule="evenodd" d="M92.6792 56.3928L104.645 46.5978C104.729 46.5295 104.826 46.4781 104.93 46.4466C105.033 46.415 105.143 46.404 105.251 46.414C105.359 46.424 105.464 46.455 105.56 46.505C105.656 46.5551 105.741 46.6233 105.811 46.7058C105.95 46.8727 106.017 47.0872 105.996 47.3023C105.976 47.5175 105.87 47.716 105.701 47.8544L93.7347 57.6519C93.5655 57.7892 93.3479 57.855 93.1295 57.8348C92.9111 57.8147 92.7097 57.7102 92.5694 57.5444C92.4302 57.3767 92.3636 57.1619 92.3842 56.9463C92.4047 56.7308 92.5107 56.5321 92.6792 56.3928Z" fill="#4B9C35"/>
</g>
<path fill-rule="evenodd" clip-rule="evenodd" d="M86.028 53.7999H101.659C102.117 53.7999 102.49 54.1658 102.49 54.6102C102.49 55.0562 102.117 55.4199 101.659 55.4199H86.028C85.5704 55.4199 85.1963 55.0562 85.1963 54.6102C85.1963 54.1636 85.5704 53.7999 86.028 53.7999Z" fill="#F6A010"/>
<path fill-rule="evenodd" clip-rule="evenodd" d="M83.5272 43.1795L100.262 56.4168C100.347 56.4831 100.417 56.5653 100.468 56.6585C100.52 56.7517 100.553 56.8541 100.564 56.9598C100.576 57.0654 100.566 57.1723 100.535 57.2741C100.504 57.3759 100.453 57.4707 100.384 57.5529C100.097 57.8977 99.5715 57.9498 99.218 57.6696L82.4813 44.4344C82.3973 44.3678 82.3275 44.2855 82.276 44.1922C82.2245 44.099 82.1922 43.9966 82.1811 43.891C82.17 43.7854 82.1802 43.6787 82.2112 43.577C82.2422 43.4754 82.2933 43.3807 82.3617 43.2986C82.6485 42.9522 83.1737 42.8998 83.5272 43.1795Z" fill="#20325E"/>
<path fill-rule="evenodd" clip-rule="evenodd" d="M95.609 49.5542L99.4453 64.3939C99.4989 64.6028 99.4663 64.824 99.3545 65.0094C99.2428 65.1947 99.0611 65.329 98.849 65.3829L98.8468 65.3851C98.6343 65.4373 98.4093 65.4047 98.2212 65.2943C98.033 65.1839 97.8969 65.0047 97.8427 64.7959L94.0064 49.9562C93.9527 49.747 93.9853 49.5254 94.0969 49.3397C94.2086 49.154 94.3904 49.0193 94.6026 48.9648C94.8155 48.9122 95.0409 48.9447 95.2295 49.0551C95.4181 49.1656 95.5545 49.345 95.609 49.5542Z" fill="#E9530C"/>
<mask id="mask1_198_1330" style="mask-type:luminance" maskUnits="userSpaceOnUse" x="13" y="53" width="82" height="24">
<path d="M13 53.8666H94.6946V76.4799H13.0003L13 53.8666Z" fill="white"/>
</mask>
<g mask="url(#mask1_198_1330)">
<path fill-rule="evenodd" clip-rule="evenodd" d="M80.2833 75.3826C79.5169 74.7829 79.0453 74.2027 78.6654 73.3125C78.4032 72.5975 78.3241 72.051 78.3099 71.2937C78.331 69.685 78.6118 68.5189 79.8677 67.43C80.7291 66.7348 81.7006 66.3411 82.7646 66.0487C84.6637 65.5268 87.5062 65.3113 89.6268 65.1669L90.8805 65.0772V63.8485L90.8542 63.3509C90.7812 62.786 90.7241 62.4372 90.4696 61.9207L90.3414 61.7052C89.8473 61.0027 89.3995 60.6878 88.6081 60.3547C87.9235 60.1022 87.3391 59.9831 86.6185 59.8876C86.1245 59.8359 85.6286 59.8046 85.132 59.7936C84.3889 59.7882 83.7896 59.8365 83.0562 59.9669C82.6636 60.0417 82.2873 60.1289 81.9032 60.2288C81.3135 60.3883 80.7305 60.5706 80.1554 60.7753L79.9874 60.8366V58.5424L80.0725 58.5246L80.2504 58.4863C80.6676 58.401 81.0849 58.321 81.5027 58.2441C82.2502 58.1102 82.9711 58.0005 83.7276 57.9236C84.5757 57.8461 85.4272 57.8101 86.2789 57.8156C87.1307 57.8296 87.9446 57.8723 88.7896 57.9695C89.4882 58.0626 90.1223 58.1798 90.8023 58.3664C91.4575 58.5608 91.992 58.7706 92.5795 59.1237C93.0395 59.4242 93.3747 59.7129 93.7173 60.1416C94.0168 60.5437 94.1991 60.893 94.3706 61.361C94.6141 62.0959 94.6863 62.7498 94.6946 63.5218V75.9615L94.6885 75.9696C94.383 76.262 93.6509 76.4693 92.7999 76.4693C91.947 76.4693 91.216 76.262 90.9094 75.9698L90.8805 75.9372V66.3676L89.3534 66.526C87.5628 66.7088 85.6011 66.7823 83.9922 67.633C82.9469 68.2829 82.4709 68.9722 82.2647 70.1789C82.1676 71.1879 82.2458 72.0532 82.7836 72.9342C84.3249 75.0864 87.2232 74.5089 89.4739 73.9775V75.8845C86.6841 76.5042 82.6222 77.0204 80.2833 75.3826ZM67.8206 74.5823C68.587 74.6104 69.2518 74.5947 70.0062 74.4438C71.471 74.15 72.5726 73.6295 72.9437 72.0859C73.0168 71.4641 73.0124 71.1619 72.7516 70.5928C72.4175 69.8635 72.0002 69.5932 71.2895 69.2763C70.6425 69.0106 70.0076 68.8545 69.3287 68.6995C68.4338 68.5027 67.523 68.3629 66.6404 68.1393C65.7623 67.9111 64.989 67.6352 64.2 67.1819C63.6153 66.8147 63.1962 66.4669 62.7932 65.9064C62.3655 65.2446 62.1914 64.6776 62.111 63.903C62.0243 63.0725 62.0536 62.4698 62.3512 61.6874C62.5351 61.2017 62.7602 60.842 63.0869 60.4362C63.6713 59.7477 64.2494 59.3211 65.0529 58.8999C65.7826 58.5387 66.4936 58.2951 67.2847 58.1021C68.2373 57.8909 69.114 57.8072 70.0883 57.7843C70.9069 57.7791 71.6862 57.814 72.5004 57.9074C73.3097 58.01 74.0267 58.1625 74.8121 58.3758C75.2337 58.4957 75.6367 58.624 76.0476 58.7765L76.0891 58.7927V61.1795L76.0229 61.1433C75.4174 60.8115 74.8392 60.531 74.1922 60.2934C73.5838 60.0805 72.9592 59.9156 72.3242 59.8004C71.5328 59.6721 70.8097 59.6276 70.0062 59.6699C69.4212 59.715 68.9378 59.7979 68.3762 59.9729C67.87 60.1476 67.5493 60.3082 67.0967 60.6131C66.4996 61.1204 66.3014 61.4112 66.1112 62.1664C66.0574 62.8757 66.1049 63.2437 66.4332 63.8795C66.7247 64.3118 66.9355 64.5227 67.3775 64.7908C67.8346 65.0365 68.2669 65.1877 68.7624 65.3356C69.531 65.5532 70.3038 65.719 71.0905 65.8664C72.9709 66.2069 75.3119 66.752 76.4053 68.4503C76.6675 68.9047 76.785 69.266 76.8887 69.776C76.9958 70.4343 77.0191 71.034 76.9068 71.6876C76.6774 72.8151 76.1486 73.6805 75.2752 74.4387C74.5148 75.0591 73.7104 75.4701 72.7848 75.8111C71.8204 76.1442 70.9829 76.2984 69.965 76.3962C69.3219 76.4464 68.7023 76.4655 68.0599 76.461C67.3803 76.4481 66.7017 76.4021 66.0266 76.3233C65.3868 76.2358 64.7522 76.115 64.1254 75.9615C63.4273 75.7808 62.7685 75.5853 62.0943 75.3324L61.9828 75.287V72.7641L61.9935 72.7706L62.0989 72.8335L62.2065 72.8943C62.9068 73.2844 63.7081 73.6397 64.4649 73.9078C65.6132 74.3061 66.5968 74.5215 67.8203 74.5823H67.8206ZM56.3241 65.8124C56.2532 64.1533 56.3051 62.9045 55.4769 61.429C53.7118 58.6299 49.3896 58.7706 47.3789 61.2238C46.2591 62.7439 46.2202 64.0601 46.1372 65.8124H56.3241ZM45.5234 74.5016C44.2736 73.5444 43.5176 72.5181 42.9595 71.0577C42.5483 69.8776 42.4014 68.824 42.3647 67.5801C42.3482 65.9102 42.5294 64.4473 43.1659 62.8897C43.7759 61.5 44.6192 60.4035 45.8562 59.4812C48.6622 57.5067 53.4664 57.2143 56.4852 58.7171C58.1323 59.5973 59.0387 60.8849 59.5921 62.6275C59.938 63.8099 60.0431 64.9033 60.0552 66.13V67.1619H46.1562C46.3774 70.1011 46.7269 72.4228 49.7924 73.7294C51.233 74.312 53.0055 74.4586 54.5551 74.3409C55.2804 74.2758 55.9332 74.1514 56.6359 73.9648C57.7142 73.6686 58.7247 73.2334 59.6939 72.6685V75.21C57.6524 76.0184 55.7435 76.4183 53.5183 76.468C52.8941 76.4774 52.2819 76.468 51.6585 76.4329C50.4726 76.3503 49.4204 76.191 48.2782 75.8543C47.2323 75.5211 46.4167 75.1388 45.5234 74.5016ZM16.7855 58.5586H22.3413V60.7634H20.0582C18.6102 60.7634 17.2914 60.9011 16.7833 61.48C16.7808 62.9726 16.7773 60.4176 16.7773 70.4483C16.8308 72.6018 18.0559 73.7132 19.7255 74.1905C21.0497 74.5696 22.1124 74.3409 23.3639 74.0825V76.077C21.9345 76.2968 20.5024 76.5744 19.1342 76.4226C15.8137 76.0489 13.0475 74.589 13 70.7756V54.3723L13.006 54.3663C13.3118 54.0739 14.0437 53.8666 14.8947 53.8666C15.7478 53.8666 16.4797 54.0739 16.7855 54.3661V58.5586ZM26.3165 75.3823C25.5498 74.7829 25.0785 74.2024 24.6988 73.3125C24.4361 72.5975 24.3579 72.051 24.3411 71.2937C24.3614 69.685 24.6447 68.5189 25.9014 67.43C26.7629 66.7348 27.7335 66.3411 28.7975 66.0487C30.6966 65.5268 33.54 65.3113 35.6597 65.1669L36.9121 65.0772V63.8485L36.8873 63.3509C36.8127 62.786 36.7548 62.4372 36.5025 61.9207L36.3729 61.7052C35.8813 61.0027 35.4308 60.6878 34.6408 60.3547C33.9572 60.1022 33.3728 59.9831 32.6514 59.8876C32.1577 59.8359 31.6621 59.8046 31.1657 59.7936C30.4204 59.7882 29.8209 59.8365 29.0877 59.9669C28.6968 60.0417 28.321 60.1289 27.9361 60.2288C27.3464 60.3884 26.7634 60.5707 26.1883 60.7753L26.0189 60.8366V58.5424L26.1057 58.5246L26.2816 58.4863C26.6989 58.401 27.1161 58.321 27.5356 58.2441C28.2834 58.1102 29.0048 58.0005 29.7608 57.9236C30.6091 57.8462 31.4607 57.8101 32.3126 57.8156C33.1636 57.8296 33.9762 57.8723 34.8233 57.9695C35.5211 58.0626 36.1552 58.1798 36.8355 58.3664C37.4904 58.5608 38.0257 58.7706 38.6102 59.1237C39.0733 59.4242 39.4076 59.7129 39.751 60.1416C40.0483 60.5437 40.232 60.893 40.4016 61.361C40.6454 62.0959 40.7179 62.7498 40.7283 63.5218V75.9615L40.7201 75.9696C40.4167 76.262 39.6832 76.4693 38.8314 76.4693C37.9799 76.4693 37.2486 76.262 36.9428 75.9698L36.9142 75.9372V66.3676L35.3871 66.526C33.5957 66.7088 31.6349 66.7823 30.0249 67.633C28.9798 68.2829 28.5024 68.9722 28.2982 70.1789C28.2005 71.1879 28.2795 72.0532 28.8143 72.9342C30.3578 75.0864 33.2548 74.5089 35.5046 73.9775V75.8845C32.7181 76.5042 28.6553 77.0199 26.3165 75.3823Z" fill="#002969"/>
</g>
</g>
<defs>
<clipPath id="clip0_198_1330">
<rect width="93" height="33.48" fill="white" transform="translate(13 43)"/>
</clipPath>
</defs>
</svg>
