<svg width="194" height="60" viewBox="0 0 194 60" fill="none" xmlns="http://www.w3.org/2000/svg">
<g clip-path="url(#clip0_157_169)">
<path d="M74.5491 32.4137H64.4783C64.848 34.0694 66.2608 35.0837 68.2875 35.0837C69.6968 35.0837 70.7119 34.6654 71.6294 33.7975L73.684 36.0213C72.4456 37.4294 70.5898 38.1719 68.1899 38.1719C63.5888 38.1719 60.5923 35.2789 60.5923 31.3228C60.5923 27.3666 63.6376 24.4736 67.6945 24.4736C71.7515 24.4736 74.6223 27.0948 74.6223 31.3715C74.6223 31.6678 74.5735 32.0896 74.5491 32.4102V32.4137ZM64.4294 30.1621H70.9875C70.7154 28.482 69.4526 27.391 67.7224 27.391C65.9922 27.391 64.7015 28.4541 64.4294 30.1621Z" fill="#652D90"/>
<path d="M88.6036 30.3852V37.9767H84.9897V36.3211C84.2711 37.534 82.8862 38.1754 80.9327 38.1754C77.8142 38.1754 75.9584 36.443 75.9584 34.1461C75.9584 31.8491 77.6153 30.1656 81.6757 30.1656H84.7455C84.7455 28.5099 83.7548 27.5444 81.6757 27.5444C80.2665 27.5444 78.8049 28.015 77.8386 28.7818L76.4537 26.0875C77.9153 25.0488 80.0676 24.4806 82.1955 24.4806C86.2524 24.4806 88.6036 26.3593 88.6036 30.3886V30.3852ZM84.7455 33.7731V32.4137H82.0978C80.2909 32.4137 79.7223 33.083 79.7223 33.9718C79.7223 34.9373 80.5386 35.5786 81.899 35.5786C83.1862 35.5786 84.299 34.9861 84.7455 33.7731Z" fill="#652D90"/>
<path d="M90.8082 36.7393L92.0954 33.9718C93.2849 34.7386 95.0884 35.2579 96.7244 35.2579C98.507 35.2579 99.1732 34.7874 99.1732 34.045C99.1732 31.87 91.1291 34.0938 91.1291 28.7783C91.1291 26.2547 93.407 24.4771 97.2895 24.4771C99.1209 24.4771 101.151 24.8989 102.41 25.6378L101.123 28.3809C99.8116 27.6385 98.5 27.391 97.286 27.391C95.5523 27.391 94.8128 27.9348 94.8128 28.6284C94.8128 30.9045 102.857 28.7016 102.857 33.9439C102.857 36.4151 100.555 38.1719 96.5709 38.1719C94.3175 38.1719 92.0431 37.5549 90.8047 36.7358L90.8082 36.7393Z" fill="#652D90"/>
<path d="M118.202 24.6758L112.188 38.7958C110.901 42.0095 109.07 42.975 106.67 42.975C105.309 42.975 103.823 42.5288 102.958 41.762L104.367 39.0154C104.96 39.5347 105.777 39.8554 106.544 39.8554C107.608 39.8554 108.201 39.3849 108.721 38.1998L108.77 38.0778L103.003 24.6758H106.987L110.723 33.6999L114.484 24.6758H118.195H118.202Z" fill="#652D90"/>
<path d="M133.495 31.5249C133.495 35.4078 130.746 38.0778 127.111 38.0778C124.833 38.0778 122.904 36.9659 121.865 35.0349V42.7728H120.626V25.0697H121.816V28.1126C122.831 26.1363 124.785 24.9721 127.111 24.9721C130.75 24.9721 133.495 27.6664 133.495 31.5249ZM132.257 31.5249C132.257 28.2868 130.003 26.084 127.035 26.084C124.066 26.084 121.837 28.2834 121.837 31.5249C121.837 34.7665 124.062 36.9659 127.035 36.9659C130.007 36.9659 132.257 34.7665 132.257 31.5249Z" fill="#652D90"/>
<path d="M135.919 31.5249C135.919 27.6943 138.668 24.9721 142.38 24.9721C146.091 24.9721 148.84 27.6908 148.84 31.5249C148.84 35.359 146.095 38.0778 142.38 38.0778C138.665 38.0778 135.919 35.359 135.919 31.5249ZM147.577 31.5249C147.577 28.2868 145.352 26.084 142.38 26.084C139.408 26.084 137.182 28.2834 137.182 31.5249C137.182 34.7665 139.408 36.9659 142.38 36.9659C145.352 36.9659 147.577 34.7665 147.577 31.5249Z" fill="#652D90"/>
<path d="M152.276 20.9393C152.276 20.3955 152.723 19.925 153.291 19.925C153.86 19.925 154.306 20.3711 154.306 20.9149C154.306 21.4586 153.86 21.9292 153.291 21.9292C152.723 21.9292 152.276 21.483 152.276 20.9393ZM152.674 25.0697H153.912V37.9767H152.674V25.0697Z" fill="#652D90"/>
<path d="M170.687 30.4339V37.9767H169.449V30.535C169.449 27.6176 167.89 26.084 165.267 26.084C162.221 26.084 160.366 28.0359 160.366 31.1032V37.9767H159.127V25.0697H160.317V27.8651C161.182 26.0596 162.989 24.9721 165.438 24.9721C168.581 24.9721 170.684 26.8264 170.684 30.4374L170.687 30.4339Z" fill="#652D90"/>
<path d="M182.195 37.161C181.55 37.778 180.514 38.0777 179.548 38.0777C177.27 38.0777 176.035 36.7428 176.035 34.5678V26.1362H173.66V25.0731H176.035V22.2533H177.273V25.0731H181.383V26.1362H177.273V34.4458C177.273 36.1014 178.09 37.0181 179.673 37.0181C180.441 37.0181 181.159 36.7707 181.679 36.3001L182.199 37.1645L182.195 37.161Z" fill="#652D90"/>
<path d="M183.73 36.4186L184.299 35.4287C185.29 36.2688 187.048 36.9868 188.952 36.9868C191.673 36.9868 192.762 36.0213 192.762 34.5643C192.762 30.8069 184.201 33.5744 184.201 28.5064C184.201 26.5545 185.834 24.9721 189.102 24.9721C190.735 24.9721 192.517 25.467 193.533 26.2338L192.964 27.2237C191.876 26.4325 190.466 26.0631 189.078 26.0631C186.552 26.0631 185.44 27.1018 185.44 28.4855C185.44 32.3684 194 29.6218 194 34.5434C194 36.6452 192.193 38.0778 188.904 38.0778C186.776 38.0778 184.745 37.3597 183.73 36.4221V36.4186Z" fill="#652D90"/>
<path d="M48.2925 26.9031C47.4762 26.429 46.5588 26.192 45.5402 26.192C44.5216 26.192 43.6076 26.429 42.8018 26.9031C41.996 27.3771 41.3577 28.0394 40.8902 28.8898C40.4228 29.7368 40.1891 30.7058 40.1891 31.7933C40.1891 32.8808 40.4228 33.8463 40.8902 34.6968C41.3577 35.5472 41.996 36.2095 42.8018 36.6835C43.6076 37.1576 44.5216 37.3946 45.5402 37.3946C46.5588 37.3946 47.4762 37.1576 48.2925 36.6835C49.1087 36.2095 49.7471 35.5472 50.218 34.6968C50.6855 33.8463 50.9192 32.8808 50.9192 31.7933C50.9192 30.7058 50.6855 29.7403 50.218 28.8898C49.7506 28.0394 49.1087 27.3771 48.2925 26.9031Z" fill="#652D90"/>
<path d="M16.8382 28.3182C16.2277 27.7989 15.4777 27.5409 14.5952 27.5409C13.7126 27.5409 12.9382 27.7954 12.3278 28.3043C11.7173 28.8132 11.3441 29.5103 11.2045 30.3921H17.9579C17.8219 29.5242 17.4486 28.8341 16.8347 28.3147L16.8382 28.3182Z" fill="#652D90"/>
<path d="M48.9796 37.691C47.9785 38.2591 46.8552 38.5449 45.6169 38.5449C44.4448 38.5449 43.3809 38.2696 42.4285 37.7188C41.4762 37.1681 40.7367 36.3978 40.21 35.4149V45.1291H38.9367V24.7456H40.1611V28.2834C40.6879 27.2657 41.4309 26.471 42.3902 25.9028C43.3495 25.3347 44.4239 25.0489 45.6134 25.0489C46.8029 25.0489 47.975 25.3382 48.9761 25.9168C49.4331 26.1782 49.8378 26.4954 50.204 26.8474C47.7517 17.6978 39.4007 10.9602 29.4729 10.9602C26.1415 10.9602 22.9916 11.7201 20.18 13.0725C19.866 13.2224 18.8474 13.7417 18.2614 13.923C16.1893 14.5573 15.237 14.3831 13.9603 13.665C12.1219 12.6333 11.2464 11.0265 11.2045 8.26939C11.1557 5.10799 11.0894 2.39623 7.62896 0.918351C5.55689 0.0295342 3.26157 0.646478 1.81392 1.95356C0.42556 3.20836 -0.30699 5.13239 0.122075 7.1331C1.03602 11.3959 4.60807 11.3402 6.46386 12.1662C8.32314 12.9958 11.2045 15.61 10.6324 19.7438C10.2033 22.8286 9.54405 23.8498 9.0522 25.8087C9.0522 25.8122 9.0522 25.8157 9.0522 25.8192C8.88825 26.3315 8.73825 26.8474 8.61267 27.3772C9.2022 26.579 9.93824 25.9272 10.8382 25.4392C11.951 24.8362 13.1963 24.5365 14.5742 24.5365C15.9521 24.5365 17.1312 24.8258 18.2195 25.4009C19.3079 25.9795 20.1625 26.8056 20.78 27.8861C21.4009 28.9631 21.6834 32.0513 21.6346 32.7101H11.2603C11.4452 33.5606 11.8882 34.2298 12.5859 34.7213C13.2801 35.2127 14.1487 35.4602 15.1847 35.4602C15.8963 35.4602 16.5312 35.3556 17.0823 35.143C17.6335 34.9304 18.1498 34.5958 18.6242 34.1357L20.7381 36.4292C19.4474 37.9071 17.5602 38.646 15.08 38.646C13.5347 38.646 12.1638 38.3462 10.9778 37.7432C9.78824 37.1402 8.87081 36.3037 8.22547 35.2336C8.215 35.2197 8.20802 35.2023 8.19756 35.1848C8.54988 37.914 9.42196 40.4829 10.7022 42.7903C10.7789 42.9646 10.8661 43.1389 10.9673 43.3201C12.2336 45.6101 11.7417 46.9521 11.2987 48.1929C10.8557 49.4303 8.85685 50.7409 6.40107 50.5248C3.02437 50.2285 1.56276 51.5495 0.746486 53.2609C-0.0453649 54.9201 0.422071 57.6632 2.79414 58.9668C5.20806 60.2948 7.74408 58.8901 8.61267 57.5203C9.46033 56.1853 9.48824 54.2508 11.4661 52.4488C13.444 50.6433 15.7044 50.6921 17.0405 50.8245C17.9579 50.9152 19.7753 51.6088 20.8218 52.034C21.0381 52.1281 21.2579 52.2153 21.4776 52.3059C21.5683 52.3442 21.6207 52.3652 21.6207 52.3652C21.6276 52.3652 21.6311 52.3652 21.6346 52.3686C24.066 53.3237 26.7101 53.85 29.4764 53.85C39.9728 53.85 48.7041 46.3212 50.5668 36.3769C50.1133 36.8963 49.5936 37.3424 48.9796 37.691ZM35.5217 38.4404H23.2881V36.0458L30.2717 27.7955H23.466V24.7386H35.2914V27.1332L28.3078 35.3835H35.5217V38.4404Z" fill="#652D90"/>
<path d="M41.396 54.2507C39.9937 54.2507 38.8565 55.387 38.8565 56.7882C38.8565 58.1894 39.9937 59.3222 41.396 59.3222C42.7983 59.3222 43.932 58.1859 43.932 56.7882C43.932 55.3905 42.7948 54.2507 41.396 54.2507Z" fill="#652D90"/>
<path d="M16.3045 10.2421C17.2812 10.2421 18.0731 9.4509 18.0731 8.47494C18.0731 7.49898 17.2812 6.70776 16.3045 6.70776C15.3277 6.70776 14.5359 7.49898 14.5359 8.47494C14.5359 9.4509 15.3277 10.2421 16.3045 10.2421Z" fill="#652D90"/>
</g>
<defs>
<clipPath id="clip0_157_169">
<rect width="194" height="59" fill="white" transform="translate(0 0.5)"/>
</clipPath>
</defs>
</svg>
