<svg width="88" height="102" viewBox="0 0 88 102" fill="none" xmlns="http://www.w3.org/2000/svg">
<g clip-path="url(#clip0_157_163)">
<path d="M83.4564 45.6422C82.0398 44.8257 80.4572 44.4048 78.6959 44.4048C76.9346 44.4048 75.352 44.813 73.9609 45.6422C72.5697 46.4586 71.4593 47.6066 70.6553 49.0736C69.8512 50.5406 69.4428 52.2117 69.4428 54.0869C69.4428 55.9621 69.8512 57.6332 70.6553 59.1001C71.4593 60.5671 72.5697 61.7152 73.9609 62.5316C75.352 63.348 76.9346 63.769 78.6959 63.769C80.4572 63.769 82.0398 63.3608 83.4564 62.5316C84.8604 61.7152 85.9707 60.5671 86.7876 59.1001C87.5916 57.6332 88 55.9621 88 54.0869C88 52.2117 87.5916 50.5406 86.7876 49.0736C85.9835 47.6066 84.8731 46.4586 83.4564 45.6422Z" fill="#652D90"/>
<path d="M29.0993 48.0914C28.04 47.1984 26.751 46.752 25.2194 46.752C23.6879 46.752 22.3605 47.1984 21.3012 48.0786C20.2419 48.9588 19.6038 50.1579 19.3613 51.6887H31.0393C30.8096 50.1962 30.1587 48.9971 29.0993 48.1041V48.0914Z" fill="#652D90"/>
<path d="M84.6434 64.2919C82.9077 65.2741 80.9677 65.7716 78.8363 65.7716C76.807 65.7716 74.9691 65.2996 73.3227 64.3429C71.6763 63.3862 70.4 62.0595 69.4939 60.3629V77.1503H67.2859V41.9172H69.4045V48.0403C70.3107 46.2799 71.5998 44.9022 73.2589 43.92C74.9181 42.9377 76.7687 42.4402 78.8363 42.4402C80.9039 42.4402 82.9204 42.9377 84.6434 43.9327C85.4347 44.3919 86.1367 44.9277 86.762 45.54C82.5248 29.7221 68.09 18.0755 50.9367 18.0755C45.1806 18.0755 39.7309 19.3894 34.881 21.7239C34.3322 21.979 32.5836 22.8847 31.5626 23.1908C27.989 24.2879 26.3298 23.9817 24.1346 22.7444C20.9567 20.9585 19.4379 18.1903 19.3741 13.4195C19.2847 7.94697 19.1826 3.26538 13.1968 0.714102C9.59771 -0.816664 5.64122 0.254872 3.12693 2.51275C0.740275 4.68134 -0.536013 8.01075 0.216997 11.4677C1.79959 18.8409 7.96406 18.7389 11.1803 20.1676C14.3965 21.6091 19.3741 26.1248 18.3786 33.2684C17.6383 38.6005 16.5024 40.3609 15.6473 43.7541C15.6473 43.7541 15.6473 43.7541 15.6473 43.7669C15.3665 44.6471 15.0985 45.54 14.8815 46.4585C15.9026 45.0808 17.1661 43.9455 18.7232 43.1035C20.6504 42.0575 22.7945 41.5473 25.1812 41.5473C27.5678 41.5473 29.5971 42.0448 31.486 43.0398C33.3622 44.0348 34.8427 45.4762 35.9148 47.3387C36.9868 49.2011 37.5229 51.3697 37.5229 53.8317C37.5229 53.921 37.4846 54.5333 37.3952 55.6813H19.4634C19.7825 57.1483 20.5483 58.3092 21.748 59.1638C22.9477 60.0185 24.4537 60.4395 26.2405 60.4395C27.4785 60.4395 28.5633 60.2609 29.5206 59.8909C30.4778 59.521 31.3584 58.947 32.188 58.1561L35.8382 62.1233C33.6047 64.6746 30.3501 65.9502 26.0618 65.9502C23.3944 65.9502 21.0205 65.4272 18.9657 64.3812C16.9108 63.3352 15.3282 61.8937 14.2051 60.044C14.1923 60.0185 14.1796 59.993 14.1541 59.9675C14.7667 64.6873 16.2727 69.1266 18.4807 73.1193C18.6083 73.4127 18.7615 73.7189 18.9401 74.0378C21.1353 77.9922 20.2802 80.3139 19.5145 82.457C18.7487 84.6001 15.3027 86.8579 11.0527 86.488C5.22004 85.9777 2.69299 88.2611 1.27632 91.2206C-0.0893122 94.0908 0.714749 98.8362 4.81163 101.081C8.98509 103.377 13.3628 100.954 14.8688 98.581C16.3365 96.2721 16.3876 92.93 19.7952 89.8174C23.2157 86.7049 27.1211 86.7814 29.4312 87.011C31.0138 87.1641 34.1535 88.3632 35.9658 89.1031C36.3359 89.2689 36.7188 89.422 37.1017 89.575C37.2549 89.6388 37.3442 89.6771 37.3442 89.6771C37.3442 89.6771 37.357 89.6771 37.3697 89.6771C41.5687 91.3227 46.1378 92.2411 50.9239 92.2411C69.0599 92.2411 84.1457 79.2296 87.3747 62.034C86.5961 62.927 85.69 63.7051 84.6306 64.3046L84.6434 64.2919ZM61.3894 65.593H40.2414V61.46L52.315 47.1983H40.5477V41.9172H60.981V46.0503L48.9074 60.3119H61.3767V65.593H61.3894Z" fill="#652D90"/>
<path d="M71.5359 92.9175C69.111 92.9175 67.1455 94.882 67.1455 97.3057C67.1455 99.7294 69.111 101.694 71.5359 101.694C73.9609 101.694 75.9264 99.7294 75.9264 97.3057C75.9264 94.882 73.9609 92.9175 71.5359 92.9175Z" fill="#652D90"/>
<path d="M28.1804 16.8384C29.8651 16.8384 31.2435 15.4735 31.2435 13.7769C31.2435 12.0803 29.8779 10.7153 28.1804 10.7153C26.4829 10.7153 25.1173 12.0803 25.1173 13.7769C25.1173 15.4735 26.4829 16.8384 28.1804 16.8384Z" fill="#652D90"/>
</g>
<defs>
<clipPath id="clip0_157_163">
<rect width="88" height="102" fill="white"/>
</clipPath>
</defs>
</svg>
