<svg width="18" height="16" viewBox="0 0 18 16" fill="none" xmlns="http://www.w3.org/2000/svg"> <path d="M13.5714 0H3.57143C2.62457 0.00115481 1.71683 0.384641 1.0473 1.06634C0.377773 1.74804 0.00113418 2.67229 0 3.63636L0 12.3636C0.00113418 13.3277 0.377773 14.252 1.0473 14.9337C1.71683 15.6154 2.62457 15.9988 3.57143 16H13.5714C14.5183 15.9988 15.426 15.6154 16.0956 14.9337C16.7651 14.252 17.1417 13.3277 17.1429 12.3636V3.63636C17.1417 2.67229 16.7651 1.74804 16.0956 1.06634C15.426 0.384641 14.5183 0.00115481 13.5714 0ZM3.57143 1.45455H13.5714C13.9991 1.4554 14.4168 1.58656 14.7707 1.83113C15.1246 2.0757 15.3985 2.42251 15.5571 2.82691L10.0871 8.39709C9.68459 8.80532 9.13958 9.03452 8.57143 9.03452C8.00327 9.03452 7.45826 8.80532 7.05571 8.39709L1.58571 2.82691C1.74439 2.42251 2.0183 2.0757 2.37218 1.83113C2.72606 1.58656 3.14372 1.4554 3.57143 1.45455ZM13.5714 14.5455H3.57143C3.00311 14.5455 2.45806 14.3156 2.0562 13.9064C1.65434 13.4972 1.42857 12.9423 1.42857 12.3636V4.72727L6.04571 9.42545C6.71616 10.1064 7.62447 10.4888 8.57143 10.4888C9.51839 10.4888 10.4267 10.1064 11.0971 9.42545L15.7143 4.72727V12.3636C15.7143 12.9423 15.4885 13.4972 15.0867 13.9064C14.6848 14.3156 14.1397 14.5455 13.5714 14.5455Z" fill="#652D90"></path> </svg>