<svg width="16" height="16" viewBox="0 0 16 16" fill="none" xmlns="http://www.w3.org/2000/svg"> <g clip-path="url(#clip0_157_146)"> <path d="M10.94 11.8601L11.84 10.9601L8.65999 7.76012V3.7401H7.45998V8.2401L10.94 11.8601ZM7.99999 16.0001C6.9343 16.0057 5.87894 15.7913 4.89999 15.3701C3.94811 14.9646 3.08256 14.3808 2.34998 13.6501C1.61933 12.9176 1.03551 12.052 0.629983 11.1001C0.208835 10.1211 -0.00564032 9.06579 -1.41822e-05 8.00011C-0.00564032 6.93443 0.208835 5.87908 0.629983 4.90013C1.03551 3.94826 1.61933 3.08266 2.34998 2.35008C3.08255 1.61941 3.9481 1.03562 4.89999 0.630114C5.87893 0.208938 6.9343 -0.00554592 7.99999 0.000108975C9.06567 -0.00554592 10.121 0.208938 11.1 0.630114C12.0519 1.03562 12.9174 1.61941 13.65 2.35008C14.3806 3.08266 14.9645 3.94826 15.37 4.90013C15.7911 5.87908 16.0056 6.93443 16 8.00011C16.0056 9.06579 15.7911 10.1211 15.37 11.1001C14.9645 12.052 14.3806 12.9176 13.65 13.6501C12.9174 14.3808 12.0519 14.9646 11.1 15.3701C10.121 15.7913 9.06567 16.0057 7.99999 16.0001ZM7.99999 14.8001C8.89425 14.8123 9.78155 14.6411 10.6071 14.2972C11.4327 13.9532 12.179 13.4437 12.8 12.8001C13.4436 12.1791 13.9531 11.4328 14.2971 10.6072C14.641 9.78167 14.8122 8.89438 14.8 8.00011C14.8122 7.10584 14.641 6.21855 14.2971 5.39299C13.9531 4.56744 13.4436 3.82114 12.8 3.20012C12.179 2.55653 11.4327 2.04703 10.6071 1.70305C9.78155 1.35907 8.89425 1.1879 7.99999 1.20012C7.10572 1.1879 6.21843 1.35907 5.39287 1.70305C4.56731 2.04703 3.821 2.55653 3.19998 3.20012C2.5564 3.82114 2.04689 4.56744 1.70291 5.39299C1.35893 6.21855 1.18777 7.10584 1.19998 8.00011C1.18777 8.89438 1.35893 9.78167 1.70291 10.6072C2.04689 11.4328 2.5564 12.1791 3.19998 12.8001C3.821 13.4437 4.56731 13.9532 5.39287 14.2972C6.21843 14.6411 7.10572 14.8123 7.99999 14.8001Z" fill="#652D90"></path> </g> <defs> <clipPath id="clip0_157_146"> <rect width="16" height="16" fill="white"></rect> </clipPath> </defs> </svg>