<svg width="60" height="60" viewBox="0 0 60 60" fill="none" xmlns="http://www.w3.org/2000/svg"> <circle cx="30" cy="30" r="30" fill="#F8F8F8"></circle> <path d="M42.576 28.9079L32.4 23.0999C32.1234 22.9391 31.8055 22.8632 31.4861 22.8819C31.1666 22.9006 30.8598 23.013 30.6038 23.205C30.3478 23.3969 30.154 23.6601 30.0467 23.9615C29.9393 24.2629 29.9231 24.5893 30 24.8999L31.173 30.0869L29.7 35.0099C29.6271 35.2535 29.6121 35.5108 29.6562 35.7612C29.7004 36.0117 29.8024 36.2483 29.9543 36.4523C30.1061 36.6563 30.3035 36.822 30.5307 36.9362C30.7579 37.0503 31.0087 37.1098 31.263 37.1099C31.5118 37.1103 31.7573 37.0528 31.98 36.9419L42.486 31.7999C42.7531 31.6701 42.9797 31.4697 43.1412 31.2204C43.3026 30.9711 43.3929 30.6824 43.4022 30.3856C43.4114 30.0887 43.3393 29.795 43.1937 29.5361C43.0481 29.2773 42.8345 29.0631 42.576 28.9169V28.9079ZM31.521 35.1539L32.898 30.5459C32.9773 30.2777 32.9866 29.9937 32.925 29.7209L31.827 24.8639L41.4 30.3149L31.521 35.1539ZM26.349 24.5999H19.968C19.7293 24.5999 19.5004 24.6947 19.3316 24.8635C19.1628 25.0323 19.068 25.2612 19.068 25.4999C19.068 25.7386 19.1628 25.9675 19.3316 26.1363C19.5004 26.3051 19.7293 26.3999 19.968 26.3999H26.349C26.5877 26.3999 26.8166 26.3051 26.9854 26.1363C27.1542 25.9675 27.249 25.7386 27.249 25.4999C27.249 25.2612 27.1542 25.0323 26.9854 24.8635C26.8166 24.6947 26.5877 24.5999 26.349 24.5999ZM26.349 34.1999H19.968C19.7293 34.1999 19.5004 34.2947 19.3316 34.4635C19.1628 34.6323 19.068 34.8612 19.068 35.0999C19.068 35.3386 19.1628 35.5675 19.3316 35.7363C19.5004 35.9051 19.7293 35.9999 19.968 35.9999H26.349C26.5877 35.9999 26.8166 35.9051 26.9854 35.7363C27.1542 35.5675 27.249 35.3386 27.249 35.0999C27.249 34.8612 27.1542 34.6323 26.9854 34.4635C26.8166 34.2947 26.5877 34.1999 26.349 34.1999ZM26.349 29.3999L17.499 29.5019C17.2603 29.5019 17.0314 29.5967 16.8626 29.7655C16.6938 29.9343 16.599 30.1632 16.599 30.4019C16.599 30.6406 16.6938 30.8695 16.8626 31.0383C17.0314 31.2071 17.2603 31.3019 17.499 31.3019L26.358 31.1999C26.5967 31.1971 26.8245 31.0996 26.9913 30.9289C27.1581 30.7581 27.2503 30.5281 27.2475 30.2894C27.2447 30.0507 27.1472 29.8229 26.9765 29.6561C26.8057 29.4893 26.5757 29.3971 26.337 29.3999H26.349Z" fill="#652D90"></path> </svg>