<svg width="60" height="60" viewBox="0 0 60 60" fill="none" xmlns="http://www.w3.org/2000/svg"> <circle cx="30" cy="30" r="30" fill="#F8F8F8"></circle> <path d="M21.5 21C22.0523 21 22.5 20.5523 22.5 20C22.5 19.4477 22.0523 19 21.5 19C20.9477 19 20.5 19.4477 20.5 20C20.5 20.5523 20.9477 21 21.5 21Z" fill="#652D90"></path> <path fill-rule="evenodd" clip-rule="evenodd" d="M23.2224 15C19.2321 15 15.779 17.953 15.3997 21.9819C14.8653 27.6574 14.8672 32.3133 15.4027 38.0111C15.7816 42.0424 19.2351 45 23.2287 45H30.4738C31.0261 45 31.4738 44.5523 31.4738 44C31.4738 43.4477 31.0261 43 30.4738 43H23.2287C20.2113 43 17.6711 40.773 17.3939 37.8239C16.9288 32.8746 16.8753 28.7481 17.2349 24H42.7355C42.9349 26.5588 43.0213 28.9519 42.9955 31.2387C42.9893 31.791 43.4319 32.2437 43.9842 32.25C44.5364 32.2562 44.9892 31.8135 44.9954 31.2613C45.0283 28.3428 44.8835 25.2714 44.563 21.9359C44.1776 17.9236 40.7355 15 36.7656 15H23.2224ZM42.5585 22H17.4094C17.7662 19.1389 20.2651 17 23.2224 17H36.7656C39.7228 17 42.2176 19.1371 42.5585 22Z" fill="#652D90"></path> <path d="M34 38C33.4477 38 33 38.4477 33 39C33 39.5523 33.4477 40 34 40H44C44.5523 40 45 39.5523 45 39C45 38.4477 44.5523 38 44 38H34Z" fill="#652D90"></path> </svg>