<svg width="137" height="40" viewBox="0 0 137 40" fill="none" xmlns="http://www.w3.org/2000/svg">
<g clip-path="url(#clip0_164_419)">
<mask id="mask0_164_419" style="mask-type:luminance" maskUnits="userSpaceOnUse" x="0" y="0" width="137" height="40">
<path d="M136.842 0H0V40H136.842V0Z" fill="white"/>
</mask>
<g mask="url(#mask0_164_419)">
<mask id="mask1_164_419" style="mask-type:luminance" maskUnits="userSpaceOnUse" x="0" y="0" width="137" height="40">
<path d="M136.842 0H0V40H136.842V0Z" fill="white"/>
</mask>
<g mask="url(#mask1_164_419)">
<path d="M131.773 40H5.06909C2.28141 40 0 37.7493 0 34.9992V5.00078C0 2.25067 2.28141 0 5.06909 0H131.775C134.563 0 136.844 2.25067 136.844 5.00078V35.0013C136.844 37.7514 134.563 40.0021 131.775 40.0021" fill="black"/>
<path d="M131.773 0.800376C134.12 0.800376 136.031 2.68533 136.031 5.00078V35.0013C136.031 37.3168 134.12 39.2017 131.773 39.2017H5.06909C2.72201 39.2017 0.811308 37.3168 0.811308 35.0013V5.00078C0.811308 2.68325 2.7199 0.800376 5.06909 0.800376H131.775H131.773ZM131.773 0H5.06909C2.28141 0 0 2.25067 0 5.00078V35.0013C0 37.7514 2.28141 40.0021 5.06909 40.0021H131.775C134.563 40.0021 136.844 37.7514 136.844 35.0013V5.00078C136.842 2.25067 134.561 0 131.773 0Z" fill="#A6A5A5"/>
<path d="M69.065 21.7502C66.6819 21.7502 64.7373 23.539 64.7373 26.0049C64.7373 28.4708 66.6798 30.2576 69.065 30.2576C71.4502 30.2576 73.3927 28.452 73.3927 26.0049C73.3927 23.5578 71.4502 21.7502 69.065 21.7502ZM69.065 28.5816C67.758 28.5816 66.6311 27.5179 66.6311 26.0049C66.6311 24.4919 67.758 23.4262 69.065 23.4262C70.372 23.4262 71.4968 24.4731 71.4968 26.0049C71.4968 27.5367 70.3699 28.5816 69.065 28.5816ZM59.6237 21.7502C57.2407 21.7502 55.2961 23.539 55.2961 26.0049C55.2961 28.4708 57.2385 30.2576 59.6237 30.2576C62.0089 30.2576 63.9514 28.452 63.9514 26.0049C63.9514 23.5578 62.0068 21.7502 59.6237 21.7502ZM59.6237 28.5816C58.3189 28.5816 57.1919 27.5179 57.1919 26.0049C57.1919 24.4919 58.3189 23.4262 59.6237 23.4262C60.9286 23.4262 62.0577 24.4731 62.0577 26.0049C62.0577 27.5367 60.9307 28.5816 59.6237 28.5816ZM48.3946 23.0563V24.8597H52.771C52.6397 25.8753 52.2987 26.6151 51.7754 27.1313C51.1378 27.7603 50.1422 28.452 48.3946 28.452C45.7002 28.452 43.5925 26.31 43.5925 23.6518C43.5925 20.9937 45.698 18.8517 48.3946 18.8517C49.8478 18.8517 50.9091 19.4138 51.6928 20.139L52.9829 18.8663C51.8877 17.8361 50.4346 17.0461 48.3946 17.0461C44.7046 17.0461 41.6013 20.0115 41.6013 23.6518C41.6013 27.2922 44.7046 30.2576 48.3946 30.2576C50.3858 30.2576 51.8877 29.6118 53.0655 28.4039C54.2729 27.2128 54.65 25.5368 54.65 24.1826C54.65 23.7647 54.6182 23.3781 54.5525 23.0563H48.3968H48.3946ZM94.3215 24.4585C93.9614 23.5077 92.8683 21.7523 90.6314 21.7523C88.3945 21.7523 86.5664 23.4763 86.5664 26.007C86.5664 28.3914 88.3945 30.2597 90.8432 30.2597C92.8196 30.2597 93.9614 29.0685 94.4359 28.3747L92.9658 27.4071C92.4743 28.1156 91.8071 28.5837 90.8432 28.5837C89.8794 28.5837 89.1931 28.149 88.7525 27.2964L94.5164 24.9433L94.3215 24.4606V24.4585ZM88.4432 25.8753C88.3945 24.2307 89.7332 23.3948 90.6971 23.3948C91.4491 23.3948 92.0867 23.7647 92.2985 24.2976L88.4453 25.8774L88.4432 25.8753ZM83.7554 30.0005H85.6492V17.4996H83.7554V30.0005ZM80.6521 22.701H80.5864C80.1628 22.2016 79.3451 21.7502 78.3177 21.7502C76.1613 21.7502 74.187 23.6184 74.187 26.0195C74.187 28.4207 76.1634 30.2555 78.3177 30.2555C79.3472 30.2555 80.1628 29.8041 80.5864 29.2879H80.6521V29.9002C80.6521 31.5281 79.7709 32.3975 78.3495 32.3975C77.1908 32.3975 76.4706 31.5762 76.1782 30.8845L74.5281 31.5616C75.0005 32.69 76.2587 34.0755 78.3495 34.0755C80.5695 34.0755 82.4484 32.7862 82.4484 29.6453V22.0093H80.6521V22.7031V22.701ZM78.4808 28.5816C77.1738 28.5816 76.0808 27.5033 76.0808 26.0216C76.0808 24.54 77.1738 23.4282 78.4808 23.4282C79.7878 23.4282 80.7834 24.5233 80.7834 26.0216C80.7834 27.52 79.7709 28.5816 78.4808 28.5816ZM103.195 17.4996H98.664V30.0005H100.554V25.2651H103.195C105.292 25.2651 107.351 23.7668 107.351 21.3824C107.351 18.998 105.29 17.4996 103.195 17.4996ZM103.244 23.5244H100.554V19.2383H103.244C104.659 19.2383 105.462 20.3939 105.462 21.3803C105.462 22.3666 104.659 23.5223 103.244 23.5223M114.933 21.7293C113.564 21.7293 112.145 22.3249 111.558 23.6414L113.238 24.3331C113.596 23.6414 114.265 23.4157 114.966 23.4157C115.945 23.4157 116.939 23.9946 116.955 25.0227V25.1523C116.612 24.96 115.879 24.6696 114.983 24.6696C113.174 24.6696 111.331 25.6497 111.331 27.4845C111.331 29.1584 112.816 30.2346 114.477 30.2346C115.75 30.2346 116.449 29.6724 116.89 29.0121H116.955V29.9775H118.781V25.1836C118.781 22.9643 117.104 21.7272 114.935 21.7272M114.706 28.5795C114.085 28.5795 113.221 28.2744 113.221 27.5179C113.221 26.5524 114.297 26.1846 115.227 26.1846C116.057 26.1846 116.449 26.3623 116.955 26.6026C116.809 27.7603 115.799 28.5816 114.706 28.5816M125.431 22.0009L123.262 27.4218H123.196L120.946 22.0009H118.909L122.283 29.5763L120.36 33.7892H122.332L127.532 22.0009H125.429H125.431ZM108.395 30.0005H110.287V17.4996H108.395V30.0005Z" fill="white"/>
<path d="M21.0008 19.4243L10.2081 30.7236C10.2081 30.7236 10.2081 30.7278 10.2081 30.7298C10.5385 31.9565 11.6739 32.8593 13.0233 32.8593C13.5635 32.8593 14.0676 32.7151 14.5019 32.4643L14.5358 32.4434L26.6842 25.5284L20.9987 19.4222L21.0008 19.4243Z" fill="#EA4435"/>
<path d="M31.9185 17.4996L31.9079 17.4933L26.663 14.4945L20.7551 19.6813L26.6842 25.5284L31.8995 22.5589C32.8146 22.0699 33.4352 21.1191 33.4352 20.024C33.4352 18.929 32.823 17.9886 31.9164 17.4996" fill="#F9BC15"/>
<path d="M10.2081 9.27642C10.1424 9.51256 10.1085 9.76125 10.1085 10.0162V29.9838C10.1085 30.2408 10.1424 30.4874 10.2081 30.7236L21.3694 19.7127L10.206 9.27642H10.2081Z" fill="#547DBF"/>
<path d="M21.0792 20.001L26.6651 14.4924L14.5315 7.55237C14.0909 7.29115 13.5762 7.14069 13.0254 7.14069C11.6782 7.14069 10.5406 8.04556 10.2081 9.27433C10.2081 9.27433 10.2081 9.27433 10.2081 9.27642L21.0813 20.001H21.0792Z" fill="#33A851"/>
</g>
<path d="M42.3533 6.90455H44.372C45.0244 6.90455 45.5943 7.03411 46.0794 7.29533C46.5644 7.55655 46.9373 7.92226 47.1999 8.39664C47.4626 8.86892 47.5918 9.41017 47.5918 10.0183C47.5918 10.6264 47.4605 11.1677 47.1999 11.6399C46.9373 12.1122 46.5644 12.48 46.0794 12.7412C45.5943 13.0025 45.0266 13.132 44.372 13.132H42.3533V6.90246V6.90455ZM44.3466 12.2292C45.0647 12.2292 45.6218 12.0328 46.0179 11.642C46.4141 11.2512 46.6132 10.71 46.6132 10.0204C46.6132 9.33076 46.4141 8.78951 46.0179 8.39872C45.6218 8.00794 45.0647 7.8115 44.3466 7.8115H43.3235V12.2313H44.3466V12.2292Z" fill="white"/>
<path d="M48.8543 6.90455H49.8245V13.1341H48.8543V6.90455Z" fill="white"/>
<path d="M51.8517 12.8206C51.4344 12.5197 51.1442 12.0955 50.979 11.5501L51.8962 11.1844C51.9894 11.5313 52.1589 11.8176 52.3982 12.037C52.6397 12.2564 52.9299 12.3672 53.271 12.3672C53.5887 12.3672 53.8577 12.2857 54.078 12.1227C54.2983 11.9597 54.4085 11.7361 54.4085 11.4519C54.4085 11.1906 54.3111 10.9754 54.1183 10.804C53.9234 10.6327 53.5887 10.4655 53.1121 10.3046L52.716 10.1646C52.286 10.0141 51.9301 9.80304 51.6441 9.53346C51.3581 9.26388 51.2162 8.90654 51.2162 8.45933C51.2162 8.15213 51.301 7.86793 51.4683 7.60671C51.6356 7.34549 51.8708 7.14069 52.1737 6.98814C52.4766 6.83559 52.8198 6.76245 53.2011 6.76245C53.7476 6.76245 54.1861 6.8941 54.5144 7.15741C54.8428 7.42072 55.0673 7.71956 55.1838 8.04974L54.3111 8.41544C54.2517 8.20647 54.1289 8.02675 53.9404 7.87629C53.7518 7.72582 53.5082 7.65059 53.2074 7.65059C52.9066 7.65059 52.6757 7.72582 52.4745 7.87629C52.2754 8.02675 52.1737 8.21901 52.1737 8.45097C52.1737 8.66621 52.2627 8.84384 52.4427 8.98595C52.6228 9.12805 52.9003 9.26388 53.2752 9.39136L53.6819 9.53137C54.2221 9.71736 54.6394 9.95768 54.9338 10.2544C55.2283 10.5512 55.3744 10.944 55.3744 11.4372C55.3744 11.8426 55.2706 12.1833 55.0609 12.4591C54.8512 12.735 54.5843 12.9398 54.2581 13.0735C53.9319 13.2073 53.5972 13.2741 53.2561 13.2741C52.7329 13.2741 52.2627 13.1237 51.8454 12.8227L51.8517 12.8206Z" fill="white"/>
<path d="M56.6497 6.90455H58.8188C59.1959 6.90455 59.5411 6.98605 59.8546 7.14696C60.1682 7.30996 60.4181 7.53566 60.6045 7.82613C60.7888 8.11661 60.882 8.4447 60.882 8.80832C60.882 9.17193 60.7888 9.50212 60.6045 9.7905C60.4181 10.081 60.1703 10.3067 59.8546 10.4697C59.539 10.6327 59.1937 10.7142 58.8188 10.7142H57.6198V13.132H56.6497V6.90246V6.90455ZM58.8442 9.80931C59.1683 9.80931 59.4267 9.709 59.6238 9.50838C59.8208 9.30777 59.9182 9.07581 59.9182 8.80832C59.9182 8.54083 59.8208 8.30887 59.6238 8.10825C59.4267 7.90763 59.1662 7.80732 58.8442 7.80732H57.6177V9.80931H58.8442Z" fill="white"/>
<path d="M63.3075 12.8374C62.8076 12.5469 62.4157 12.154 62.1297 11.6587C61.8437 11.1635 61.7018 10.616 61.7018 10.0183C61.7018 9.42062 61.8437 8.87519 62.1297 8.37783C62.4157 7.88256 62.8076 7.48968 63.3075 7.19921C63.8074 6.90873 64.3624 6.76454 64.9746 6.76454C65.5868 6.76454 66.1396 6.90873 66.6374 7.19921C67.1331 7.48968 67.525 7.88256 67.811 8.37783C68.097 8.8731 68.2389 9.42062 68.2389 10.0183C68.2389 10.616 68.097 11.1614 67.811 11.6587C67.525 12.154 67.1352 12.5469 66.6374 12.8374C66.1396 13.1278 65.5868 13.272 64.9746 13.272C64.3624 13.272 63.8074 13.1278 63.3075 12.8374ZM66.1333 12.0683C66.4828 11.8677 66.7603 11.5898 66.9615 11.2324C67.1649 10.8751 67.2666 10.4718 67.2666 10.0183C67.2666 9.56481 67.1649 9.16149 66.9615 8.80414C66.7582 8.44679 66.4828 8.16885 66.1333 7.96824C65.7838 7.76762 65.3961 7.66731 64.9746 7.66731C64.553 7.66731 64.1654 7.76762 63.8159 7.96824C63.4664 8.16885 63.1889 8.44679 62.9876 8.80414C62.7843 9.16149 62.6826 9.56481 62.6826 10.0183C62.6826 10.4718 62.7843 10.8751 62.9876 11.2324C63.191 11.5898 63.4664 11.8677 63.8159 12.0683C64.1654 12.269 64.553 12.3693 64.9746 12.3693C65.3961 12.3693 65.7838 12.269 66.1333 12.0683Z" fill="white"/>
<path d="M69.4887 6.90455H70.6347L73.4923 11.4811H73.5452L73.4923 10.2795V6.90455H74.454V13.1341H73.4478L70.4504 8.32349H70.3974L70.4504 9.5251V13.1362H69.4887V6.90664V6.90455Z" fill="white"/>
<path d="M76.0596 6.90455H77.0298V13.1341H76.0596V6.90455ZM76.5617 5.26827H77.6378L76.9324 6.40719H76.1465L76.5617 5.26827Z" fill="white"/>
<path d="M77.964 6.90455H79.0231L80.453 11.0464L80.6733 11.7507H80.7263L80.9635 11.0464L82.4548 6.90455H83.5139L81.2113 13.1341H80.2052L77.9661 6.90455H77.964Z" fill="white"/>
<path d="M84.4545 6.90455H88.2822V7.80941H85.4246V9.5669H88.0005V10.4718H85.4246V12.2292H88.2822V13.1341H84.4545V6.90455Z" fill="white"/>
<path d="M89.6401 6.90455H90.6102V12.2292H93.3259V13.1341H89.6401V6.90455Z" fill="white"/>
<path d="M96.3678 6.90455H97.5138L100.371 11.4811H100.424L100.371 10.2795V6.90455H101.333V13.1341H100.327L97.3295 8.32349H97.2765L97.3295 9.5251V13.1362H96.3678V6.90664V6.90455Z" fill="white"/>
<path d="M104.199 12.8374C103.699 12.5469 103.307 12.154 103.021 11.6587C102.735 11.1635 102.593 10.616 102.593 10.0183C102.593 9.42062 102.735 8.87519 103.021 8.37783C103.307 7.88256 103.699 7.48968 104.199 7.19921C104.699 6.90873 105.254 6.76454 105.866 6.76454C106.478 6.76454 107.031 6.90873 107.529 7.19921C108.025 7.48968 108.417 7.88256 108.703 8.37783C108.989 8.8731 109.131 9.42062 109.131 10.0183C109.131 10.616 108.989 11.1614 108.703 11.6587C108.417 12.154 108.027 12.5469 107.529 12.8374C107.031 13.1278 106.478 13.272 105.866 13.272C105.254 13.272 104.699 13.1278 104.199 12.8374ZM107.025 12.0683C107.374 11.8677 107.652 11.5898 107.853 11.2324C108.057 10.8751 108.158 10.4718 108.158 10.0183C108.158 9.56481 108.057 9.16149 107.853 8.80414C107.65 8.44679 107.374 8.16885 107.025 7.96824C106.675 7.76762 106.288 7.66731 105.866 7.66731C105.445 7.66731 105.057 7.76762 104.708 7.96824C104.358 8.16885 104.081 8.44679 103.879 8.80414C103.676 9.16149 103.574 9.56481 103.574 10.0183C103.574 10.4718 103.676 10.8751 103.879 11.2324C104.083 11.5898 104.358 11.8677 104.708 12.0683C105.057 12.269 105.445 12.3693 105.866 12.3693C106.288 12.3693 106.675 12.269 107.025 12.0683Z" fill="white"/>
</g>
</g>
<defs>
<clipPath id="clip0_164_419">
<rect width="136.842" height="40" fill="white"/>
</clipPath>
</defs>
</svg>
