<svg width="60" height="60" viewBox="0 0 60 60" fill="none" xmlns="http://www.w3.org/2000/svg"> <circle cx="30" cy="30" r="30" fill="#F8F8F8"></circle> <g clip-path="url(#clip0_166_496)"> <path d="M23.002 30.9357H19.003C18.774 30.9273 18.736 30.9066 18.638 30.871C18.268 30.7351 18.019 30.3807 18.004 29.9982C18.004 27.4895 17.995 24.9807 18.004 22.471C18.028 20.0363 20.27 17.822 23.001 17.8145H27.001C27.556 17.8341 28.04 18.2982 27.998 18.8213C27.964 19.2413 27.598 19.6154 27.15 19.6782C27.084 19.6876 27.067 19.6866 27.001 19.6885C25.656 19.6885 24.31 19.6773 22.965 19.6885C21.416 19.712 20.008 20.9776 20.003 22.502V29.0607H22.174C22.246 28.8723 22.272 28.8273 22.331 28.7176C23.049 27.4041 24.969 26.8023 26.4 27.511C27.059 27.8373 27.576 28.3979 27.83 29.0607H30V26.2491C30 26.2491 30.047 25.802 30.318 25.5648C30.61 25.3088 31.074 25.3726 31.41 25.2301C32.192 24.8982 32.149 23.4441 30.994 23.4376C30.994 23.4376 30.567 23.4038 30.318 23.1854C30.154 23.042 30.045 22.847 30.011 22.6398C30.002 22.5779 30.003 22.562 30 22.5001V18.752C30.009 18.5363 30.031 18.5007 30.069 18.4088C30.233 18.0179 30.69 17.776 31.149 17.8248C31.622 17.9091 31.981 18.2935 32 18.752V21.7238C32.067 21.7463 32.067 21.7463 32.134 21.7716C33.69 22.3791 34.455 24.3029 33.636 25.7157C33.286 26.3195 32.694 26.792 32 27.0263V29.0607H34.999C35.208 29.0682 35.242 29.0851 35.332 29.1151C35.745 29.252 35.965 29.6616 36.003 30.0835C36.072 30.767 37.101 31.201 37.688 30.677C37.884 30.5016 37.996 30.2532 37.998 29.9926C37.998 29.9926 38.058 29.506 38.369 29.2698C38.545 29.1366 38.769 29.0682 38.998 29.0607H42.997C43.206 29.0682 43.241 29.0851 43.331 29.1151C43.674 29.2295 43.937 29.5295 43.987 29.8707C43.995 29.927 43.994 29.942 43.996 29.9982C43.996 32.507 44.005 35.0166 43.996 37.5254C43.972 39.9498 41.73 42.1745 38.999 42.1829H34.999C34.439 42.1641 34.327 41.9785 34.182 41.7854C33.796 41.2735 34.149 40.4091 34.863 40.3163C34.923 40.3088 34.938 40.3098 34.999 40.3079C36.344 40.3079 37.69 40.3191 39.035 40.3079C40.579 40.2854 41.992 39.0198 41.997 37.4945V30.9357H39.826C39.814 30.9666 39.814 30.9666 39.802 30.9976C39.19 32.4779 37.145 33.2504 35.6 32.4863C34.941 32.1601 34.425 31.5985 34.17 30.9357H32V33.7473C31.993 33.9432 31.974 33.9751 31.942 34.0604C31.796 34.4466 31.359 34.6538 30.909 34.6885C30.18 34.7532 29.717 35.7179 30.276 36.2682C30.463 36.452 30.728 36.557 31.006 36.5588C31.006 36.5588 31.526 36.6151 31.777 36.9066C31.92 37.0716 31.992 37.2816 32 37.4963V41.2454C31.993 41.4423 31.974 41.4741 31.942 41.5595C31.82 41.8801 31.5 42.1266 31.136 42.1735C31.076 42.182 31.061 42.1801 31 42.1829C28.324 42.1829 25.647 42.1904 22.971 42.182C20.388 42.1604 18.012 40.0576 18.004 37.4982V33.7473C18.022 33.2504 18.205 33.1473 18.372 33.0207C18.913 32.6073 19.892 32.9288 19.994 33.6198C20.002 33.676 20.001 33.6901 20.003 33.7473C20.003 35.0082 19.991 36.2701 20.003 37.531C20.027 38.987 21.378 40.3032 23.004 40.3079H30V38.2735C29.799 38.2051 29.751 38.1816 29.634 38.1254C28.233 37.4523 27.591 35.6523 28.346 34.3107C28.695 33.6929 29.293 33.2091 30 32.9701V30.9357H27.001C26.455 30.917 26.018 30.4829 26.001 29.9616C25.967 29.2538 24.915 28.7813 24.312 29.3204C24.116 29.4957 24.004 29.7451 24.002 30.0048C24.002 30.0048 23.833 30.8288 23.151 30.9254C23.085 30.9348 23.068 30.9329 23.002 30.9357Z" fill="#652D90"></path> </g> <defs> <clipPath id="clip0_166_496"> <rect width="32" height="30" fill="white" transform="translate(15 15)"></rect> </clipPath> </defs> </svg>