<svg width="120" height="40" viewBox="0 0 120 40" fill="none" xmlns="http://www.w3.org/2000/svg">
<g clip-path="url(#clip0_164_448)">
<path d="M110.135 0.00013H9.53468C9.16798 0.00013 8.80568 0.00013 8.43995 0.00213C8.1338 0.00413 7.83009 0.00994 7.521 0.01483C6.84951 0.0227318 6.17961 0.0818063 5.5171 0.19154C4.85552 0.303663 4.21467 0.515046 3.61622 0.81854C3.0185 1.1246 2.47235 1.5223 1.99757 1.9972C1.5203 2.47077 1.12246 3.01815 0.81935 3.61829C0.5154 4.21724 0.304641 4.85907 0.19435 5.52161C0.0830109 6.18332 0.0230984 6.85265 0.01515 7.52361C0.00587 7.83021 0.00489 8.13783 0 8.44447V31.5587C0.00489 31.8692 0.00587 32.17 0.01515 32.4806C0.0231008 33.1516 0.0830134 33.8209 0.19435 34.4825C0.304336 35.1455 0.515108 35.7877 0.81935 36.3868C1.12233 36.985 1.52022 37.5302 1.99757 38.0011C2.47054 38.4781 3.01705 38.8761 3.61622 39.1798C4.21467 39.4841 4.85545 39.6968 5.5171 39.8106C6.17972 39.9195 6.84956 39.9786 7.521 39.9874C7.83009 39.9942 8.1338 39.9981 8.43995 39.9981C8.80567 40.0001 9.168 40.0001 9.53468 40.0001H110.135C110.494 40.0001 110.859 40.0001 111.219 39.9981C111.523 39.9981 111.836 39.9942 112.141 39.9874C112.811 39.9791 113.479 39.92 114.141 39.8106C114.804 39.696 115.448 39.4834 116.049 39.1798C116.647 38.8759 117.193 38.478 117.666 38.0011C118.142 37.5284 118.541 36.9836 118.848 36.3868C119.15 35.7872 119.358 35.1451 119.467 34.4825C119.578 33.8208 119.64 33.1516 119.652 32.4806C119.656 32.17 119.656 31.8692 119.656 31.5587C119.664 31.1954 119.664 30.8341 119.664 30.4649V9.53626C119.664 9.17005 119.664 8.80677 119.656 8.44447C119.656 8.13783 119.656 7.83021 119.652 7.52357C119.64 6.85255 119.578 6.18337 119.467 5.52157C119.358 4.85941 119.149 4.21763 118.848 3.61825C118.23 2.41533 117.252 1.43616 116.049 0.81845C115.448 0.515697 114.804 0.30437 114.141 0.19145C113.48 0.0812328 112.811 0.0221378 112.141 0.01469C111.836 0.00981 111.523 0.00395 111.219 0.002C110.859 0 110.494 0.00013 110.135 0.00013Z" fill="#A6A6A6"/>
<path d="M8.44484 39.125C8.14016 39.125 7.84284 39.1211 7.54055 39.1143C6.91433 39.1061 6.28957 39.0516 5.67141 38.9512C5.095 38.8519 4.53661 38.6673 4.01467 38.4033C3.49751 38.1415 3.02582 37.7983 2.61767 37.3867C2.20361 36.98 1.85888 36.5082 1.59716 35.9902C1.33255 35.4688 1.14942 34.9099 1.05416 34.333C0.951281 33.7131 0.895621 33.0863 0.887656 32.458C0.881316 32.2471 0.873016 31.5449 0.873016 31.5449V8.44434C0.873016 8.44434 0.881856 7.75293 0.887706 7.5498C0.895332 6.92248 0.950669 6.29665 1.05324 5.67773C1.14868 5.09925 1.33194 4.53875 1.5967 4.01563C1.85746 3.49794 2.20027 3.02586 2.61184 2.61768C3.02294 2.20562 3.49614 1.8606 4.01418 1.59521C4.53492 1.33209 5.09225 1.14873 5.6675 1.05127C6.28769 0.949836 6.91462 0.894996 7.54301 0.88721L8.44533 0.875H111.214L112.127 0.8877C112.75 0.895099 113.371 0.94945 113.985 1.05029C114.566 1.14898 115.13 1.33362 115.656 1.59814C116.694 2.13299 117.539 2.97916 118.071 4.01807C118.332 4.53758 118.512 5.09351 118.606 5.66699C118.71 6.29099 118.768 6.92174 118.78 7.5542C118.783 7.8374 118.783 8.1416 118.783 8.44434C118.791 8.81934 118.791 9.17627 118.791 9.53613V30.4648C118.791 30.8281 118.791 31.1826 118.783 31.54C118.783 31.8652 118.783 32.1631 118.779 32.4697C118.768 33.0909 118.71 33.7104 118.608 34.3232C118.515 34.9043 118.333 35.4675 118.068 35.9932C117.805 36.5056 117.462 36.9733 117.053 37.3789C116.644 37.7927 116.172 38.1379 115.653 38.4014C115.128 38.6674 114.566 38.8527 113.985 38.9512C113.367 39.0522 112.742 39.1067 112.116 39.1143C111.823 39.1211 111.517 39.125 111.219 39.125L110.135 39.127L8.44484 39.125Z" fill="black"/>
<path d="M24.7689 20.3007C24.7796 19.466 25.0013 18.6476 25.4134 17.9217C25.8254 17.1957 26.4144 16.5858 27.1254 16.1486C26.6737 15.5035 26.0778 14.9725 25.3849 14.598C24.6921 14.2234 23.9215 14.0156 23.1343 13.9909C21.455 13.8147 19.8271 14.9958 18.9714 14.9958C18.0991 14.9958 16.7816 14.0084 15.3629 14.0376C14.4452 14.0673 13.5509 14.3341 12.767 14.8122C11.9831 15.2902 11.3364 15.9632 10.89 16.7655C8.95597 20.1139 10.3986 25.035 12.2512 27.7416C13.1781 29.0669 14.2613 30.5474 15.6788 30.4949C17.0659 30.4374 17.5839 29.6104 19.2582 29.6104C20.917 29.6104 21.403 30.4949 22.8492 30.4615C24.3376 30.4373 25.2753 29.1303 26.1697 27.7924C26.8357 26.848 27.3481 25.8043 27.6881 24.6999C26.8234 24.3341 26.0855 23.7219 25.5664 22.9396C25.0473 22.1574 24.7699 21.2395 24.7689 20.3007Z" fill="white"/>
<path d="M22.0373 12.2109C22.8488 11.2367 23.2486 9.9845 23.1518 8.72027C21.9119 8.85049 20.7667 9.44305 19.9442 10.3799C19.5421 10.8375 19.2341 11.37 19.0378 11.9468C18.8416 12.5235 18.7609 13.1333 18.8005 13.7413C19.4206 13.7477 20.0341 13.6132 20.5948 13.3482C21.1555 13.0831 21.6487 12.6942 22.0373 12.2109Z" fill="white"/>
<path d="M42.3023 27.1397H37.5689L36.4322 30.4961H34.4273L38.9107 18.0781H40.9937L45.4771 30.4961H43.438L42.3023 27.1397ZM38.0591 25.5908H41.8111L39.9615 20.1436H39.9097L38.0591 25.5908Z" fill="white"/>
<path d="M55.1597 25.9697C55.1597 28.7832 53.6538 30.5908 51.3814 30.5908C50.8057 30.6209 50.2332 30.4883 49.7294 30.2082C49.2256 29.9281 48.8109 29.5117 48.5327 29.0068H48.4897V33.4912H46.6313V21.4424H48.4302V22.9482H48.4644C48.7553 22.4458 49.1771 22.0316 49.6847 21.7497C50.1923 21.4679 50.7669 21.3289 51.3472 21.3477C53.645 21.3477 55.1597 23.1641 55.1597 25.9697ZM53.2495 25.9697C53.2495 24.1367 52.3023 22.9316 50.857 22.9316C49.437 22.9316 48.482 24.1621 48.482 25.9697C48.482 27.794 49.437 29.0156 50.857 29.0156C52.3023 29.0156 53.2495 27.8193 53.2495 25.9697Z" fill="white"/>
<path d="M65.1245 25.9697C65.1245 28.7832 63.6187 30.5908 61.3462 30.5908C60.7706 30.6209 60.1981 30.4883 59.6943 30.2082C59.1905 29.9281 58.7758 29.5117 58.4976 29.0068H58.4546V33.4912H56.5962V21.4424H58.395V22.9482H58.4292C58.7201 22.4458 59.1419 22.0316 59.6495 21.7497C60.1571 21.4679 60.7317 21.3289 61.312 21.3477C63.6099 21.3477 65.1245 23.1641 65.1245 25.9697ZM63.2144 25.9697C63.2144 24.1367 62.2671 22.9316 60.8218 22.9316C59.4019 22.9316 58.4468 24.1621 58.4468 25.9697C58.4468 27.794 59.4019 29.0156 60.8218 29.0156C62.2671 29.0156 63.2144 27.8193 63.2144 25.9697Z" fill="white"/>
<path d="M71.7105 27.0361C71.8482 28.2676 73.0445 29.0761 74.6792 29.0761C76.2456 29.0761 77.3726 28.2675 77.3726 27.1572C77.3726 26.1933 76.6929 25.6162 75.0835 25.2207L73.4742 24.833C71.1939 24.2822 70.1353 23.2158 70.1353 21.4853C70.1353 19.3427 72.0025 17.871 74.6538 17.871C77.2778 17.871 79.0767 19.3427 79.1372 21.4853H77.2612C77.1489 20.246 76.1245 19.498 74.6274 19.498C73.1304 19.498 72.106 20.2548 72.106 21.3564C72.106 22.2343 72.7603 22.7509 74.3608 23.1464L75.729 23.4823C78.2769 24.0849 79.3355 25.1083 79.3355 26.9247C79.3355 29.248 77.4849 30.703 74.5415 30.703C71.7876 30.703 69.9282 29.2821 69.8081 27.036L71.7105 27.0361Z" fill="white"/>
<path d="M83.3462 19.2998V21.4424H85.0679V22.9141H83.3462V27.9053C83.3462 28.6807 83.6909 29.042 84.4478 29.042C84.6522 29.0384 84.8562 29.0241 85.0591 28.999V30.4619C84.7188 30.5255 84.373 30.5543 84.0269 30.5478C82.1939 30.5478 81.479 29.8593 81.479 28.1035V22.9141H80.1626V21.4424H81.479V19.2998H83.3462Z" fill="white"/>
<path d="M86.065 25.9697C86.065 23.1211 87.7427 21.3311 90.359 21.3311C92.984 21.3311 94.6539 23.1211 94.6539 25.9697C94.6539 28.8262 92.9927 30.6084 90.359 30.6084C87.7261 30.6084 86.065 28.8262 86.065 25.9697ZM92.7603 25.9697C92.7603 24.0156 91.8648 22.8623 90.3589 22.8623C88.8531 22.8623 87.9586 24.0244 87.9586 25.9697C87.9586 27.9316 88.8531 29.0762 90.3589 29.0762C91.8648 29.0762 92.7603 27.9316 92.7603 25.9697Z" fill="white"/>
<path d="M96.1861 21.4424H97.9585V22.9834H98.0015C98.1214 22.5021 98.4034 22.0768 98.8 21.7789C99.1966 21.481 99.6836 21.3287 100.179 21.3476C100.393 21.3469 100.607 21.3702 100.816 21.417V23.1553C100.546 23.0726 100.264 23.0347 99.981 23.043C99.711 23.032 99.4419 23.0796 99.192 23.1825C98.9422 23.2854 98.7175 23.4411 98.5336 23.639C98.3496 23.8369 98.2106 24.0723 98.1262 24.3289C98.0418 24.5856 98.0139 24.8575 98.0445 25.126V30.4961H96.1861L96.1861 21.4424Z" fill="white"/>
<path d="M109.384 27.8369C109.134 29.4805 107.534 30.6084 105.486 30.6084C102.852 30.6084 101.217 28.8437 101.217 26.0127C101.217 23.1728 102.861 21.3311 105.408 21.3311C107.913 21.3311 109.488 23.0517 109.488 25.7969V26.4336H103.093V26.5459C103.064 26.8791 103.105 27.2148 103.216 27.5306C103.326 27.8464 103.502 28.1352 103.732 28.3778C103.963 28.6203 104.242 28.8111 104.552 28.9374C104.861 29.0637 105.195 29.1226 105.529 29.1103C105.968 29.1515 106.409 29.0498 106.785 28.8203C107.162 28.5909 107.455 28.246 107.62 27.8369L109.384 27.8369ZM103.102 25.1348H107.628C107.645 24.8352 107.6 24.5354 107.495 24.2541C107.39 23.9729 107.229 23.7164 107.02 23.5006C106.812 23.2849 106.561 23.1145 106.283 23.0003C106.006 22.8861 105.708 22.8305 105.408 22.8369C105.105 22.8351 104.805 22.8932 104.525 23.008C104.245 23.1227 103.99 23.2918 103.776 23.5054C103.562 23.7191 103.392 23.973 103.276 24.2527C103.16 24.5323 103.101 24.8321 103.102 25.1348Z" fill="white"/>
<path d="M35.6709 14.6977V8.731H38.0694C39.1905 8.731 39.8643 9.30131 39.8643 10.2193C39.8645 10.5208 39.7606 10.8132 39.57 11.0469C39.3794 11.2806 39.1138 11.4412 38.8184 11.5015V11.5718C39.185 11.5892 39.5304 11.7487 39.7813 12.0165C40.0322 12.2844 40.1688 12.6395 40.1621 13.0064C40.1621 14.0567 39.3975 14.6978 38.1231 14.6978L35.6709 14.6977ZM36.5977 11.2573H37.6973C38.5166 11.2573 38.9424 10.9556 38.9424 10.3892C38.9424 9.83887 38.541 9.5166 37.8545 9.5166H36.5977V11.2573ZM37.9375 13.9121C38.7725 13.9121 39.2149 13.5727 39.2149 12.9404C39.2149 12.3159 38.7559 11.9893 37.8838 11.9893H36.5977V13.9121H37.9375Z" fill="white"/>
<path d="M41.1143 13.4243C41.1143 12.6138 41.7178 12.1465 42.7891 12.0801L44.0088 12.0098V11.6211C44.0088 11.1455 43.6944 10.877 43.0869 10.877C42.5909 10.877 42.2471 11.0591 42.1485 11.3774H41.2881C41.3789 10.604 42.1065 10.1079 43.128 10.1079C44.2569 10.1079 44.8936 10.6699 44.8936 11.6211V14.6978H44.0381V14.0649H43.9678C43.8251 14.2919 43.6247 14.477 43.3871 14.6012C43.1494 14.7254 42.8831 14.7843 42.6153 14.7719C42.4262 14.7916 42.2352 14.7714 42.0544 14.7127C41.8737 14.654 41.7072 14.5581 41.5658 14.4312C41.4244 14.3042 41.3111 14.149 41.2334 13.9756C41.1556 13.8022 41.115 13.6144 41.1143 13.4243ZM44.0088 13.0395V12.6631L42.9092 12.7334C42.2891 12.7749 42.0078 12.9858 42.0078 13.3828C42.0078 13.7881 42.3594 14.0239 42.8428 14.0239C42.9845 14.0383 43.1276 14.024 43.2636 13.9819C43.3996 13.9398 43.5257 13.8708 43.6345 13.7789C43.7433 13.6871 43.8325 13.5743 43.8968 13.4473C43.9611 13.3203 43.9992 13.1816 44.0088 13.0395Z" fill="white"/>
<path d="M46.169 8.86328C46.1621 8.74818 46.19 8.63367 46.249 8.53459C46.308 8.43551 46.3953 8.35642 46.4998 8.30757C46.6042 8.25872 46.7209 8.24235 46.8348 8.26059C46.9486 8.27883 47.0544 8.33083 47.1383 8.40987C47.2223 8.48891 47.2806 8.59133 47.3057 8.70387C47.3307 8.81642 47.3214 8.9339 47.279 9.0411C47.2365 9.1483 47.1628 9.24028 47.0675 9.30512C46.9721 9.36996 46.8595 9.40468 46.7442 9.40478C46.6705 9.40854 46.5968 9.39735 46.5275 9.3719C46.4583 9.34645 46.3949 9.30726 46.3411 9.25667C46.2874 9.20609 46.2445 9.14517 46.2149 9.07756C46.1853 9.00996 46.1697 8.93707 46.169 8.86328ZM46.3008 10.1948H47.1866V14.6978H46.3008L46.3008 10.1948Z" fill="white"/>
<path d="M50.2364 13.1016L49.252 14.6978H48.2764L49.7696 12.4565L48.2637 10.1948H49.3018L50.2696 11.7827H50.3399L51.2989 10.1948H52.2872L50.8028 12.4194L52.3038 14.6978H51.2832L50.3028 13.1016H50.2364Z" fill="white"/>
<path d="M53.0879 13.4243C53.0879 12.6138 53.6914 12.1465 54.7627 12.0801L55.9825 12.0098V11.6211C55.9825 11.1455 55.668 10.877 55.0606 10.877C54.5645 10.877 54.2207 11.0591 54.1221 11.3774H53.2618C53.3526 10.604 54.0801 10.1079 55.1016 10.1079C56.2305 10.1079 56.8672 10.6699 56.8672 11.6211V14.6978H56.0118V14.0649H55.9414C55.7987 14.2919 55.5983 14.477 55.3607 14.6012C55.1231 14.7254 54.8567 14.7843 54.5889 14.7719C54.3999 14.7916 54.2088 14.7714 54.028 14.7127C53.8473 14.654 53.6808 14.5581 53.5394 14.4312C53.398 14.3042 53.2848 14.149 53.207 13.9756C53.1292 13.8022 53.0887 13.6144 53.0879 13.4243ZM55.9825 13.0395V12.6631L54.8828 12.7334C54.2627 12.7749 53.9815 12.9858 53.9815 13.3828C53.9815 13.7881 54.333 14.0239 54.8165 14.0239C54.9581 14.0383 55.1012 14.024 55.2372 13.9819C55.3732 13.9398 55.4994 13.8708 55.6081 13.7789C55.7169 13.6871 55.8061 13.5743 55.8704 13.4473C55.9347 13.3203 55.9728 13.1816 55.9825 13.0395Z" fill="white"/>
<path d="M58.2588 10.1948H59.1143V10.8852H59.1807C59.2765 10.6456 59.4457 10.4424 59.6642 10.3049C59.8826 10.1675 60.139 10.1028 60.3965 10.1201C60.5296 10.1183 60.6625 10.1308 60.793 10.1572V11.0342C60.6299 10.9994 60.4637 10.9814 60.2969 10.9805C60.1503 10.9673 60.0026 10.985 59.8633 11.0323C59.7239 11.0796 59.596 11.1556 59.4878 11.2553C59.3795 11.355 59.2933 11.4762 59.2347 11.6112C59.1761 11.7462 59.1464 11.8919 59.1475 12.0391V14.6978H58.2588L58.2588 10.1948Z" fill="white"/>
<path d="M64.2178 10.1948H65.0738V10.9101H65.1402C65.2529 10.6532 65.4429 10.4379 65.6837 10.2941C65.9246 10.1502 66.2043 10.0852 66.484 10.1079C66.7031 10.0914 66.9231 10.1245 67.1277 10.2046C67.3323 10.2847 67.5162 10.4098 67.6659 10.5706C67.8156 10.7314 67.9271 10.9239 67.9923 11.1337C68.0575 11.3435 68.0747 11.5653 68.0425 11.7827V14.6977H67.1539V12.0059C67.1539 11.2822 66.8394 10.9224 66.1822 10.9224C66.0334 10.9154 65.8849 10.9407 65.7469 10.9966C65.6088 11.0524 65.4845 11.1374 65.3824 11.2458C65.2802 11.3542 65.2027 11.4834 65.1552 11.6245C65.1077 11.7656 65.0912 11.9154 65.107 12.0635V14.6977H64.2178L64.2178 10.1948Z" fill="white"/>
<path d="M69.1607 13.4243C69.1607 12.6138 69.7642 12.1465 70.8355 12.0801L72.0552 12.0098V11.6211C72.0552 11.1455 71.7408 10.877 71.1333 10.877C70.6372 10.877 70.2935 11.0591 70.1948 11.3774H69.3345C69.4253 10.604 70.1529 10.1079 71.1743 10.1079C72.3032 10.1079 72.94 10.6699 72.94 11.6211V14.6978H72.0845V14.0649H72.0142C71.8715 14.2919 71.6711 14.477 71.4334 14.6012C71.1958 14.7254 70.9295 14.7843 70.6616 14.7719C70.4726 14.7916 70.2816 14.7714 70.1008 14.7127C69.92 14.654 69.7536 14.5581 69.6122 14.4312C69.4707 14.3042 69.3575 14.149 69.2797 13.9756C69.202 13.8022 69.1614 13.6144 69.1607 13.4243ZM72.0552 13.0395V12.6631L70.9556 12.7334C70.3355 12.7749 70.0542 12.9858 70.0542 13.3828C70.0542 13.7881 70.4058 14.0239 70.8892 14.0239C71.0309 14.0383 71.1739 14.024 71.31 13.9819C71.446 13.9398 71.5721 13.8708 71.6809 13.7789C71.7897 13.6871 71.8789 13.5743 71.9432 13.4473C72.0075 13.3203 72.0456 13.1816 72.0552 13.0395Z" fill="white"/>
</g>
<defs>
<clipPath id="clip0_164_448">
<rect width="119.664" height="40" fill="white"/>
</clipPath>
</defs>
</svg>
