<svg width="60" height="60" viewBox="0 0 60 60" fill="none" xmlns="http://www.w3.org/2000/svg"> <circle cx="30" cy="30" r="30" fill="#F8F8F8"></circle> <path d="M35 31.25L43.705 36.3275L39.9887 37.39L42.645 41.9913L40.48 43.2413L37.8238 38.6413L35.045 41.3288L35 31.25ZM32.5 22.5H35V25H41.25C41.5815 25 41.8995 25.1317 42.1339 25.3661C42.3682 25.6005 42.5 25.9185 42.5 26.25V31.25H40V27.5H27.5V40H32.5V42.5H26.25C25.9185 42.5 25.6005 42.3682 25.3661 42.1339C25.1317 41.8995 25 41.5815 25 41.25V35H22.5V32.5H25V26.25C25 25.9185 25.1317 25.6005 25.3661 25.3661C25.6005 25.1317 25.9185 25 26.25 25H32.5V22.5ZM20 32.5V35H17.5V32.5H20ZM20 27.5V30H17.5V27.5H20ZM20 22.5V25H17.5V22.5H20ZM20 17.5V20H17.5V17.5H20ZM25 17.5V20H22.5V17.5H25ZM30 17.5V20H27.5V17.5H30ZM35 17.5V20H32.5V17.5H35Z" fill="#652D90"></path> </svg>