<svg width="32" height="32" viewBox="0 0 23 23" fill="none" xmlns="http://www.w3.org/2000/svg"> <path d="M20.414 3.09624L20.789 4.15069C20.805 4.19584 20.8368 4.2316 20.8769 4.2497L21.8137 4.67179C21.9461 4.73144 21.9461 4.9423 21.8137 5.00192L20.8769 5.424C20.8368 5.44206 20.805 5.47786 20.789 5.52301L20.414 6.57746C20.361 6.72642 20.1736 6.72642 20.1207 6.57746L19.7457 5.52301C19.7296 5.47786 19.6978 5.44211 19.6577 5.424L18.7209 5.00192C18.5886 4.9423 18.5886 4.7314 18.7209 4.67179L19.6577 4.2497C19.6978 4.23164 19.7296 4.19584 19.7457 4.15069L20.1207 3.09624C20.1736 2.94728 20.361 2.94728 20.414 3.09624Z" fill="#652D90"></path> <path d="M6.39753 0.0828809L6.67569 0.865061C6.68759 0.898527 6.71118 0.925076 6.74092 0.938508L7.43586 1.25161C7.53406 1.29586 7.53406 1.45228 7.43586 1.49648L6.74092 1.80959C6.71118 1.82297 6.68759 1.84952 6.67569 1.88304L6.39753 2.66522C6.35823 2.77572 6.21924 2.77572 6.17993 2.66522L5.90178 1.88304C5.88987 1.84957 5.86629 1.82302 5.83655 1.80959L5.14161 1.49648C5.04345 1.45223 5.04345 1.29582 5.14161 1.25161L5.83655 0.938508C5.86629 0.925121 5.88987 0.898572 5.90178 0.865061L6.17993 0.0828809C6.21924 -0.027627 6.35823 -0.027627 6.39753 0.0828809Z" fill="#652D90"></path> <path d="M17.7558 1.7161C17.7558 2.0204 17.5092 2.26707 17.2049 2.26707C16.9006 2.26707 16.6539 2.02036 16.6539 1.7161C16.6539 1.4118 16.9005 1.16509 17.2049 1.16509C17.5092 1.16509 17.7558 1.41176 17.7558 1.7161Z" fill="#652D90"></path> <path d="M2.71476 4.7853C2.71476 5.23479 2.35036 5.5992 1.90087 5.5992C1.45138 5.5992 1.08698 5.23479 1.08698 4.7853C1.08698 4.33582 1.45138 3.97141 1.90087 3.97141C2.35036 3.97145 2.71476 4.33582 2.71476 4.7853Z" fill="#652D90"></path> <path d="M11.1188 23C5.98789 23 1.81366 18.8257 1.81366 13.6949C1.81366 8.56404 5.98789 4.38977 11.1188 4.38977C16.2497 4.38977 20.4239 8.56404 20.4239 13.6949C20.4239 18.8257 16.2496 23 11.1188 23ZM11.1188 5.29324C6.48607 5.29324 2.71717 9.06218 2.71717 13.6948C2.71717 18.3275 6.48612 22.0965 11.1188 22.0965C15.7514 22.0965 19.5204 18.3275 19.5204 13.6949C19.5204 9.06223 15.7514 5.29324 11.1188 5.29324Z" fill="#652D90"></path> <path d="M9.02589 11.6118C8.77644 11.6118 8.57416 11.4096 8.57416 11.1601C8.57416 10.4668 8.01012 9.90271 7.31684 9.90271C6.62351 9.90271 6.05947 10.4668 6.05947 11.1601C6.05947 11.4096 5.85719 11.6118 5.60774 11.6118C5.35829 11.6118 5.15601 11.4096 5.15601 11.1601C5.15601 9.96857 6.12537 8.99924 7.31688 8.99924C8.50835 8.99924 9.47772 9.96861 9.47772 11.1601C9.47762 11.4096 9.27534 11.6118 9.02589 11.6118Z" fill="#652D90"></path> <path d="M16.6299 11.6118C16.3804 11.6118 16.1782 11.4096 16.1782 11.1601C16.1782 10.4668 15.6141 9.90271 14.9208 9.90271C14.2275 9.90271 13.6635 10.4668 13.6635 11.1601C13.6635 11.4096 13.4612 11.6118 13.2117 11.6118C12.9623 11.6118 12.76 11.4096 12.76 11.1601C12.76 9.96857 13.7294 8.99924 14.9208 8.99924C16.1123 8.99924 17.0817 9.96861 17.0817 11.1601C17.0816 11.4096 16.8793 11.6118 16.6299 11.6118Z" fill="#652D90"></path> <path d="M17.1309 13.4108H5.1067C4.85725 13.4108 4.65497 13.613 4.65497 13.8625C4.65497 17.4266 7.55463 20.3263 11.1188 20.3263C14.6829 20.3263 17.5826 17.4266 17.5826 13.8625C17.5826 13.613 17.3803 13.4108 17.1309 13.4108ZM7.68706 18.2341C8.30361 17.2459 9.63352 16.6014 11.1188 16.6014C12.604 16.6014 13.9339 17.2459 14.5505 18.2341C13.6047 18.9782 12.4128 19.4228 11.1188 19.4228C9.8248 19.4228 8.63284 18.9782 7.68706 18.2341ZM15.2204 17.6123C14.4062 16.4474 12.8405 15.6979 11.1187 15.6979C9.39697 15.6979 7.83103 16.4473 7.017 17.6122C6.20706 16.727 5.67883 15.5799 5.57654 14.3143H16.6609C16.5586 15.5799 16.0304 16.7271 15.2204 17.6123Z" fill="#652D90"></path> </svg>