<svg width="11" height="16" viewBox="0 0 11 16" fill="none" xmlns="http://www.w3.org/2000/svg"> <g clip-path="url(#clip0_157_148)"> <path d="M5.4 11.64C6.59569 10.7197 7.65285 9.63224 8.53901 8.41101C9.17574 7.57618 9.54555 6.56854 9.60001 5.52002C9.62109 4.82834 9.4735 4.14192 9.17 3.52002C8.91044 3.00715 8.54989 2.55202 8.11001 2.18201C7.70749 1.84653 7.24401 1.59188 6.745 1.43201C6.31139 1.28684 5.85819 1.20861 5.40101 1.20001C4.94382 1.20861 4.49062 1.28684 4.05701 1.43201C3.558 1.59188 3.09453 1.84653 2.69201 2.18201C2.25212 2.55202 1.89157 3.00715 1.63201 3.52002C1.32851 4.14192 1.18092 4.82834 1.202 5.52002C1.25646 6.56854 1.62627 7.57618 2.26301 8.41101C3.14854 9.6321 4.205 10.7196 5.4 11.64ZM5.4 13.16C3.85092 12.0596 2.47852 10.7297 1.33001 9.216C0.511677 8.15498 0.0465342 6.86415 5.14521e-06 5.52502C-0.0178149 4.70009 0.149634 3.88165 0.490011 3.13C0.793756 2.47443 1.22555 1.88624 1.76 1.40002C2.26697 0.941243 2.8578 0.584664 3.50001 0.349976C4.10782 0.122462 4.75101 0.00400357 5.4 0C6.04898 0.00408714 6.69217 0.122543 7.30001 0.349976C7.94222 0.584641 8.53304 0.941223 9.04 1.40002C9.57458 1.88652 10.0064 2.47503 10.31 3.13098C10.6507 3.88428 10.8182 4.70443 10.8 5.53101C10.754 6.87024 10.2888 8.16123 9.47001 9.22198C8.3204 10.733 6.9481 12.0608 5.4 13.16ZM5.4 6.79999C5.58412 6.80266 5.76683 6.76747 5.93679 6.69659C6.10675 6.62572 6.26033 6.52069 6.38801 6.388C6.52016 6.2596 6.62469 6.10554 6.6952 5.9353C6.7657 5.76507 6.80068 5.58225 6.79801 5.39801C6.80068 5.21389 6.76549 5.03116 6.69462 4.86121C6.62374 4.69125 6.5187 4.53765 6.38601 4.40997C6.2576 4.27782 6.10356 4.17335 5.93332 4.10284C5.76309 4.03234 5.58024 3.99733 5.396 4C5.21188 3.99733 5.02917 4.03252 4.85921 4.10339C4.68926 4.17427 4.53568 4.27929 4.40801 4.41199C4.27586 4.54039 4.17132 4.69445 4.10082 4.86469C4.03032 5.03492 3.99533 5.21774 3.99801 5.40198C3.99533 5.5861 4.03053 5.76882 4.1014 5.93878C4.17227 6.10874 4.27732 6.26234 4.41001 6.39001C4.53841 6.52216 4.69245 6.6267 4.86269 6.6972C5.03293 6.76771 5.21576 6.80266 5.4 6.79999ZM5.14521e-06 16V14.8H10.8V16H5.14521e-06Z" fill="#652D90"></path> </g> <defs> <clipPath id="clip0_157_148"> <rect width="10.801" height="16" fill="white"></rect> </clipPath> </defs> </svg>