<svg width="120" height="120" viewBox="0 0 120 120" fill="none" xmlns="http://www.w3.org/2000/svg">
<rect width="120" height="120" fill="white"/>
<g clip-path="url(#clip0_781_17)">
<path d="M83.9336 71.4664C59.2891 71.4664 34.678 71.4664 10.0669 71.4664C10.0669 63.6664 10.0669 55.8664 10.0669 48.0664C43.4002 48.0664 76.7336 48.0664 110.067 48.0664C110.067 55.8664 110.067 63.6664 110.067 71.4664C101.367 71.4664 92.6669 71.4664 83.9336 71.4664ZM57.6791 58.3169C57.7402 57.9596 57.8014 57.6022 57.8625 57.2449C57.9534 57.3002 57.9778 57.3485 57.9926 57.3995C58.7612 60.0605 59.5322 62.7208 60.2913 65.3845C60.3588 65.6215 60.4618 65.6932 60.7037 65.6892C61.6034 65.6744 62.5035 65.6768 63.4032 65.6879C63.6224 65.6906 63.7011 65.6277 63.7442 65.4031C64.3954 62.0047 65.0593 58.6087 65.7188 55.2119C65.8236 54.6716 65.9211 54.1299 66.0259 53.5685C65.0396 53.5685 64.0979 53.5685 63.0562 53.5685C62.6407 56.2793 62.2238 58.9991 61.8117 61.6873C61.8055 61.6706 61.7787 61.6124 61.7618 61.5515C61.0846 59.1184 60.4112 56.6842 59.7299 54.2523C59.5625 53.6547 59.5509 53.658 58.9442 53.658C58.3776 53.658 57.811 53.658 57.2444 53.658C56.7909 53.658 56.3374 53.658 55.8773 53.658C55.0989 57.6754 54.3262 61.6641 53.5475 65.6831C54.448 65.6831 55.3021 65.6885 56.1558 65.6743C56.2363 65.673 56.3712 65.5586 56.3859 65.4792C56.8219 63.1125 57.246 60.7436 57.6791 58.3169ZM32.0333 53.6616C29.3727 53.1294 27.1032 53.8168 25.3313 55.8985C24.293 57.1183 23.8208 58.5954 23.6751 60.1743C23.5866 61.1326 23.6414 62.0855 24.0079 62.9917C24.7657 64.8652 26.2132 65.8023 28.1792 65.9582C30.9203 66.1754 33.3783 65.042 34.7086 62.4555C35.3831 61.1439 35.6443 59.7272 35.5745 58.2655C35.4593 55.8525 34.2779 54.3261 32.0333 53.6616ZM44.0286 61.8775C43.887 61.2226 43.5916 60.6601 43.0263 60.2897C43.5133 60.0178 43.9853 59.7959 44.413 59.508C46.1351 58.3486 46.3863 55.3062 44.1326 54.2405C43.7263 54.0484 43.2882 53.8848 42.8475 53.8113C41.1241 53.5237 39.3983 53.6276 37.6739 53.8474C37.3831 53.8845 37.2668 53.9917 37.2136 54.279C36.5094 58.0835 35.7929 61.8859 35.0819 65.6892C35.067 65.7691 35.08 65.8542 35.08 65.9385C36.108 65.9385 37.1148 65.9385 38.1329 65.9385C38.158 65.817 38.1821 65.7094 38.2025 65.6012C38.4141 64.4791 38.6201 63.3559 38.8379 62.2349C38.9981 61.4099 39.0049 61.4112 39.8542 61.4638C40.4048 61.4979 40.753 61.7486 40.9022 62.2773C40.9889 62.5845 41.0213 62.9083 41.0627 63.2266C41.1797 64.1256 41.2887 65.0257 41.4021 65.9353C42.4923 65.9353 43.541 65.9353 44.5922 65.9353C44.4087 64.5868 44.228 63.2582 44.0286 61.8775ZM54.8446 54.6099C54.895 54.3083 54.9454 54.0067 54.9974 53.6949C52.4147 53.6949 49.8637 53.6949 47.2927 53.6949C46.5106 57.7303 45.7309 61.7534 44.9492 65.7871C47.5987 65.7871 50.2244 65.7871 52.8498 65.7871C53.0036 64.916 53.1531 64.0691 53.3102 63.1789C51.6626 63.1789 50.0608 63.1789 48.4254 63.1789C48.5869 62.4042 48.7396 61.6721 48.8967 60.919C50.3537 60.919 51.7817 60.919 53.2211 60.919C53.4407 60.0389 53.6544 59.1825 53.8782 58.2857C52.4259 58.2857 51.0101 58.2857 49.5561 58.2857C49.6845 57.6096 49.8054 56.9731 49.9292 56.321C51.4808 56.321 52.9998 56.321 54.5337 56.321C54.6346 55.7565 54.732 55.211 54.8446 54.6099ZM78.4336 65.8121C79.574 65.8121 80.7145 65.8121 81.8541 65.8121C82.0125 64.9224 82.1636 64.0734 82.3205 63.1921C80.6881 63.1921 79.0809 63.1921 77.4347 63.1921C77.594 62.4227 77.7459 61.6888 77.9045 60.9225C79.3588 60.9225 80.7968 60.9225 82.232 60.9225C82.4534 60.0311 82.6659 59.1753 82.8899 58.2733C81.4252 58.2733 80.0105 58.2733 78.5655 58.2733C78.6962 57.5963 78.8189 56.9608 78.9426 56.3199C80.4966 56.3199 82.0061 56.3199 83.5443 56.3199C83.6697 55.445 83.7936 54.5804 83.9193 53.7033C83.8465 53.6933 83.793 53.6795 83.7395 53.6795C81.34 53.6784 78.9405 53.681 76.5411 53.674C76.3345 53.6734 76.2895 53.7566 76.2544 53.9391C75.6198 57.2387 74.9767 60.5366 74.3365 63.8351C74.2107 64.483 74.0892 65.1316 73.9596 65.8121C75.4597 65.8121 76.9133 65.8121 78.4336 65.8121ZM69.5936 57.8924C67.8772 59.9023 66.1607 61.9121 64.4455 63.923C64.3886 63.9897 64.3185 64.0615 64.2996 64.1415C64.1736 64.6764 64.0598 65.2141 63.9408 65.7568C67.0908 65.7568 70.2065 65.7568 73.3398 65.7568C73.4964 64.8808 73.6499 64.0222 73.8108 63.1221C72.1013 63.1221 70.423 63.1221 68.681 63.1221C68.7914 62.985 68.8567 62.9001 68.9259 62.8185C70.9032 60.4911 72.8811 58.1642 74.858 55.8365C74.951 55.727 75.0865 55.6227 75.1164 55.4957C75.2576 54.8958 75.369 54.2889 75.4957 53.6612C72.5581 53.6612 69.6645 53.6612 66.7516 53.6612C66.5969 54.5303 66.4445 55.3861 66.2851 56.2812C67.8347 56.2812 69.3488 56.2812 70.9607 56.2812C70.477 56.8512 70.0505 57.3537 69.5936 57.8924ZM92.2648 54.3583C92.2986 54.1779 92.3325 53.9976 92.3673 53.8118C89.6537 53.8118 86.9722 53.8118 84.2914 53.8118C84.106 54.6841 83.9255 55.533 83.7376 56.417C84.7881 56.417 85.7941 56.417 86.8367 56.417C86.2403 59.5595 85.6502 62.6687 85.0538 65.8118C86.054 65.8118 87.018 65.8166 87.9817 65.8022C88.0552 65.8011 88.1755 65.6736 88.192 65.5888C88.6231 63.3689 89.0433 61.1469 89.4656 58.9253C89.6244 58.0903 89.7836 57.2554 89.9478 56.3934C90.5912 56.3934 91.2076 56.3934 91.8241 56.3934C91.9727 55.7129 92.1142 55.0641 92.2648 54.3583ZM93.6678 58.8336C93.2281 61.1491 92.7885 63.4646 92.3458 65.7963C93.3956 65.7963 94.4133 65.7963 95.4475 65.7963C96.0432 62.6645 96.6367 59.5445 97.2334 56.4071C98.2823 56.4071 99.3012 56.4071 100.336 56.4071C100.522 55.5336 100.705 54.6799 100.892 53.8063C98.2118 53.8063 95.5633 53.8063 92.8997 53.8063C92.7146 54.6731 92.5327 55.5249 92.3416 56.4194C92.9507 56.4194 93.5301 56.4194 94.1274 56.4194C93.9713 57.2323 93.823 58.0047 93.6678 58.8336ZM17.5002 65.7309C19.4946 65.7309 21.4889 65.7309 23.493 65.7309C23.651 64.8343 23.8015 63.9797 23.96 63.0802C22.3967 63.0802 20.8928 63.0802 19.3581 63.0802C19.9555 59.9314 20.5451 56.8234 21.1399 53.6883C20.1366 53.6883 19.1823 53.693 18.2282 53.6846C18.0124 53.6827 18.0157 53.8159 17.9882 53.9624C17.4408 56.8833 16.8895 59.8035 16.3405 62.7242C16.1542 63.715 15.9722 64.7066 15.7821 65.7309C16.3488 65.7309 16.8912 65.7309 17.5002 65.7309ZM99.706 62.2006C99.474 63.3941 99.2419 64.5876 99.0081 65.7906C100.063 65.7906 101.089 65.7906 102.112 65.7906C102.895 61.7516 103.672 57.7381 104.453 53.7059C103.397 53.7059 102.38 53.7059 101.354 53.7059C101.288 54.0359 101.224 54.3503 101.163 54.6655C100.681 57.1587 100.2 59.652 99.706 62.2006Z" fill="#C80A14"/>
<path d="M57.6754 58.3458C57.2459 60.7434 56.8218 63.1123 56.3857 65.479C56.3711 65.5584 56.2362 65.6728 56.1557 65.6741C55.3019 65.6884 54.4479 65.6829 53.5474 65.6829C54.326 61.6639 55.0988 57.6752 55.8772 53.6578C56.3373 53.6578 56.7908 53.6578 57.2443 53.6578C57.8109 53.6578 58.3775 53.6578 58.9441 53.6578C59.5508 53.6578 59.5624 53.6545 59.7298 54.2521C60.411 56.6841 61.0845 59.1182 61.7617 61.5513C61.7786 61.6122 61.8053 61.6704 61.8116 61.6871C62.2236 58.9989 62.6405 56.2791 63.0561 53.5684C64.0978 53.5684 65.0395 53.5684 66.0257 53.5684C65.921 54.1298 65.8235 54.6714 65.7186 55.2117C65.0592 58.6085 64.3953 62.0045 63.7441 65.4029C63.701 65.6275 63.6223 65.6904 63.4031 65.6877C62.5034 65.6767 61.6032 65.6742 60.7036 65.689C60.4617 65.693 60.3587 65.6214 60.2912 65.3844C59.5321 62.7206 58.7611 60.0603 57.9925 57.3993C57.9777 57.3483 57.9533 57.3001 57.8624 57.2447C57.8013 57.602 57.7401 57.9594 57.6754 58.3458Z" fill="#FFFEFE"/>
<path d="M32.0601 53.6658C34.2776 54.326 35.4589 55.8525 35.5741 58.2654C35.6439 59.7272 35.3827 61.1439 34.7082 62.4554C33.378 65.042 30.9199 66.1754 28.1788 65.9581C26.2129 65.8023 24.7653 64.8651 24.0075 62.9917C23.641 62.0855 23.5863 61.1326 23.6747 60.1743C23.8205 58.5954 24.2926 57.1183 25.3309 55.8985C27.1028 53.8167 29.3723 53.1294 32.0601 53.6658ZM31.9615 60.6583C32.2135 59.8453 32.3327 59.0168 32.2667 58.1642C32.1479 56.6271 31.1117 55.799 29.6207 56.0709C28.9031 56.2017 28.3666 56.6241 27.9799 57.2243C27.1982 58.4373 26.8586 59.7802 26.9525 61.2124C27.0407 62.5574 27.7381 63.314 28.9422 63.4355C29.851 63.5272 30.5947 63.1544 31.0923 62.4238C31.4482 61.9012 31.6649 61.2839 31.9615 60.6583Z" fill="#FFFEFE"/>
<path d="M44.0379 61.9037C44.228 63.2584 44.4087 64.587 44.5921 65.9355C43.541 65.9355 42.4922 65.9355 41.4021 65.9355C41.2887 65.0259 41.1796 64.1259 41.0627 63.2268C41.0212 62.9085 40.9889 62.5847 40.9022 62.2775C40.753 61.7488 40.4048 61.4981 39.8541 61.464C39.0048 61.4114 38.9981 61.4101 38.8378 62.2352C38.62 63.3561 38.414 64.4793 38.2024 65.6014C38.182 65.7096 38.158 65.8172 38.1328 65.9388C37.1148 65.9388 36.108 65.9388 35.08 65.9388C35.08 65.8545 35.0669 65.7693 35.0819 65.6894C35.7929 61.8861 36.5093 58.0838 37.2136 54.2792C37.2668 53.9919 37.3831 53.8847 37.6739 53.8476C39.3983 53.6278 41.1241 53.5239 42.8475 53.8115C43.2881 53.885 43.7263 54.0486 44.1325 54.2407C46.3862 55.3064 46.1351 58.3488 44.4129 59.5082C43.9853 59.7961 43.5132 60.018 43.0263 60.2899C43.5916 60.6603 43.887 61.2228 44.0379 61.9037ZM39.7705 59.0001C40.0035 58.9993 40.2371 59.0096 40.4692 58.9956C41.0603 58.9597 41.6116 58.8046 42.0254 58.3516C42.4178 57.9222 42.5723 57.4095 42.3973 56.8442C42.2365 56.3243 41.8009 56.1168 41.3069 56.0495C40.947 56.0005 40.5784 56.0127 40.2136 56.0036C39.9455 55.9969 39.7746 56.0887 39.7774 56.4019C39.779 56.5761 39.7189 56.7504 39.6911 56.9254C39.5827 57.6085 39.4762 58.2919 39.3651 59.0001C39.5075 59.0001 39.6062 59.0001 39.7705 59.0001Z" fill="#FFFEFE"/>
<path d="M54.8366 54.6381C54.7315 55.2114 54.6341 55.7569 54.5333 56.3214C52.9994 56.3214 51.4803 56.3214 49.9288 56.3214C49.8049 56.9735 49.684 57.61 49.5556 58.2861C51.0097 58.2861 52.4254 58.2861 53.8778 58.2861C53.654 59.1829 53.4403 60.0393 53.2206 60.9194C51.7813 60.9194 50.3533 60.9194 48.8962 60.9194C48.7392 61.6725 48.5865 62.4046 48.4249 63.1793C50.0603 63.1793 51.6622 63.1793 53.3098 63.1793C53.1526 64.0696 53.0031 64.9164 52.8493 65.7875C50.2239 65.7875 47.5982 65.7875 44.9487 65.7875C45.7305 61.7538 46.5102 57.7307 47.2922 53.6953C49.8633 53.6953 52.4143 53.6953 54.997 53.6953C54.9449 54.0071 54.8945 54.3087 54.8366 54.6381Z" fill="#FFFDFD"/>
<path d="M78.4001 65.812C76.9132 65.812 75.4596 65.812 73.9595 65.812C74.0891 65.1315 74.2106 64.4828 74.3363 63.835C74.9766 60.5365 75.6196 57.2385 76.2542 53.939C76.2893 53.7565 76.3344 53.6732 76.5409 53.6738C78.9404 53.6808 81.3399 53.6782 83.7394 53.6794C83.7929 53.6794 83.8463 53.6932 83.9192 53.7032C83.7935 54.5802 83.6695 55.4449 83.5442 56.3197C82.006 56.3197 80.4965 56.3197 78.9424 56.3197C78.8187 56.9606 78.6961 57.5962 78.5654 58.2732C80.0104 58.2732 81.4251 58.2732 82.8898 58.2732C82.6658 59.1751 82.4532 60.031 82.2318 60.9224C80.7967 60.9224 79.3587 60.9224 77.9044 60.9224C77.7458 61.6887 77.5939 62.4226 77.4346 63.192C79.0808 63.192 80.688 63.192 82.3204 63.192C82.1635 64.0733 82.0124 64.9223 81.854 65.812C80.7144 65.812 79.5739 65.812 78.4001 65.812Z" fill="#FFFDFD"/>
<path d="M69.6084 57.8742C70.0501 57.3537 70.4766 56.8511 70.9604 56.2811C69.3485 56.2811 67.8344 56.2811 66.2848 56.2811C66.4442 55.386 66.5965 54.5302 66.7513 53.6611C69.6641 53.6611 72.5578 53.6611 75.4954 53.6611C75.3687 54.2888 75.2573 54.8958 75.116 55.4957C75.0861 55.6226 74.9507 55.7269 74.8577 55.8364C72.8808 58.1641 70.9029 60.491 68.9256 62.8184C68.8563 62.9 68.7911 62.9849 68.6806 63.122C70.4226 63.122 72.101 63.122 73.8104 63.122C73.6495 64.0221 73.496 64.8807 73.3394 65.7567C70.2061 65.7567 67.0905 65.7567 63.9404 65.7567C64.0595 65.2141 64.1732 64.6763 64.2993 64.1414C64.3181 64.0614 64.3882 63.9896 64.4451 63.9229C66.1603 61.912 67.8769 59.9022 69.6084 57.8742Z" fill="#FFFDFD"/>
<path d="M92.26 54.3874C92.1139 55.0647 91.9723 55.7136 91.8238 56.3941C91.2073 56.3941 90.5909 56.3941 89.9475 56.3941C89.7833 57.2561 89.6241 58.091 89.4653 58.926C89.043 61.1476 88.6228 63.3696 88.1917 65.5895C88.1752 65.6742 88.0549 65.8018 87.9814 65.8029C87.0177 65.8173 86.0537 65.8124 85.0535 65.8124C85.6499 62.6694 86.24 59.5602 86.8364 56.4177C85.7938 56.4177 84.7878 56.4177 83.7373 56.4177C83.9252 55.5337 84.1057 54.6848 84.2911 53.8125C86.9719 53.8125 89.6534 53.8125 92.367 53.8125C92.3322 53.9983 92.2983 54.1786 92.26 54.3874Z" fill="#FFFEFE"/>
<path d="M93.6709 58.8057C93.8226 58.005 93.971 57.2326 94.1271 56.4197C93.5298 56.4197 92.9504 56.4197 92.3413 56.4197C92.5324 55.5252 92.7143 54.6734 92.8994 53.8066C95.563 53.8066 98.2115 53.8066 100.892 53.8066C100.705 54.6802 100.522 55.5339 100.335 56.4074C99.3009 56.4074 98.282 56.4074 97.2331 56.4074C96.6363 59.5448 96.0429 62.6648 95.4472 65.7966C94.413 65.7966 93.3952 65.7966 92.3455 65.7966C92.7882 63.4649 93.2278 61.1494 93.6709 58.8057Z" fill="#FFFEFE"/>
<path d="M17.4665 65.7309C16.8908 65.7309 16.3484 65.7309 15.7817 65.7309C15.9719 64.7065 16.1539 63.7149 16.3401 62.7241C16.8891 59.8035 17.4404 56.8833 17.9879 53.9623C18.0153 53.8158 18.0121 53.6827 18.2278 53.6846C19.182 53.693 20.1363 53.6882 21.1395 53.6882C20.5448 56.8234 19.9551 59.9314 19.3578 63.0801C20.8925 63.0801 22.3963 63.0801 23.9596 63.0801C23.8012 63.9797 23.6506 64.8342 23.4927 65.7309C21.4886 65.7309 19.4942 65.7309 17.4665 65.7309Z" fill="#FEFDFD"/>
<path d="M99.7124 62.1731C100.2 59.6522 100.681 57.1589 101.162 54.6656C101.223 54.3505 101.288 54.0361 101.354 53.7061C102.38 53.7061 103.397 53.7061 104.453 53.7061C103.672 57.7383 102.894 61.7518 102.112 65.7908C101.088 65.7908 100.062 65.7908 99.0078 65.7908C99.2417 64.5878 99.4737 63.3943 99.7124 62.1731Z" fill="#FFFDFD"/>
<path d="M31.9528 60.6843C31.6651 61.2846 31.4484 61.902 31.0925 62.4245C30.595 63.1551 29.8513 63.528 28.9425 63.4363C27.7383 63.3148 27.041 62.5582 26.9528 61.2131C26.8588 59.781 27.1984 58.438 27.9801 57.225C28.3669 56.6249 28.9033 56.2025 29.6209 56.0717C31.112 55.7998 32.1482 56.6278 32.267 58.165C32.3329 59.0175 32.2137 59.8461 31.9528 60.6843Z" fill="#C80A14"/>
<path d="M39.7374 58.9998C39.6059 58.9998 39.5072 58.9998 39.3647 58.9998C39.4759 58.2915 39.5824 57.6081 39.6908 56.925C39.7185 56.7501 39.7787 56.5758 39.7771 56.4016C39.7743 56.0884 39.9452 55.9966 40.2133 56.0033C40.5781 56.0124 40.9467 56.0002 41.3066 56.0492C41.8006 56.1165 42.2362 56.324 42.397 56.8439C42.5719 57.4091 42.4175 57.9219 42.0251 58.3513C41.6112 58.8042 41.06 58.9594 40.4689 58.9952C40.2367 59.0093 40.0031 58.999 39.7374 58.9998Z" fill="#C80B15"/>
</g>
<defs>
<clipPath id="clip0_781_17">
<rect width="100" height="23.4" fill="white" transform="translate(10 48)"/>
</clipPath>
</defs>
</svg>
