<svg width="120" height="120" viewBox="0 0 120 120" fill="none" xmlns="http://www.w3.org/2000/svg">
<mask id="mask0_1_225" style="mask-type:alpha" maskUnits="userSpaceOnUse" x="0" y="0" width="120" height="120">
<rect width="120" height="120" fill="#D9D9D9"/>
</mask>
<g mask="url(#mask0_1_225)">
<path d="M47.5 82.4997L82.5 59.9998L47.5 37.4998V82.4997ZM60 110C53.0833 110 46.5833 108.687 40.5 106.062C34.4166 103.437 29.125 99.8747 24.625 95.3747C20.125 90.8747 16.5625 85.5831 13.9375 79.4998C11.3125 73.4164 9.99998 66.9164 9.99998 59.9998C9.99998 53.0831 11.3125 46.5831 13.9375 40.4998C16.5625 34.4164 20.125 29.1248 24.625 24.6248C29.125 20.1248 34.4166 16.5623 40.5 13.9373C46.5833 11.3123 53.0833 9.99976 60 9.99976C66.9166 9.99976 73.4166 11.3123 79.5 13.9373C85.5833 16.5623 90.875 20.1248 95.375 24.6248C99.875 29.1248 103.437 34.4164 106.062 40.4998C108.687 46.5831 110 53.0831 110 59.9998C110 66.9164 108.687 73.4164 106.062 79.4998C103.437 85.5831 99.875 90.8747 95.375 95.3747C90.875 99.8747 85.5833 103.437 79.5 106.062C73.4166 108.687 66.9166 110 60 110ZM60 99.9997C71.1666 99.9997 80.625 96.1247 88.375 88.3747C96.125 80.6247 100 71.1664 100 59.9998C100 48.8331 96.125 39.3748 88.375 31.6248C80.625 23.8748 71.1666 19.9998 60 19.9998C48.8333 19.9998 39.375 23.8748 31.625 31.6248C23.875 39.3748 20 48.8331 20 59.9998C20 71.1664 23.875 80.6247 31.625 88.3747C39.375 96.1247 48.8333 99.9997 60 99.9997Z" fill="#652D90"/>
</g>
</svg>
