<svg width="16" height="16" viewBox="0 0 16 16" fill="none" xmlns="http://www.w3.org/2000/svg"> <g clip-path="url(#clip0_157_153)"> <path d="M15 15.9999C13.1779 15.9761 11.3834 15.5513 9.744 14.7558C7.89314 13.88 6.21162 12.684 4.777 11.2229C3.31595 9.78826 2.11989 8.1067 1.244 6.25585C0.448509 4.61642 0.0237823 2.82195 -2.10819e-06 0.999868C-0.00358964 0.867637 0.0199334 0.736066 0.0691202 0.613271C0.118307 0.490476 0.192119 0.379067 0.286001 0.285879C0.37919 0.191997 0.490614 0.118207 0.613409 0.0690206C0.736204 0.0198338 0.867767 -0.00371973 0.999998 -0.000132192H4.111C4.21029 -0.0014924 4.30881 0.0175336 4.40048 0.055715C4.49215 0.0938964 4.57503 0.150409 4.644 0.221853C4.79551 0.376049 4.90291 0.568078 4.955 0.777883L5.555 3.56988C5.58603 3.7606 5.58264 3.95536 5.545 4.14489C5.51019 4.31102 5.42745 4.46329 5.307 4.58288L3.08999 6.82189C3.46109 7.45276 3.86913 8.06111 4.31199 8.64385C4.7458 9.21159 5.22111 9.74643 5.734 10.2439C6.27389 10.7994 6.85305 11.3155 7.467 11.7879C8.06889 12.2509 8.70808 12.6633 9.378 13.0209L11.489 10.8429C11.6266 10.6869 11.8044 10.5717 12.003 10.5099C12.1885 10.4515 12.3848 10.4365 12.577 10.4659L15.221 11.0439C15.4396 11.1007 15.6344 11.2257 15.777 11.4009C15.9209 11.5676 15.9997 11.7806 15.999 12.0008V15.0008C16.0026 15.1331 15.9791 15.2646 15.9299 15.3874C15.8807 15.5102 15.8069 15.6217 15.713 15.7149C15.6198 15.8085 15.5085 15.882 15.3859 15.931C15.2633 15.98 15.132 16.0034 15 15.9999ZM2.42199 5.59984L4.222 3.77788L3.711 1.33385H1.333C1.36888 1.99771 1.46935 2.65653 1.633 3.30089C1.83645 4.08639 2.10022 4.85496 2.42199 5.59984ZM10.622 13.6669C11.2581 13.9584 11.9204 14.1891 12.6 14.3559C13.2769 14.5285 13.9693 14.6327 14.667 14.6669V12.2889L12.378 11.8219L10.622 13.6669Z" fill="#652D90"></path> </g> <defs> <clipPath id="clip0_157_153"> <rect width="16" height="16" fill="white"></rect> </clipPath> </defs> </svg>