<svg width="110" height="25" viewBox="0 0 110 25" fill="none" xmlns="http://www.w3.org/2000/svg">
<g clip-path="url(#clip0_16_8)">
<path d="M44.1075 12.5918C44.1075 13.2672 44.0041 13.8704 43.7974 14.403C43.5907 14.9355 43.3066 15.3845 42.9453 15.7506C42.5839 16.1167 42.1623 16.3944 41.6805 16.5835C41.1987 16.7727 40.6762 16.8669 40.1147 16.8669C39.5531 16.8669 39.033 16.7784 38.5569 16.6006C38.0808 16.4236 37.6674 16.1598 37.3174 15.8107C36.9674 15.4616 36.6915 15.0321 36.4913 14.5231C36.2903 14.0141 36.1902 13.4272 36.1902 12.7631C36.1902 12.099 36.2935 11.4869 36.5003 10.9609C36.707 10.4348 36.991 9.99072 37.3524 9.63028C37.7137 9.26983 38.1353 8.99543 38.6171 8.80628C39.0989 8.61712 39.6206 8.52295 40.183 8.52295C40.7454 8.52295 41.2646 8.609 41.7408 8.7803C42.2169 8.95159 42.6295 9.20975 42.9803 9.55315C43.3302 9.89655 43.6053 10.3228 43.8064 10.8318C44.0066 11.3408 44.1075 11.9277 44.1075 12.5918ZM42.5237 12.6779C42.5237 12.1404 42.4545 11.6817 42.317 11.3042C42.1794 10.9268 41.9988 10.6174 41.7749 10.3772C41.5511 10.1369 41.2956 9.96231 41.0091 9.85353C40.7218 9.74474 40.4296 9.69035 40.1317 9.69035C39.8339 9.69035 39.5409 9.73581 39.2544 9.82755C38.9671 9.91928 38.7148 10.0792 38.4975 10.3081C38.2794 10.5371 38.1044 10.8431 37.9726 11.2263C37.8407 11.6095 37.7748 12.0933 37.7748 12.677C37.7748 13.2153 37.844 13.6756 37.9815 14.0588C38.1191 14.4428 38.2997 14.7537 38.5235 14.9948C38.7474 15.2351 39.0021 15.4129 39.2894 15.5265C39.5759 15.641 39.8689 15.6978 40.1667 15.6978C40.4646 15.6978 40.7576 15.6491 41.0441 15.5517C41.3306 15.4543 41.5829 15.2887 41.801 15.0541C42.0191 14.8194 42.1941 14.5109 42.3259 14.127C42.4578 13.7438 42.5237 13.2599 42.5237 12.6762V12.6779Z" fill="#1E1E1E"/>
<path d="M52.5579 12.5918C52.5579 13.2672 52.4545 13.8704 52.2478 14.403C52.0411 14.9355 51.757 15.3845 51.3957 15.7506C51.0343 16.1167 50.6127 16.3944 50.1309 16.5835C49.6491 16.7727 49.1266 16.8669 48.565 16.8669C48.0035 16.8669 47.4834 16.7784 47.0073 16.6006C46.5312 16.4236 46.1177 16.1598 45.7678 15.8107C45.4178 15.4616 45.1419 15.0321 44.9417 14.5231C44.7407 14.0141 44.6406 13.4272 44.6406 12.7631C44.6406 12.099 44.7439 11.4869 44.9506 10.9609C45.1574 10.4348 45.4414 9.99072 45.8028 9.63028C46.1641 9.26983 46.5857 8.99543 47.0675 8.80628C47.5493 8.61712 48.071 8.52295 48.6334 8.52295C49.1958 8.52295 49.715 8.609 50.1911 8.7803C50.6673 8.95159 51.0799 9.20975 51.4307 9.55315C51.7806 9.89655 52.0557 10.3228 52.2567 10.8318C52.457 11.3408 52.5579 11.9277 52.5579 12.5918ZM50.9741 12.6779C50.9741 12.1404 50.9049 11.6817 50.7674 11.3042C50.6298 10.9268 50.4491 10.6174 50.2253 10.3772C50.0015 10.1369 49.746 9.96231 49.4595 9.85353C49.1722 9.74474 48.88 9.69035 48.5821 9.69035C48.2843 9.69035 47.9913 9.73581 47.7048 9.82755C47.4175 9.91928 47.1652 10.0792 46.9479 10.3081C46.7298 10.5371 46.5548 10.8431 46.4229 11.2263C46.2911 11.6095 46.2252 12.0933 46.2252 12.677C46.2252 13.2153 46.2943 13.6756 46.4319 14.0588C46.5694 14.4428 46.7501 14.7537 46.9739 14.9948C47.1977 15.2351 47.4525 15.4129 47.7398 15.5265C48.0263 15.641 48.3193 15.6978 48.6171 15.6978C48.915 15.6978 49.208 15.6491 49.4945 15.5517C49.781 15.4543 50.0333 15.2887 50.2514 15.0541C50.4695 14.8194 50.6445 14.5109 50.7763 14.127C50.9082 13.7438 50.9741 13.2599 50.9741 12.6762V12.6779Z" fill="#1E1E1E"/>
<path d="M55.1045 16.7125H53.5898V8.64375H54.7602L54.984 9.76001C55.3624 9.38251 55.7694 9.08214 56.2056 8.85888C56.6418 8.63563 57.1635 8.52441 57.7715 8.52441C58.3453 8.52441 58.8157 8.64213 59.1827 8.87593C59.5498 9.11055 59.8249 9.43365 60.0088 9.84606C60.4101 9.4231 60.852 9.09675 61.3338 8.86782C61.8156 8.63888 62.3495 8.52441 62.9347 8.52441C63.7608 8.52441 64.3834 8.75578 64.8017 9.21933C65.22 9.68288 65.43 10.3267 65.43 11.1507V16.7125H63.9154V11.4251C63.9154 10.8876 63.8006 10.4752 63.5711 10.1886C63.3416 9.90289 62.9632 9.75919 62.435 9.75919C61.6545 9.75919 60.926 10.1083 60.2489 10.8064C60.2603 10.8641 60.266 10.9209 60.266 10.9777V16.7116H58.7514V11.4242C58.7514 10.8868 58.6366 10.4744 58.4071 10.1878C58.1776 9.90208 57.7992 9.75838 57.271 9.75838C56.4905 9.75838 55.7678 10.1245 55.1028 10.8568V16.7108L55.1045 16.7125Z" fill="#1E1E1E"/>
<path d="M73.7087 5.89697C74.4769 5.89697 75.1891 6.00576 75.8426 6.22333C76.497 6.44089 77.0618 6.764 77.5379 7.19345C78.014 7.62291 78.3868 8.16033 78.657 8.80735C78.9264 9.45438 79.0615 10.2061 79.0615 11.065C79.0615 12.1066 78.9003 12.9874 78.5797 13.7091C78.2582 14.43 77.8252 15.0137 77.2799 15.4602C76.7346 15.9067 76.1039 16.2274 75.3869 16.4214C74.6698 16.6163 73.9097 16.7129 73.1064 16.7129H70.1805V5.89779H73.7087V5.89697ZM71.7643 15.4075H72.9518C73.5027 15.4075 74.0415 15.3474 74.5697 15.2272C75.0971 15.1071 75.5651 14.8838 75.972 14.5575C76.379 14.2311 76.7094 13.7879 76.9617 13.2269C77.214 12.6659 77.3401 11.945 77.3401 11.0642C77.3401 10.4464 77.2482 9.89682 77.065 9.41622C76.8811 8.93562 76.6174 8.53215 76.2732 8.20579C75.9289 7.87944 75.513 7.63103 75.0255 7.45892C74.538 7.28763 73.9959 7.20157 73.3994 7.20157H71.7643V15.4075Z" fill="#1E1E1E"/>
<path d="M81.2125 6.56705C80.9488 6.56705 80.7218 6.47856 80.5329 6.30077C80.3433 6.12379 80.2489 5.90298 80.2489 5.63995C80.2489 5.37692 80.3433 5.15367 80.5329 4.9702C80.7226 4.78754 80.9488 4.6958 81.2125 4.6958C81.4762 4.6958 81.6886 4.78754 81.884 4.9702C82.0793 5.15367 82.177 5.37692 82.177 5.63995C82.177 5.90298 82.0793 6.12379 81.884 6.30077C81.6886 6.47856 81.4648 6.56705 81.2125 6.56705ZM80.4556 16.7124V8.64369H81.9702V16.7124H80.4556Z" fill="#1E1E1E"/>
<path d="M83.5182 11.3213C83.5182 10.8748 83.598 10.477 83.7591 10.1279C83.9194 9.77884 84.1465 9.48415 84.4387 9.24385C84.7317 9.00355 85.0784 8.82332 85.4796 8.70317C85.8809 8.58302 86.3171 8.52295 86.7875 8.52295C86.9592 8.52295 87.1261 8.53432 87.2864 8.55705C87.4467 8.57978 87.6079 8.60819 87.7682 8.6431H91.2622V9.75935H90.7283L89.3512 9.5702C89.5693 9.79913 89.7386 10.0622 89.859 10.3601C89.9795 10.658 90.0397 10.9722 90.0397 11.3042C90.0397 11.7508 89.9592 12.1485 89.7988 12.4976C89.6377 12.8467 89.4139 13.1414 89.1274 13.3817C88.8401 13.622 88.4958 13.8022 88.0946 13.9224C87.6925 14.0425 87.2571 14.1026 86.7867 14.1026C86.431 14.1026 86.121 14.0799 85.8573 14.0336C85.5936 14.1253 85.4096 14.2422 85.3063 14.3859C85.2029 14.5288 85.1516 14.6806 85.1516 14.8406C85.1516 15.1036 85.2404 15.2814 85.4186 15.3723C85.596 15.464 85.8345 15.5095 86.1332 15.5095H88.2671C89.1624 15.5095 89.8477 15.7124 90.3238 16.1192C90.7999 16.5259 91.0383 17.0779 91.0383 17.7761C91.0383 18.2226 90.9407 18.6228 90.7462 18.9776C90.5508 19.3324 90.2725 19.6352 89.9111 19.8876C89.5498 20.1393 89.1111 20.3309 88.5943 20.4624C88.0783 20.5939 87.4988 20.6597 86.8559 20.6597C85.6855 20.6597 84.7528 20.451 84.0594 20.033C83.3652 19.6149 83.0185 19.0003 83.0185 18.1877C83.0185 17.7639 83.1536 17.4092 83.423 17.1234C83.6924 16.8368 84.0456 16.6201 84.481 16.4707C84.2515 16.3108 84.079 16.1419 83.965 15.9641C83.8503 15.7871 83.7933 15.5493 83.7933 15.2513C83.7933 14.8966 83.8991 14.5929 84.1115 14.3413C84.3239 14.0896 84.6137 13.8891 84.9807 13.7405C84.5217 13.5343 84.1636 13.234 83.9048 12.8394C83.6468 12.4449 83.5174 11.9383 83.5174 11.3205L83.5182 11.3213ZM85.36 16.7118C84.7748 16.9748 84.4826 17.3872 84.4826 17.9482C84.4826 18.9549 85.2973 19.459 86.9267 19.459C87.4085 19.459 87.8154 19.4135 88.1483 19.3218C88.4812 19.2301 88.7506 19.1099 88.9573 18.9614C89.164 18.8128 89.3154 18.6464 89.413 18.4637C89.5107 18.2802 89.5595 18.0919 89.5595 17.8971C89.5595 17.4165 89.396 17.099 89.0688 16.944C88.7416 16.7897 88.3314 16.7126 87.8382 16.7126H85.36V16.7118ZM88.5097 11.3562C88.5097 10.7498 88.3518 10.3033 88.036 10.0175C87.7202 9.73175 87.3043 9.58806 86.7883 9.58806C86.2723 9.58806 85.8556 9.73094 85.5407 10.0175C85.2249 10.3041 85.067 10.727 85.067 11.288C85.067 11.8831 85.2249 12.3207 85.5407 12.6015C85.8565 12.8824 86.2723 13.0221 86.7883 13.0221C87.3043 13.0221 87.7202 12.8849 88.036 12.6097C88.3518 12.3353 88.5097 11.9172 88.5097 11.3562Z" fill="#1E1E1E"/>
<path d="M93.139 6.56705C92.8753 6.56705 92.6482 6.47856 92.4594 6.30077C92.2698 6.12379 92.1754 5.90298 92.1754 5.63995C92.1754 5.37692 92.2698 5.15367 92.4594 4.9702C92.649 4.78754 92.8753 4.6958 93.139 4.6958C93.4027 4.6958 93.6151 4.78754 93.8104 4.9702C94.0057 5.15367 94.1034 5.37692 94.1034 5.63995C94.1034 5.90298 94.0057 6.12379 93.8104 6.30077C93.6151 6.47856 93.3913 6.56705 93.139 6.56705ZM92.3821 16.7124V8.64369H93.8967V16.7124H92.3821Z" fill="#1E1E1E"/>
<path d="M99.8167 9.77693H97.4419V14.4636C97.4419 14.8646 97.542 15.1333 97.743 15.2705C97.9432 15.4077 98.2045 15.4767 98.5259 15.4767C98.7554 15.4767 99.0077 15.4507 99.2828 15.3996C99.5579 15.3485 99.7988 15.2884 100.006 15.2194L100.246 16.3697C100.017 16.4615 99.724 16.541 99.3691 16.61C99.0134 16.679 98.6407 16.7131 98.25 16.7131C97.4468 16.7131 96.8616 16.5386 96.4945 16.1895C96.1275 15.8404 95.9435 15.3338 95.9435 14.6706V9.77774H94.739V8.64444H95.9435V6.06934H97.4411V8.64444H99.8159V9.77774L99.8167 9.77693Z" fill="#1E1E1E"/>
<path d="M101.108 9.36546C101.383 9.22826 101.641 9.10487 101.882 8.99608C102.123 8.8873 102.364 8.79881 102.605 8.7298C102.846 8.6608 103.093 8.60966 103.345 8.57556C103.597 8.54146 103.872 8.52441 104.171 8.52441C104.619 8.52441 105.029 8.57312 105.402 8.67054C105.774 8.76796 106.096 8.93114 106.365 9.16007C106.635 9.389 106.844 9.68938 106.993 10.0612C107.142 10.433 107.217 10.8998 107.217 11.46V16.7133H105.961L105.771 15.8203H105.737C105.381 16.1978 104.991 16.4673 104.566 16.6272C104.142 16.7871 103.671 16.8675 103.155 16.8675C102.765 16.8675 102.406 16.8131 102.079 16.7043C101.752 16.5955 101.468 16.4413 101.227 16.2408C100.986 16.0411 100.8 15.7975 100.668 15.511C100.536 15.2252 100.47 14.9045 100.47 14.5498C100.47 13.703 100.806 13.0593 101.477 12.6184C102.148 12.1776 103.035 11.9576 104.136 11.9576H105.685V11.2708C105.685 10.6871 105.536 10.2893 105.237 10.0774C104.938 9.86554 104.537 9.76001 104.033 9.76001C103.734 9.76001 103.393 9.80872 103.009 9.90613C102.624 10.0036 102.185 10.1895 101.692 10.4639L101.107 9.36546H101.108ZM105.703 12.9878L104.429 13.0219C103.569 13.0446 102.957 13.1964 102.596 13.4765C102.235 13.7574 102.054 14.0976 102.054 14.4978C102.054 14.7381 102.094 14.9419 102.175 15.1075C102.254 15.2739 102.361 15.4022 102.493 15.4939C102.625 15.5856 102.779 15.6514 102.957 15.6912C103.135 15.7318 103.321 15.7513 103.517 15.7513C103.895 15.7513 104.279 15.6628 104.67 15.485C105.06 15.308 105.404 15.0247 105.703 14.635V12.987V12.9878Z" fill="#1E1E1E"/>
<path d="M108.697 16.7121V4.52344H110.177V16.7121H108.697Z" fill="#1E1E1E"/>
<path d="M30.2009 15.4424L36.156 6.84112V5.89697H28.5838H28.3762V7.16829H30.5444V7.16748H34.1767L28.325 15.5966V16.7121H36.2423V15.4424H30.2009Z" fill="#1E1E1E"/>
<path d="M5.39668 11.4675H2.68243V0.407227H13.598V3.11465H5.39668V11.4675Z" fill="#1E1E1E"/>
<path d="M11.0156 22.3557H0.100037V11.2954H2.8151V19.6482H11.0156V22.3557Z" fill="#1E1E1E"/>
<path d="M24.2605 14.0515H21.5463V5.69864H13.3449V2.99121H24.2605V14.0515Z" fill="#1E1E1E"/>
<path d="M21.7871 24.8855H10.8716V22.178H19.0721V13.8252H21.7871V24.8855Z" fill="#1E1E1E"/>
<path d="M8.5065 12.0085H7.03665V6.01807H12.9486V7.48422H8.5065V12.0085Z" fill="#1E1E1E"/>
<path d="M11.5496 17.9047H5.63843V11.915H7.10827V16.4385H11.5496V17.9047Z" fill="#1E1E1E"/>
<path d="M18.723 13.4071H17.2523V8.88363H12.8111V7.41748H18.723V13.4071Z" fill="#1E1E1E"/>
<path d="M17.3833 19.2751H11.4714V17.809H15.9127V13.2847H17.3833V19.2751Z" fill="#1E1E1E"/>
</g>
<defs>
<clipPath id="clip0_16_8">
<rect width="110" height="25" fill="white"/>
</clipPath>
</defs>
</svg>
